<svg width="520" height="581" fill="none" xmlns="http://www.w3.org/2000/svg"><g filter="url('#a')"><path d="M20 187.599a44.738 44.738 0 0 1 22.344-38.737l195.312-112.87a44.652 44.652 0 0 1 44.688 0l195.312 112.87A44.738 44.738 0 0 1 500 187.599v225.74a44.735 44.735 0 0 1-22.344 38.736l-195.312 112.87a44.653 44.653 0 0 1-44.688 0L42.343 452.075A44.736 44.736 0 0 1 20 413.339v-225.74Z" fill="url('#b')"/><path d="M21.5 187.599a43.237 43.237 0 0 1 21.594-37.438l195.313-112.87a43.15 43.15 0 0 1 43.186 0l195.313 112.87a43.237 43.237 0 0 1 21.594 37.438v225.74a43.234 43.234 0 0 1-21.594 37.437l-195.313 112.87a43.15 43.15 0 0 1-43.186 0L43.094 450.776A43.234 43.234 0 0 1 21.5 413.339v-225.74Z" stroke="url('#c')" stroke-width="3"/></g><defs><linearGradient id="b" x1="259.531" y1="30" x2="259.531" y2="571" gradientUnits="userSpaceOnUse"><stop stop-color="#FFFAF4"/><stop offset="1" stop-color="#fff"/></linearGradient><linearGradient id="c" x1="250.5" y1="44" x2="260" y2="571" gradientUnits="userSpaceOnUse"><stop stop-color="#0075FF"/><stop offset=".833" stop-color="#FFFEFC"/></linearGradient><filter id="a" x="0" y="0" width="520" height="580.938" filterUnits="userSpaceOnUse" color-interpolation-filters="sRGB"><feFlood flood-opacity="0" result="BackgroundImageFix"/><feColorMatrix in="SourceAlpha" values="0 0 0 0 0 0 0 0 0 0 0 0 0 0 0 0 0 0 127 0" result="hardAlpha"/><feOffset dy="-10"/><feGaussianBlur stdDeviation="10"/><feComposite in2="hardAlpha" operator="out"/><feColorMatrix values="0 0 0 0 0 0 0 0 0 0.458824 0 0 0 0 1 0 0 0 0.22 0"/><feBlend in2="BackgroundImageFix" result="effect1_dropShadow_480_2025"/><feBlend in="SourceGraphic" in2="effect1_dropShadow_480_2025" result="shape"/></filter></defs></svg>