<svg width="100" height="100" fill="none" xmlns="http://www.w3.org/2000/svg"><path d="M89.558 22.366H10.442a3.138 3.138 0 0 0-3.137 3.138v53.24h85.39v-53.24a3.138 3.138 0 0 0-3.137-3.138Z" fill="url('#a')"/><path d="M86.42 25.384H13.58a3.155 3.155 0 0 0-3.155 3.155v44.033a3.155 3.155 0 0 0 3.155 3.155h72.84a3.155 3.155 0 0 0 3.155-3.155V28.539a3.155 3.155 0 0 0-3.156-3.155Z" fill="url('#b')"/><path d="M34.021 59.721H15.022a1.083 1.083 0 0 1-1.082-1.083v-1.476c0-.598.484-1.083 1.082-1.083h18.999c.598 0 1.083.485 1.083 1.083v1.476c0 .598-.485 1.083-1.083 1.083Z" fill="url('#c')"/><path d="M34.021 65.824H15.022a1.083 1.083 0 0 1-1.082-1.082v-1.477c0-.598.484-1.083 1.082-1.083h18.999c.598 0 1.083.485 1.083 1.083v1.477c0 .597-.485 1.082-1.083 1.082Z" fill="url('#d')"/><path d="M24.374 71.927h-9.352a1.083 1.083 0 0 1-1.082-1.082v-1.477c0-.598.484-1.083 1.082-1.083h9.352c.598 0 1.083.485 1.083 1.083v1.477c0 .598-.485 1.082-1.083 1.082Z" fill="url('#e')"/><path d="M92.127 78.335H7.872c-.838 0-1.618.425-2.072 1.13L.924 87.042a.759.759 0 0 0 .638 1.169h96.876a.76.76 0 0 0 .638-1.17l-4.877-7.576a2.463 2.463 0 0 0-2.072-1.13Z" fill="url('#f')"/><path d="M96.913 94.177H3.087A3.086 3.086 0 0 1 0 91.09v-1.85a3.086 3.086 0 0 1 3.086-3.087h93.827A3.086 3.086 0 0 1 100 89.24v1.851a3.086 3.086 0 0 1-3.087 3.087Z" fill="url('#g')"/><path d="M45.062 84.163h9.876a1.852 1.852 0 1 1 0 3.704h-9.876a1.852 1.852 0 1 1 0-3.704Z" fill="url('#h')"/><path d="m90.036 81.96-2.039-3.625H12.004l-2.04 3.625a1.018 1.018 0 0 0 .888 1.517h78.297c.779 0 1.27-.838.887-1.517Z" fill="url('#i')"/><path d="M69.193 22.366H31.141a19.539 19.539 0 0 0-.258 3.162c0 5.781 2.529 10.97 6.538 14.526l7.079 7.12v3.308h-5.09c-2.222 0-3.552 2.471-2.328 4.325l10.884 16.49c.322.489.762.83 1.247 1.033l6.357 6.415h37.125V45.869L69.193 22.366Z" fill="url('#j')"/><path d="M47.672 71.003 36.79 54.513c-1.224-1.854.106-4.325 2.328-4.325h5.088V36.86a2.685 2.685 0 0 1 2.685-2.685h6.22a2.685 2.685 0 0 1 2.685 2.685v13.327h5.089c2.221 0 3.551 2.47 2.327 4.325l-10.883 16.49c-1.103 1.67-3.553 1.67-4.656 0Z" fill="url('#k')"/><path d="M50 44.646c10.72 0 19.411-8.69 19.411-19.412 0-10.72-8.69-19.411-19.411-19.411-10.721 0-19.412 8.69-19.412 19.412 0 10.72 8.69 19.411 19.412 19.411Z" fill="url('#l')"/><path d="M50 40.333c8.338 0 15.097-6.76 15.097-15.098 0-8.339-6.76-15.098-15.098-15.098-8.338 0-15.098 6.76-15.098 15.098 0 8.338 6.76 15.098 15.098 15.098Z" fill="url('#m')"/><path d="m68.943 29.485-12.69-12.691c-.653-.98-2.4-1.381-3.818-1.526-.102-.133-1.062-1.052-1.119-1.123-.193-.238-.563-.413-.934-.413-.621 0-1.074.367-1.074.763v.791c-2.996.424-5.653 2.148-5.653 5.738 0 1.714.686 2.889 1.684 3.756 0 0 3.936 3.944 3.97 3.98v2.665c-2.092-.367-3.053-2.035-4.24-2.035-1.075 0-1.922 1.413-1.922 2.374 0 .703.42 1.397 1.13 1.99l10.338 10.339c7.134-1.74 12.723-7.422 14.328-14.608Z" fill="url('#n')"/><path d="M51.37 22.973v-4.126c1.838.141 2.375 1.045 3.308 1.045 1.243 0 1.752-1.554 1.752-2.317 0-1.95-3.307-2.403-5.06-2.46v-.706c0-.396-.536-.763-1.074-.763-.621 0-1.074.367-1.074.763v.792c-2.996.423-5.653 2.148-5.653 5.737 0 3.618 3.053 4.833 5.653 5.823v4.579c-2.091-.368-3.052-2.035-4.24-2.035-1.074 0-1.922 1.413-1.922 2.374 0 1.809 2.77 3.561 6.162 3.674v.707c0 .395.453.763 1.074.763.538 0 1.075-.368 1.075-.763v-.82c3.306-.537 5.568-2.657 5.568-6.162 0-3.815-2.996-5.144-5.568-6.105Zm-1.865-.678c-1.074-.452-1.809-.961-1.809-1.78 0-.68.537-1.33 1.81-1.584v3.364Zm1.583 9.016v-3.787c1.018.48 1.724 1.074 1.724 2.007 0 1.017-.763 1.554-1.724 1.78Z" fill="url('#o')"/><defs><linearGradient id="a" x1="30.527" y1="27.497" x2="47.265" y2="72.962" gradientUnits="userSpaceOnUse"><stop stop-color="#3CB0FF"/><stop offset="1" stop-color="#0073FC"/></linearGradient><linearGradient id="b" x1="40.312" y1="41.158" x2="51.836" y2="68.789" gradientUnits="userSpaceOnUse"><stop stop-color="#FCF9F7"/><stop offset="1" stop-color="#FCEADD"/></linearGradient><linearGradient id="c" x1="24.522" y1="56.079" x2="24.522" y2="60.507" gradientUnits="userSpaceOnUse"><stop stop-color="#FFE03E"/><stop offset="1" stop-color="#FF6B00"/></linearGradient><linearGradient id="d" x1="24.522" y1="62.182" x2="24.522" y2="66.61" gradientUnits="userSpaceOnUse"><stop stop-color="#FFE03E"/><stop offset="1" stop-color="#FF6B00"/></linearGradient><linearGradient id="e" x1="19.698" y1="68.285" x2="19.698" y2="72.713" gradientUnits="userSpaceOnUse"><stop stop-color="#FFE03E"/><stop offset="1" stop-color="#FF6B00"/></linearGradient><linearGradient id="f" x1="27.561" y1="79.233" x2="28.066" y2="88.249" gradientUnits="userSpaceOnUse"><stop stop-color="#3CB0FF"/><stop offset="1" stop-color="#0073FC"/></linearGradient><linearGradient id="g" x1="27.196" y1="86.882" x2="27.524" y2="94.216" gradientUnits="userSpaceOnUse"><stop stop-color="#289CEB"/><stop offset="1" stop-color="#005FE8"/></linearGradient><linearGradient id="h" x1="50" y1="85.237" x2="50" y2="88.7" gradientUnits="userSpaceOnUse"><stop stop-color="#184C89" stop-opacity=".48"/><stop offset=".347" stop-color="#244862" stop-opacity=".68"/><stop offset="1" stop-color="#082C56"/></linearGradient><linearGradient id="i" x1="50" y1="79.825" x2="50" y2="84.634" gradientUnits="userSpaceOnUse"><stop stop-color="#185A89" stop-opacity=".48"/><stop offset=".347" stop-color="#243562" stop-opacity=".68"/><stop offset="1" stop-color="#082756"/></linearGradient><linearGradient id="j" x1="77.475" y1="58.069" x2="31.396" y2="35.128" gradientUnits="userSpaceOnUse"><stop stop-color="#3E5959" stop-opacity="0"/><stop offset="1" stop-color="#384949" stop-opacity=".42"/></linearGradient><linearGradient id="k" x1="50.001" y1="37.746" x2="50.001" y2="71.99" gradientUnits="userSpaceOnUse"><stop stop-color="#80FF00"/><stop offset="1" stop-color="#62C400"/></linearGradient><linearGradient id="l" x1="18" y1="7.5" x2="84" y2="38" gradientUnits="userSpaceOnUse"><stop stop-color="#FFF50D"/><stop offset=".238" stop-color="#FAFF0E"/><stop offset=".535" stop-color="#FFE711"/><stop offset=".863" stop-color="#FFBD15"/><stop offset="1" stop-color="#FFCC17"/></linearGradient><linearGradient id="m" x1="91.308" y1="25.234" x2="59.497" y2="25.234" gradientUnits="userSpaceOnUse"><stop stop-color="#FFE607"/><stop offset=".238" stop-color="#FAFF0E"/><stop offset=".535" stop-color="#FFE600"/><stop offset=".863" stop-color="#FFBB0C"/><stop offset="1" stop-color="#FEC809"/></linearGradient><linearGradient id="n" x1="63.449" y1="37.117" x2="48.233" y2="24.658" gradientUnits="userSpaceOnUse"><stop stop-color="#F99014" stop-opacity="0"/><stop offset="1" stop-color="#C17127" stop-opacity=".36"/></linearGradient><linearGradient id="o" x1="50" y1="13.646" x2="50.001" y2="41.822" gradientUnits="userSpaceOnUse"><stop stop-color="#FFEA79"/><stop offset="1" stop-color="#FFC46B"/></linearGradient></defs></svg>