<svg width="312" height="312" fill="none" xmlns="http://www.w3.org/2000/svg"><g clip-path="url('#a')"><path d="m150.948 48.637-14.598 2.097a78.18 78.18 0 0 0-1.866.35c-16.7 3.345-31.588 12.666-42.42 25.808-9.058 10.991-12.363 15.709-18.304 35.59-1.036 3.467 1.086 6.21 4.702 6.092l.99-.033a248.003 248.003 0 0 1 43.467-13.97c8.541-1.898 16.959 3.668 18.604 12.263 1.496 7.822-3.17 15.491-10.794 17.797a100.068 100.068 0 0 0-35.734 19.44c-2 1.696-3.81 3.606-5.462 5.642-5.206 6.417-17.909 21.853-23.05 26.136l-.142.118c-13.475 11.193-32.718 12.156-47.278 2.414l-.867-.58c-18.81-12.581-23.857-38.038-11.27-56.85L28.66 98.468l13.856-20.295c21.968-31.635 55.562-53.296 93.365-60.2l9.464-1.384c8.836-1.615 17.275 4.248 18.855 13.098 1.586 8.88-4.367 17.389-13.253 18.95Z" fill="url('#b')"/><path d="M141.523 116.834c1.496 7.822-3.17 15.491-10.793 17.797a100.04 100.04 0 0 0-38.916 22.255 53.93 53.93 0 0 1-.505.461c-19.043 17.227-46.964-7.031-32.579-28.301a9.597 9.597 0 0 1 4.184-3.451l16.539-7.054a247.895 247.895 0 0 1 43.466-13.97c8.542-1.899 16.96 3.668 18.604 12.263Z" fill="url('#c')"/><path d="M291.934 109.68c-4.398 24.678-19.821 48.39-45.839 70.487-19.999 16.983-41.203 28.637-52.061 34.069a26.082 26.082 0 0 1-11.624 2.747c-4.013 0-8.039-.948-11.63-2.747-10.858-5.432-32.056-17.086-52.061-34.069-9.684-8.228-17.906-16.677-24.63-25.321a100.087 100.087 0 0 1 36.639-20.219c7.623-2.3 12.291-9.971 10.798-17.796-1.646-8.595-10.064-14.162-18.604-12.26a247.885 247.885 0 0 0-43.466 13.967l-3.995 1.701a87.722 87.722 0 0 1-2.575-10.565c-3.414-19.167 1.462-38.737 13.38-53.695C97.3 42.135 112.937 34.04 130.3 33.197a64.604 64.604 0 0 1 3.077-.074c16.261 0 31.622 6.265 43.234 17.65a62.738 62.738 0 0 1 5.799 6.527 62.677 62.677 0 0 1 5.793-6.527c11.618-11.385 26.973-17.65 43.24-17.65 1.016 0 2.049.025 3.071.074 17.362.844 33.005 8.938 44.041 22.788 11.917 14.952 16.793 34.522 13.379 53.695Z" fill="url('#d')"/><path d="M291.221 113.208c.26-1.174.503-2.349.714-3.528 3.413-19.173-1.462-38.743-13.38-53.695a62.438 62.438 0 0 0-10.672-10.54h-44.425l67.763 67.763Z" fill="url('#e')"/><path d="M138.75 110.498a15.492 15.492 0 0 1 2.776 6.333c1.493 7.825-3.175 15.496-10.798 17.796a100.084 100.084 0 0 0-36.638 20.219c6.723 8.644 14.945 17.093 24.629 25.321 20.005 16.983 41.203 28.637 52.062 34.069a26.103 26.103 0 0 0 11.629 2.747c4.014 0 8.033-.948 11.624-2.747 6.958-3.481 18.166-9.52 30.58-17.875l-85.864-85.863Z" fill="url('#f')"/><path d="M123.62 137.076a100.055 100.055 0 0 0-29.53 17.77c6.723 8.644 14.945 17.093 24.629 25.321 20.005 16.983 41.203 28.637 52.062 34.069a26.103 26.103 0 0 0 11.629 2.747c4.014 0 8.033-.948 11.624-2.747 10.859-5.432 32.062-17.086 52.061-34.069 16.234-13.787 28.342-28.203 36.222-43.091H123.62Z" fill="url('#g')"/><path d="M177.228 51.4c-.206-.209-.408-.422-.617-.627-11.612-11.385-26.973-17.65-43.234-17.65-1.022 0-2.055.025-3.077.074-17.362.844-32.999 8.938-44.035 22.782-11.917 14.958-16.793 34.528-13.38 53.695a87.722 87.722 0 0 0 2.576 10.565l3.995-1.701a247.885 247.885 0 0 1 43.466-13.967 15.4 15.4 0 0 1 10.72 1.498L182.41 57.3l-5.182-5.9Z" fill="url('#h')"/><path d="M146.865 244.185c2.764-7.405 11.046-11.169 18.443-8.385l30.127 11.329a69.612 69.612 0 0 0 26.103 4.426l-7.359 27.838a127.034 127.034 0 0 1-32.996-7.359l-25.939-9.572c-7.386-2.722-11.135-10.903-8.379-18.277Z" fill="url('#i')"/><path d="M128.348 241.704c3.196-7.06 11.536-10.169 18.576-6.926l28.669 13.196a68.208 68.208 0 0 0 35.397 5.899l11.142 28.105a124.533 124.533 0 0 1-62.127-10.606L135.31 260.19c-7.032-3.182-10.148-11.457-6.962-18.486Z" fill="url('#j')"/><path d="M115.497 242.247c3.715-6.976 12.42-9.617 19.387-5.882l28.372 15.197c11.043 5.918 23.38 8.683 35.706 8.2l9.536 29.26a127.343 127.343 0 0 1-62.65-14.648l-24.452-12.904c-6.963-3.672-9.602-12.276-5.899-19.223Z" fill="url('#k')"/><path d="m118.936 237.577 11.806 8.84c.518.364 1.041.721 1.566 1.071 14.174 9.443 31.292 13.379 48.244 11.746 14.177-1.366 19.851-2.365 38.109-12.223 3.184-1.719 3.623-5.158.982-7.631l-.723-.678a247.973 247.973 0 0 1-40.614-20.857c-7.382-4.697-9.398-14.586-4.484-21.826 4.473-6.589 13.195-8.712 20.217-4.952a100.059 100.059 0 0 0 39.014 11.52c2.614.216 5.243.145 7.852-.127 8.218-.856 28.116-2.788 34.779-2.182l.185.017c17.443 1.615 31.731 14.539 35.138 31.724l.202 1.023c4.405 22.198-10.027 43.767-32.229 48.168l-38.338 7.6-24.149 4.553c-37.903 6.836-76.974-1.602-108.586-23.451l-7.672-5.714c-7.39-5.106-9.212-15.219-4.07-22.593 5.159-7.4 15.385-9.208 22.771-4.028Z" fill="url('#l')"/><path d="M173.822 196.018c4.473-6.589 13.195-8.713 20.216-4.952a100.077 100.077 0 0 0 43.254 11.781c.228.009.456.019.683.03 25.647 1.284 28.237 38.18 3.024 43.049a9.587 9.587 0 0 1-5.398-.519l-16.683-6.706a247.926 247.926 0 0 1-40.613-20.857c-7.382-4.697-9.398-14.586-4.483-21.826Z" fill="url('#m')"/><path d="M264.729 84.887c-8.836-17.4-23.425-31.386-41.27-39.442-1.977-.892-1.977-3.722 0-4.614 17.845-8.056 32.434-22.042 41.27-39.442.94-1.853 3.58-1.853 4.52 0 8.836 17.4 23.426 31.386 41.27 39.442 1.977.892 1.977 3.721 0 4.614-17.844 8.056-32.434 22.041-41.27 39.442-.94 1.852-3.579 1.852-4.52 0Z" fill="url('#n')"/><path d="M40.854 310.672c-8.443-16.627-22.385-29.992-39.437-37.69-1.89-.853-1.89-3.556 0-4.409 17.052-7.699 30.994-21.063 39.437-37.691.899-1.77 3.42-1.77 4.32 0 8.444 16.628 22.385 29.993 39.437 37.691 1.89.852 1.89 3.556 0 4.409-17.052 7.699-30.994 21.063-39.437 37.69-.9 1.77-3.421 1.77-4.32 0Z" fill="url('#o')"/><path d="M82.463 237.642a58.91 58.91 0 0 0-28.229-26.979c-1.352-.611-1.352-2.546 0-3.156a58.908 58.908 0 0 0 28.23-26.979c.643-1.267 2.448-1.267 3.091 0a58.91 58.91 0 0 0 28.23 26.979c1.352.61 1.352 2.545 0 3.156a58.908 58.908 0 0 0-28.23 26.979c-.643 1.267-2.448 1.267-3.092 0Z" fill="url('#p')"/></g><defs><linearGradient id="b" x1="46.245" y1="62.283" x2="107.015" y2="123.053" gradientUnits="userSpaceOnUse"><stop stop-color="#FFEEE6"/><stop offset="1" stop-color="#FFB09E"/></linearGradient><linearGradient id="c" x1="99.47" y1="132.839" x2="119.454" y2="152.823" gradientUnits="userSpaceOnUse"><stop stop-color="#F89580" stop-opacity="0"/><stop offset=".997" stop-color="#C5715A"/></linearGradient><linearGradient id="d" x1="131.972" y1="49.856" x2="196.208" y2="188.447" gradientUnits="userSpaceOnUse"><stop stop-color="#3CB0FF"/><stop offset="1" stop-color="#0073FC"/></linearGradient><linearGradient id="e" x1="256.717" y1="109.45" x2="259.775" y2="34.203" gradientUnits="userSpaceOnUse"><stop stop-color="#245997" stop-opacity="0"/><stop offset="1" stop-color="#0B2842"/></linearGradient><linearGradient id="f" x1="174.2" y1="191.269" x2="78.295" y2="95.364" gradientUnits="userSpaceOnUse"><stop stop-color="#244B97" stop-opacity="0"/><stop offset="1" stop-color="#0B2B42"/></linearGradient><linearGradient id="g" x1="188.204" y1="151.759" x2="188.204" y2="223.15" gradientUnits="userSpaceOnUse"><stop stop-color="#245997" stop-opacity="0"/><stop offset="1" stop-color="#0B2842"/></linearGradient><linearGradient id="h" x1="137.026" y1="53.663" x2="202.225" y2="-11.535" gradientUnits="userSpaceOnUse"><stop stop-color="#246E97" stop-opacity="0"/><stop offset="1" stop-color="#0B2B42"/></linearGradient><linearGradient id="i" x1="185.605" y1="235.514" x2="182.891" y2="248.873" gradientUnits="userSpaceOnUse"><stop stop-color="#F1B0A2"/><stop offset="1" stop-color="#CA6E59"/></linearGradient><linearGradient id="j" x1="181.87" y1="237.818" x2="178.074" y2="254.201" gradientUnits="userSpaceOnUse"><stop stop-color="#F1B0A2"/><stop offset="1" stop-color="#CA6E59"/></linearGradient><linearGradient id="k" x1="169.591" y1="247.778" x2="164.615" y2="259.556" gradientUnits="userSpaceOnUse"><stop stop-color="#F1B0A2"/><stop offset="1" stop-color="#CA6E59"/></linearGradient><linearGradient id="l" x1="199.101" y1="194.246" x2="205.712" y2="289.571" gradientUnits="userSpaceOnUse"><stop stop-color="#F1B0A2"/><stop offset="1" stop-color="#CA6E59"/></linearGradient><linearGradient id="m" x1="214.219" y1="216.983" x2="195.127" y2="248.071" gradientUnits="userSpaceOnUse"><stop stop-color="#CA6E59" stop-opacity="0"/><stop offset=".555" stop-color="#A75542" stop-opacity=".555"/><stop offset="1" stop-color="#883F2E"/></linearGradient><linearGradient id="n" x1="266.989" y1="0" x2="266.989" y2="86.276" gradientUnits="userSpaceOnUse"><stop stop-color="#FFE03E"/><stop offset="1" stop-color="#FF6B00"/></linearGradient><linearGradient id="o" x1="43.014" y1="229.555" x2="43.014" y2="312" gradientUnits="userSpaceOnUse"><stop stop-color="#FFE03E"/><stop offset="1" stop-color="#FF6B00"/></linearGradient><linearGradient id="p" x1="84.009" y1="179.578" x2="84.009" y2="238.592" gradientUnits="userSpaceOnUse"><stop stop-color="#FFE03E"/><stop offset="1" stop-color="#FF6B00"/></linearGradient><clipPath id="a"><path fill="#fff" d="M0 0h312v312H0z"/></clipPath></defs></svg>