<svg width="617" height="552" fill="none" xmlns="http://www.w3.org/2000/svg"><g filter="url('#a')"><path d="M428.895 30a47.717 47.717 0 0 1 41.318 23.833l120.395 208.334a47.626 47.626 0 0 1 0 47.666L470.213 518.167A47.718 47.718 0 0 1 428.894 542H188.105a47.717 47.717 0 0 1-41.318-23.833L26.392 309.833a47.627 47.627 0 0 1 0-47.666L146.787 53.833A47.718 47.718 0 0 1 188.106 30h240.789Z" fill="url('#b')"/><path d="m468.915 54.584 120.394 208.333a46.126 46.126 0 0 1 0 46.166L468.915 517.416a46.22 46.22 0 0 1-40.021 23.084H188.105a46.22 46.22 0 0 1-40.02-23.084L27.691 309.083a46.129 46.129 0 0 1 0-46.166L148.085 54.584A46.22 46.22 0 0 1 188.106 31.5h240.789a46.22 46.22 0 0 1 40.02 23.084Z" stroke="url('#c')" stroke-width="3"/></g><defs><linearGradient id="b" x1="597" y1="285.5" x2="19.933" y2="285.5" gradientUnits="userSpaceOnUse"><stop stop-color="#FFFAF4"/><stop offset="1" stop-color="#fff"/></linearGradient><linearGradient id="c" x1="582.067" y1="275.867" x2="19.933" y2="286" gradientUnits="userSpaceOnUse"><stop offset=".167" stop-color="#FFFFFC"/><stop offset="1" stop-color="#FF8A00"/></linearGradient><filter id="a" x="0" y="0" width="617" height="552" filterUnits="userSpaceOnUse" color-interpolation-filters="sRGB"><feFlood flood-opacity="0" result="BackgroundImageFix"/><feColorMatrix in="SourceAlpha" values="0 0 0 0 0 0 0 0 0 0 0 0 0 0 0 0 0 0 127 0" result="hardAlpha"/><feOffset dy="-10"/><feGaussianBlur stdDeviation="10"/><feComposite in2="hardAlpha" operator="out"/><feColorMatrix values="0 0 0 0 1 0 0 0 0 0.541176 0 0 0 0 0 0 0 0 0.22 0"/><feBlend in2="BackgroundImageFix" result="effect1_dropShadow_39_1451"/><feBlend in="SourceGraphic" in2="effect1_dropShadow_39_1451" result="shape"/></filter></defs></svg>