<svg width="100" height="100" fill="none" xmlns="http://www.w3.org/2000/svg"><path d="M49.933 20.694h-3.998l4.817-12.31h3.998l-4.817 12.31Z" fill="url('#a')"/><path d="M49.933 20.694h-3.998l4.817-12.31h3.998l-4.817 12.31Z" fill="url('#b')"/><path d="M62.633 24.703h-26.07v-3.982a8.34 8.34 0 0 1 8.34-8.34h9.39a8.34 8.34 0 0 1 8.34 8.34v3.982Z" fill="url('#c')"/><path d="M54.293 12.382H47.98v12.321h14.653v-3.982a8.34 8.34 0 0 0-8.34-8.34Z" fill="url('#d')"/><path d="M62.633 41.679h-26.07v3.982a8.34 8.34 0 0 0 8.34 8.34h9.39a8.34 8.34 0 0 0 8.34-8.34v-3.982Z" fill="url('#e')"/><path d="M62.633 41.679h-26.07v3.982a8.34 8.34 0 0 0 8.34 8.34h9.39a8.34 8.34 0 0 0 8.34-8.34v-3.982Z" fill="url('#f')"/><path d="M62.633 41.679v3.982a8.34 8.34 0 0 1-8.34 8.34H48.5V41.678h14.134Z" fill="url('#g')"/><path d="M60.309 30.964h-21.42a6.182 6.182 0 0 1 0-12.363h21.42a6.182 6.182 0 1 1 0 12.363Z" fill="url('#h')"/><path d="M60.309 18.6H48.707v12.363h11.602a6.182 6.182 0 1 0 0-12.363Z" fill="url('#i')"/><path d="M60.309 35.418h-21.42a6.182 6.182 0 0 0 0 12.363h21.42a6.182 6.182 0 1 0 0-12.363Z" fill="url('#j')"/><path d="M60.309 35.418h-21.42a6.182 6.182 0 0 0 0 12.363h21.42a6.182 6.182 0 1 0 0-12.363Z" fill="url('#k')"/><path d="M60.309 35.418h-9.42v12.363h9.42a6.182 6.182 0 1 0 0-12.363Z" fill="url('#l')"/><path d="M65.036 39.373H34.16a6.182 6.182 0 1 1 0-12.363h30.876a6.182 6.182 0 0 1 0 12.363Z" fill="url('#m')"/><path d="M65.036 27.01h-14.46v12.363h14.46a6.182 6.182 0 1 0 0-12.363Z" fill="url('#n')"/><path d="M51.877 48.56a7.426 7.426 0 1 0 0-14.852 7.426 7.426 0 0 0 0 14.852Z" fill="url('#o')"/><path d="M51.876 47.075a5.941 5.941 0 1 0 0-11.882 5.941 5.941 0 0 0 0 11.882Z" fill="url('#p')"/><path d="M51.876 47.075a5.941 5.941 0 1 0 0-11.882 5.941 5.941 0 0 0 0 11.882Z" fill="url('#q')"/><path d="M51.876 47.075a5.941 5.941 0 1 0 0-11.882 5.941 5.941 0 0 0 0 11.882Z" fill="url('#r')"/><path d="M45.935 41.134a5.941 5.941 0 1 0 11.528-2.023H46.289a5.93 5.93 0 0 0-.354 2.023Z" fill="url('#s')"/><path d="M71.218 9.84H44.703a25.21 25.21 0 0 1-10.82-2.457l-3.365-1.611a1.457 1.457 0 1 1 1.258-2.629l3.366 1.612a22.276 22.276 0 0 0 9.561 2.17h26.515a1.457 1.457 0 1 1 0 2.915Z" fill="url('#t')"/><path d="M71.218 6.926H57.363V9.84h13.855a1.457 1.457 0 1 0 0-2.914Z" fill="url('#u')"/><path d="m32.7 75.57-.218-2.532-6.86-4.892-2.465.62a6.74 6.74 0 0 0-4.867 4.789l-1.008 3.75a6.061 6.061 0 0 0 .334 4.08c.214.472.306.991.287 1.51l-.059 1.627a1.244 1.244 0 0 0 1.69 1.205l1.52-.586a3.36 3.36 0 0 1 1.52-.22 6.061 6.061 0 0 0 3.965-1.014l3.219-2.175a6.742 6.742 0 0 0 2.941-6.162Z" fill="url('#v')"/><path d="m32.7 75.57-.218-2.532-6.86-4.892-2.465.62a6.74 6.74 0 0 0-4.867 4.789l-1.008 3.75a6.061 6.061 0 0 0 .334 4.08c.214.472.306.991.287 1.51l-.059 1.627a1.244 1.244 0 0 0 1.69 1.205l1.52-.586a3.36 3.36 0 0 1 1.52-.22 6.061 6.061 0 0 0 3.965-1.014l3.219-2.175a6.742 6.742 0 0 0 2.941-6.162Z" fill="url('#w')"/><path d="m17.388 76.913-.106.393a6.061 6.061 0 0 0 .334 4.08c.214.472.305.99.287 1.509l-.059 1.627a1.244 1.244 0 0 0 1.69 1.206l1.52-.586a3.36 3.36 0 0 1 1.52-.221 6.062 6.062 0 0 0 3.966-1.014l.337-.227-9.49-6.767Z" fill="url('#x')"/><path d="M31.59 79.89c-4.235-1.573-9.289-5.177-12.156-8.668a6.739 6.739 0 0 1 2.493-2.016c2.734 3.05 6.982 6.08 10.757 7.67a6.739 6.739 0 0 1-1.095 3.014Z" fill="url('#y')"/><path d="m29.407 81.969-2.868 1.939c-.1.067-.203.132-.306.193-3.18-1.514-6.568-3.93-9.035-6.442.024-.118.052-.236.083-.353l.899-3.344c2.788 3.198 7.295 6.413 11.227 8.007Z" fill="url('#z')"/><path d="M19.619 83.82a6.058 6.058 0 0 1-2.003-2.434c.214.472.305.99.287 1.509l-.06 1.627a1.244 1.244 0 0 0 1.691 1.205l1.52-.586a3.361 3.361 0 0 1 1.519-.22 6.059 6.059 0 0 1-2.954-1.1Z" fill="url('#A')"/><path d="M31.59 79.89c-4.235-1.573-9.289-5.177-12.156-8.668a6.739 6.739 0 0 1 2.493-2.016c2.734 3.05 6.982 6.08 10.757 7.67a6.739 6.739 0 0 1-1.095 3.014Z" fill="url('#B')"/><path d="M31.59 79.89c-4.235-1.573-9.289-5.177-12.156-8.668a6.739 6.739 0 0 1 2.493-2.016c2.734 3.05 6.982 6.08 10.757 7.67a6.739 6.739 0 0 1-1.095 3.014Z" fill="url('#C')"/><path d="m29.407 81.969-2.868 1.939c-.1.067-.203.132-.306.193-3.18-1.514-6.568-3.93-9.035-6.442.024-.118.052-.236.083-.353l.899-3.344c2.788 3.198 7.295 6.413 11.227 8.007Z" fill="url('#D')"/><path d="M19.619 83.82a6.058 6.058 0 0 1-2.003-2.434c.214.472.305.99.287 1.509l-.06 1.627a1.244 1.244 0 0 0 1.691 1.205l1.52-.586a3.361 3.361 0 0 1 1.519-.22 6.059 6.059 0 0 1-2.954-1.1Z" fill="url('#E')"/><path d="m28.178 70.509-5.835-.215a8.29 8.29 0 0 1-7.87-6.915 3.946 3.946 0 0 1 3.24-4.544 6.72 6.72 0 0 1 6.874 3.175l3.685 6.153a2.143 2.143 0 0 1-.094 2.346Z" fill="url('#F')"/><path d="m21.423 64.737-6.164 1.032a8.282 8.282 0 0 1-.787-2.39 3.946 3.946 0 0 1 3.24-4.544 6.708 6.708 0 0 1 2.74.108l.971 5.794Z" fill="url('#G')"/><path d="M17.713 58.835a6.72 6.72 0 0 1 6.874 3.174l3.685 6.153a2.144 2.144 0 0 1-.094 2.346l-6.755-5.771-5.74-4.905a3.927 3.927 0 0 1 2.03-.997Z" fill="url('#H')"/><path d="m28.177 70.508-5.835-.215a8.29 8.29 0 0 1-7.87-6.915 3.946 3.946 0 0 1 3.24-4.543 6.72 6.72 0 0 1 6.874 3.175l3.685 6.153a2.143 2.143 0 0 1-.094 2.345Z" fill="url('#I')"/><path d="M26.777 72.183 11.692 75.34c-3.905.817-7.131-3.069-5.61-6.757 1.984-4.81 7.685-6.86 12.277-4.413l8.885 4.732c1.455.775 1.146 2.944-.467 3.281Z" fill="url('#J')"/><path d="m20.951 73.403-9.196 1.924-.063.013c-3.517.737-6.478-2.343-5.922-5.657l5.511.203 4.307.159 3.708.136 4.939.182-3.284 3.04Z" fill="url('#K')"/><path d="M27.244 68.903c.657.35.953.984.933 1.605l-22.41-.825a5.09 5.09 0 0 1 .315-1.1c1.984-4.81 7.685-6.86 12.277-4.413l8.885 4.733Z" fill="url('#L')"/><path d="m15.587 70.044-4.306-.158-5.505-.203c-.004-.012-.007-.014-.01 0h.01c-.01 0-.015-.184.305-1.1a8.79 8.79 0 0 1 6.79-5.341l6.424 6.94-3.708-.138Z" fill="url('#M')"/><path d="m11.281 69.886-5.514-.203v-.004c.06-.364.164-.73.315-1.096a8.786 8.786 0 0 1 1.621-2.562l3.578 3.865Z" fill="url('#N')"/><path d="M9.826 75.379c-2.623-.446-4.512-2.993-4.058-5.696l5.513.203 4.307.159-5.762 5.334Z" fill="url('#O')"/><path d="m29.416 71.391 2.104 5.446a8.29 8.29 0 0 0 9.102 5.188 3.946 3.946 0 0 0 3.24-4.543 6.72 6.72 0 0 0-5.241-5.465l-7.018-1.479a2.143 2.143 0 0 0-2.187.853Z" fill="url('#P')"/><path d="m37.073 75.897 1.032 6.163a8.281 8.281 0 0 0 2.517-.034 3.946 3.946 0 0 0 3.24-4.544 6.708 6.708 0 0 0-.996-2.556l-5.793.97Z" fill="url('#Q')"/><path d="M43.862 77.482a6.72 6.72 0 0 0-5.241-5.465l-7.018-1.479a2.144 2.144 0 0 0-2.188.853l7.658 4.505 6.508 3.829c.3-.68.413-1.454.281-2.243Z" fill="url('#R')"/><path d="m29.416 71.391 2.104 5.447a8.29 8.29 0 0 0 9.102 5.188 3.946 3.946 0 0 0 3.24-4.544 6.72 6.72 0 0 0-5.241-5.465l-7.018-1.478a2.143 2.143 0 0 0-2.187.852Z" fill="url('#S')"/><path d="m28.288 73.26 1.93 15.291c.5 3.958 5.226 5.742 8.217 3.102 3.901-3.443 3.98-9.5.172-13.045l-7.37-6.858c-1.206-1.123-3.156-.124-2.95 1.51Z" fill="url('#T')"/><path d="m29.033 79.165 1.177 9.322.008.064c.45 3.565 4.327 5.36 7.278 3.755l-1.987-5.144-1.553-4.02-1.338-3.46-1.781-4.611-1.804 4.094Z" fill="url('#U')"/><path d="M31.237 71.75a1.725 1.725 0 0 0-1.822-.359l8.083 20.918c.325-.177.64-.394.936-.656 3.902-3.443 3.982-9.5.172-13.045l-7.369-6.858Z" fill="url('#V')"/><path d="m33.956 83.142 1.553 4.02 1.985 5.138c.013 0 .016.002.004.01l-.004-.01c.004.01.18-.045.94-.647a8.79 8.79 0 0 0 2.839-8.159l-8.655-3.813 1.338 3.461Z" fill="url('#W')"/><path d="m35.509 87.162 1.989 5.147h.003c.324-.177.637-.395.933-.656a8.783 8.783 0 0 0 1.895-2.368l-4.82-2.123Z" fill="url('#X')"/><path d="M30.79 90.328c1.277 2.334 4.3 3.29 6.708 1.98l-1.989-5.146-1.553-4.02-3.166 7.186Z" fill="url('#Y')"/><path d="M30.706 64.4a.591.591 0 0 1-.238-.592 9.782 9.782 0 0 0-.745-5.977.591.591 0 0 1 1.072-.498 10.957 10.957 0 0 1 .835 6.695.591.591 0 0 1-.924.371Z" fill="url('#Z')"/><path d="M28.996 59.044a2.023 2.023 0 1 0 2.35-3.294 2.023 2.023 0 0 0-2.35 3.294Z" fill="url('#aa')"/><path d="M34.368 67.01c.182.13.43.15.636.032a9.782 9.782 0 0 1 5.894-1.243.591.591 0 1 0 .121-1.176 10.957 10.957 0 0 0-6.6 1.392.591.591 0 0 0-.051.995Z" fill="url('#ab')"/><path d="M39.987 66.882a2.023 2.023 0 1 0 2.35-3.295 2.023 2.023 0 0 0-2.35 3.294Z" fill="url('#ac')"/><path d="M37.173 70.515a6.568 6.568 0 0 1-10.695-7.626c2.106-2.954 5.292-2.358 8.246-.251 2.953 2.106 4.555 4.924 2.45 7.877Z" fill="url('#ad')"/><path d="m26.778 72.184-5.469 1.144c-2.77-4.183-2.98-9.735-.22-14.191a6.718 6.718 0 0 1 3.498 2.873l3.685 6.152c.395.661.403 1.476.037 2.139a1.447 1.447 0 0 0-.157.458 1.73 1.73 0 0 1-1.374 1.425Z" fill="url('#ae')"/><path d="M42.477 74.388c-3.313 4.062-8.631 5.672-13.489 4.416l-.7-5.543c-.06-.478.064-.903.301-1.235a1.79 1.79 0 0 1 .588-.523c.146-.081.282-.18.393-.303a2.144 2.144 0 0 1 2.033-.662l7.018 1.479a6.718 6.718 0 0 1 3.856 2.37Z" fill="url('#af')"/><path d="m81.43 58.45-1.922-.746-6.015 3.25-.43 2.017a5.47 5.47 0 0 0 1.75 5.256l2.373 2.074a4.918 4.918 0 0 0 3.091 1.215c.42.012.831.131 1.202.33l1.165.624a1.009 1.009 0 0 0 1.481-.8l.117-1.317a2.71 2.71 0 0 1 .382-1.186c.583-.952.84-2.095.678-3.251l-.434-3.121a5.47 5.47 0 0 0-3.438-4.345Z" fill="url('#ag')"/><path d="m81.43 58.45-1.922-.746-6.015 3.25-.43 2.017a5.47 5.47 0 0 0 1.75 5.256l2.373 2.074a4.918 4.918 0 0 0 3.091 1.215c.42.012.831.131 1.202.33l1.165.624a1.009 1.009 0 0 0 1.481-.8l.117-1.317a2.71 2.71 0 0 1 .382-1.186c.583-.952.84-2.095.678-3.251l-.434-3.121a5.47 5.47 0 0 0-3.438-4.345Z" fill="url('#ah')"/><path d="m76.938 70.084.248.218a4.918 4.918 0 0 0 3.091 1.214c.42.013.831.131 1.202.33l1.165.624a1.009 1.009 0 0 0 1.481-.8l.117-1.316c.037-.42.162-.828.382-1.187a4.91 4.91 0 0 0 .678-3.25l-.045-.328-8.32 4.495Z" fill="url('#ai')"/><path d="M84.18 60.802c-2.66 2.522-7.09 4.916-10.657 5.758a5.467 5.467 0 0 1-.579-2.537c3.199-.901 6.924-2.914 9.431-5.095a5.466 5.466 0 0 1 1.805 1.874Z" fill="url('#aj')"/><path d="m84.915 63.134.388 2.782c.013.098.023.195.03.292h.001c-2.239 1.775-5.21 3.38-7.92 4.28a4.803 4.803 0 0 1-.228-.186l-2.115-1.85c3.326-.888 7.278-3.023 9.844-5.318Z" fill="url('#ak')"/><path d="M82.767 70.927a4.915 4.915 0 0 1-2.489.589c.42.013.83.132 1.201.33l1.165.624a1.009 1.009 0 0 0 1.482-.8l.116-1.316a2.72 2.72 0 0 1 .382-1.186 4.915 4.915 0 0 1-1.857 1.759Z" fill="url('#al')"/><path d="M84.18 60.802c-2.66 2.522-7.09 4.916-10.657 5.758a5.467 5.467 0 0 1-.579-2.537c3.199-.901 6.924-2.914 9.431-5.095a5.466 5.466 0 0 1 1.805 1.874Z" fill="url('#am')"/><path d="M84.18 60.802c-2.66 2.522-7.09 4.916-10.657 5.758a5.467 5.467 0 0 1-.579-2.537c3.199-.901 6.924-2.914 9.431-5.095a5.466 5.466 0 0 1 1.805 1.874Z" fill="url('#an')"/><path d="m84.915 63.134.388 2.782c.013.098.023.195.03.292h.001c-2.239 1.775-5.21 3.38-7.92 4.28a4.803 4.803 0 0 1-.228-.186l-2.115-1.85c3.326-.888 7.278-3.023 9.844-5.318Z" fill="url('#ao')"/><path d="M82.767 70.927a4.915 4.915 0 0 1-2.489.589c.42.013.83.132 1.201.33l1.165.624a1.009 1.009 0 0 0 1.482-.8l.116-1.316a2.72 2.72 0 0 1 .382-1.186 4.915 4.915 0 0 1-1.857 1.759Z" fill="url('#ap')"/><path d="m76.127 59.936-2.241 4.173a6.726 6.726 0 0 1-7.85 3.263 3.202 3.202 0 0 1-2.152-3.983 5.452 5.452 0 0 1 4.769-3.874l5.798-.486a1.74 1.74 0 0 1 1.676.907Z" fill="url('#aq')"/><path d="m69.51 62.794-1.45 4.859a6.72 6.72 0 0 1-2.023-.281 3.202 3.202 0 0 1-2.153-3.984 5.442 5.442 0 0 1 1.058-1.957l4.567 1.363Z" fill="url('#ar')"/><path d="M63.884 63.389a5.452 5.452 0 0 1 4.769-3.874l5.798-.486a1.74 1.74 0 0 1 1.676.906l-6.618 2.859-5.624 2.43a3.187 3.187 0 0 1-.001-1.835Z" fill="url('#as')"/><path d="m76.127 59.936-2.241 4.173a6.726 6.726 0 0 1-7.85 3.263 3.202 3.202 0 0 1-2.152-3.983 5.452 5.452 0 0 1 4.769-3.874l5.798-.486a1.739 1.739 0 0 1 1.676.907Z" fill="url('#at')"/><path d="m76.847 61.554-3.09 12.116c-.8 3.137-4.784 4.099-6.927 1.673-2.795-3.164-2.251-8.049 1.172-10.52l6.622-4.782c1.083-.783 2.553.217 2.223 1.513Z" fill="url('#au')"/><path d="m75.654 66.233-1.885 7.387-.013.05c-.72 2.825-4.021 3.882-6.236 2.293l2.117-3.942 1.654-3.08 1.424-2.653 1.897-3.533 1.042 3.478Z" fill="url('#av')"/><path d="M74.624 60.04a1.4 1.4 0 0 1 1.502-.105l-8.607 16.03a4.125 4.125 0 0 1-.689-.622c-2.795-3.164-2.251-8.049 1.172-10.52l6.622-4.782Z" fill="url('#aw')"/><path d="m71.29 68.94-1.653 3.08-2.115 3.938c-.01-.001-.013 0-.003.007l.003-.007c-.003.007-.14-.054-.692-.615a7.131 7.131 0 0 1-1.465-6.854l7.35-2.2-1.424 2.651Z" fill="url('#ax')"/><path d="m69.637 72.02-2.118 3.945h-.003a4.136 4.136 0 0 1-.686-.622 7.125 7.125 0 0 1-1.287-2.097l4.094-1.225Z" fill="url('#ay')"/><path d="M73.118 75.044c-1.262 1.75-3.792 2.217-5.6.92l2.118-3.943 1.654-3.08 1.828 6.103Z" fill="url('#az')"/><path d="m77.212 59.35 4.72.412a6.726 6.726 0 0 0 7.03-4.777A3.202 3.202 0 0 0 86.812 51a5.452 5.452 0 0 0-5.854 1.866l-3.585 4.584a1.74 1.74 0 0 0-.16 1.898Z" fill="url('#aA')"/><path d="m83.23 55.38 4.86 1.45a6.72 6.72 0 0 0 .873-1.845A3.202 3.202 0 0 0 86.81 51a5.443 5.443 0 0 0-2.217-.187L83.23 55.38Z" fill="url('#aB')"/><path d="M86.81 51.001a5.452 5.452 0 0 0-5.853 1.866l-3.585 4.584a1.74 1.74 0 0 0-.16 1.898l6.018-3.969 5.114-3.372A3.185 3.185 0 0 0 86.811 51Z" fill="url('#aC')"/><path d="m77.212 59.35 4.72.412a6.726 6.726 0 0 0 7.03-4.777 3.202 3.202 0 0 0-2.151-3.983 5.452 5.452 0 0 0-5.854 1.865l-3.585 4.584a1.74 1.74 0 0 0-.16 1.898Z" fill="url('#aD')"/><path d="M78.172 60.839 90 64.895c3.062 1.05 6.05-1.755 5.195-4.877-1.114-4.072-5.498-6.294-9.441-4.786l-7.63 2.918c-1.248.478-1.217 2.255.048 2.689Z" fill="url('#aE')"/><path d="m82.74 62.405 7.21 2.473.05.017c2.758.946 5.451-1.236 5.336-3.96l-4.458-.39-3.483-.305-2.999-.263-3.995-.349 2.339 2.777Z" fill="url('#aF')"/><path d="M78.125 58.15a1.4 1.4 0 0 0-.912 1.2l18.125 1.584a4.123 4.123 0 0 0-.143-.916c-1.114-4.072-5.498-6.294-9.441-4.786l-7.63 2.918Z" fill="url('#aG')"/><path d="m87.395 60.24 3.483.304 4.452.39c.005-.01.008-.01.008 0h-.008c.008 0 .031-.147-.135-.916a7.131 7.131 0 0 0-4.93-4.983l-5.87 4.943 3 .262Z" fill="url('#aH')"/><path d="m90.878 60.545 4.46.39.002-.003a4.117 4.117 0 0 0-.145-.914 7.125 7.125 0 0 0-1.048-2.226l-3.269 2.753Z" fill="url('#aI')"/><path d="M91.5 65.113c2.155-.096 3.932-1.956 3.838-4.178l-4.46-.39-3.483-.305 4.104 4.873Z" fill="url('#aJ')"/><path d="M72.58 55.911a.48.48 0 0 1-.516-.038 7.937 7.937 0 0 0-4.62-1.592.48.48 0 0 1 .02-.96 8.89 8.89 0 0 1 5.175 1.784.48.48 0 0 1-.06.806Z" fill="url('#aK')"/><path d="M68.068 55.244a1.642 1.642 0 1 0-1.56-2.889 1.642 1.642 0 0 0 1.56 2.889Z" fill="url('#aL')"/><path d="M75.79 54.176a.48.48 0 0 0 .251-.452 7.937 7.937 0 0 1 1.2-4.737.48.48 0 0 0-.813-.509 8.89 8.89 0 0 0-1.344 5.306.48.48 0 0 0 .706.392Z" fill="url('#aM')"/><path d="M77.704 50.037a1.641 1.641 0 1 0-1.56-2.889 1.641 1.641 0 0 0 1.56 2.889Z" fill="url('#aN')"/><path d="M79.346 53.385a5.33 5.33 0 0 1-9.377 5.066c-1.399-2.589.174-4.697 2.764-6.096 2.589-1.4 5.214-1.56 6.613 1.03Z" fill="url('#aO')"/><path d="m76.847 61.554-1.12 4.393c-4.037.523-8.157-1.307-10.416-4.91a5.45 5.45 0 0 1 3.342-1.522l5.798-.486a1.74 1.74 0 0 1 1.572.737c.075.109.17.2.277.278.442.318.708.879.547 1.51Z" fill="url('#aP')"/><path d="M84.061 50.905c1.776 3.865 1.048 8.314-1.602 11.404l-4.288-1.47a1.398 1.398 0 0 1-.963-1.276 1.228 1.228 0 0 0-.08-.395 1.74 1.74 0 0 1 .244-1.717l3.584-4.584a5.451 5.451 0 0 1 3.105-1.962Z" fill="url('#aQ')"/><path d="m19.681 36.084.33-1.147-2.187-3.295-1.184-.141a3.164 3.164 0 0 0-2.937 1.282l-1.07 1.476a2.845 2.845 0 0 0-.538 1.844c.014.243-.033.486-.128.71l-.299.703a.584.584 0 0 0 .54.812l.763-.002c.244 0 .486.05.704.158.579.286 1.25.374 1.908.221l1.776-.414a3.164 3.164 0 0 0 2.322-2.207Z" fill="url('#aR')"/><path d="m19.681 36.084.33-1.147-2.187-3.295-1.184-.141a3.164 3.164 0 0 0-2.937 1.282l-1.07 1.476a2.845 2.845 0 0 0-.538 1.844c.014.243-.033.486-.128.71l-.299.703a.584.584 0 0 0 .54.812l.763-.002c.244 0 .486.05.704.158.579.286 1.25.374 1.908.221l1.776-.414a3.164 3.164 0 0 0 2.322-2.207Z" fill="url('#aS')"/><path d="m12.744 34.104-.112.155a2.845 2.845 0 0 0-.538 1.844c.015.243-.032.486-.127.71l-.3.703a.584.584 0 0 0 .54.812l.764-.002c.243 0 .485.05.703.158a2.848 2.848 0 0 0 1.909.221l.186-.043-3.025-4.558Z" fill="url('#aT')"/><path d="M18.471 37.791c-1.592-1.4-3.203-3.827-3.874-5.838.43-.267.92-.428 1.43-.466.688 1.796 2.042 3.836 3.43 5.166a3.163 3.163 0 0 1-.986 1.138Z" fill="url('#aU')"/><path d="m17.166 38.336-1.583.369a2.804 2.804 0 0 1-.167.033 15.832 15.832 0 0 1-2.88-4.339c.031-.047.063-.094.096-.14l.955-1.316c.686 1.87 2.122 4.035 3.579 5.393Z" fill="url('#aV')"/><path d="M12.564 37.506a2.844 2.844 0 0 1-.47-1.403c.015.243-.032.486-.127.71l-.299.703a.584.584 0 0 0 .54.812l.764-.002c.243 0 .485.05.703.158a2.844 2.844 0 0 1-1.11-.978Z" fill="url('#aW')"/><path d="M18.471 37.791c-1.592-1.4-3.203-3.827-3.874-5.838.43-.267.92-.428 1.43-.466.688 1.796 2.042 3.836 3.43 5.166a3.163 3.163 0 0 1-.986 1.138Z" fill="url('#aX')"/><path d="M18.471 37.791c-1.592-1.4-3.203-3.827-3.874-5.838.43-.267.92-.428 1.43-.466.688 1.796 2.042 3.836 3.43 5.166a3.163 3.163 0 0 1-.986 1.138Z" fill="url('#aY')"/><path d="m17.166 38.336-1.583.369a2.804 2.804 0 0 1-.167.033 15.832 15.832 0 0 1-2.88-4.339c.031-.047.063-.094.096-.14l.955-1.316c.686 1.87 2.122 4.035 3.579 5.393Z" fill="url('#aZ')"/><path d="M12.564 37.506a2.844 2.844 0 0 1-.47-1.403c.015.243-.032.486-.127.71l-.299.703a.584.584 0 0 0 .54.812l.764-.002c.243 0 .485.05.703.158a2.844 2.844 0 0 1-1.11-.978Z" fill="url('#ba')"/><path d="m18.552 33.107-2.521-1.073a3.89 3.89 0 0 1-2.29-4.351 1.852 1.852 0 0 1 2.182-1.449 3.154 3.154 0 0 1 2.48 2.545l.584 3.315c.07.394-.101.791-.435 1.013Z" fill="url('#bb')"/><path d="m16.56 29.444-2.875-.582a3.887 3.887 0 0 1 .056-1.18 1.852 1.852 0 0 1 2.182-1.448c.434.088.835.263 1.183.507l-.546 2.703Z" fill="url('#bc')"/><path d="M15.923 26.234a3.153 3.153 0 0 1 2.48 2.545l.584 3.315c.07.394-.101.791-.435 1.012l-1.992-3.662-1.694-3.113c.324-.13.689-.171 1.057-.097Z" fill="url('#bd')"/><path d="m18.551 33.107-2.521-1.073a3.89 3.89 0 0 1-2.29-4.351 1.852 1.852 0 0 1 2.182-1.449 3.153 3.153 0 0 1 2.48 2.545l.584 3.315c.07.394-.101.791-.435 1.013Z" fill="url('#be')"/><path d="m17.657 33.606-7.142-1.147c-1.848-.296-2.61-2.54-1.326-3.902a4.132 4.132 0 0 1 6.122.124l3.101 3.565c.508.584.009 1.482-.755 1.36Z" fill="url('#bf')"/><path d="m14.899 33.163-4.354-.699-.03-.005c-1.665-.267-2.447-2.113-1.647-3.473L11.25 30l1.86.792 1.603.681 2.135.909-1.95.781Z" fill="url('#bg')"/><path d="M18.412 32.246a.81.81 0 0 1 .14.86l-9.685-4.12c.088-.15.195-.294.322-.429a4.132 4.132 0 0 1 6.122.125l3.101 3.564Z" fill="url('#bh')"/><path d="M13.112 30.792 11.25 30l-2.38-1.012c0-.006 0-.008-.004-.002l.005.002c-.005-.002.024-.084.318-.431a4.125 4.125 0 0 1 3.872-1.203l1.652 4.12-1.602-.682Z" fill="url('#bi')"/><path d="m11.25 30-2.384-1.014v-.002c.089-.149.196-.292.323-.427a4.126 4.126 0 0 1 1.14-.851L11.25 30Z" fill="url('#bj')"/><path d="M9.69 32.163c-1.074-.635-1.475-2.068-.823-3.177L11.25 30l1.86.792-3.42 1.371Z" fill="url('#bk')"/><path d="m18.946 33.701.01 2.74a3.89 3.89 0 0 0 3.119 3.801 1.852 1.852 0 0 0 2.182-1.448 3.153 3.153 0 0 0-1.38-3.275l-2.829-1.825a1.006 1.006 0 0 0-1.102.007Z" fill="url('#bl')"/><path d="m21.548 36.96-.582 2.875c.34.188.713.327 1.11.407a1.852 1.852 0 0 0 2.182-1.448 3.15 3.15 0 0 0-.008-1.287l-2.702-.547Z" fill="url('#bm')"/><path d="M24.257 38.794a3.154 3.154 0 0 0-1.38-3.275l-2.829-1.825a1.006 1.006 0 0 0-1.102.007l2.601 3.26 2.21 2.769c.247-.248.426-.568.5-.936Z" fill="url('#bn')"/><path d="m18.946 33.701.01 2.74a3.89 3.89 0 0 0 3.119 3.801 1.852 1.852 0 0 0 2.182-1.448 3.153 3.153 0 0 0-1.38-3.275l-2.829-1.825a1.006 1.006 0 0 0-1.102.007Z" fill="url('#bo')"/><path d="m18.138 34.332-1.718 7.026c-.445 1.818 1.327 3.393 3.081 2.738a4.132 4.132 0 0 0 2.264-5.69l-2.08-4.242c-.34-.695-1.363-.584-1.547.168Z" fill="url('#bp')"/><path d="m17.474 37.045-1.047 4.283-.007.03c-.4 1.638.997 3.075 2.56 2.866l-.008-2.588-.007-2.023-.005-1.74-.008-2.32-1.478 1.492Z" fill="url('#bq')"/><path d="M19.685 34.164a.81.81 0 0 0-.739-.463l.035 10.525c.172-.023.346-.066.52-.13a4.132 4.132 0 0 0 2.264-5.69l-2.08-4.242Z" fill="url('#br')"/><path d="m18.966 39.613.006 2.023.009 2.585c.006.002.006.004 0 .005v-.005c0 .005.086.01.52-.126a4.125 4.125 0 0 0 2.613-3.1l-3.154-3.123.006 1.741Z" fill="url('#bs')"/><path d="m18.972 41.636.009 2.59h.001c.172-.023.346-.066.52-.13.462-.173.873-.42 1.227-.72l-1.757-1.74Z" fill="url('#bt')"/><path d="M16.373 42.232c.168 1.237 1.333 2.164 2.608 1.993l-.009-2.589-.006-2.023-2.593 2.62Z" fill="url('#bu')"/><path d="M20.685 30.853a.277.277 0 0 1-.005-.3c.51-.826.743-1.775.675-2.744a.277.277 0 1 1 .554-.039 5.142 5.142 0 0 1-.757 3.075.277.277 0 0 1-.467.008Z" fill="url('#bv')"/><path d="M20.833 28.218a.95.95 0 1 0 1.583-1.05.95.95 0 0 0-1.583 1.05Z" fill="url('#bw')"/><path d="M21.852 32.611a.278.278 0 0 0 .274.121 4.591 4.591 0 0 1 2.791.444.277.277 0 1 0 .251-.495 5.142 5.142 0 0 0-3.127-.497.277.277 0 0 0-.189.427Z" fill="url('#bx')"/><path d="M24.337 33.497a.95.95 0 1 0 1.582-1.05.95.95 0 0 0-1.582 1.05Z" fill="url('#by')"/><path d="M22.494 34.618a3.083 3.083 0 1 1-3.409-5.137c1.419-.941 2.715-.146 3.657 1.273.941 1.419 1.17 2.923-.248 3.864Z" fill="url('#bz')"/><path d="m17.653 33.606-2.588-.415a6.18 6.18 0 0 1 2.283-6.258 3.154 3.154 0 0 1 1.052 1.846l.583 3.315c.062.356-.07.715-.343.944a.676.676 0 0 0-.145.174.812.812 0 0 1-.842.394Z" fill="url('#bA')"/><path d="M24.165 37.205a6.18 6.18 0 0 1-6.653-.326l.622-2.547a.809.809 0 0 1 .685-.622.711.711 0 0 0 .223-.067 1.006 1.006 0 0 1 1.002.051l2.828 1.825a3.154 3.154 0 0 1 1.293 1.686Z" fill="url('#bB')"/><defs><linearGradient id="a" x1="49.527" y1="14.192" x2="51.374" y2="14.977" gradientUnits="userSpaceOnUse"><stop stop-color="#F89580"/><stop offset="1" stop-color="#C4573A"/></linearGradient><linearGradient id="b" x1="50.343" y1="12.227" x2="50.343" y2="9.823" gradientUnits="userSpaceOnUse"><stop stop-color="#C4573A" stop-opacity="0"/><stop offset=".235" stop-color="#BE5539" stop-opacity=".235"/><stop offset=".539" stop-color="#AE4E35" stop-opacity=".539"/><stop offset=".879" stop-color="#934330" stop-opacity=".879"/><stop offset="1" stop-color="#883F2E"/></linearGradient><linearGradient id="c" x1="48.582" y1="15.081" x2="49.517" y2="21.832" gradientUnits="userSpaceOnUse"><stop stop-color="#FEF0AE"/><stop offset="1" stop-color="#FAC600"/></linearGradient><linearGradient id="d" x1="52.008" y1="17.647" x2="57.513" y2="23.256" gradientUnits="userSpaceOnUse"><stop stop-color="#FE9738" stop-opacity="0"/><stop offset="1" stop-color="#FE9738"/></linearGradient><linearGradient id="e" x1="49.598" y1="48.676" x2="49.598" y2="54.493" gradientUnits="userSpaceOnUse"><stop stop-color="#FEF0AE"/><stop offset="1" stop-color="#FAC600"/></linearGradient><linearGradient id="f" x1="49.182" y1="51.998" x2="49.459" y2="46.527" gradientUnits="userSpaceOnUse"><stop stop-color="#FE9738" stop-opacity="0"/><stop offset="1" stop-color="#FE9738"/></linearGradient><linearGradient id="g" x1="55.363" y1="47.657" x2="60.072" y2="51.881" gradientUnits="userSpaceOnUse"><stop stop-color="#FE9738" stop-opacity="0"/><stop offset="1" stop-color="#FE9738"/></linearGradient><linearGradient id="h" x1="48.63" y1="20.908" x2="51.227" y2="31.296" gradientUnits="userSpaceOnUse"><stop stop-color="#FEF0AE"/><stop offset="1" stop-color="#FAC600"/></linearGradient><linearGradient id="i" x1="56.625" y1="25.62" x2="62.338" y2="30.814" gradientUnits="userSpaceOnUse"><stop stop-color="#FE9738" stop-opacity="0"/><stop offset="1" stop-color="#FE9738"/></linearGradient><linearGradient id="j" x1="49.557" y1="40.386" x2="49.868" y2="49.424" gradientUnits="userSpaceOnUse"><stop stop-color="#FEF0AE"/><stop offset="1" stop-color="#FAC600"/></linearGradient><linearGradient id="k" x1="49.366" y1="45.282" x2="49.782" y2="38.703" gradientUnits="userSpaceOnUse"><stop stop-color="#FE9738" stop-opacity="0"/><stop offset="1" stop-color="#FE9738"/></linearGradient><linearGradient id="l" x1="57.122" y1="41.934" x2="63.563" y2="47.336" gradientUnits="userSpaceOnUse"><stop stop-color="#FE9738" stop-opacity="0"/><stop offset="1" stop-color="#FE9738"/></linearGradient><linearGradient id="m" x1="49.598" y1="30.186" x2="49.598" y2="39.744" gradientUnits="userSpaceOnUse"><stop stop-color="#FEF0AE"/><stop offset="1" stop-color="#FAC600"/></linearGradient><linearGradient id="n" x1="60.236" y1="34.206" x2="68.027" y2="39.607" gradientUnits="userSpaceOnUse"><stop stop-color="#FE9738" stop-opacity="0"/><stop offset="1" stop-color="#FE9738"/></linearGradient><linearGradient id="o" x1="57.594" y1="46.852" x2="46.199" y2="35.456" gradientUnits="userSpaceOnUse"><stop stop-color="#FEF0AE"/><stop offset="1" stop-color="#FAC600"/></linearGradient><linearGradient id="p" x1="49.56" y1="38.819" x2="55.416" y2="44.674" gradientUnits="userSpaceOnUse"><stop stop-color="#F89580"/><stop offset="1" stop-color="#C4573A"/></linearGradient><linearGradient id="q" x1="53.601" y1="41.266" x2="46.33" y2="40.712" gradientUnits="userSpaceOnUse"><stop stop-color="#C4573A" stop-opacity="0"/><stop offset=".235" stop-color="#BE5539" stop-opacity=".235"/><stop offset=".539" stop-color="#AE4E35" stop-opacity=".539"/><stop offset=".879" stop-color="#934330" stop-opacity=".879"/><stop offset="1" stop-color="#883F2E"/></linearGradient><linearGradient id="r" x1="52.034" y1="41.511" x2="49.611" y2="35.763" gradientUnits="userSpaceOnUse"><stop stop-color="#C4573A" stop-opacity="0"/><stop offset=".235" stop-color="#BE5539" stop-opacity=".235"/><stop offset=".539" stop-color="#AE4E35" stop-opacity=".539"/><stop offset=".879" stop-color="#934330" stop-opacity=".879"/><stop offset="1" stop-color="#883F2E"/></linearGradient><linearGradient id="s" x1="51.876" y1="41.474" x2="51.876" y2="46.835" gradientUnits="userSpaceOnUse"><stop stop-color="#C4573A" stop-opacity="0"/><stop offset=".235" stop-color="#BE5539" stop-opacity=".235"/><stop offset=".539" stop-color="#AE4E35" stop-opacity=".539"/><stop offset=".879" stop-color="#934330" stop-opacity=".879"/><stop offset="1" stop-color="#883F2E"/></linearGradient><linearGradient id="t" x1="51.182" y1="7.472" x2="51.182" y2="10.175" gradientUnits="userSpaceOnUse"><stop stop-color="#F89580"/><stop offset="1" stop-color="#C4573A"/></linearGradient><linearGradient id="u" x1="65.309" y1="9.294" x2="67.479" y2="12.387" gradientUnits="userSpaceOnUse"><stop stop-color="#C4573A" stop-opacity="0"/><stop offset=".235" stop-color="#BE5539" stop-opacity=".235"/><stop offset=".539" stop-color="#AE4E35" stop-opacity=".539"/><stop offset=".879" stop-color="#934330" stop-opacity=".879"/><stop offset="1" stop-color="#883F2E"/></linearGradient><linearGradient id="v" x1="19.922" y1="75.386" x2="29.227" y2="82.021" gradientUnits="userSpaceOnUse"><stop stop-color="#F5D873"/><stop offset="1" stop-color="#FBAE3B"/></linearGradient><linearGradient id="w" x1="24.678" y1="76.126" x2="23.997" y2="72.284" gradientUnits="userSpaceOnUse"><stop stop-color="#FF7A00" stop-opacity="0"/><stop offset="1" stop-color="#FF8A00"/></linearGradient><linearGradient id="x" x1="21.08" y1="81.772" x2="19.524" y2="83.954" gradientUnits="userSpaceOnUse"><stop stop-color="#FF8A00" stop-opacity="0"/><stop offset="1" stop-color="#FF8A00"/></linearGradient><linearGradient id="y" x1="26.374" y1="75.825" x2="25.692" y2="71.984" gradientUnits="userSpaceOnUse"><stop stop-color="#FF8900" stop-opacity="0"/><stop offset="1" stop-color="#FF8900"/></linearGradient><linearGradient id="z" x1="22.711" y1="76.475" x2="22.03" y2="72.633" gradientUnits="userSpaceOnUse"><stop stop-color="#FF8900" stop-opacity="0"/><stop offset="1" stop-color="#FF8900"/></linearGradient><linearGradient id="A" x1="18.853" y1="77.158" x2="18.172" y2="73.317" gradientUnits="userSpaceOnUse"><stop stop-color="#FF8900" stop-opacity="0"/><stop offset="1" stop-color="#FF8900"/></linearGradient><linearGradient id="B" x1="24.869" y1="73.743" x2="28.078" y2="76.031" gradientUnits="userSpaceOnUse"><stop stop-color="#465A61"/><stop offset="1" stop-color="#444"/></linearGradient><linearGradient id="C" x1="26.186" y1="74.306" x2="25.075" y2="72.062" gradientUnits="userSpaceOnUse"><stop stop-color="#444" stop-opacity="0"/><stop offset=".448" stop-color="#373637" stop-opacity=".448"/><stop offset="1" stop-color="#2B292B"/></linearGradient><linearGradient id="D" x1="21.337" y1="78.695" x2="24.546" y2="80.983" gradientUnits="userSpaceOnUse"><stop stop-color="#465A61"/><stop offset="1" stop-color="#444"/></linearGradient><linearGradient id="E" x1="17.686" y1="83.266" x2="21.479" y2="85.971" gradientUnits="userSpaceOnUse"><stop stop-color="#465A61"/><stop offset="1" stop-color="#444"/></linearGradient><linearGradient id="F" x1="22.417" y1="62.685" x2="21.009" y2="67.554" gradientUnits="userSpaceOnUse"><stop stop-color="#E6EEFF"/><stop offset="1" stop-color="#BAC8FA"/></linearGradient><linearGradient id="G" x1="16.892" y1="62.142" x2="26.134" y2="64.184" gradientUnits="userSpaceOnUse"><stop stop-color="#A7B7F1" stop-opacity="0"/><stop offset="1" stop-color="#A7B7F1"/></linearGradient><linearGradient id="H" x1="22.637" y1="63.873" x2="20.35" y2="68.133" gradientUnits="userSpaceOnUse"><stop stop-color="#A7B7F1" stop-opacity="0"/><stop offset="1" stop-color="#A7B7F1"/></linearGradient><linearGradient id="I" x1="22.206" y1="64.389" x2="20.901" y2="66.944" gradientUnits="userSpaceOnUse"><stop stop-color="#A7B7F1" stop-opacity="0"/><stop offset="1" stop-color="#8B9EC3"/></linearGradient><linearGradient id="J" x1="16.703" y1="66.322" x2="17.236" y2="75.802" gradientUnits="userSpaceOnUse"><stop stop-color="#E6EEFF"/><stop offset="1" stop-color="#BAC8FA"/></linearGradient><linearGradient id="K" x1="18.077" y1="73.194" x2="28.75" y2="76.303" gradientUnits="userSpaceOnUse"><stop stop-color="#A7B7F1" stop-opacity="0"/><stop offset="1" stop-color="#A7B7F1"/></linearGradient><linearGradient id="L" x1="16.683" y1="67.865" x2="17.247" y2="72.038" gradientUnits="userSpaceOnUse"><stop stop-color="#A7B7F1" stop-opacity="0"/><stop offset="1" stop-color="#A7B7F1"/></linearGradient><linearGradient id="M" x1="13.667" y1="67.695" x2="21.158" y2="63.88" gradientUnits="userSpaceOnUse"><stop stop-color="#A7B7F1" stop-opacity="0"/><stop offset="1" stop-color="#A7B7F1"/></linearGradient><linearGradient id="N" x1="7.899" y1="68.178" x2="13.033" y2="67.453" gradientUnits="userSpaceOnUse"><stop stop-color="#A7B7F1" stop-opacity="0"/><stop offset="1" stop-color="#A7B7F1"/></linearGradient><linearGradient id="O" x1="10.555" y1="72.046" x2="20.478" y2="75.235" gradientUnits="userSpaceOnUse"><stop stop-color="#A7B7F1" stop-opacity="0"/><stop offset="1" stop-color="#A7B7F1"/></linearGradient><linearGradient id="P" x1="38.69" y1="74.289" x2="34.545" y2="77.206" gradientUnits="userSpaceOnUse"><stop stop-color="#E6EEFF"/><stop offset="1" stop-color="#BAC8FA"/></linearGradient><linearGradient id="Q" x1="41.002" y1="79.335" x2="36.06" y2="71.263" gradientUnits="userSpaceOnUse"><stop stop-color="#A7B7F1" stop-opacity="0"/><stop offset="1" stop-color="#A7B7F1"/></linearGradient><linearGradient id="R" x1="37.494" y1="74.468" x2="34.212" y2="78.018" gradientUnits="userSpaceOnUse"><stop stop-color="#A7B7F1" stop-opacity="0"/><stop offset="1" stop-color="#A7B7F1"/></linearGradient><linearGradient id="S" x1="37.146" y1="75.043" x2="35.157" y2="77.109" gradientUnits="userSpaceOnUse"><stop stop-color="#A7B7F1" stop-opacity="0"/><stop offset="1" stop-color="#8B9EC3"/></linearGradient><linearGradient id="T" x1="37.111" y1="80.875" x2="27.976" y2="83.46" gradientUnits="userSpaceOnUse"><stop stop-color="#E6EEFF"/><stop offset="1" stop-color="#BAC8FA"/></linearGradient><linearGradient id="U" x1="30.167" y1="81.815" x2="23.75" y2="72.737" gradientUnits="userSpaceOnUse"><stop stop-color="#A7B7F1" stop-opacity="0"/><stop offset="1" stop-color="#A7B7F1"/></linearGradient><linearGradient id="V" x1="35.659" y1="81.396" x2="31.53" y2="82.223" gradientUnits="userSpaceOnUse"><stop stop-color="#A7B7F1" stop-opacity="0"/><stop offset="1" stop-color="#A7B7F1"/></linearGradient><linearGradient id="W" x1="36.802" y1="84.193" x2="37.968" y2="75.867" gradientUnits="userSpaceOnUse"><stop stop-color="#A7B7F1" stop-opacity="0"/><stop offset="1" stop-color="#A7B7F1"/></linearGradient><linearGradient id="X" x1="38.225" y1="89.803" x2="37.238" y2="84.713" gradientUnits="userSpaceOnUse"><stop stop-color="#A7B7F1" stop-opacity="0"/><stop offset="1" stop-color="#A7B7F1"/></linearGradient><linearGradient id="Y" x1="33.704" y1="88.552" x2="27.455" y2="80.21" gradientUnits="userSpaceOnUse"><stop stop-color="#A7B7F1" stop-opacity="0"/><stop offset="1" stop-color="#A7B7F1"/></linearGradient><linearGradient id="Z" x1="30.216" y1="56.99" x2="31.465" y2="64.447" gradientUnits="userSpaceOnUse"><stop stop-color="#465A61"/><stop offset="1" stop-color="#444"/></linearGradient><linearGradient id="aa" x1="30.048" y1="56.664" x2="30.362" y2="58.536" gradientUnits="userSpaceOnUse"><stop stop-color="#465A61"/><stop offset="1" stop-color="#444"/></linearGradient><linearGradient id="ab" x1="41.532" y1="65.059" x2="34.075" y2="66.308" gradientUnits="userSpaceOnUse"><stop stop-color="#465A61"/><stop offset="1" stop-color="#444"/></linearGradient><linearGradient id="ac" x1="41.039" y1="64.501" x2="41.353" y2="66.374" gradientUnits="userSpaceOnUse"><stop stop-color="#465A61"/><stop offset="1" stop-color="#444"/></linearGradient><linearGradient id="ad" x1="31.383" y1="65.477" x2="32.062" y2="69.532" gradientUnits="userSpaceOnUse"><stop stop-color="#465A61"/><stop offset="1" stop-color="#444"/></linearGradient><linearGradient id="ae" x1="22.285" y1="66.157" x2="26.308" y2="65.879" gradientUnits="userSpaceOnUse"><stop stop-color="#A7B7F1" stop-opacity="0"/><stop offset="1" stop-color="#8B9EC3"/></linearGradient><linearGradient id="af" x1="35.627" y1="75.802" x2="35.088" y2="71.739" gradientUnits="userSpaceOnUse"><stop stop-color="#A7B7F1" stop-opacity="0"/><stop offset="1" stop-color="#8B9EC3"/></linearGradient><linearGradient id="ag" x1="76.731" y1="67.692" x2="84.889" y2="63.284" gradientUnits="userSpaceOnUse"><stop stop-color="#F5D873"/><stop offset="1" stop-color="#FBAE3B"/></linearGradient><linearGradient id="ah" x1="78.969" y1="64.492" x2="75.927" y2="63.616" gradientUnits="userSpaceOnUse"><stop stop-color="#FF7A00" stop-opacity="0"/><stop offset="1" stop-color="#FF8A00"/></linearGradient><linearGradient id="ai" x1="81.796" y1="69.131" x2="82.83" y2="71.044" gradientUnits="userSpaceOnUse"><stop stop-color="#FF8A00" stop-opacity="0"/><stop offset="1" stop-color="#FF8A00"/></linearGradient><linearGradient id="aj" x1="79.355" y1="63.149" x2="76.313" y2="62.273" gradientUnits="userSpaceOnUse"><stop stop-color="#FF8900" stop-opacity="0"/><stop offset="1" stop-color="#FF8900"/></linearGradient><linearGradient id="ak" x1="78.52" y1="66.049" x2="75.478" y2="65.173" gradientUnits="userSpaceOnUse"><stop stop-color="#FF8900" stop-opacity="0"/><stop offset="1" stop-color="#FF8900"/></linearGradient><linearGradient id="al" x1="77.64" y1="69.105" x2="74.599" y2="68.228" gradientUnits="userSpaceOnUse"><stop stop-color="#FF8900" stop-opacity="0"/><stop offset="1" stop-color="#FF8900"/></linearGradient><linearGradient id="am" x1="77.3" y1="63.501" x2="80.114" y2="61.981" gradientUnits="userSpaceOnUse"><stop stop-color="#465A61"/><stop offset="1" stop-color="#444"/></linearGradient><linearGradient id="an" x1="78.181" y1="62.743" x2="76.15" y2="62.75" gradientUnits="userSpaceOnUse"><stop stop-color="#444" stop-opacity="0"/><stop offset=".448" stop-color="#373637" stop-opacity=".448"/><stop offset="1" stop-color="#2B292B"/></linearGradient><linearGradient id="ao" x1="79.647" y1="67.843" x2="82.46" y2="66.323" gradientUnits="userSpaceOnUse"><stop stop-color="#465A61"/><stop offset="1" stop-color="#444"/></linearGradient><linearGradient id="ap" x1="81.673" y1="72.137" x2="84.998" y2="70.34" gradientUnits="userSpaceOnUse"><stop stop-color="#465A61"/><stop offset="1" stop-color="#444"/></linearGradient><linearGradient id="aq" x1="68.369" y1="61.337" x2="71.413" y2="64.102" gradientUnits="userSpaceOnUse"><stop stop-color="#E6EEFF"/><stop offset="1" stop-color="#BAC8FA"/></linearGradient><linearGradient id="ar" x1="66.001" y1="65.167" x2="70.79" y2="59.164" gradientUnits="userSpaceOnUse"><stop stop-color="#A7B7F1" stop-opacity="0"/><stop offset="1" stop-color="#A7B7F1"/></linearGradient><linearGradient id="as" x1="69.313" y1="61.602" x2="71.599" y2="64.789" gradientUnits="userSpaceOnUse"><stop stop-color="#A7B7F1" stop-opacity="0"/><stop offset="1" stop-color="#A7B7F1"/></linearGradient><linearGradient id="at" x1="69.536" y1="62.099" x2="70.93" y2="63.962" gradientUnits="userSpaceOnUse"><stop stop-color="#A7B7F1" stop-opacity="0"/><stop offset="1" stop-color="#8B9EC3"/></linearGradient><linearGradient id="au" x1="68.978" y1="66.798" x2="76.074" y2="69.797" gradientUnits="userSpaceOnUse"><stop stop-color="#E6EEFF"/><stop offset="1" stop-color="#BAC8FA"/></linearGradient><linearGradient id="av" x1="74.474" y1="68.252" x2="80.552" y2="61.588" gradientUnits="userSpaceOnUse"><stop stop-color="#A7B7F1" stop-opacity="0"/><stop offset="1" stop-color="#A7B7F1"/></linearGradient><linearGradient id="aw" x1="70.095" y1="67.364" x2="73.336" y2="68.444" gradientUnits="userSpaceOnUse"><stop stop-color="#A7B7F1" stop-opacity="0"/><stop offset="1" stop-color="#A7B7F1"/></linearGradient><linearGradient id="ax" x1="68.894" y1="69.5" x2="68.791" y2="62.68" gradientUnits="userSpaceOnUse"><stop stop-color="#A7B7F1" stop-opacity="0"/><stop offset="1" stop-color="#A7B7F1"/></linearGradient><linearGradient id="ay" x1="67.184" y1="73.875" x2="68.49" y2="69.876" gradientUnits="userSpaceOnUse"><stop stop-color="#A7B7F1" stop-opacity="0"/><stop offset="1" stop-color="#A7B7F1"/></linearGradient><linearGradient id="az" x1="70.951" y1="73.321" x2="76.819" y2="67.232" gradientUnits="userSpaceOnUse"><stop stop-color="#A7B7F1" stop-opacity="0"/><stop offset="1" stop-color="#A7B7F1"/></linearGradient><linearGradient id="aA" x1="82.636" y1="53.628" x2="83.28" y2="57.69" gradientUnits="userSpaceOnUse"><stop stop-color="#E6EEFF"/><stop offset="1" stop-color="#BAC8FA"/></linearGradient><linearGradient id="aB" x1="87.138" y1="53.746" x2="79.492" y2="54.463" gradientUnits="userSpaceOnUse"><stop stop-color="#A7B7F1" stop-opacity="0"/><stop offset="1" stop-color="#A7B7F1"/></linearGradient><linearGradient id="aC" x1="82.34" y1="54.563" x2="83.754" y2="58.222" gradientUnits="userSpaceOnUse"><stop stop-color="#A7B7F1" stop-opacity="0"/><stop offset="1" stop-color="#A7B7F1"/></linearGradient><linearGradient id="aD" x1="82.634" y1="55.022" x2="83.428" y2="57.21" gradientUnits="userSpaceOnUse"><stop stop-color="#A7B7F1" stop-opacity="0"/><stop offset="1" stop-color="#8B9EC3"/></linearGradient><linearGradient id="aE" x1="86.871" y1="57.131" x2="85.49" y2="64.71" gradientUnits="userSpaceOnUse"><stop stop-color="#E6EEFF"/><stop offset="1" stop-color="#BAC8FA"/></linearGradient><linearGradient id="aF" x1="85.075" y1="62.526" x2="76.17" y2="63.957" gradientUnits="userSpaceOnUse"><stop stop-color="#A7B7F1" stop-opacity="0"/><stop offset="1" stop-color="#A7B7F1"/></linearGradient><linearGradient id="aG" x1="86.732" y1="58.375" x2="85.859" y2="61.678" gradientUnits="userSpaceOnUse"><stop stop-color="#A7B7F1" stop-opacity="0"/><stop offset="1" stop-color="#A7B7F1"/></linearGradient><linearGradient id="aH" x1="89.177" y1="58.541" x2="83.528" y2="54.717" gradientUnits="userSpaceOnUse"><stop stop-color="#A7B7F1" stop-opacity="0"/><stop offset="1" stop-color="#A7B7F1"/></linearGradient><linearGradient id="aI" x1="93.773" y1="59.51" x2="89.712" y2="58.41" gradientUnits="userSpaceOnUse"><stop stop-color="#A7B7F1" stop-opacity="0"/><stop offset="1" stop-color="#A7B7F1"/></linearGradient><linearGradient id="aJ" x1="91.246" y1="62.357" x2="82.937" y2="63.928" gradientUnits="userSpaceOnUse"><stop stop-color="#A7B7F1" stop-opacity="0"/><stop offset="1" stop-color="#A7B7F1"/></linearGradient><linearGradient id="aK" x1="67.007" y1="53.621" x2="72.886" y2="55.375" gradientUnits="userSpaceOnUse"><stop stop-color="#465A61"/><stop offset="1" stop-color="#444"/></linearGradient><linearGradient id="aL" x1="66.71" y1="53.627" x2="68.186" y2="54.068" gradientUnits="userSpaceOnUse"><stop stop-color="#465A61"/><stop offset="1" stop-color="#444"/></linearGradient><linearGradient id="aM" x1="76.929" y1="48.26" x2="75.174" y2="54.139" gradientUnits="userSpaceOnUse"><stop stop-color="#465A61"/><stop offset="1" stop-color="#444"/></linearGradient><linearGradient id="aN" x1="76.346" y1="48.42" x2="77.822" y2="48.861" gradientUnits="userSpaceOnUse"><stop stop-color="#465A61"/><stop offset="1" stop-color="#444"/></linearGradient><linearGradient id="aO" x1="73.607" y1="55.803" x2="76.804" y2="56.757" gradientUnits="userSpaceOnUse"><stop stop-color="#465A61"/><stop offset="1" stop-color="#444"/></linearGradient><linearGradient id="aP" x1="70.852" y1="62.674" x2="72.087" y2="59.645" gradientUnits="userSpaceOnUse"><stop stop-color="#A7B7F1" stop-opacity="0"/><stop offset="1" stop-color="#8B9EC3"/></linearGradient><linearGradient id="aQ" x1="82.644" y1="56.4" x2="79.492" y2="55.342" gradientUnits="userSpaceOnUse"><stop stop-color="#A7B7F1" stop-opacity="0"/><stop offset="1" stop-color="#8B9EC3"/></linearGradient><linearGradient id="aR" x1="14.111" y1="33.86" x2="17.078" y2="38.329" gradientUnits="userSpaceOnUse"><stop stop-color="#F5D873"/><stop offset="1" stop-color="#FBAE3B"/></linearGradient><linearGradient id="aS" x1="16.072" y1="34.982" x2="16.418" y2="33.184" gradientUnits="userSpaceOnUse"><stop stop-color="#FF7A00" stop-opacity="0"/><stop offset="1" stop-color="#FF8A00"/></linearGradient><linearGradient id="aT" x1="13.547" y1="36.853" x2="12.499" y2="37.549" gradientUnits="userSpaceOnUse"><stop stop-color="#FF8A00" stop-opacity="0"/><stop offset="1" stop-color="#FF8A00"/></linearGradient><linearGradient id="aU" x1="16.866" y1="35.134" x2="17.212" y2="33.336" gradientUnits="userSpaceOnUse"><stop stop-color="#FF8900" stop-opacity="0"/><stop offset="1" stop-color="#FF8900"/></linearGradient><linearGradient id="aV" x1="15.152" y1="34.805" x2="15.497" y2="33.007" gradientUnits="userSpaceOnUse"><stop stop-color="#FF8900" stop-opacity="0"/><stop offset="1" stop-color="#FF8900"/></linearGradient><linearGradient id="aW" x1="13.346" y1="34.457" x2="13.692" y2="32.659" gradientUnits="userSpaceOnUse"><stop stop-color="#FF8900" stop-opacity="0"/><stop offset="1" stop-color="#FF8900"/></linearGradient><linearGradient id="aX" x1="16.556" y1="33.969" x2="17.579" y2="35.51" gradientUnits="userSpaceOnUse"><stop stop-color="#465A61"/><stop offset="1" stop-color="#444"/></linearGradient><linearGradient id="aY" x1="17.039" y1="34.437" x2="16.929" y2="33.267" gradientUnits="userSpaceOnUse"><stop stop-color="#444" stop-opacity="0"/><stop offset=".448" stop-color="#373637" stop-opacity=".448"/><stop offset="1" stop-color="#2B292B"/></linearGradient><linearGradient id="aZ" x1="14.177" y1="35.547" x2="15.2" y2="37.089" gradientUnits="userSpaceOnUse"><stop stop-color="#465A61"/><stop offset="1" stop-color="#444"/></linearGradient><linearGradient id="ba" x1="11.81" y1="36.939" x2="13.019" y2="38.761" gradientUnits="userSpaceOnUse"><stop stop-color="#465A61"/><stop offset="1" stop-color="#444"/></linearGradient><linearGradient id="bb" x1="17.339" y1="28.711" x2="15.906" y2="30.609" gradientUnits="userSpaceOnUse"><stop stop-color="#E6EEFF"/><stop offset="1" stop-color="#BAC8FA"/></linearGradient><linearGradient id="bc" x1="15.009" y1="27.546" x2="18.718" y2="29.992" gradientUnits="userSpaceOnUse"><stop stop-color="#A7B7F1" stop-opacity="0"/><stop offset="1" stop-color="#A7B7F1"/></linearGradient><linearGradient id="bd" x1="17.236" y1="29.269" x2="15.52" y2="30.752" gradientUnits="userSpaceOnUse"><stop stop-color="#A7B7F1" stop-opacity="0"/><stop offset="1" stop-color="#A7B7F1"/></linearGradient><linearGradient id="be" x1="16.96" y1="29.423" x2="15.96" y2="30.324" gradientUnits="userSpaceOnUse"><stop stop-color="#A7B7F1" stop-opacity="0"/><stop offset="1" stop-color="#8B9EC3"/></linearGradient><linearGradient id="bf" x1="14.224" y1="29.347" x2="12.868" y2="33.592" gradientUnits="userSpaceOnUse"><stop stop-color="#E6EEFF"/><stop offset="1" stop-color="#BAC8FA"/></linearGradient><linearGradient id="bg" x1="13.674" y1="32.59" x2="17.831" y2="35.742" gradientUnits="userSpaceOnUse"><stop stop-color="#A7B7F1" stop-opacity="0"/><stop offset="1" stop-color="#A7B7F1"/></linearGradient><linearGradient id="bh" x1="13.957" y1="30.02" x2="13.504" y2="31.944" gradientUnits="userSpaceOnUse"><stop stop-color="#A7B7F1" stop-opacity="0"/><stop offset="1" stop-color="#A7B7F1"/></linearGradient><linearGradient id="bi" x1="12.664" y1="29.44" x2="16.587" y2="29.024" gradientUnits="userSpaceOnUse"><stop stop-color="#A7B7F1" stop-opacity="0"/><stop offset="1" stop-color="#A7B7F1"/></linearGradient><linearGradient id="bj" x1="10.053" y1="28.684" x2="12.425" y2="29.227" gradientUnits="userSpaceOnUse"><stop stop-color="#A7B7F1" stop-opacity="0"/><stop offset="1" stop-color="#A7B7F1"/></linearGradient><linearGradient id="bk" x1="10.569" y1="30.825" x2="14.384" y2="33.887" gradientUnits="userSpaceOnUse"><stop stop-color="#A7B7F1" stop-opacity="0"/><stop offset="1" stop-color="#A7B7F1"/></linearGradient><linearGradient id="bl" x1="22.526" y1="36.527" x2="20.219" y2="37.11" gradientUnits="userSpaceOnUse"><stop stop-color="#E6EEFF"/><stop offset="1" stop-color="#BAC8FA"/></linearGradient><linearGradient id="bm" x1="22.693" y1="39.126" x2="21.881" y2="34.759" gradientUnits="userSpaceOnUse"><stop stop-color="#A7B7F1" stop-opacity="0"/><stop offset="1" stop-color="#A7B7F1"/></linearGradient><linearGradient id="bn" x1="21.971" y1="36.405" x2="19.937" y2="37.41" gradientUnits="userSpaceOnUse"><stop stop-color="#A7B7F1" stop-opacity="0"/><stop offset="1" stop-color="#A7B7F1"/></linearGradient><linearGradient id="bo" x1="21.723" y1="36.598" x2="20.504" y2="37.17" gradientUnits="userSpaceOnUse"><stop stop-color="#A7B7F1" stop-opacity="0"/><stop offset="1" stop-color="#8B9EC3"/></linearGradient><linearGradient id="bp" x1="20.729" y1="39.149" x2="16.291" y2="38.75" gradientUnits="userSpaceOnUse"><stop stop-color="#E6EEFF"/><stop offset="1" stop-color="#BAC8FA"/></linearGradient><linearGradient id="bq" x1="17.527" y1="38.396" x2="16.237" y2="33.341" gradientUnits="userSpaceOnUse"><stop stop-color="#A7B7F1" stop-opacity="0"/><stop offset="1" stop-color="#A7B7F1"/></linearGradient><linearGradient id="br" x1="20.005" y1="39.134" x2="18.056" y2="38.804" gradientUnits="userSpaceOnUse"><stop stop-color="#A7B7F1" stop-opacity="0"/><stop offset="1" stop-color="#A7B7F1"/></linearGradient><linearGradient id="bs" x1="20.037" y1="40.551" x2="21.945" y2="37.097" gradientUnits="userSpaceOnUse"><stop stop-color="#A7B7F1" stop-opacity="0"/><stop offset="1" stop-color="#A7B7F1"/></linearGradient><linearGradient id="bt" x1="19.72" y1="43.249" x2="20.141" y2="40.852" gradientUnits="userSpaceOnUse"><stop stop-color="#A7B7F1" stop-opacity="0"/><stop offset="1" stop-color="#A7B7F1"/></linearGradient><linearGradient id="bu" x1="17.948" y1="41.942" x2="16.608" y2="37.238" gradientUnits="userSpaceOnUse"><stop stop-color="#A7B7F1" stop-opacity="0"/><stop offset="1" stop-color="#A7B7F1"/></linearGradient><linearGradient id="bv" x1="21.713" y1="27.523" x2="21.009" y2="31.001" gradientUnits="userSpaceOnUse"><stop stop-color="#465A61"/><stop offset="1" stop-color="#444"/></linearGradient><linearGradient id="bw" x1="21.694" y1="27.352" x2="21.517" y2="28.225" gradientUnits="userSpaceOnUse"><stop stop-color="#465A61"/><stop offset="1" stop-color="#444"/></linearGradient><linearGradient id="bx" x1="25.32" y1="32.958" x2="21.841" y2="32.254" gradientUnits="userSpaceOnUse"><stop stop-color="#465A61"/><stop offset="1" stop-color="#444"/></linearGradient><linearGradient id="by" x1="25.198" y1="32.63" x2="25.021" y2="33.504" gradientUnits="userSpaceOnUse"><stop stop-color="#465A61"/><stop offset="1" stop-color="#444"/></linearGradient><linearGradient id="bz" x1="20.801" y1="31.438" x2="20.418" y2="33.33" gradientUnits="userSpaceOnUse"><stop stop-color="#465A61"/><stop offset="1" stop-color="#444"/></linearGradient><linearGradient id="bA" x1="16.695" y1="30.211" x2="18.505" y2="30.764" gradientUnits="userSpaceOnUse"><stop stop-color="#A7B7F1" stop-opacity="0"/><stop offset="1" stop-color="#8B9EC3"/></linearGradient><linearGradient id="bB" x1="20.925" y1="36.676" x2="21.37" y2="34.805" gradientUnits="userSpaceOnUse"><stop stop-color="#A7B7F1" stop-opacity="0"/><stop offset="1" stop-color="#8B9EC3"/></linearGradient></defs></svg>