<svg width="480" height="541" fill="none" xmlns="http://www.w3.org/2000/svg"><path d="M0 157.599a44.738 44.738 0 0 1 22.344-38.737L217.656 5.992a44.652 44.652 0 0 1 44.688 0l195.312 112.87A44.738 44.738 0 0 1 480 157.599v225.74a44.735 44.735 0 0 1-22.344 38.736l-195.312 112.87a44.653 44.653 0 0 1-44.688 0L22.343 422.075A44.736 44.736 0 0 1 0 383.339v-225.74Z" fill="url('#a')"/><defs><linearGradient id="a" x1="239.531" y1="0" x2="239.531" y2="541" gradientUnits="userSpaceOnUse"><stop stop-color="#FFFAF4"/><stop offset="1" stop-color="#fff"/></linearGradient></defs></svg>