<svg aria-hidden="true" style="width:0;height:0;position:absolute;overflow:hidden" xmlns="http://www.w3.org/2000/svg"><defs><symbol id="logo" viewBox="0 0 33 32"><path fill="#ff8a00" style="fill:var(--color1,#ff8a00)" d="M13.645 24.253a12.837 12.837 0 0 1-1.098-4.842c-.929 1.495-1.774 3.053-2.472 4.674-.042.084-.042.105-.085.189-.19.484-.38.863-.486 1.2a.752.752 0 0 0 .423.968h.021c.317.105.718.274 1.204.463.085.042.106.042.19.084 1.669.547 3.38.989 5.091 1.284a13.881 13.881 0 0 1-2.788-4.021z"/><path fill="#0075ff" style="fill:var(--color2,#0075ff)" d="M16.285 11.874C12.44 4 3.822 4.274 2.47 7.79c-1.056 2.716 3.507 9.158 14.005 4.505-.042-.042-.148-.337-.19-.421zm1.816-.527c-2.155-5.326 1.627-8.358 3.654-7.579 1.542.611 2.387 5.158-3.549 7.789a.654.654 0 0 0-.106-.211z"/><path fill="#ff8a00" style="fill:var(--color1,#ff8a00)" d="M29.127 17.326a7.764 7.764 0 0 0-4.457-4.147 1.223 1.223 0 0 0-.613-.105 2.11 2.11 0 0 0-2.049 1.853c-.148 1.768.19 3.537.929 5.158a10.877 10.877 0 0 0 3.126 4.105 2.09 2.09 0 0 0 1.204.379 2.001 2.001 0 0 0 1.859-1.137 7.416 7.416 0 0 0-.042-6.105z"/><path fill="#ff8a00" style="fill:var(--color1,#ff8a00)" d="M24.629 26.168a12.551 12.551 0 0 1-3.887-5.053 12.65 12.65 0 0 1-1.141-6.358 4.192 4.192 0 0 1 .486-1.663c-.042 0-.106.042-.148.042-.084.042-.19.042-.275.084a8.52 8.52 0 0 0-1.627.674c-.253.147-.486.316-.76.463-1.289.863-2.345 2.379-2.471 3.958a10.18 10.18 0 0 0 .866 5.074 10.407 10.407 0 0 0 3.063 3.958c.803.632 2.197 1.011 3.359 1.011a7.364 7.364 0 0 0 3.739-1.158.045.045 0 0 0 .042-.042c.084-.042.148-.105.232-.147s.084-.084.106-.084a4.765 4.765 0 0 1-1.584-.758z"/></symbol><symbol id="facebook" viewBox="0 0 17 32"><path d="M10.787 32V17.404h4.897l.735-5.69h-5.632V8.082c0-1.647.455-2.769 2.82-2.769l3.011-.001V.223C16.097.155 14.31 0 12.23 0 7.887 0 4.913 2.651 4.913 7.519v4.196H.001v5.69h4.912v14.596h5.874z"/></symbol><symbol id="instagram" viewBox="0 0 32 32"><path d="M8.772 0h14.455c4.837 0 8.772 3.935 8.772 8.772v14.455c0 4.837-3.935 8.772-8.772 8.772H8.772C3.935 31.999 0 28.064 0 23.227V8.772C0 3.935 3.935 0 8.772 0zM7.223 16c0 4.84 3.937 8.777 8.777 8.777S24.777 20.84 24.777 16 20.84 7.223 16 7.223 7.223 11.16 7.223 16zm15.412-9.302c0 1.47 1.196 2.667 2.667 2.667s2.667-1.196 2.667-2.667-1.196-2.667-2.667-2.667a2.67 2.67 0 0 0-2.667 2.667zm2.667-.777c-.428 0-.777.349-.777.777s.349.777.777.777a.778.778 0 0 0 0-1.554zm-9.303 3.192c-3.798 0-6.887 3.09-6.887 6.887s3.09 6.887 6.887 6.887c3.798 0 6.887-3.09 6.887-6.887s-3.09-6.887-6.887-6.887z"/></symbol><symbol id="telegram" viewBox="0 0 32 32"><path d="M31.937 3.219a.67.67 0 0 0-.464-.506 2.38 2.38 0 0 0-1.26.09S2.175 12.879.573 13.995c-.344.242-.46.38-.518.544-.276.8.586 1.146.586 1.146l7.226 2.354a.77.77 0 0 0 .366-.022c1.644-1.038 16.54-10.444 17.4-10.76.136-.04.236 0 .2.098-.344 1.2-13.212 12.638-13.282 12.708a.281.281 0 0 0-.098.236l-.674 7.056s-.284 2.2 1.912 0a61.32 61.32 0 0 1 3.8-3.476c2.484 1.716 5.158 3.612 6.312 4.6.193.188.423.335.674.433s.52.143.79.133a1.652 1.652 0 0 0 1.4-1.244s5.122-20.55 5.292-23.316c.016-.27.042-.434.042-.634a2.358 2.358 0 0 0-.064-.632z"/></symbol><symbol id="twitter" viewBox="0 0 32 32"><path d="M32 6c-1.2.6-2.4.8-3.8 1 1.4-.8 2.4-2 2.8-3.6-1.2.8-2.6 1.2-4.2 1.6-1.2-1.2-3-2-4.8-2-3.4 0-6.4 3-6.4 6.6 0 .6 0 1 .2 1.4-5.4-.2-10.4-2.8-13.6-6.8-.6 1-.8 2-.8 3.4 0 2.2 1.2 4.2 3 5.4-1 0-2-.4-3-.8 0 3.2 2.2 5.8 5.2 6.4-.6.2-1.2.2-1.8.2-.4 0-.8 0-1.2-.2.8 2.6 3.2 4.6 6.2 4.6C7.6 25 4.8 26 1.6 26H0c3 1.8 6.4 3 10 3 12 0 18.6-10 18.6-18.6v-.8C30 8.6 31.2 7.4 32 6z"/></symbol><symbol id="comscore" viewBox="0 0 197 32"><path d="M30.705 9.292v11.132L8.452 22.696v6.236l30.671 3.067V8.451zM0 0v23.48l8.452-.841V11.484l22.253-2.192V3.033z"/><path d="M30.705 9.292 8.452 11.484v11.155l22.253-2.272zm23.844 8.043a7.952 7.952 0 0 1 7.952-7.952h.068a7.728 7.728 0 0 1 7.263 4.653l.019.05-2.954 1.261c-.681-1.704-2.318-2.886-4.231-2.886l-.102.001h.005-.011a4.782 4.782 0 0 0-4.782 4.77v.103l-.001.08a4.839 4.839 0 0 0 4.756 4.838h.095a4.624 4.624 0 0 0 4.317-2.979l.011-.032 2.976 1.261c-1.195 2.833-3.949 4.785-7.159 4.785a8.44 8.44 0 0 1-.225-.003h.011-.068a7.951 7.951 0 0 1-7.951-7.88v-.072zm30.671 0a4.714 4.714 0 1 0-4.714 4.714 4.714 4.714 0 0 0 4.714-4.714zm-12.678 0c0-4.392 3.56-7.952 7.952-7.952s7.952 3.56 7.952 7.952a7.952 7.952 0 0 1-7.952 7.952 7.952 7.952 0 0 1-7.952-7.952zm18.539-7.668h3.26v1.84a5.372 5.372 0 0 1 4.556-2.146h-.012a5.314 5.314 0 0 1 5.053 2.733l.014.027c1.075-1.658 2.917-2.739 5.011-2.739l.154.002h-.008c4.18 0 6.361 2.522 6.361 6.452v9.213h-3.351v-9.02c0-2.272-1.261-3.805-3.567-3.805-2.056 0-3.658 1.409-3.658 4.146v8.656h-3.306V15.87a3.283 3.283 0 0 0-3.486-3.657l.01-.001c-2.147 0-3.749 1.443-3.749 4.271v8.542H91.08zm42.508 7.668a7.952 7.952 0 0 1 7.952-7.952h.068a7.728 7.728 0 0 1 7.263 4.653l.019.05-2.953 1.261c-.681-1.704-2.318-2.886-4.231-2.886l-.102.001h.005-.011a4.782 4.782 0 0 0-4.782 4.77v.103l-.001.08a4.839 4.839 0 0 0 4.756 4.838h.095a4.624 4.624 0 0 0 4.317-2.979l.011-.032 2.976 1.261c-1.195 2.833-3.949 4.785-7.159 4.785l-.213-.003h.01-.068a7.951 7.951 0 0 1-7.951-7.88v-.072zm30.069 0a4.714 4.714 0 1 0-4.714 4.714 4.714 4.714 0 0 0 4.714-4.714zm-12.689 0c0-4.392 3.56-7.952 7.952-7.952s7.952 3.56 7.952 7.952a7.952 7.952 0 0 1-7.952 7.952 7.952 7.952 0 0 1-7.952-7.952zm18.494-7.668h3.283v2.363a4.46 4.46 0 0 1 4.228-2.362l-.013-.001h1.806v3.124h-2.272c-2.669 0-3.715 1.409-3.715 4.544v7.622h-3.317zm14.494 6.021h9.213a4.29 4.29 0 0 0-4.559-3.407l.016-.001-.096-.001a4.774 4.774 0 0 0-4.564 3.375l-.009.034zm-3.317 1.715v-.069c0-4.36 3.509-7.9 7.856-7.951h.096a7.612 7.612 0 0 1 7.895 7.302v1.787h-12.711c.38 2.249 2.313 3.94 4.641 3.94.106 0 .211-.003.315-.01l-.014.001a4.815 4.815 0 0 0 4.531-2.765l.012-.029 2.704 1.499c-1.42 2.532-4.087 4.215-7.147 4.215a8.167 8.167 0 0 1-8.165-7.976v-.009zm-62.352 4.305 2.954-1.534a4.379 4.379 0 0 0 3.836 2.273l.099-.001h-.005c1.84 0 2.794-.954 2.794-2.022s-1.783-1.545-3.715-1.954c-2.613-.557-5.316-1.409-5.316-4.544 0-2.431 2.272-4.669 5.93-4.635a6.98 6.98 0 0 1 6.154 2.954l.015.022-2.738 1.499a3.966 3.966 0 0 0-3.289-1.751l-.125.002h.006c-1.749 0-2.647.863-2.647 1.84s1.409 1.409 3.624 1.908c2.522.557 5.373 1.386 5.373 4.544 0 2.124-1.84 4.976-6.202 4.941a7.176 7.176 0 0 1-6.706-3.533l-.018-.034z"/></symbol><symbol id="amazon" viewBox="0 0 89 32"><path d="M54.669 24.069c-4.849 3.573-11.897 5.497-17.963 5.497-8.501 0-16.157-3.141-21.948-8.363-.452-.412-.039-.962.491-.648 6.243 3.632 13.978 5.831 21.948 5.831 5.379 0 11.308-1.119 16.746-3.416.844-.393 1.531.491.726 1.099z"/><path d="M56.692 21.752c-.628-.785-4.103-.373-5.674-.196-.471.059-.55-.353-.118-.648 2.768-1.963 7.322-1.394 7.872-.726.53.668-.137 5.222-2.748 7.401-.393.334-.785.157-.609-.294.569-1.472 1.885-4.751 1.276-5.536zM51.115 7.107c0 .295.236.491.471.471h4.437l-5.104 7.323c-.314.471-.314 1.001-.314 1.315v1.924c0 .275.314.589.609.432 2.906-1.531 6.38-1.394 8.992-.02.314.177.628-.157.628-.432v-2.022c-.019-.275-.118-.55-.451-.746-1.492-.844-3.22-1.08-4.849-1.04l4.398-6.282c.412-.569.647-.923.647-1.198V5.203c0-.275-.216-.471-.491-.471h-8.52a.462.462 0 0 0-.452.471v1.904zM20.097 18.964c.275 0 .51-.216.471-.451v-7.028c0-1.531-.078-3.652 1.787-3.652 1.826 0 1.59 2.179 1.59 3.652v7.028c0 .255.216.451.471.471h2.591a.47.47 0 0 0 .491-.471v-7.028c0-.766-.02-1.885.236-2.552.275-.668.923-1.08 1.551-1.08.746 0 1.315.255 1.512 1.139.137.53.078 1.924.078 2.493v7.028c.02.255.216.451.471.471h2.591a.47.47 0 0 0 .491-.471V10.13c0-1.413.177-3.043-.648-4.162-.726-1.001-1.924-1.453-3.004-1.453-1.531 0-2.945.785-3.573 2.454-.726-1.669-1.747-2.454-3.357-2.454-1.59 0-2.768.785-3.396 2.454h-.039V5.241c-.02-.255-.216-.432-.471-.452h-2.415c-.275 0-.491.196-.491.471v13.271a.522.522 0 0 0 .471.432h2.591zM67.92 4.496c3.848 0 5.91 3.298 5.91 7.48 0 4.044-2.297 7.264-5.91 7.264-3.769 0-5.83-3.298-5.83-7.401 0-4.142 2.081-7.342 5.83-7.342zm.02 2.709c-1.905 0-2.022 2.591-2.022 4.221s-.019 5.085 2.002 5.085c2.003 0 2.101-2.788 2.101-4.496 0-1.119-.039-2.454-.393-3.514-.294-.942-.863-1.296-1.688-1.296zm10.876 11.759a.511.511 0 0 0 .51-.451v-7.146c0-.903.039-1.708.413-2.513.275-.628.863-1.06 1.492-1.06 1.806 0 1.629 2.12 1.629 3.573v7.205c.02.216.216.393.451.412h2.591a.504.504 0 0 0 .491-.412v-8.363c0-1.296 0-3.082-.667-4.142-.726-1.158-1.865-1.571-3.023-1.571-1.786 0-2.807.883-3.534 2.69h-.039V5.164a.5.5 0 0 0-.471-.373h-2.395c-.255 0-.471.177-.491.432v13.271a.506.506 0 0 0 .471.471h2.572zm-34.474-6.341v-.55c-1.865 0-3.848.412-3.848 2.611 0 1.099.569 1.865 1.571 1.865.726 0 1.374-.452 1.786-1.178.51-.903.491-1.747.491-2.748zm2.611 6.302c-.177.137-.412.177-.609.059-.864-.707-1.021-1.041-1.492-1.728-1.414 1.453-2.434 1.885-4.26 1.885-2.179 0-3.867-1.335-3.867-4.024 0-2.101 1.139-3.534 2.768-4.221 1.413-.628 3.357-.726 4.869-.903v-.334c0-.609.039-1.335-.314-1.885-.314-.471-.923-.668-1.453-.668-.982 0-1.865.51-2.081 1.551-.039.236-.216.471-.452.471l-2.513-.275c-.216-.039-.452-.216-.393-.55.569-3.043 3.318-3.966 5.791-3.966 1.256 0 2.906.334 3.907 1.296 1.256 1.178 1.139 2.748 1.139 4.456v4.044c0 1.217.51 1.747.982 2.395.157.236.196.51-.02.687-.687.569-1.335 1.139-2.002 1.708zm-36.515-6.302v-.55c-1.865 0-3.848.412-3.848 2.611 0 1.099.569 1.865 1.571 1.865.726 0 1.374-.452 1.787-1.178.51-.903.491-1.747.491-2.748zm2.611 6.302c-.177.137-.412.177-.609.059-.864-.707-1.021-1.041-1.492-1.728-1.414 1.453-2.415 1.885-4.26 1.885-2.179 0-3.867-1.335-3.867-4.024 0-2.101 1.139-3.534 2.768-4.221 1.413-.628 3.357-.726 4.869-.903v-.334c0-.609.039-1.335-.314-1.885-.314-.471-.923-.668-1.453-.668-.982 0-1.865.51-2.081 1.551-.039.236-.216.471-.452.471l-2.513-.275c-.216-.039-.452-.216-.393-.55.569-3.043 3.318-3.966 5.791-3.966 1.256 0 2.906.334 3.887 1.296 1.256 1.178 1.139 2.748 1.139 4.456v4.044c0 1.217.51 1.747.982 2.395.177.236.196.51 0 .687a88.915 88.915 0 0 0-2.002 1.708z"/></symbol><symbol id="kantar" viewBox="0 0 97 32"><path d="m24.728 7.61-6.106 16.68h3.212l1.439-3.939h5.982L30.7 24.29h3.211L27.794 7.61h-3.067zm1.54 4.546 1.942 5.341h-3.892l1.95-5.341zM67.959 7.61l-6.106 16.679h3.211l1.439-3.938h5.984l1.445 3.938h3.212L71.027 7.61h-3.068zm1.537 4.546 1.942 5.341h-3.891l1.95-5.341zM46.431 7.61v10.607L37.887 7.61h-2.451v16.679h3.211V13.413l8.761 10.876h2.234V7.61h-3.211zm5.131 0v2.854h4.4v13.825h3.212V10.464h4.401V7.61H51.563zm30.318 2.857h2.907c1.095 0 1.644.263 2.025.667.357.382.548.881.548 1.429s-.191 1.025-.548 1.406c-.38.405-.93.667-2.025.667H81.88v-4.17zm10.995 13.821-5.21-7.217a4.257 4.257 0 0 0 1.602-1.053c.835-.858 1.311-2.144 1.311-3.455 0-1.31-.476-2.597-1.311-3.455-.928-.977-2.192-1.5-4.337-1.5h-6.266v16.679h3.216v-6.792h2.623l4.869 6.792 3.504.001zM17.85 7.61h-3.491l-5.977 8.34 5.978 8.339h3.491l-5.975-8.339 5.974-8.34zM4.133 24.288h2.384V7.611H4.134v16.677z"/></symbol><symbol id="microsoft" viewBox="0 0 151 32"><path d="M62.659 6.4v19.2h-3.333V10.533h-.044L53.326 25.6h-2.222l-6.089-15.067h-.044V25.6h-3.067V6.4h4.8l5.511 14.222h.089L58.126 6.4h4.533zm2.756 1.467c0-.533.178-.978.578-1.333s.844-.533 1.377-.533c.578 0 1.067.178 1.423.533s.577.8.577 1.333-.177.978-.577 1.333c-.4.356-.845.533-1.423.533s-1.022-.178-1.377-.533c-.356-.4-.578-.844-.578-1.333zm3.6 3.955V25.6h-3.244V11.822h3.244zm9.822 11.422c.489 0 1.023-.089 1.6-.356a6.994 6.994 0 0 0 1.6-.889v3.022c-.533.311-1.111.533-1.777.667s-1.378.222-2.178.222c-2.045 0-3.689-.622-4.933-1.911-1.289-1.289-1.911-2.933-1.911-4.889 0-2.222.667-4.044 1.956-5.467s3.111-2.133 5.511-2.133c.623 0 1.245.089 1.823.222a6.09 6.09 0 0 1 1.467.533v3.111c-.489-.356-1.023-.667-1.511-.844-.533-.178-1.067-.311-1.6-.311-1.289 0-2.311.4-3.111 1.244s-1.155 1.956-1.155 3.378c0 1.378.4 2.489 1.155 3.244s1.778 1.156 3.067 1.156zm12.4-11.644c.267 0 .489 0 .711.044s.4.089.533.133v3.289c-.178-.133-.4-.267-.755-.356s-.711-.178-1.2-.178c-.8 0-1.467.356-2 1.022s-.845 1.689-.845 3.111v6.933h-3.245V11.82h3.245v2.178h.045c.311-.756.755-1.333 1.333-1.778.622-.4 1.333-.622 2.177-.622zm1.422 7.333c0-2.267.667-4.089 1.911-5.422 1.289-1.333 3.067-2 5.333-2 2.133 0 3.823.622 5.023 1.911s1.822 3.022 1.822 5.2c0 2.222-.667 4-1.911 5.333-1.289 1.333-3.022 2-5.244 2-2.133 0-3.823-.622-5.067-1.867-1.245-1.289-1.867-3.022-1.867-5.156zm3.378-.133c0 1.422.311 2.533.978 3.289s1.6 1.156 2.8 1.156c1.155 0 2.089-.356 2.711-1.156.622-.756.933-1.867.933-3.378 0-1.467-.311-2.578-.933-3.378-.623-.756-1.556-1.156-2.667-1.156-1.2 0-2.089.4-2.756 1.2-.755.844-1.067 1.956-1.067 3.422zm15.556-3.333c0 .444.133.844.444 1.111s.933.578 1.956.978c1.289.533 2.222 1.111 2.711 1.733.533.667.8 1.422.8 2.356 0 1.289-.489 2.311-1.511 3.111-.978.8-2.356 1.156-4.045 1.156-.578 0-1.2-.089-1.911-.222s-1.289-.311-1.777-.533v-3.2c.577.4 1.244.756 1.911.978s1.289.356 1.867.356c.711 0 1.289-.089 1.6-.311.356-.222.533-.533.533-1.022 0-.444-.177-.8-.533-1.156-.355-.311-1.067-.667-2.044-1.067-1.2-.489-2.045-1.067-2.533-1.689s-.756-1.422-.756-2.4c0-1.244.489-2.267 1.467-3.067s2.267-1.2 3.823-1.2c.489 0 1.022.044 1.6.178s1.111.267 1.511.4v3.156c-.444-.267-.933-.533-1.511-.756s-1.156-.311-1.689-.311c-.622 0-1.111.133-1.422.356-.311.311-.489.622-.489 1.067zm7.288 3.466c0-2.267.667-4.089 1.911-5.422 1.289-1.333 3.067-2 5.333-2 2.133 0 3.822.622 5.022 1.911s1.822 3.022 1.822 5.2c0 2.222-.667 4-1.911 5.333-1.289 1.333-3.023 2-5.245 2-2.133 0-3.822-.622-5.067-1.867-1.2-1.289-1.867-3.022-1.867-5.156zm3.378-.133c0 1.422.311 2.533.977 3.289s1.6 1.156 2.8 1.156c1.156 0 2.089-.356 2.711-1.156.622-.756.933-1.867.933-3.378 0-1.467-.311-2.578-.933-3.378-.622-.756-1.555-1.156-2.667-1.156-1.2 0-2.089.4-2.755 1.2-.711.844-1.067 1.956-1.067 3.422zm21.511-4.311h-4.844V25.6h-3.289V14.489h-2.311v-2.667h2.311V9.911c0-1.422.489-2.622 1.423-3.556s2.133-1.378 3.6-1.378c.4 0 .755.044 1.067.044s.577.089.8.178v2.8c-.089-.044-.311-.133-.578-.222s-.578-.133-.933-.133c-.667 0-1.2.222-1.555.622s-.533 1.067-.533 1.867v1.644h4.844V8.666l3.245-.978v4.089h3.289v2.667h-3.289v6.444c0 .844.178 1.422.445 1.778.311.356.8.533 1.467.533.177 0 .4-.044.667-.133s.489-.178.667-.311v2.667c-.223.133-.533.222-1.023.311s-.933.133-1.422.133c-1.378 0-2.4-.356-3.067-1.067s-1.022-1.822-1.022-3.289l.044-7.022zM15.459 0H.259v15.2h15.2V0zm16.8 0h-15.2v15.2h15.2V0zm-16.8 16.8H.259V32h15.2V16.8zm16.8 0h-15.2V32h15.2V16.8z"/></symbol><symbol id="nielsen" viewBox="0 0 82 32"><path d="M7.954 12.439c.45-.45.825-.825 1.2-1.05s.825-.375 1.425-.375c.9 0 1.5.3 1.875.9s.6 1.425.6 2.4v6.451c0 .3-.15.45-.375.525-.3.075-.675.15-1.125.15v.3h5.251v-.225c-.15 0-.3 0-.525-.075-.15 0-.375-.075-.525-.075-.15-.075-.3-.075-.375-.225-.075-.075-.15-.225-.15-.3v-7.426c0-1.2-.3-2.1-.825-2.851s-1.275-1.125-2.25-1.125c-.45 0-.9.075-1.35.3-.45.15-.825.375-1.2.675s-.675.6-.975.9c-.225.3-.525.6-.675.9zm-.644.473v7.951c0 .15.075.3.15.375.075.15.225.15.3.225.15 0 .225.075.375.075s.3 0 .525.075v.225H3.709v-.225c.375 0 .75-.15 1.05-.225.3-.15.45-.3.45-.6v-8.852c0-.15 0-.225-.075-.3 0-.075-.075-.15-.225-.225s-.3-.15-.525-.3c-.225-.075-.375-.225-.6-.3v-.15l3.376-1.2h.15v3.451zm61.587-.473c.45-.45.825-.825 1.2-1.05s.826-.375 1.425-.375c.9 0 1.5.3 1.876.9s.6 1.425.6 2.4v6.451c0 .3-.15.45-.375.525-.3.075-.675.15-1.126.15v.3h5.251v-.225c-.15 0-.3 0-.525-.075-.15 0-.375-.075-.525-.075-.15-.075-.3-.075-.375-.225-.075-.075-.15-.225-.15-.3v-7.426c0-1.2-.3-2.1-.826-2.851s-1.275-1.125-2.251-1.125c-.45 0-.9.075-1.35.3-.45.15-.825.375-1.2.675s-.675.6-.975.9c-.225.3-.525.6-.675.9zm-.643.473v7.951c0 .15.075.3.15.375.075.15.225.15.3.225.15 0 .225.075.375.075s.3 0 .45.075v.225h-4.876v-.225c.375 0 .75-.075 1.05-.225s.45-.3.45-.6v-8.852c0-.15 0-.225-.075-.3 0-.075-.075-.15-.225-.225s-.3-.15-.525-.3a2.246 2.246 0 0 0-.6-.3v-.15l3.376-1.2h.15v3.451zm-50.825 8.897v-.225c.225 0 .45-.075.6-.075.225 0 .375-.075.525-.15l.45-.225c.15-.075.15-.225.15-.375v-9.002c0-.15 0-.225-.075-.375 0-.075-.075-.225-.225-.3-.075-.075-.225-.15-.45-.3-.225-.075-.45-.225-.675-.3v-.15l3.526-1.125h.15v11.702c0 .15.075.3.225.375s.225.15.375.15.3.075.525.075c.15 0 .375 0 .525.075v.225h-5.626zm3.724-15.222c-.225.225-.6.375-.975.375s-.675-.15-.975-.375c-.3-.3-.375-.6-.375-.975s.15-.675.375-.975c.225-.225.6-.375.975-.375s.675.15.975.375c.225.225.375.6.375.975 0 .45-.15.75-.375.975zm34.001 6.545c0-.225.15-.525.3-.9s.375-.75.675-1.2c.3-.375.6-.75 1.05-.975.375-.3.825-.45 1.35-.45.751 0 1.35.225 1.8.675s.675 1.05.675 1.65c0 .225 0 .45-.075.525-.075.15-.15.225-.3.375-.15.075-.375.15-.6.15h-3.676l-.15.375h7.276c-.075-.75-.225-1.35-.525-1.875s-.675-.975-1.05-1.35c-.45-.375-.975-.6-1.575-.825a8.18 8.18 0 0 0-1.95-.225c-.825 0-1.575.15-2.325.525-.675.375-1.275.825-1.725 1.425s-.825 1.2-1.126 1.95c-.225.75-.375 1.425-.375 2.175 0 .9.15 1.8.45 2.551.3.825.675 1.5 1.2 2.1s1.125 1.05 1.875 1.425c.751.3 1.575.525 2.401.525.751 0 1.35-.15 1.95-.375s1.05-.6 1.501-.975c.45-.375.75-.825.975-1.35.225-.45.375-.9.45-1.275l-.225-.075c-.225.675-.675 1.2-1.275 1.65-.675.45-1.425.675-2.251.675s-1.501-.15-2.1-.45-1.125-.675-1.501-1.2c-.375-.525-.675-1.125-.9-1.8s-.3-1.35-.3-2.1v-.975l.075-.375zm-29.012-.001c0-.225.15-.525.3-.9s.375-.75.675-1.2c.3-.375.6-.75 1.05-.975.375-.3.825-.45 1.35-.45.75 0 1.35.225 1.8.675s.675 1.05.675 1.65c0 .225 0 .45-.075.525-.075.15-.15.225-.3.375-.15.075-.375.15-.6.15h-3.675l-.15.375h7.276c-.075-.75-.225-1.35-.525-1.875s-.675-.975-1.05-1.35c-.45-.375-.975-.6-1.575-.825a8.175 8.175 0 0 0-1.95-.225c-.825 0-1.575.15-2.325.525-.675.375-1.275.825-1.725 1.425s-.825 1.2-1.125 1.95c-.225.75-.375 1.425-.375 2.175 0 .9.15 1.8.45 2.55.3.825.675 1.5 1.2 2.1s1.125 1.05 1.875 1.425c.75.3 1.575.525 2.4.525.75 0 1.35-.15 1.95-.375s1.05-.6 1.5-.975c.45-.375.75-.825.975-1.35.225-.45.375-.9.45-1.275l-.225-.075c-.225.675-.675 1.2-1.275 1.65-.675.45-1.425.675-2.25.675s-1.5-.15-2.1-.45c-.6-.3-1.125-.675-1.5-1.2s-.675-1.125-.9-1.8c-.225-.675-.3-1.35-.3-2.1v-.975l.075-.375zm9.034 8.678v-.3c.825-.075 1.35-.15 1.575-.225s.375-.3.375-.6V5.381c0-.075-.075-.15-.225-.225-.15-.075-.375-.225-.675-.375l-.75-.375v-.15l3.751-1.2h.15v17.928c0 .15.075.3.15.375s.225.15.375.15.375.075.6.075.525 0 .825.075v.3h-6.151zm15.712-2.09c-.3.525-.6.9-1.05 1.275-.45.3-.975.525-1.575.675s-1.2.225-1.875.225c-.75 0-1.5-.075-2.175-.225s-1.275-.375-1.875-.6v-3.451h.225c.15.45.3.825.525 1.35.225.45.45.9.75 1.275s.675.75 1.05.975c.45.225.9.375 1.5.375.825 0 1.5-.225 2.025-.75.525-.45.75-1.2.75-2.175 0-.525-.15-.975-.525-1.35s-.825-.6-1.425-.75c-.45-.075-.9-.15-1.35-.3-.45-.075-.825-.225-1.2-.375-.675-.225-1.2-.6-1.575-1.2-.375-.525-.6-1.2-.6-2.025 0-.525.15-1.05.375-1.5s.525-.825.9-1.125c.375-.225.825-.45 1.35-.6.45-.15.975-.3 1.575-.3.75 0 1.35.075 1.95.225.525.15 1.125.3 1.575.45l.3 3.226-.225.075c-.225-.525-.525-.975-.75-1.425-.15-.45-.45-.825-.75-1.125-.3-.375-.6-.6-.975-.75-.375-.225-.825-.3-1.35-.3-.3 0-.6.075-.9.15-.225.15-.525.3-.675.45-.225.225-.45.525-.6.825s-.225.675-.225 1.05c0 .675.15 1.125.525 1.35s.825.525 1.35.6c.375.075.825.15 1.275.3.45.075.825.15 1.2.3a4.7 4.7 0 0 1 2.025 1.2c.525.6.825 1.35.825 2.25 0 .675-.075 1.275-.375 1.725zM7.408 27.68c0 .75-.6 1.35-1.35 1.35s-1.35-.6-1.35-1.35.6-1.35 1.35-1.35c.75.075 1.35.675 1.35 1.35zm8.634 0c0 .75-.6 1.35-1.35 1.35s-1.35-.6-1.35-1.35c0-.75.6-1.35 1.35-1.35.75.075 1.35.675 1.35 1.35zm8.635 0c0 .75-.6 1.35-1.35 1.35s-1.35-.6-1.35-1.35.6-1.35 1.35-1.35c.75 0 1.35.675 1.35 1.35zm8.634 0c0 .75-.6 1.35-1.35 1.35s-1.35-.6-1.35-1.35c0-.75.6-1.35 1.35-1.35.75.075 1.35.675 1.35 1.35zm8.634 0c0 .75-.6 1.35-1.35 1.35s-1.35-.6-1.35-1.35.6-1.35 1.35-1.35c.75.075 1.35.675 1.35 1.35zm8.634 0c0 .75-.6 1.35-1.35 1.35s-1.35-.6-1.35-1.35.6-1.35 1.35-1.35c.75.075 1.35.675 1.35 1.35zm8.634 0c0 .75-.6 1.35-1.35 1.35s-1.35-.6-1.35-1.35c0-.75.6-1.35 1.35-1.35.75.075 1.35.675 1.35 1.35zm17.268 0c0 .75-.6 1.35-1.35 1.35s-1.35-.6-1.35-1.35c0-.75.6-1.35 1.35-1.35s1.35.675 1.35 1.35zm-8.634 0c0 .75-.6 1.35-1.35 1.35s-1.35-.6-1.35-1.35.6-1.35 1.35-1.35c.751.075 1.35.675 1.35 1.35z"/><symbol id="kyivpost" viewBox="0 0 147 32"><path d="M76.404.366c-.183.091.152.244.701.305 1.737.152 1.829.579 1.829 10.179 0 9.265-.03 9.356-1.676 9.844-.61.183.792.274 4.419.274 4.632 0 5.15-.03 3.962-.335l-1.371-.366-.244-1.829c-.122-1.006-.183-5.12-.152-9.143l.091-7.314 1.25-.091c1.006-.061 1.402.061 2.164.792 2.743 2.53 1.798 8.899-1.341 8.899-.366 0-.762.152-.884.335-.366.61 3.535.122 4.937-.579 2.133-1.097 3.779-3.505 3.779-5.547 0-1.128-.67-2.712-1.554-3.566C90.729.578 89.023.213 82.501.182c-3.17-.03-5.912.061-6.095.183zM1.432.518c1.859.244 1.92.518 1.92 9.844 0 9.143-.122 9.813-1.615 9.996-.457.061-.823.244-.823.396s2.133.274 5.059.274c3.261 0 4.968-.091 4.846-.305-.091-.183-.579-.305-1.036-.305-.488 0-1.036-.213-1.25-.457-.488-.579-.853-9.63-.396-9.143.183.152 1.31 1.676 2.53 3.322 2.804 3.87 4.754 5.943 6.004 6.461.64.274 2.164.427 4.419.396 2.895-.03 3.261-.091 2.286-.335-.61-.183-1.798-.914-2.621-1.646-1.432-1.28-5.364-5.882-7.741-9.051l-1.158-1.524 2.072-2.103c3.596-3.688 5.486-5.15 7.04-5.577 1.371-.396 1.25-.396-2.682-.396-2.743-.03-3.901.061-3.413.244.366.152.67.488.67.731 0 .579-2.834 3.87-5.638 6.583-1.676 1.615-2.011 1.829-1.859 1.219.091-.427.183-2.286.183-4.114 0-1.859.122-3.535.274-3.749.152-.244.731-.549 1.28-.67.64-.152-.945-.244-4.145-.213-2.865 0-4.724.061-4.206.122z"/><path d="M33.524 3.017c0 .152.274.396.61.488.488.152.579.366.427.853-.366 1.25-3.505 6.613-3.779 6.461-.335-.213-4.084-6.857-3.931-6.979.061-.061.396-.244.731-.427.457-.274-.396-.335-3.81-.335-4.053.03-4.328.061-3.444.457 1.189.518 1.92 1.432 4.815 6.217l2.286 3.779v3.078c0 3.17-.213 3.81-1.25 3.81-.305 0-.64.122-.731.305-.122.213 1.524.305 4.693.305 3.078 0 4.907-.122 4.907-.305s-.396-.305-.853-.305c-1.463 0-1.859-.549-2.072-2.926-.274-3.139.213-4.907 2.408-8.625 2.133-3.627 3.779-5.516 4.724-5.516.366 0 .67-.152.67-.305 0-.183-1.28-.305-3.2-.305-1.768 0-3.2.122-3.2.274zm7.314.092c0 .152.244.244.579.244.305 0 .701.183.884.396.396.488.792 14.385.427 15.604-.183.67-.457.945-1.067 1.006-.457.061-.823.244-.823.396s2.011.274 4.754.274c3.078 0 4.663-.091 4.541-.305-.091-.183-.61-.305-1.097-.305-.67 0-.975-.183-1.189-.792-.183-.427-.305-4.053-.305-8.046 0-7.802.091-8.229 1.585-8.229.366 0 .549-.091.427-.213-.274-.274-8.716-.305-8.716-.03zm59.825.182c-4.206 1.493-6.4 4.876-6.126 9.417.213 3.535 2.133 6.339 5.394 7.802 2.133.975 6.613 1.097 8.96.244 3.383-1.189 5.608-3.779 6.248-7.345.731-4.023-1.158-7.68-4.968-9.691-2.072-1.067-7.04-1.31-9.509-.427zm6.552 1.829c.518.366 1.31 1.463 1.798 2.438.792 1.585.853 2.011.853 5.242 0 3.048-.091 3.657-.701 4.785-.792 1.554-1.981 2.225-3.81 2.225-3.413 0-5.73-3.627-5.699-8.96.03-3.474.884-5.577 2.59-6.309 1.097-.488 3.931-.152 4.968.579zm12.709-2.042c-2.56.975-4.023 3.17-3.688 5.577.274 1.859 1.219 3.109 3.535 4.815 4.419 3.23 4.968 4.145 3.505 5.608-.731.731-.975.792-2.621.67-2.286-.152-3.322-.884-3.962-2.804-.61-1.798-.884-1.28-.884 1.524v1.981l1.158.488c1.585.67 5.608.64 7.284-.061 1.463-.579 3.017-2.194 3.322-3.383.335-1.31-.061-3.657-.762-4.632-.366-.518-1.798-1.707-3.2-2.621-1.371-.945-2.773-1.981-3.078-2.316-.792-.884-.731-2.408.183-3.139 1.097-.884 3.627-.61 4.846.549.518.488.914 1.189.914 1.585s.152.701.305.701c.427 0 .396-4.175-.03-4.45-.61-.366-5.882-.427-6.827-.091zm8.503 0c-.03.091-.183 1.128-.274 2.286-.152 2.042-.152 2.072.305 1.128.61-1.341 1.28-1.615 3.931-1.615h2.316l-.03 6.156c0 3.413-.122 6.857-.213 7.71-.183 1.402-.305 1.554-1.28 1.89-.914.305-.305.366 3.962.335 3.139 0 4.663-.091 4.023-.244-.579-.122-1.189-.396-1.371-.579-.244-.244-.396-2.712-.457-7.863l-.091-7.497 2.469.183c2.651.183 3.352.518 3.352 1.615 0 .366.122.762.274.853.244.152.792-4.023.549-4.267-.183-.213-17.341-.305-17.463-.091zm-78.294.274c.091.152.457.305.762.305.823 0 1.036.396 5.181 9.6 2.011 4.51 3.749 8.259 3.81 8.35.396.366 1.402-1.219 3.444-5.455 6.187-12.922 5.79-12.19 6.766-12.404 2.072-.396 1.036-.701-2.438-.701-2.377 0-3.627.122-3.505.305.091.152.518.305.945.305s.823.183.914.396c.122.335-3.901 10.027-4.419 10.636-.244.274-4.297-9.509-4.297-10.362 0-.457.183-.67.579-.67.335 0 .701-.152.792-.305.122-.183-1.371-.305-4.267-.305s-4.389.122-4.267.305zM.61 27.733V32h145.097l-.091-4.206-.091-4.175L.611 23.467v4.267zm9.203-.701c.091 2.286.122 2.377.945 2.651 1.493.518 1.89 0 1.981-2.682.061-1.798.183-2.316.518-2.316.731 0 .64 4.297-.122 5.211-.731.914-2.773 1.006-3.596.183-.762-.762-1.006-5.394-.274-5.394.366 0 .488.457.549 2.347zm7.254-1.097v1.28l1.371-1.28c.731-.67 1.615-1.25 1.89-1.25.396 0 .122.427-.914 1.432l-1.493 1.402 1.402 1.402c.762.792 1.402 1.524 1.402 1.646 0 .488-.64.122-2.103-1.189l-1.554-1.402v1.432c0 1.006-.122 1.371-.366 1.31-.274-.091-.427-1.067-.488-3.078-.061-2.499 0-2.956.396-2.956.335 0 .457.335.457 1.25zm9.508-.731c.701.64.701 1.768-.03 2.499-.549.549-.549.579 0 1.432.305.488.579 1.067.579 1.25 0 .762-.549.396-1.128-.762-.488-.884-.823-1.158-1.554-1.219-.884-.091-.945-.03-1.036 1.067-.183 2.225-.701.975-.792-1.89l-.091-2.895h1.737c1.189 0 1.92.152 2.316.518zm6.918 2.346c.67 1.585 1.25 2.956 1.25 3.048 0 .488-.67.091-.975-.579s-.518-.762-1.92-.762-1.615.091-1.92.762c-.366.792-1.158 1.097-.884.335 1.006-2.59 2.53-5.669 2.804-5.669.213 0 .945 1.28 1.646 2.865zm3.993.183c0 1.829-.122 3.048-.305 3.048s-.305-1.219-.305-3.048.122-3.048.305-3.048.305 1.219.305 3.048zm4.906-.853 1.646 2.164.091-2.164c.122-3.352.67-2.651.67.884 0 1.798-.122 3.017-.305 2.956-.152-.061-1.036-1.097-1.95-2.347l-1.676-2.225-.091 2.225c-.122 3.23-.67 2.682-.792-.792-.061-2.255 0-2.895.335-2.895.213 0 1.158.975 2.072 2.194zm8.808-1.89c0 .152-.67.305-1.524.305-1.493 0-1.524.03-1.524.884s.061.914 1.463 1.006c1.859.122 1.859.67 0 .792-1.402.091-1.463.152-1.463 1.006s.03.884 1.524.884c1.158 0 1.524.122 1.524.457 0 .396-.335.457-1.89.396l-1.92-.091-.091-2.987-.091-2.956h2.011c1.128 0 1.981.122 1.981.305zm3.048.122c0 .67-.335 1.402-.64 1.402-.152 0-.274-.427-.274-.914 0-.61.152-.914.457-.914.244 0 .457.183.457.427zm6.095.031c.549.67.244.792-.853.396-1.158-.457-2.042-.061-2.042.853 0 .427.396.701 1.371 1.036.762.244 1.554.579 1.768.701.518.366.457 1.432-.152 2.103-.884 1.006-4.053.579-4.053-.549 0-.335.122-.366.579-.122 1.31.67 3.413.091 2.834-.792-.122-.183-.823-.549-1.585-.792-1.707-.549-2.286-1.676-1.371-2.682.67-.762 2.926-.853 3.505-.152zm10.331-.031c.457.518.03.853-.579.457-.701-.427-1.89-.335-2.499.244-.366.335-.549.914-.549 1.768 0 1.615.731 2.377 2.194 2.225.853-.061 1.036-.213 1.097-.945.091-.701 0-.823-.67-.823-.427 0-.792-.152-.792-.305 0-.183.488-.305 1.067-.305h1.067v1.493c0 1.432-.03 1.524-.945 1.707-2.469.549-4.023-.64-4.023-3.078 0-1.92.914-2.865 2.865-2.865.853 0 1.554.183 1.768.427zm3.688 2.164v2.59h1.371c1.006 0 1.371.122 1.371.457 0 .366-.396.457-1.829.457h-1.829v-3.048c0-2.499.091-3.048.457-3.048s.457.488.457 2.59zm8.808-1.92c1.92 2.011.549 5.425-2.133 5.425-.335 0-1.036-.396-1.524-.884-1.189-1.219-1.25-3.322-.122-4.45.975-1.006 2.895-1.067 3.779-.091zm7.07-.091c.67.518.701.67.366 1.524-.183.549-.213 1.006-.061 1.128.152.091.274.549.274 1.036 0 1.25-1.067 1.89-2.956 1.768L86.4 30.63l-.091-2.987-.091-2.956h1.676c1.158 0 1.859.183 2.347.579zm6.857 2.316c.701 1.554 1.189 2.926 1.097 3.017-.244.274-.975-.427-.975-.914 0-.305-.457-.427-1.615-.427-1.463 0-1.676.091-1.981.762-.335.731-.975 1.067-.975.488 0-.152.274-.914.61-1.676l1.219-2.773c.305-.762.762-1.371.975-1.371s.975 1.31 1.646 2.895zm4.084-.335v2.59l1.371.091c2.072.152 1.798.701-.366.792l-1.92.091v-3.078c0-2.499.091-3.048.457-3.048s.457.488.457 2.56zm9.295-.396c.488 1.189.975 2.194 1.097 2.286.122.061.67-.914 1.219-2.164s1.158-2.286 1.371-2.286c.427 0-2.042 5.851-2.53 6.004-.274.091-2.865-5.181-2.834-5.79 0-.122.183-.213.396-.213.183 0 .762.975 1.28 2.164zm10.118-1.494c.945.884 1.006 3.474.091 4.45-1.158 1.25-2.804 1.219-3.962-.03-.853-.884-.823-3.2.03-4.297.823-1.036 2.773-1.128 3.84-.122zm3.993 2.286c-.061 2.011-.213 2.987-.457 3.078-.305.091-.396-.64-.396-2.956 0-2.56.091-3.078.457-3.078.396 0 .457.457.396 2.956zm6.735-2.53c.457.518.03.853-.579.457-.823-.488-2.072-.305-2.56.396-1.463 2.072.427 4.724 2.56 3.596.335-.183.64-.183.731-.03.305.488-.61.945-1.95 1.006-1.097.03-1.432-.091-2.042-.792-.427-.518-.701-1.219-.701-1.89 0-1.158.67-2.712 1.28-2.956.853-.335 2.926-.213 3.261.213zm6.43-.122c0 .152-.67.305-1.524.305-1.524 0-1.524 0-1.524 1.006 0 .975 0 .975 1.371.884 1.097-.091 1.371-.03 1.371.366 0 .366-.305.488-1.371.488-1.31 0-1.371.03-1.371.914s.03.914 1.524.914c1.158 0 1.524.122 1.524.457 0 .396-.335.457-1.89.396l-1.92-.091-.091-2.987-.091-2.956h2.011c1.128 0 1.981.122 1.981.305z"/><path d="M23.467 26.331v1.128l1.25-.091c.792-.061 1.402-.274 1.615-.61.457-.731-.061-1.158-1.615-1.371l-1.25-.183v1.128zm7.832.64c-.305.64-.488 1.189-.396 1.28.061.061.549.091 1.067.03l.914-.091-.518-1.189-.518-1.158-.549 1.128zm48.762-1.127c-.67.731-.67 2.895-.03 3.535.701.731 2.133.61 2.682-.183 1.524-2.164-.945-5.242-2.651-3.352zm7.101.396c0 .884.03.914 1.31.823 1.036-.061 1.31-.213 1.371-.731.091-.67-.579-1.036-1.981-1.036-.579 0-.701.152-.701.945zm0 2.712c0 .914.03.945 1.31.853 1.128-.091 1.28-.183 1.28-.853s-.152-.762-1.28-.853c-1.28-.091-1.31-.061-1.31.853zm7.802-2.011c-.274.67-.427 1.25-.366 1.31.061.091.518.091 1.036.03l.884-.091-1.036-2.438-.518 1.189zm22.583-1.189c-.701.701-.914 2.164-.457 3.109.61 1.25 2.621 1.25 3.23 0 .457-.945.244-2.408-.457-3.109-.579-.579-1.737-.579-2.316 0z"/></symbol><symbol id="hromadske" viewBox="0 0 141 32"><path d="M28.512.679c-.651.223-1.116.502-1.563.949-1.619 1.647-1.107 4.381 1.014 5.395.474.233.66.27 1.386.279.716 0 .912-.037 1.367-.251A3.528 3.528 0 0 0 32.4 5.404c.27-.549.298-.688.298-1.451 0-.716-.037-.912-.251-1.377-.353-.744-1.098-1.47-1.795-1.74-.679-.251-1.628-.326-2.14-.158zM3.349.735c-.66.214-1.767.986-1.767 1.237 0 .046-.056.149-.13.223s-.223.372-.335.66c-.288.753-.233 1.823.13 2.521.707 1.395 2.177 2.158 3.572 1.87 1.442-.298 2.419-1.265 2.726-2.707.298-1.367-.53-2.958-1.87-3.6-.409-.186-.67-.242-1.302-.26C3.936.67 3.48.688 3.35.735zm1.674 1.823c.865.446 1.098 1.684.456 2.419-.651.735-1.712.753-2.353.046-.93-1.033-.251-2.605 1.126-2.605.279 0 .623.065.772.14zM11.721.744a3.463 3.463 0 0 0-2.065 1.749c-.279.567-.307.688-.307 1.507 0 .828.019.921.316 1.47.642 1.181 1.684 1.814 3.005 1.814.595 0 .809-.046 1.321-.288 2.214-1.033 2.66-3.805.884-5.47-.651-.614-1.302-.865-2.233-.856-.381 0-.791.028-.921.074zm8.186.065c-.233.074-.595.26-.809.409-.437.307-.977.912-.902 1.033.028.037.009.074-.047.074-.047 0-.177.242-.288.53-.307.819-.233 1.823.186 2.614.623 1.181 1.674 1.814 2.995 1.814.595 0 .809-.046 1.321-.288 2.214-1.033 2.66-3.805.884-5.47-.651-.614-1.302-.856-2.233-.865-.381 0-.874.065-1.107.149zM3.46 8.791c-.651.186-.912.326-1.433.791-.279.242-.549.614-.744 1.005-.279.549-.307.707-.307 1.414s.028.865.307 1.414c1.033 2.093 3.6 2.558 5.302.967a3.035 3.035 0 0 0 .986-2.242c0-.847-.065-1.163-.381-1.74-.698-1.274-2.363-1.991-3.73-1.609zm1.405 1.758c.409.167.884.726.958 1.126.251 1.349-1.144 2.363-2.335 1.693-.437-.242-.791-.856-.791-1.377 0-1.07 1.181-1.86 2.167-1.442zm7.07-1.805c-.94.195-1.823.912-2.279 1.842-.279.549-.307.707-.307 1.414 0 .67.037.874.27 1.367.326.707.967 1.34 1.712 1.684.447.214.66.251 1.321.251s.874-.037 1.321-.251c1.87-.874 2.54-3.014 1.507-4.781-.66-1.135-2.223-1.805-3.544-1.526zm8.363 0c-1.86.391-3.051 2.474-2.437 4.279.326.967.828 1.526 1.767 1.991.53.251.698.288 1.395.288.707 0 .865-.037 1.414-.307 1.842-.902 2.456-3.126 1.33-4.828-.735-1.107-2.177-1.693-3.47-1.423zm8.539-.009c-.074.056-.167.065-.205.046-.037-.028-.354.084-.679.251-1.274.623-1.991 1.87-1.879 3.246.074.884.4 1.535 1.098 2.177 1.023.949 2.4 1.153 3.665.53 2.307-1.144 2.502-4.391.344-5.767-.744-.465-1.963-.716-2.344-.484zm10.056.911c0 .093 0 3.581-.009 7.749v8.093h2.419v-3.005c-.009-2.8 0-3.033.186-3.637.353-1.135 1.163-1.73 2.335-1.73 1.181.009 1.898.744 2.13 2.177.074.502.121 4.26.065 5.637l-.019.512 2.372.056.009-1.842c.009-4.781.009-4.856-.307-5.888-.4-1.302-1.274-2.27-2.428-2.67-.67-.233-2.307-.233-2.716 0-.149.084-.335.158-.4.158-.056 0-.372.251-.688.558-.307.307-.586.558-.605.558-.009 0-.028-1.553-.028-3.442V9.488h-1.154c-1.042 0-1.163.019-1.163.158zm67.135 3.275L106 16.363l-.465-.419c-.874-.772-1.87-1.116-3.005-1.033-1.349.093-2.53.763-3.423 1.963-.558.744-.986 1.777-1.005 2.447 0 .27-.046.493-.093.493-.093 0 0 1.247.149 1.86.335 1.405 1.423 2.8 2.679 3.433.93.465 1.86.633 2.651.484.726-.13 1.572-.558 2.065-1.023.214-.214.419-.381.447-.381s.046.288.046.651v.651h2.419v-16h-2.419l-.019 3.433zm-1.907 4.326c1.228.437 1.944 1.563 1.935 3.033-.009 1.386-.502 2.288-1.553 2.8-1.553.772-3.237.121-3.87-1.488-.149-.391-.205-.726-.205-1.358 0-.735.028-.912.26-1.423.316-.679.967-1.33 1.572-1.535.493-.177 1.395-.186 1.86-.028zm15.693.241v8h2.419v-4.186h.353c.344 0 .419.065 2.307 2.093l1.944 2.093h3.051l-.456-.484a285.803 285.803 0 0 0-2.93-3.163c-.186-.186-.614-.66-.958-1.042l-.614-.688 1.126-1.34c.614-.735 1.526-1.814 2.028-2.4.493-.586.94-1.126.977-1.191.056-.084-.251-.112-1.405-.102h-1.47l-1.628 1.972c-1.572 1.907-1.86 2.167-2.205 2.037-.093-.028-.121-1.079-.121-4.819V9.487h-2.419v8zm-65.581-2.474c-.177.065-.437.167-.577.223s-.493.335-.791.614c-.298.288-.558.521-.586.521s-.037-.316-.019-.698l.037-.698H49.86v10.512h2.521l-.019-3.005c-.019-3.107.009-3.433.391-4.167.233-.465.846-.967 1.349-1.107.595-.167 1.433-.074 1.944.223l.419.251.251-.437c.149-.242.419-.679.614-.986.186-.298.344-.577.344-.614 0-.13-.698-.474-1.256-.623-.67-.167-1.74-.177-2.186-.009zm7.255.009a4.986 4.986 0 0 0-3.349 2.698c-.428.902-.558 1.479-.558 2.54 0 1.507.53 2.856 1.516 3.851 1.591 1.609 3.991 1.991 6.074.958.828-.409 1.386-.893 1.926-1.693 1.135-1.674 1.246-3.972.288-5.795-.66-1.265-1.916-2.223-3.312-2.558-.716-.167-1.898-.167-2.586 0zm2.568 2.4c1.795.912 2.158 3.814.651 5.209-.716.67-1.879.902-2.846.577-1.888-.623-2.54-3.386-1.2-5.079.307-.391.94-.809 1.414-.93.549-.14 1.47-.037 1.981.223zm9.228-2.325c-.567.242-1.033.586-1.34 1.005-.102.149-.223.242-.251.205-.037-.028-.065-.344-.065-.698v-.633h-1.163c-.967 0-1.163.028-1.172.14l-.019 5.228v5.098l2.447.056v-3.07c0-2.781.019-3.116.186-3.646.344-1.107 1.033-1.665 2.093-1.665.67 0 1.237.233 1.516.623.102.14.26.512.353.819.158.502.167.884.158 3.74l-.028 3.191h2.4l.037-3.237c.037-3.088.046-3.247.242-3.749.121-.298.326-.642.465-.781.847-.856 2.372-.791 3.098.14.484.614.549 1.116.549 4.53v3.098h2.409l-.028-3.423c-.019-3.2-.037-3.451-.233-4.093-.633-2.13-1.833-3.079-3.879-3.088-1.153 0-1.972.344-2.902 1.247l-.502.474-.149-.233c-.298-.465-.977-1.023-1.498-1.219-.353-.14-.791-.214-1.358-.242-.726-.028-.912 0-1.367.186zm16.911-.112c-2.288.567-4.019 3.098-3.833 5.619.102 1.423.651 2.67 1.572 3.591.614.623 1.107.93 1.842 1.191 1.498.512 2.995.223 4.065-.772.251-.233.484-.428.521-.428.028 0 .056.288.056.651v.651h2.419V14.977h-2.409v.623c.009.354.009.67 0 .707 0 .047-.205-.093-.447-.316a5.918 5.918 0 0 0-1.135-.716c-.605-.288-.8-.335-1.488-.363-.437-.009-.958.019-1.163.074zm2.782 2.512c.558.335.819.633 1.163 1.293.326.614.372 1.888.102 2.651-.112.307-.205.595-.223.642-.056.233-.781.846-1.256 1.06-1.079.493-2.447.233-3.191-.605-.763-.874-1.014-2.177-.651-3.377.177-.577.288-.763.735-1.209.67-.67 1.116-.846 2.084-.809.614.028.781.074 1.237.354zm19.767-2.465a4.26 4.26 0 0 0-.884.363c-.409.233-1.219 1.051-1.126 1.135.028.028-.009.112-.084.177-.186.186-.353 1.126-.288 1.609.084.605.474 1.349.874 1.665.558.447 1.088.67 2.335.986.651.177 1.274.354 1.377.419.549.288.754 1.042.437 1.591-.512.856-2.214.846-3.442-.019-.428-.298-.549-.344-.642-.242l-.633.735-.521.614.298.279c.391.381 1.367.902 2.065 1.107.819.242 2.326.223 3.07-.047 1.535-.549 2.372-1.628 2.372-3.033 0-.856-.233-1.479-.763-2.019-.558-.577-1.284-.902-2.726-1.247-.967-.223-1.163-.298-1.433-.567-.279-.279-.307-.354-.26-.707.14-1.023 1.516-1.302 2.893-.586l.586.307.577-.744c.316-.4.558-.791.53-.856-.065-.177-1.302-.763-1.963-.93-.688-.177-1.981-.167-2.651.009zm20.921-.01c-1.349.326-2.633 1.349-3.209 2.558-.781 1.609-.781 3.749-.009 5.274 1.033 2.028 3.46 3.135 5.907 2.688a5.253 5.253 0 0 0 2.8-1.405c.363-.344.66-.651.66-.688 0-.056-.512-.372-1.47-.921l-.4-.223-.14.195c-.195.27-.893.735-1.358.902-.595.214-1.777.186-2.409-.047-.846-.316-1.544-1.144-1.702-2.037l-.047-.298H140v-.865c0-1.87-.586-3.163-1.935-4.27-1.033-.847-2.921-1.219-4.4-.865zm2.382 2.084a2.639 2.639 0 0 1 1.488 1.842l.065.307h-2.614c-3.014 0-2.828.074-2.307-.93.326-.642.763-1.051 1.33-1.256.53-.195 1.581-.167 2.037.037zm-124.038-.261c-.958.186-1.767.791-2.242 1.684-.27.502-.326.698-.354 1.377-.028.642 0 .893.167 1.321.27.735.893 1.395 1.656 1.767.558.279.698.307 1.414.307.679-.009.874-.047 1.34-.279 1.944-.93 2.512-3.423 1.153-5.014-.381-.437-1.033-.921-1.256-.921-.065 0-.121-.037-.121-.074s-.26-.112-.586-.167c-.651-.112-.605-.112-1.172 0zm7.972.019c-.958.363-1.6.94-2.019 1.833-.205.437-.242.642-.242 1.395 0 .791.028.94.279 1.423.791 1.581 2.753 2.316 4.279 1.619.753-.354 1.116-.642 1.488-1.209.893-1.34.726-3.07-.4-4.195-.66-.66-1.293-.93-2.251-.967-.493-.009-.921.028-1.135.102zm-8.307 8.065c-.54.167-1.302.707-1.646 1.163-1.256 1.665-.698 4.065 1.163 4.977.977.465 2.019.465 2.986-.019.493-.251 1.181-.958 1.433-1.479.223-.456.428-1.442.335-1.591-.037-.047-.065-.27-.084-.484-.056-.856-.874-1.916-1.814-2.372-.409-.186-.67-.242-1.302-.26-.437-.009-.912.019-1.07.065zm8.419-.009c-1.628.521-2.66 2.186-2.335 3.767.391 1.907 2.195 3.088 4.009 2.623 1.033-.27 1.712-.809 2.214-1.767.223-.419.251-.577.251-1.405 0-.809-.028-.995-.242-1.442-.381-.791-1.219-1.535-1.981-1.74-.326-.093-1.665-.121-1.916-.037z"/></symbol><symbol id="delo" viewBox="0 0 32 32"><path d="M0 16v16h32V0H0v16zm9.4-1.575v3.625H8.05v-.295l-.27.12c-.415.185-1.035.295-1.46.26-1.42-.12-2.42-1.245-2.42-2.71 0-1.3.81-2.34 2.045-2.625.54-.125 1.37-.015 2.02.27.08.04.085-.035.085-1.115V10.8H9.4v3.625zm8.45 0v3.625H16.5V10.8h1.35v3.625zm-4.095-1.585c.67.185 1.17.61 1.465 1.225.22.465.295.805.3 1.335l.005.425-1.91.015c-1.26.005-1.915.03-1.915.06 0 .125.26.545.42.69.34.295.455.335 1.03.335.59 0 .81-.08 1.16-.415l.185-.175.425.345c.235.19.43.36.43.375 0 .09-.565.565-.845.715-.485.25-.89.345-1.505.345-.44 0-.585-.02-.895-.13-.655-.23-1.13-.635-1.445-1.225-.22-.41-.31-.805-.31-1.345 0-1.255.765-2.27 1.95-2.585.39-.105 1.06-.1 1.455.01zm8.62-.015c.535.135.92.36 1.33.77.55.55.795 1.11.795 1.83 0 .89-.455 1.725-1.215 2.225-.73.48-1.745.61-2.56.33-1.175-.405-1.925-1.405-1.925-2.57 0-1.17.925-2.29 2.13-2.58.395-.095 1.08-.1 1.445-.005zm4.02 3.865c.48.355.475.97-.01 1.33-.205.15-.605.145-.825-.01a.837.837 0 0 1-.23-1.065c.205-.36.75-.49 1.065-.255zm-5.035 3.545c.015.955.025 1.115.11 1.285.24.485 1.05.505 1.365.035.11-.165.115-.21.115-1.285v-1.12h.7v1.14c0 1.26-.03 1.445-.3 1.77-.085.1-.28.245-.44.325-.25.12-.34.14-.735.14-.695-.005-1.11-.23-1.355-.75-.115-.24-.12-.295-.12-1.44V19.15h.64l.02 1.085zm5.15.585c.435.905.79 1.65.79 1.66s-.165.02-.365.02h-.37l-.14-.325-.135-.325h-1.515l-.13.315-.125.31-.765.03.655-1.365c.36-.75.715-1.505.795-1.68.14-.315.145-.315.33-.3l.185.015.79 1.645z"/><path d="M6.325 14.02c-.425.135-.76.405-.955.78-.13.245-.135 1.05-.005 1.285.15.275.39.515.655.655.23.12.305.135.785.135.505 0 .545-.01.875-.175l.345-.175.015-1.045c.01-.76-.005-1.06-.05-1.115-.095-.115-.49-.295-.78-.36-.335-.07-.63-.065-.885.015zm6.445-.17c-.47.07-.88.455-1.04.985l-.035.115h2.565l-.035-.165c-.145-.69-.7-1.055-1.455-.935zm8.395.19c-1.275.455-1.38 2.125-.17 2.72.19.095.315.115.68.115.405 0 .475-.015.72-.15.295-.16.56-.455.685-.75.115-.28.105-.805-.03-1.11-.295-.695-1.175-1.08-1.885-.825zm4.12 6.67-.23.515.455.015c.25.005.465.005.475-.01.02-.02-.37-.915-.435-.995-.02-.02-.135.195-.265.475z"/></symbol><symbol id="ain" viewBox="0 0 52 32"><path d="M51.1 15.879c-.78-2.793-3.385-5.331-9.718-5.331-5.23 0-7.758.996-8.519 1.661-.502.434-.715.711-.715 1.543v15.054a2.525 2.525 0 0 0 2.517 2.533h2.975a2.526 2.526 0 0 0 2.519-2.534V15.644c0-1.091 3.13-1.512 3.13.811 0 .673-.021 12.352-.021 12.352a2.525 2.525 0 0 0 2.517 2.534h2.972a2.525 2.525 0 0 0 2.519-2.532V17.915c0-1.044-.128-1.847-.183-2.039l.008.003zM8.745 10.318c-6.192 0-8.176 1.916-8.469 2.428-.515.9.259 2.657 1.586 2.755 1.074.078 4.722-1.953 8.912-.748 1.469.422 1.242 2.253 1.242 2.833s-.363.792-1.152.792c-.789 0-10.852-1.215-10.852 6.492 0 5.86 6.805 6.706 9.614 6.706s9.614.105 9.614-2.958V17.006c0-3.308-3.356-6.687-10.492-6.687l-.003-.001zm3.083 16.11c0 .8-.493 1.55-1.998 1.55-1.141 0-2.126-1.017-2.126-3.275 0-2.022.96-3.275 2.126-3.275 1.375 0 1.998.86 1.998 1.436v3.563zM30.719 0H19.974c-1.14 0-1.212 1.188-1.212 1.188v8.149c0 1.604 1.625 1.568 1.625 1.568v1.648c-.03 1.227.829 1.259 2.256.436l3.709-2.108h4.295c1.188 0 1.382-1.284 1.382-1.284V1.455c0-1.331-1.31-1.454-1.31-1.454zm-.389 9.184h-3.153c-1.164 0-1.916.485-1.916.485l-3.43 2.052v-1.052c0-1.572-1.445-1.557-1.445-1.557V1.601h9.944v7.584z"/><path d="M28.803 6.225h-6.622v1.239h6.622V6.225zm0-2.451h-6.622v1.237h6.622V3.774zm-1.389 9.163c-.937 0-1.442.23-1.442.23s-3.122 1.664-3.449 1.84c-.843.449-.8 1.232-.8 1.232v12.575a2.527 2.527 0 0 0 2.519 2.534h2.972a2.523 2.523 0 0 0 2.519-2.532V14.245c0-.732-.341-1.306-1.052-1.306l-1.267-.001z"/></symbol><symbol id="focus" viewBox="0 0 145 32"><path d="M61.027 10.566A10.63 10.63 0 0 0 54.3.86a10.625 10.625 0 0 0-4.081-.739h-3.381a10.748 10.748 0 0 0-10.506 10.807l.181 10.385A10.69 10.69 0 0 0 47.32 31.819h3.321a10.69 10.69 0 0 0 10.506-10.807l-.121-10.445zM49.978 25.479h-2.415a4.047 4.047 0 0 1-4.045-3.985l-.181-11.23a4.047 4.047 0 0 1 3.985-4.106h2.415a4.106 4.106 0 0 1 4.105 3.984l.121 11.23a3.987 3.987 0 0 1-2.432 3.791 3.969 3.969 0 0 1-1.553.314zM13.027.121h7.487v2.294h4.347a8.755 8.755 0 0 1 8.694 8.694v7.306a8.696 8.696 0 0 1-8.695 8.634h-4.347v4.734h-7.487v-4.734H9.041a8.699 8.699 0 0 1-8.695-8.634v-7.306A8.755 8.755 0 0 1 9.04 2.415h3.985V.121zm0 7.788h-1.691a4.166 4.166 0 0 0-4.227 4.166v5.374a4.167 4.167 0 0 0 4.227 4.166h1.691V7.909zm7.487 13.706h1.691a4.166 4.166 0 0 0 4.227-4.166v-5.374a4.167 4.167 0 0 0-4.227-4.166h-1.691v13.706zM111.563.121l-5.856 13.887L99.005.121h-8.091l11.291 22.219-3.925 9.298h8.091L119.412.121h-7.849zM90.551 31.638 78.898 14.43 89.283.121h-8.091l-9.057 13.645V0h-7.487v31.638h7.487V16.423L82.52 31.638h8.03zm45.766-9.6a3.922 3.922 0 0 1-3.924 3.442h-2.415a4.043 4.043 0 0 1-4.045-3.985l-.181-11.23a4.048 4.048 0 0 1 3.985-4.105h2.415a4.106 4.106 0 0 1 3.985 3.26h7.185A10.625 10.625 0 0 0 132.635.122h-3.381a10.75 10.75 0 0 0-10.506 10.807l.181 10.385a10.687 10.687 0 0 0 10.808 10.506h3.321a10.624 10.624 0 0 0 10.446-9.721l-7.185-.06z"/></symbol><symbol id="combs" viewBox="0 0 24 32"><path d="M2.122 18.53a1.622 1.622 0 0 1 1.401-.809c4.167 0 3.925-.017 4.186.045.076-.259-.013-.069 2.054-3.648.064-.111.141-.213.228-.304-.185-.195-.047.01-2.133-3.603a1.62 1.62 0 0 1 0-1.618l.566-.979a.504.504 0 1 1 .875.505l-.566.98a.61.61 0 0 0 0 .607l1.905 3.3a.61.61 0 0 0 .526.303c4.509 0 3.919.073 4.306-.24.515-.992 2.017-3.332 2.017-3.667 0-.225.078-.028-1.987-3.603a.61.61 0 0 0-.526-.304h-3.811a.608.608 0 0 0-.526.304l-.329.57a.505.505 0 0 1-.875-.505l.329-.57a1.622 1.622 0 0 1 1.401-.809h3.811c.129 0 .257.016.38.046.036-.121.085-.238.149-.35l1.905-3.3a1.622 1.622 0 0 1 1.401-.809h3.81c.576 0 1.113.31 1.401.809l1.905 3.3c.064.111.113.228.149.349.122-.029.247-.045.375-.045h3.81c.576 0 1.113.31 1.401.809 2.061 3.57 2.122 3.533 2.122 4.109 0 .544-.217.808-.699 1.644a.506.506 0 1 1-.875-.505c.507-.878.564-.926.564-1.139 0-.224.082-.02-1.987-3.603a.609.609 0 0 0-.526-.304h-3.81a.605.605 0 0 0-.523.304c-2.062 3.571-1.947 3.408-2.133 3.603.231.243.242.327 2.133 3.603l.007.014c.11.179.306.29.516.29h3.81a.61.61 0 0 0 .526-.303l.412-.714a.505.505 0 0 1 .875.505c-.443.768-.47.838-.64 1.018.185.195.048-.008 2.133 3.603a1.623 1.623 0 0 1 0 1.618l-1.905 3.3a1.622 1.622 0 0 1-1.401.809c-4.169 0-3.925.017-4.185-.045-.076.259.013.069-2.054 3.648a1.621 1.621 0 0 1-1.401.809c-4.172 0-3.927.018-4.19-.046-.076.258.03.04-2.054 3.65a1.622 1.622 0 0 1-1.401.809h-3.811c-.576 0-1.113-.31-1.401-.809-2.087-3.616-1.978-3.392-2.054-3.648-.26.062-.015.045-4.185.045-.576 0-1.113-.31-1.401-.809l-.459-.795a.505.505 0 1 1 .875-.505l.459.795a.608.608 0 0 0 .526.303h3.81c.205 0 .41-.106.524-.304l1.914-3.315a.599.599 0 0 0-.009-.592l-1.913-3.314a.608.608 0 0 0-.516-.29h-3.81a.61.61 0 0 0-.526.304C.934 22.611 1.01 22.415 1.01 22.64c0 .21.052.252.517 1.057a.505.505 0 1 1-.875.505C.207 23.431 0 23.172 0 22.639c0-.572.052-.523 2.122-4.109zM25.048 5.294l.009-.014a.605.605 0 0 0-.007-.593l-1.905-3.3a.61.61 0 0 0-.526-.303h-3.81a.61.61 0 0 0-.526.304l-1.905 3.3a.61.61 0 0 0 0 .607l1.905 3.3a.61.61 0 0 0 .526.303h3.81a.61.61 0 0 0 .526-.303c.002-.003.663-1.152 1.903-3.3zm0 8.217-1.913-3.314a.61.61 0 0 0-.516-.289h-3.81a.61.61 0 0 0-.526.303l-1.905 3.3a.61.61 0 0 0 0 .607l1.905 3.3a.61.61 0 0 0 .526.304h3.81a.606.606 0 0 0 .524-.304l1.914-3.314a.603.603 0 0 0-.009-.593zm.884 8.332c.11.179.306.289.516.289h3.81a.61.61 0 0 0 .526-.303l1.905-3.3a.61.61 0 0 0 0-.607l-1.905-3.3a.608.608 0 0 0-.526-.303h-3.81a.606.606 0 0 0-.524.303l-1.914 3.314a.603.603 0 0 0 .009.593c2.182 3.78 1.875 3.247 1.912 3.314zm-7.124 4.702h3.81a.61.61 0 0 0 .526-.303l1.905-3.3a.604.604 0 0 0-.002-.607l-1.913-3.314a.608.608 0 0 0-.516-.29h-3.81a.61.61 0 0 0-.526.304l-1.905 3.3a.61.61 0 0 0 0 .607l1.905 3.3a.61.61 0 0 0 .526.303zm-10.074.202a.607.607 0 0 0-.002.607l1.905 3.3a.61.61 0 0 0 .526.303h3.81a.61.61 0 0 0 .526-.303l1.905-3.3a.61.61 0 0 0 0-.607l-1.905-3.3a.607.607 0 0 0-.526-.303H11.16a.603.603 0 0 0-.521.304l-1.905 3.3zm0-8.217c2.187 3.788 1.875 3.246 1.913 3.314a.606.606 0 0 0 .516.289h3.813a.61.61 0 0 0 .523-.303l1.905-3.3a.61.61 0 0 0 0-.607l-1.905-3.3a.61.61 0 0 0-.526-.303h-3.811a.61.61 0 0 0-.526.303l-1.905 3.3a.604.604 0 0 0 .002.607z"/></symbol><symbol id="combs-join-rigth" viewBox="0 0 42 32"><path d="M23.272 23.078a1.192 1.192 0 0 1-1.03.595c-3.063 0-2.885.012-3.077-.033-.056.19.009.051-1.51 2.682a1.191 1.191 0 0 1-.167.223c.136.143.035-.007 1.568 2.649a1.19 1.19 0 0 1 0 1.189l-.416.72a.37.37 0 1 1-.643-.371l.416-.72a.447.447 0 0 0 0-.446l-1.4-2.426a.448.448 0 0 0-.387-.223c-3.314 0-2.881-.054-3.165.176-.378.729-1.482 2.449-1.482 2.695 0 .166-.057.02 1.46 2.649a.446.446 0 0 0 .386.223h2.801a.445.445 0 0 0 .386-.223l.242-.419a.371.371 0 0 1 .643.371l-.242.419a1.192 1.192 0 0 1-1.03.595h-2.801c-.095 0-.189-.012-.279-.034a1.138 1.138 0 0 1-.11.257l-1.4 2.426a1.192 1.192 0 0 1-1.03.595H8.204c-.423 0-.818-.228-1.03-.595l-1.4-2.426a1.195 1.195 0 0 1-.109-.256 1.152 1.152 0 0 1-.276.033H2.588c-.423 0-.818-.228-1.03-.595-1.515-2.624-1.56-2.597-1.56-3.02 0-.4.159-.594.514-1.208a.372.372 0 0 1 .643.371c-.373.646-.414.681-.414.837 0 .165-.06.015 1.46 2.649a.445.445 0 0 0 .386.223h2.801a.449.449 0 0 0 .38-.213l.005-.01c1.515-2.625 1.431-2.505 1.568-2.649-.17-.179-.178-.241-1.568-2.649l-.005-.01a.449.449 0 0 0-.38-.213H2.587a.445.445 0 0 0-.386.223l-.303.525a.37.37 0 1 1-.643-.371c.326-.564.345-.616.471-.748-.136-.143-.035.006-1.568-2.649a1.19 1.19 0 0 1 0-1.189l1.4-2.426a1.192 1.192 0 0 1 1.03-.595c3.064 0 2.885-.012 3.077.033.056-.19-.009-.05 1.51-2.682a1.192 1.192 0 0 1 1.03-.595c3.067 0 2.887-.013 3.08.034.056-.189-.022-.029 1.51-2.683a1.192 1.192 0 0 1 1.03-.595h2.801c.423 0 .818.228 1.03.595 1.534 2.658 1.454 2.493 1.51 2.682.191-.046.011-.033 3.076-.033.424 0 .818.228 1.03.595l.338.585a.371.371 0 1 1-.643.371l-.338-.585a.445.445 0 0 0-.386-.223h-2.801a.444.444 0 0 0-.385.223l-1.407 2.437a.439.439 0 0 0 .007.435l1.406 2.436a.448.448 0 0 0 .379.213h2.801a.445.445 0 0 0 .386-.223c1.517-2.627 1.46-2.483 1.46-2.649 0-.154-.038-.185-.38-.777a.371.371 0 0 1 .643-.371c.327.567.479.757.479 1.149 0 .421-.038.384-1.56 3.02zM6.42 32.807l-.006.01a.445.445 0 0 0 .005.436l1.4 2.426a.446.446 0 0 0 .386.223h2.801a.445.445 0 0 0 .386-.223l1.4-2.426a.45.45 0 0 0 0-.446l-1.4-2.426a.446.446 0 0 0-.386-.223H8.205a.445.445 0 0 0-.386.223c-.001.002-.487.847-1.399 2.426zm0-6.04 1.406 2.436a.448.448 0 0 0 .379.213h2.801a.445.445 0 0 0 .386-.223l1.4-2.426a.45.45 0 0 0 0-.446l-1.4-2.426a.446.446 0 0 0-.386-.223H8.205a.445.445 0 0 0-.385.223l-1.407 2.436a.446.446 0 0 0 .006.436zm-.65-6.125a.449.449 0 0 0-.38-.213H2.589a.445.445 0 0 0-.386.223l-1.4 2.426a.444.444 0 0 0 0 .446l1.4 2.426a.445.445 0 0 0 .386.223H5.39c.153 0 .303-.08.385-.223l1.407-2.436a.446.446 0 0 0-.006-.436L5.77 20.642zm5.236-3.456H8.205a.445.445 0 0 0-.386.223l-1.4 2.426a.444.444 0 0 0 .001.446l1.406 2.436a.448.448 0 0 0 .379.213h2.801a.447.447 0 0 0 .386-.223l1.4-2.426a.45.45 0 0 0 0-.446l-1.4-2.426a.446.446 0 0 0-.386-.223zm7.406-.148a.444.444 0 0 0 .001-.446l-1.4-2.426a.448.448 0 0 0-.387-.223h-2.801a.445.445 0 0 0-.386.223l-1.4 2.426a.444.444 0 0 0 0 .446l1.4 2.426a.448.448 0 0 0 .386.223h2.803c.152-.001.3-.08.383-.223l1.401-2.426zm0 6.04-1.406-2.436a.446.446 0 0 0-.379-.213h-2.803a.447.447 0 0 0-.384.223l-1.4 2.426a.45.45 0 0 0 0 .446l1.4 2.426a.446.446 0 0 0 .386.223h2.801a.445.445 0 0 0 .386-.223l1.4-2.426a.444.444 0 0 0-.001-.446z"/><path d="M40.072 26.478a1.192 1.192 0 0 1-1.03.595c-3.063 0-2.885.012-3.077-.033-.056.19.009.051-1.51 2.682a1.191 1.191 0 0 1-.167.223c.136.143.035-.007 1.568 2.649a1.19 1.19 0 0 1 0 1.189l-.416.72a.37.37 0 1 1-.643-.371l.416-.72a.447.447 0 0 0 0-.446l-1.4-2.426a.448.448 0 0 0-.387-.223c-3.314 0-2.881-.054-3.165.176-.378.729-1.482 2.449-1.482 2.695 0 .166-.057.02 1.46 2.649a.446.446 0 0 0 .386.223h2.801a.445.445 0 0 0 .386-.223l.242-.419a.371.371 0 0 1 .643.371l-.242.419a1.192 1.192 0 0 1-1.03.595h-2.801c-.095 0-.189-.012-.279-.034a1.138 1.138 0 0 1-.11.257l-1.4 2.426a1.192 1.192 0 0 1-1.03.595h-2.801c-.423 0-.818-.228-1.03-.595l-1.4-2.426a1.195 1.195 0 0 1-.109-.256 1.152 1.152 0 0 1-.276.033h-2.801c-.423 0-.818-.228-1.03-.595-1.515-2.624-1.56-2.597-1.56-3.02 0-.4.159-.594.514-1.208a.372.372 0 0 1 .643.371c-.373.646-.414.681-.414.837 0 .165-.06.015 1.46 2.649a.445.445 0 0 0 .386.223h2.801a.449.449 0 0 0 .38-.213l.005-.01c1.515-2.625 1.431-2.505 1.568-2.649-.17-.179-.178-.241-1.568-2.649l-.005-.01a.449.449 0 0 0-.38-.213h-2.801a.445.445 0 0 0-.386.223l-.303.525a.37.37 0 1 1-.643-.371c.326-.564.345-.616.471-.748-.136-.143-.035.006-1.568-2.649a1.19 1.19 0 0 1 0-1.189l1.4-2.426a1.192 1.192 0 0 1 1.03-.595c3.064 0 2.885-.012 3.076.033.056-.19-.009-.05 1.51-2.682a1.192 1.192 0 0 1 1.03-.595c3.067 0 2.887-.013 3.08.034.056-.189-.022-.029 1.51-2.683a1.192 1.192 0 0 1 1.03-.595h2.801c.423 0 .818.228 1.03.595 1.534 2.658 1.454 2.493 1.51 2.682.191-.046.011-.033 3.076-.033.424 0 .818.228 1.03.595l.338.585a.371.371 0 1 1-.643.371l-.338-.585a.445.445 0 0 0-.386-.223h-2.801a.444.444 0 0 0-.385.223l-1.407 2.437a.439.439 0 0 0 .007.435l1.406 2.436a.448.448 0 0 0 .379.213h2.801a.445.445 0 0 0 .386-.223c1.517-2.627 1.46-2.483 1.46-2.649 0-.154-.038-.185-.38-.777a.371.371 0 0 1 .643-.371c.327.567.479.757.479 1.149 0 .421-.038.384-1.56 3.02zM23.22 36.207l-.006.01a.445.445 0 0 0 .005.436l1.4 2.426a.446.446 0 0 0 .386.223h2.801a.445.445 0 0 0 .386-.223l1.4-2.426a.45.45 0 0 0 0-.446l-1.4-2.426a.446.446 0 0 0-.386-.223h-2.801a.445.445 0 0 0-.386.223c-.001.002-.487.847-1.399 2.426zm0-6.04 1.406 2.436a.448.448 0 0 0 .379.213h2.801a.445.445 0 0 0 .386-.223l1.4-2.426a.45.45 0 0 0 0-.446l-1.4-2.426a.446.446 0 0 0-.386-.223h-2.801a.445.445 0 0 0-.385.223l-1.407 2.436a.446.446 0 0 0 .006.436zm-.65-6.125a.449.449 0 0 0-.38-.213h-2.801a.445.445 0 0 0-.386.223l-1.4 2.426a.444.444 0 0 0 0 .446l1.4 2.426a.445.445 0 0 0 .386.223h2.801c.153 0 .303-.08.385-.223l1.407-2.436a.446.446 0 0 0-.006-.436l-1.406-2.436zm5.236-3.456h-2.801a.445.445 0 0 0-.386.223l-1.4 2.426a.444.444 0 0 0 .001.446l1.406 2.436a.448.448 0 0 0 .379.213h2.801a.447.447 0 0 0 .386-.223l1.4-2.426a.45.45 0 0 0 0-.446l-1.4-2.426a.446.446 0 0 0-.386-.223zm7.406-.148a.444.444 0 0 0 .001-.446l-1.4-2.426a.448.448 0 0 0-.387-.223h-2.801a.445.445 0 0 0-.386.223l-1.4 2.426a.444.444 0 0 0 0 .446l1.4 2.426a.448.448 0 0 0 .386.223h2.803c.152-.001.3-.08.383-.223l1.401-2.426zm0 6.04-1.406-2.436a.446.446 0 0 0-.379-.213h-2.803a.447.447 0 0 0-.384.223l-1.4 2.426a.45.45 0 0 0 0 .446l1.4 2.426a.446.446 0 0 0 .386.223h2.801a.445.445 0 0 0 .386-.223l1.4-2.426a.444.444 0 0 0-.001-.446z"/><path d="M40.205 6.944a1.192 1.192 0 0 1-1.03.595c-3.063 0-2.885.012-3.077-.033-.056.19.009.051-1.51 2.682a1.191 1.191 0 0 1-.167.223c.136.143.035-.007 1.568 2.649a1.19 1.19 0 0 1 0 1.189l-.416.72a.37.37 0 1 1-.643-.371l.416-.72a.447.447 0 0 0 0-.446l-1.4-2.426a.448.448 0 0 0-.387-.223c-3.314 0-2.881-.054-3.165.176-.378.729-1.482 2.449-1.482 2.695 0 .166-.057.02 1.46 2.649a.446.446 0 0 0 .386.223h2.801a.445.445 0 0 0 .386-.223l.242-.419a.371.371 0 0 1 .643.371l-.242.419a1.192 1.192 0 0 1-1.03.595h-2.801c-.095 0-.189-.012-.279-.034a1.138 1.138 0 0 1-.11.257l-1.4 2.426a1.192 1.192 0 0 1-1.03.595h-2.801c-.423 0-.818-.228-1.03-.595l-1.4-2.426a1.195 1.195 0 0 1-.109-.256 1.152 1.152 0 0 1-.276.033h-2.801c-.423 0-.818-.228-1.03-.595-1.515-2.624-1.56-2.597-1.56-3.02 0-.4.159-.594.514-1.208a.372.372 0 0 1 .643.371c-.373.646-.414.681-.414.837 0 .165-.06.015 1.46 2.649a.445.445 0 0 0 .386.223h2.801a.449.449 0 0 0 .38-.213l.005-.01c1.515-2.625 1.431-2.505 1.568-2.649-.17-.179-.178-.241-1.568-2.649l-.005-.01a.449.449 0 0 0-.38-.213H19.52a.445.445 0 0 0-.386.223l-.303.525a.37.37 0 1 1-.643-.371c.326-.564.345-.616.471-.748-.136-.143-.035.006-1.568-2.649a1.19 1.19 0 0 1 0-1.189l1.4-2.426a1.192 1.192 0 0 1 1.03-.595c3.064 0 2.885-.013 3.076.033.056-.19-.009-.05 1.51-2.682a1.192 1.192 0 0 1 1.03-.595c3.067 0 2.887-.013 3.08.034.056-.189-.022-.029 1.51-2.683a1.192 1.192 0 0 1 1.03-.595h2.801c.423 0 .818.228 1.03.595C36.122.317 36.042.152 36.098.341c.191-.046.011-.033 3.076-.033.424 0 .818.228 1.03.595l.338.585a.371.371 0 1 1-.643.371l-.338-.585a.445.445 0 0 0-.386-.223h-2.801a.444.444 0 0 0-.385.223l-1.407 2.437a.439.439 0 0 0 .007.435l1.406 2.436a.448.448 0 0 0 .379.213h2.801a.445.445 0 0 0 .386-.223c1.517-2.627 1.46-2.483 1.46-2.649 0-.154-.038-.185-.38-.777a.371.371 0 1 1 .643-.371c.327.567.479.757.479 1.149 0 .421-.038.384-1.56 3.02zm-16.852 9.73-.006.01a.445.445 0 0 0 .005.436l1.4 2.426a.446.446 0 0 0 .386.223h2.801a.445.445 0 0 0 .386-.223l1.4-2.426a.45.45 0 0 0 0-.446l-1.4-2.426a.446.446 0 0 0-.386-.223h-2.801a.445.445 0 0 0-.386.223c-.001.002-.487.847-1.399 2.426zm0-6.04 1.406 2.436a.448.448 0 0 0 .379.213h2.801a.445.445 0 0 0 .386-.223l1.4-2.426a.45.45 0 0 0 0-.446l-1.4-2.426a.446.446 0 0 0-.386-.223h-2.801a.445.445 0 0 0-.385.223l-1.407 2.436a.446.446 0 0 0 .006.436zm-.65-6.125a.449.449 0 0 0-.38-.213h-2.801a.445.445 0 0 0-.386.223l-1.4 2.426a.444.444 0 0 0 0 .446l1.4 2.426a.445.445 0 0 0 .386.223h2.801c.153 0 .303-.08.385-.223l1.407-2.436a.446.446 0 0 0-.006-.436l-1.406-2.436zm5.237-3.456h-2.801a.445.445 0 0 0-.386.223l-1.4 2.426a.444.444 0 0 0 .001.446l1.406 2.436a.448.448 0 0 0 .379.213h2.801a.447.447 0 0 0 .386-.223l1.4-2.426a.45.45 0 0 0 0-.446l-1.4-2.426a.446.446 0 0 0-.386-.223zm7.405-.149a.444.444 0 0 0 .001-.446l-1.4-2.426a.448.448 0 0 0-.387-.223h-2.801a.445.445 0 0 0-.386.223l-1.4 2.426a.444.444 0 0 0 0 .446l1.4 2.426a.448.448 0 0 0 .386.223h2.803c.152-.001.3-.08.383-.223L35.345.904zm0 6.041-1.406-2.436a.446.446 0 0 0-.379-.213h-2.803a.447.447 0 0 0-.384.223l-1.4 2.426a.45.45 0 0 0 0 .446l1.4 2.426a.446.446 0 0 0 .386.223h2.801a.445.445 0 0 0 .386-.223l1.4-2.426a.444.444 0 0 0-.001-.446z"/></symbol><symbol id="combs-join-left" viewBox="0 0 38 32"><path d="M19.703 17.122c-.213-.37-.611-.6-1.038-.6-3.089 0-2.91-.013-3.103.034-.057-.192.01-.051-1.522-2.704a1.215 1.215 0 0 0-.169-.225c.137-.144.035.007 1.581-2.671a1.2 1.2 0 0 0 0-1.199l-.419-.726a.374.374 0 1 0-.649.375l.419.726c.08.139.08.311 0 .45l-1.412 2.446a.45.45 0 0 1-.39.225c-3.342 0-2.905.054-3.192-.178-.382-.735-1.495-2.469-1.495-2.718 0-.167-.058-.021 1.473-2.671a.45.45 0 0 1 .389-.225h2.825c.16 0 .309.086.39.225l.244.422a.375.375 0 0 0 .649-.375l-.244-.422a1.2 1.2 0 0 0-1.038-.599h-2.825c-.096 0-.19.012-.282.034a1.137 1.137 0 0 0-.111-.259L8.372 4.041a1.201 1.201 0 0 0-1.038-.599H4.509c-.427 0-.825.23-1.038.599L2.059 6.487a1.145 1.145 0 0 0-.11.258 1.17 1.17 0 0 0-.278-.034h-2.824c-.427 0-.825.23-1.038.599-1.528 2.647-1.573 2.619-1.573 3.046 0 .404.16.599.518 1.218a.375.375 0 0 0 .649-.375c-.376-.651-.418-.687-.418-.844 0-.166-.061-.015 1.473-2.671a.45.45 0 0 1 .39-.225h2.824c.156 0 .301.082.383.215l.005.01c1.528 2.647 1.444 2.526 1.581 2.671-.171.181-.179.243-1.581 2.671l-.005.01a.451.451 0 0 1-.383.215h-2.824a.451.451 0 0 1-.39-.225l-.306-.529a.374.374 0 1 0-.649.375c.329.569.348.621.475.754-.137.144-.035-.006-1.581 2.671a1.2 1.2 0 0 0 0 1.199l1.412 2.446c.213.37.611.6 1.038.6 3.09 0 2.91.013 3.102-.033.057.192-.01.051 1.523 2.704.213.37.611.6 1.038.6 3.093 0 2.911.013 3.106-.034.056.191-.022.029 1.523 2.705.214.37.611.6 1.038.6h2.825c.427 0 .825-.23 1.038-.6 1.547-2.68 1.466-2.514 1.522-2.704.193.046.011.034 3.102.034.427 0 .825-.23 1.038-.6l.34-.59a.376.376 0 0 0-.649-.375l-.34.59a.45.45 0 0 1-.39.225h-2.824a.448.448 0 0 1-.388-.225l-1.419-2.457a.444.444 0 0 1 .007-.439l1.418-2.456a.45.45 0 0 1 .383-.215h2.824c.16 0 .309.086.39.225 1.529 2.649 1.473 2.504 1.473 2.671 0 .155-.038.186-.383.784a.376.376 0 0 0 .649.375c.33-.572.483-.763.483-1.158 0-.424-.038-.388-1.573-3.046zM2.709 7.311l-.006-.01a.45.45 0 0 1 .005-.44L4.12 4.415a.45.45 0 0 1 .39-.225h2.825a.45.45 0 0 1 .389.225l1.412 2.446c.08.139.08.311 0 .45L7.724 9.757a.45.45 0 0 1-.389.225H4.51a.453.453 0 0 1-.39-.225c-.001-.002-.491-.854-1.411-2.446zm0 6.091c1.615-2.798 1.391-2.408 1.418-2.457a.45.45 0 0 1 .382-.214h2.825a.45.45 0 0 1 .389.225l1.412 2.446c.08.139.08.311 0 .45l-1.412 2.446a.45.45 0 0 1-.389.225H4.509a.449.449 0 0 1-.388-.225l-1.418-2.456a.448.448 0 0 1 .006-.44zm-.655 6.177a.453.453 0 0 1-.383.215h-2.824a.451.451 0 0 1-.39-.225l-1.412-2.446a.452.452 0 0 1 0-.45l1.412-2.446a.45.45 0 0 1 .39-.225h2.824c.155 0 .305.081.388.225l1.419 2.456a.45.45 0 0 1-.006.44l-1.418 2.456zm5.28 3.485H4.509a.453.453 0 0 1-.39-.225l-1.412-2.446a.45.45 0 0 1 .001-.45l1.418-2.456a.452.452 0 0 1 .383-.215h2.825a.45.45 0 0 1 .389.225l1.412 2.446c.08.139.08.311 0 .45l-1.412 2.446a.45.45 0 0 1-.389.225zm7.468.149a.447.447 0 0 1 .001.45l-1.412 2.446a.45.45 0 0 1-.39.225h-2.824a.45.45 0 0 1-.389-.225l-1.412-2.446a.452.452 0 0 1 0-.45l1.412-2.446a.45.45 0 0 1 .389-.225h2.826a.449.449 0 0 1 .386.225l1.412 2.446zm0-6.091-1.418 2.456a.45.45 0 0 1-.383.214h-2.826a.454.454 0 0 1-.388-.225l-1.412-2.446a.452.452 0 0 1 0-.45l1.412-2.446a.45.45 0 0 1 .389-.225h2.825c.16 0 .309.086.39.225l1.412 2.446a.45.45 0 0 1-.001.45z"/><path d="M36.644 13.694c-.213-.37-.611-.6-1.038-.6-3.089 0-2.91-.013-3.103.034-.057-.192.01-.051-1.522-2.704a1.215 1.215 0 0 0-.169-.225c.137-.144.035.007 1.581-2.671a1.2 1.2 0 0 0 0-1.199l-.419-.726a.374.374 0 1 0-.649.375l.419.726c.08.139.08.311 0 .45L30.332 9.6a.45.45 0 0 1-.39.225c-3.342 0-2.905.054-3.192-.178-.381-.735-1.495-2.469-1.495-2.718 0-.167-.058-.021 1.473-2.671a.45.45 0 0 1 .39-.225h2.825c.16 0 .309.086.39.225l.244.422a.375.375 0 0 0 .649-.375l-.244-.422a1.2 1.2 0 0 0-1.038-.599h-2.825c-.096 0-.19.012-.282.034a1.137 1.137 0 0 0-.111-.259L25.314.613c-.214-.37-.611-.6-1.038-.6h-2.825c-.427 0-.825.23-1.038.6l-1.412 2.446a1.145 1.145 0 0 0-.11.258 1.17 1.17 0 0 0-.278-.034h-2.824c-.427 0-.825.23-1.038.599-1.528 2.647-1.573 2.619-1.573 3.046 0 .404.16.599.518 1.218a.375.375 0 0 0 .649-.375c-.376-.651-.418-.687-.418-.844 0-.166-.061-.015 1.473-2.671a.45.45 0 0 1 .389-.225h2.824c.156 0 .301.082.383.215l.005.01c1.528 2.647 1.444 2.526 1.581 2.671-.171.181-.179.243-1.581 2.671l-.005.01a.451.451 0 0 1-.383.215h-2.824a.45.45 0 0 1-.389-.225l-.306-.529a.374.374 0 1 0-.649.375c.329.569.348.621.475.754-.137.144-.035-.006-1.581 2.671a1.2 1.2 0 0 0 0 1.199l1.412 2.446c.213.37.611.6 1.038.6 3.09 0 2.91.013 3.102-.033.057.192-.01.051 1.523 2.704.213.37.611.6 1.038.6 3.093 0 2.911.013 3.106-.034.056.191-.022.029 1.523 2.705.214.37.611.6 1.038.6h2.825c.427 0 .825-.23 1.038-.6 1.547-2.68 1.466-2.514 1.522-2.704.193.046.011.034 3.102.034.427 0 .825-.23 1.038-.6l.34-.59a.376.376 0 0 0-.649-.375l-.34.59a.45.45 0 0 1-.39.225h-2.824a.448.448 0 0 1-.388-.225l-1.419-2.457a.444.444 0 0 1 .007-.439l1.418-2.456a.45.45 0 0 1 .383-.215h2.824c.16 0 .309.086.39.225 1.529 2.649 1.473 2.504 1.473 2.671 0 .155-.038.186-.383.784a.376.376 0 0 0 .649.375c.33-.572.483-.763.483-1.158 0-.424-.038-.388-1.573-3.046zM19.65 3.882l-.006-.01a.45.45 0 0 1 .005-.44L21.061.986a.45.45 0 0 1 .39-.225h2.825c.16 0 .309.086.39.225l1.412 2.446c.08.139.08.311 0 .45l-1.412 2.446a.45.45 0 0 1-.39.225h-2.825a.453.453 0 0 1-.39-.225c-.001-.002-.491-.854-1.411-2.446zm0 6.091c1.615-2.798 1.391-2.408 1.418-2.457a.45.45 0 0 1 .382-.214h2.825c.16 0 .309.086.39.225l1.412 2.446c.08.139.08.311 0 .45l-1.412 2.446a.45.45 0 0 1-.39.225H21.45a.449.449 0 0 1-.388-.225l-1.419-2.456a.448.448 0 0 1 .006-.44zm-.655 6.177a.453.453 0 0 1-.383.215h-2.824a.45.45 0 0 1-.389-.225l-1.412-2.446a.452.452 0 0 1 0-.45l1.412-2.446a.45.45 0 0 1 .389-.225h2.824c.155 0 .305.081.388.225l1.419 2.456a.448.448 0 0 1-.007.44l-1.418 2.456zm5.28 3.485H21.45a.453.453 0 0 1-.39-.225l-1.412-2.446a.45.45 0 0 1 .001-.45l1.418-2.456a.452.452 0 0 1 .383-.215h2.825c.16 0 .309.086.39.225l1.412 2.446c.08.139.08.311 0 .45l-1.412 2.446a.45.45 0 0 1-.39.225zm7.468.15a.447.447 0 0 1 .001.45l-1.412 2.446a.45.45 0 0 1-.39.225h-2.824a.453.453 0 0 1-.39-.225l-1.412-2.446a.452.452 0 0 1 0-.45l1.412-2.446a.45.45 0 0 1 .39-.225h2.826a.449.449 0 0 1 .386.225l1.412 2.446zm0-6.091-1.418 2.456a.45.45 0 0 1-.383.214h-2.826a.454.454 0 0 1-.388-.225l-1.412-2.446a.452.452 0 0 1 0-.45l1.412-2.446a.45.45 0 0 1 .39-.225h2.825c.16 0 .309.086.39.225l1.412 2.446a.45.45 0 0 1-.001.45z"/><path d="M36.778 33.391c-.213-.37-.611-.6-1.038-.6-3.089 0-2.91-.013-3.103.034-.057-.192.01-.051-1.522-2.704a1.182 1.182 0 0 0-.169-.225c.137-.144.035.007 1.581-2.671a1.2 1.2 0 0 0 0-1.199l-.419-.726a.375.375 0 0 0-.649.375l.419.726c.08.139.08.311 0 .45l-1.412 2.446a.45.45 0 0 1-.39.225c-3.342 0-2.905.054-3.192-.178-.381-.735-1.495-2.469-1.495-2.718 0-.167-.058-.021 1.473-2.671a.45.45 0 0 1 .39-.225h2.825c.16 0 .309.086.39.225l.244.422a.375.375 0 0 0 .649-.375l-.244-.422a1.2 1.2 0 0 0-1.038-.599h-2.825c-.096 0-.19.012-.282.034a1.137 1.137 0 0 0-.111-.259l-1.412-2.446a1.201 1.201 0 0 0-1.038-.599h-2.825c-.427 0-.825.23-1.038.599l-1.412 2.446a1.133 1.133 0 0 0-.11.259 1.17 1.17 0 0 0-.278-.034h-2.824c-.427 0-.825.23-1.038.599-1.528 2.647-1.573 2.619-1.573 3.046 0 .404.16.599.518 1.218a.375.375 0 0 0 .649-.375c-.376-.651-.418-.687-.418-.844 0-.166-.061-.015 1.473-2.671a.45.45 0 0 1 .389-.225h2.824c.156 0 .301.082.383.215l.005.01c1.528 2.647 1.444 2.526 1.581 2.671-.171.181-.179.243-1.581 2.671l-.005.01a.451.451 0 0 1-.383.215h-2.824a.45.45 0 0 1-.389-.225l-.306-.529a.375.375 0 0 0-.649.375c.329.569.348.621.475.754-.137.144-.035-.006-1.581 2.671a1.2 1.2 0 0 0 0 1.199l1.412 2.446a1.2 1.2 0 0 0 1.038.599c3.09 0 2.91.013 3.102-.033.057.192-.01.051 1.523 2.704a1.2 1.2 0 0 0 1.038.599c3.093 0 2.911.013 3.106-.034.056.191-.022.029 1.523 2.705.214.37.611.599 1.038.599h2.825c.427 0 .825-.23 1.038-.599 1.547-2.68 1.466-2.514 1.522-2.704.193.046.011.034 3.102.034.427 0 .825-.23 1.038-.599l.34-.59a.376.376 0 0 0-.649-.375l-.34.59a.45.45 0 0 1-.39.225h-2.824a.448.448 0 0 1-.388-.225l-1.419-2.457a.444.444 0 0 1 .007-.439l1.418-2.456a.45.45 0 0 1 .383-.215h2.824c.16 0 .309.086.39.225 1.529 2.649 1.473 2.504 1.473 2.671 0 .156-.038.187-.383.784a.376.376 0 0 0 .649.375c.33-.572.483-.763.483-1.158 0-.424-.038-.388-1.573-3.046zM19.785 23.58l-.006-.01a.45.45 0 0 1 .005-.44l1.412-2.446a.45.45 0 0 1 .39-.225h2.825c.16 0 .309.086.39.225l1.412 2.446c.08.139.08.311 0 .45l-1.412 2.446a.45.45 0 0 1-.39.225h-2.825a.453.453 0 0 1-.39-.225c-.001-.002-.491-.854-1.411-2.446zm0 6.091c1.615-2.798 1.391-2.408 1.418-2.457a.45.45 0 0 1 .382-.214h2.825c.16 0 .309.086.39.225l1.412 2.446c.08.139.08.311 0 .45L24.8 32.567a.45.45 0 0 1-.39.225h-2.825a.449.449 0 0 1-.388-.225l-1.419-2.456a.448.448 0 0 1 .006-.44zm-.656 6.176a.453.453 0 0 1-.383.215h-2.824a.45.45 0 0 1-.389-.225l-1.412-2.446a.452.452 0 0 1 0-.45l1.412-2.446a.45.45 0 0 1 .389-.225h2.824c.155 0 .305.081.388.225l1.419 2.456a.448.448 0 0 1-.007.44l-1.418 2.456zm5.281 3.486h-2.825a.453.453 0 0 1-.39-.225l-1.412-2.446a.45.45 0 0 1 .001-.45l1.418-2.456a.452.452 0 0 1 .383-.215h2.825c.16 0 .309.086.39.225l1.412 2.446c.08.139.08.311 0 .45L24.8 39.108a.45.45 0 0 1-.39.225zm7.467.149a.447.447 0 0 1 .001.45l-1.412 2.446a.45.45 0 0 1-.39.225h-2.824a.453.453 0 0 1-.39-.225l-1.412-2.446a.452.452 0 0 1 0-.45l1.412-2.446a.45.45 0 0 1 .39-.225h2.826a.449.449 0 0 1 .386.225l1.412 2.446zm0-6.091-1.418 2.456a.45.45 0 0 1-.383.214H27.25a.454.454 0 0 1-.388-.225L25.45 33.39a.452.452 0 0 1 0-.45l1.412-2.446a.45.45 0 0 1 .39-.225h2.825c.16 0 .309.086.39.225l1.412 2.446a.45.45 0 0 1-.001.45z"/></symbol><symbol id="icon-burger" viewBox="0 0 32 32"><path d="M2.667 7.993c0-.733.595-1.327 1.327-1.327h10.68a1.326 1.326 0 0 1 0 2.654H3.994a1.326 1.326 0 0 1-1.327-1.327zm0 8.007c0-.733.595-1.327 1.327-1.327h24.013a1.326 1.326 0 0 1 0 2.654H3.994A1.326 1.326 0 0 1 2.667 16zm1.326 6.68a1.326 1.326 0 0 0 0 2.654h16.013a1.326 1.326 0 0 0 0-2.654H3.993z"/></symbol><symbol id="icon-close" viewBox="0 0 32 32"><path d="M7.545 6.713c-.275.125-.707.557-.832.832a1.15 1.15 0 0 0 .014.942l-.003-.007c.083.184.96 1.092 3.744 3.88L14.104 16l-3.636 3.64c-2.784 2.788-3.661 3.696-3.744 3.88-.221.489-.107.956.347 1.409.457.456.923.571 1.405.343.184-.087 1.149-1.017 3.884-3.745L16 17.896l3.64 3.636c2.788 2.784 3.696 3.661 3.88 3.744.488.22.945.105 1.404-.352.46-.461.575-.92.348-1.4-.087-.184-1.012-1.144-3.745-3.884L17.896 16l3.631-3.64c2.728-2.735 3.659-3.7 3.745-3.884.227-.48.107-.956-.356-1.419-.44-.439-.912-.552-1.396-.333-.184.083-1.092.96-3.88 3.744L16 14.104l-3.64-3.636C9.572 7.684 8.664 6.807 8.48 6.724a1.152 1.152 0 0 0-.942-.008l.007-.003z"/></symbol></symbol></defs></svg>