<svg aria-hidden="true" style="width:0;height:0;position:absolute;overflow:hidden" xmlns="http://www.w3.org/2000/svg"><defs><symbol id="logo" viewBox="0 0 32 32"><path fill="#d0d0d0" style="fill:var(--color2,#d0d0d0)" d="M0 .302h32v31.396H0V.302z"/><path fill="#fff" style="fill:var(--color3,#fff)" d="M-144.906-25.057h1159.245v5023.396H-144.906V-25.057z"/><path fill="#fffaf4" style="fill:var(--color4,#fffaf4)" d="M-144.906-25.057h1159.245v725.736H-144.906V-25.057z"/><path fill="#ff8a00" style="fill:var(--color5,#ff8a00)" d="M13.387 24.097a12.616 12.616 0 0 1-1.078-4.751c-.912 1.466-1.741 2.995-2.425 4.585-.041.083-.041.103-.083.186-.187.475-.373.847-.477 1.177a.738.738 0 0 0 .415.95h.021c.311.103.705.269 1.181.454.083.041.104.041.187.083 1.637.537 3.316.971 4.995 1.26a13.65 13.65 0 0 1-2.736-3.945z"/><path fill="#0075ff" style="fill:var(--color6,#0075ff)" d="M15.977 11.952C12.205 4.227 3.749 4.495 2.423 7.945c-1.036 2.665 3.44 8.985 13.741 4.42-.041-.041-.145-.33-.187-.413zm1.783-.517c-2.114-5.226 1.596-8.2 3.585-7.436 1.513.599 2.342 5.061-3.482 7.643a.64.64 0 0 0-.104-.207z"/><path fill="#ff8a00" style="fill:var(--color5,#ff8a00)" d="M28.577 17.301a7.624 7.624 0 0 0-4.373-4.069 1.188 1.188 0 0 0-.601-.103 2.07 2.07 0 0 0-2.01 1.818c-.145 1.735.187 3.47.912 5.061a10.684 10.684 0 0 0 3.067 4.028 2.05 2.05 0 0 0 1.181.372 1.964 1.964 0 0 0 1.824-1.115c.85-1.9.829-4.09-.041-5.99z"/><path fill="#ff8a00" style="fill:var(--color5,#ff8a00)" d="M24.164 25.977a12.31 12.31 0 0 1-3.813-4.957 12.405 12.405 0 0 1-1.119-6.238 4.112 4.112 0 0 1 .477-1.632c-.041 0-.104.041-.145.041-.083.041-.187.041-.269.083a8.324 8.324 0 0 0-1.596.661c-.249.145-.477.31-.746.454-1.264.847-2.3 2.334-2.425 3.883a9.983 9.983 0 0 0 .85 4.978 10.204 10.204 0 0 0 3.005 3.883c.788.62 2.155.991 3.295.991a7.223 7.223 0 0 0 3.668-1.136c.021 0 .041-.021.041-.041.083-.041.145-.103.228-.145s.083-.083.104-.083a4.665 4.665 0 0 1-1.554-.744z"/></symbol><symbol id="facebook" viewBox="0 0 17 32"><path d="M10.787 32V17.404h4.897l.735-5.69h-5.632V8.082c0-1.647.455-2.769 2.82-2.769l3.011-.001V.223C16.097.155 14.31 0 12.23 0 7.887 0 4.913 2.651 4.913 7.519v4.196H.001v5.69h4.912v14.596h5.874z"/></symbol><symbol id="instagram" viewBox="0 0 32 32"><path d="M8.772 0h14.455c4.837 0 8.772 3.935 8.772 8.772v14.455c0 4.837-3.935 8.772-8.772 8.772H8.772C3.935 31.999 0 28.064 0 23.227V8.772C0 3.935 3.935 0 8.772 0zM7.223 16c0 4.84 3.937 8.777 8.777 8.777S24.777 20.84 24.777 16 20.84 7.223 16 7.223 7.223 11.16 7.223 16zm15.412-9.302c0 1.47 1.196 2.667 2.667 2.667s2.667-1.196 2.667-2.667-1.196-2.667-2.667-2.667a2.67 2.67 0 0 0-2.667 2.667zm2.667-.777c-.428 0-.777.349-.777.777s.349.777.777.777a.778.778 0 0 0 0-1.554zm-9.303 3.192c-3.798 0-6.887 3.09-6.887 6.887s3.09 6.887 6.887 6.887c3.798 0 6.887-3.09 6.887-6.887s-3.09-6.887-6.887-6.887z"/></symbol><symbol id="telegram" viewBox="0 0 32 32"><path d="M31.937 3.219a.67.67 0 0 0-.464-.506 2.38 2.38 0 0 0-1.26.09S2.175 12.879.573 13.995c-.344.242-.46.38-.518.544-.276.8.586 1.146.586 1.146l7.226 2.354a.77.77 0 0 0 .366-.022c1.644-1.038 16.54-10.444 17.4-10.76.136-.04.236 0 .2.098-.344 1.2-13.212 12.638-13.282 12.708a.281.281 0 0 0-.098.236l-.674 7.056s-.284 2.2 1.912 0a61.32 61.32 0 0 1 3.8-3.476c2.484 1.716 5.158 3.612 6.312 4.6.193.188.423.335.674.433s.52.143.79.133a1.652 1.652 0 0 0 1.4-1.244s5.122-20.55 5.292-23.316c.016-.27.042-.434.042-.634a2.358 2.358 0 0 0-.064-.632z"/></symbol><symbol id="twitter" viewBox="0 0 32 32"><path d="M32 6c-1.2.6-2.4.8-3.8 1 1.4-.8 2.4-2 2.8-3.6-1.2.8-2.6 1.2-4.2 1.6-1.2-1.2-3-2-4.8-2-3.4 0-6.4 3-6.4 6.6 0 .6 0 1 .2 1.4-5.4-.2-10.4-2.8-13.6-6.8-.6 1-.8 2-.8 3.4 0 2.2 1.2 4.2 3 5.4-1 0-2-.4-3-.8 0 3.2 2.2 5.8 5.2 6.4-.6.2-1.2.2-1.8.2-.4 0-.8 0-1.2-.2.8 2.6 3.2 4.6 6.2 4.6C7.6 25 4.8 26 1.6 26H0c3 1.8 6.4 3 10 3 12 0 18.6-10 18.6-18.6v-.8C30 8.6 31.2 7.4 32 6z"/></symbol></defs></svg>