<svg width="312" height="312" fill="none" xmlns="http://www.w3.org/2000/svg"><g clip-path="url('#a')"><path d="m162.469 292.282 4.155-1.235c10.578-3.142 20.854-11.143 29.717-23.139 8.481-11.478 15.731-26.67 20.964-43.93l1.546-5.1-5.238.983c-15.221 2.855-31.371 4.542-48.002 5.014l-3.142.09v67.317Z" fill="url('#b')"/><path d="m288.952 188.932-7.905 5.52c-6.103 4.261-13.26 8.199-21.276 11.702-7.559 3.304-15.917 6.251-24.842 8.758l-1.81.508-.454 1.825c-3.965 15.958-9.428 30.43-16.235 43.014-3.22 5.951-6.75 11.467-10.493 16.392l-7.427 9.778 11.28-4.849c36.253-15.586 64.021-46.012 76.186-83.477l2.976-9.171Z" fill="url('#c')"/><path d="m232.666 94.755.453 1.825 1.811.508c8.925 2.507 17.282 5.453 24.841 8.758 8.016 3.503 15.175 7.44 21.277 11.701l7.905 5.52-2.977-9.17c-12.165-37.465-39.933-67.89-76.186-83.477l-11.28-4.849 7.427 9.778c3.742 4.926 7.272 10.442 10.493 16.393 6.808 12.583 12.27 27.054 16.236 43.013Z" fill="url('#d')"/><path d="m241.15 112.548-5.033-1.702.799 5.252c1.969 12.934 2.967 26.357 2.967 39.901 0 13.544-.999 26.969-2.967 39.901l-.799 5.252 5.033-1.701c32.232-10.9 51.473-27.143 51.473-43.452 0-16.309-19.242-32.552-51.473-43.451Z" fill="url('#e')"/><path d="m166.624 20.953-4.155-1.235v67.318l3.142.089c16.63.472 32.781 2.159 48.002 5.015l5.238.983-1.546-5.1c-5.233-17.26-12.483-32.452-20.964-43.93-8.863-11.997-19.139-19.998-29.717-23.14Z" fill="url('#f')"/><path d="m162.469 212.028 3.33-.099c19.169-.568 37.427-2.788 54.269-6.595l2.059-.466.402-2.072c2.93-15.095 4.416-30.839 4.416-46.796 0-15.956-1.486-31.701-4.416-46.795l-.402-2.072-2.059-.466c-16.842-3.808-35.1-6.027-54.269-6.595l-3.33-.099v112.055Z" fill="url('#g')"/><path d="m70.85 199.452 5.034 1.702-.8-5.252c-1.968-12.934-2.966-26.358-2.966-39.901 0-13.544.999-26.969 2.967-39.902l.799-5.252-5.033 1.702C38.62 123.447 19.378 139.691 19.378 156s19.242 32.553 51.473 43.452Z" fill="url('#h')"/><path d="m149.531 19.718-4.155 1.235c-10.578 3.142-20.853 11.143-29.717 23.139-8.481 11.478-15.73 26.67-20.964 43.93l-1.546 5.1 5.238-.983c15.222-2.855 31.372-4.542 48.001-5.015l3.143-.089V19.718Z" fill="url('#i')"/><path d="m145.375 291.047 4.155 1.234v-67.318l-3.143-.089c-16.629-.472-32.78-2.159-48.001-5.015l-5.238-.983 1.546 5.101c5.233 17.26 12.483 32.451 20.964 43.93 8.862 11.996 19.138 19.998 29.717 23.14Z" fill="url('#j')"/><path d="m149.53 99.972-3.33.098c-19.169.569-37.428 2.788-54.269 6.596l-2.059.465-.403 2.073c-2.93 15.094-4.415 30.839-4.415 46.795 0 15.957 1.486 31.701 4.415 46.795l.403 2.073 2.06.466c16.84 3.808 35.099 6.027 54.268 6.595l3.33.098V99.972Z" fill="url('#k')"/><path d="m102.212 281.58 11.281 4.849-7.428-9.778c-3.741-4.925-7.271-10.441-10.492-16.392-6.808-12.584-12.27-27.056-16.236-43.014l-.453-1.825-1.811-.508c-8.925-2.507-17.282-5.454-24.841-8.758-8.016-3.503-15.174-7.441-21.277-11.702l-7.905-5.52 2.977 9.171c12.163 37.465 39.933 67.89 76.185 83.477Z" fill="url('#l')"/><path d="M52.229 105.845c7.559-3.304 15.916-6.25 24.841-8.757l1.81-.508.454-1.825C83.3 78.796 88.762 64.325 95.57 51.74c3.22-5.951 6.75-11.467 10.492-16.393l7.428-9.778-11.281 4.85c-36.252 15.586-64.02 46.012-76.185 83.477l-2.977 9.17 7.905-5.52c6.102-4.261 13.26-8.198 21.277-11.702Z" fill="url('#m')"/><path d="M264.041 47.958c-28.858-28.86-67.229-44.752-108.042-44.752-40.812 0-79.183 15.893-108.041 44.752C19.098 76.818 3.205 115.187 3.205 156s15.893 79.183 44.753 108.042c28.859 28.859 67.229 44.752 108.041 44.752 40.813 0 79.184-15.893 108.042-44.752C292.9 235.183 308.794 196.813 308.794 156s-15.893-79.183-44.753-108.042ZM88.289 156c0-16.138 1.548-31.713 4.356-46.179 15.863-3.586 33.924-5.932 53.651-6.517v105.392c-19.727-.585-37.788-2.931-53.65-6.518-2.809-14.465-4.357-30.04-4.357-46.178Zm-16.403 40.388C41.053 185.961 22.612 170.501 22.612 156c0-14.501 18.441-29.961 49.274-40.388-1.978 13-3.003 26.558-3.003 40.388 0 13.83 1.024 27.388 3.003 40.388ZM214.21 88.961c-15.285-2.867-31.636-4.59-48.506-5.069V24.053c20.411 6.063 38.184 30.862 48.506 64.908Zm-67.913-64.908v59.84c-16.87.478-33.221 2.2-48.506 5.068 10.322-34.046 28.095-58.844 48.506-64.908Zm0 204.054v59.84c-20.411-6.064-38.184-30.862-48.506-64.908 15.285 2.867 31.636 4.59 48.506 5.068Zm19.407 59.84v-59.84c16.87-.478 33.221-2.201 48.506-5.068-10.322 34.046-28.095 58.844-48.506 64.908Zm0-79.251V103.304c19.727.585 37.788 2.93 53.651 6.517 2.808 14.466 4.356 30.041 4.356 46.179s-1.548 31.713-4.356 46.178c-15.863 3.587-33.924 5.933-53.651 6.518Zm74.41-93.084c30.833 10.427 49.274 25.887 49.274 40.388 0 14.501-18.441 29.961-49.274 40.388 1.978-13 3.003-26.558 3.003-40.388 0-13.83-1.024-27.388-3.003-40.388Zm42.785-.716c-6.232-4.352-13.523-8.382-21.832-12.014-7.778-3.4-16.249-6.376-25.262-8.908-3.988-16.046-9.543-30.857-16.531-43.772-3.344-6.182-6.946-11.788-10.761-16.81 35.111 15.095 62.483 44.843 74.386 81.504ZM103.487 33.392c-3.815 5.023-7.417 10.628-10.761 16.81-6.988 12.916-12.543 27.726-16.53 43.773-9.014 2.531-17.485 5.508-25.263 8.908-8.309 3.632-15.6 7.661-21.832 12.014 11.903-36.662 39.275-66.41 74.386-81.505ZM29.101 197.104c6.232 4.352 13.523 8.382 21.832 12.014 7.778 3.399 16.249 6.375 25.262 8.908 3.988 16.046 9.543 30.857 16.53 43.772 3.345 6.182 6.947 11.787 10.762 16.811-35.11-15.096-62.483-44.845-74.386-81.505Zm179.411 81.504c3.815-5.023 7.417-10.628 10.761-16.811 6.988-12.915 12.542-27.725 16.531-43.772 9.013-2.532 17.484-5.508 25.262-8.908 8.309-3.632 15.6-7.661 21.832-12.014-11.903 36.661-39.275 66.41-74.386 81.505Z" fill="url('#n')"/><path d="M264.042 264.042c28.859-28.859 44.752-67.229 44.752-108.042s-15.893-79.183-44.752-108.042C235.183 19.099 196.813 3.206 156 3.206v305.588c40.813 0 79.183-15.893 108.042-44.752Z" fill="url('#o')"/><path d="M264.736 263.331 111.799 110.394c-1.648-2.999-4.835-3.19-8.71-3.134l-58.711 1.493c-7.684.11-9.652 6.046-5.476 12.497l6.43 9.932c-16.913 13.519-32.618 31.739-39.65 52.396 5.496 30.314 20.028 58.216 42.275 80.464 28.86 28.859 67.23 44.752 108.043 44.752s79.183-15.893 108.042-44.752c.235-.234.461-.475.694-.711Z" fill="url('#p')"/><path d="M44.72 262.284c-2.475-7.707-6.18-36.409-5.9-44.989.677-20.753 10.175-39.337 24.817-52.16l6.588 10.176c4.176 6.45 13.82 5.781 17.066-1.184l24.799-53.223c3.046-6.535-1.791-14.006-9.001-13.903l-58.711.846c-7.684.11-12.241 8.635-8.065 15.086l6.43 9.932C17.667 152.91.916 183.283.01 216.626c-.095 3.522.488 8.967 1.39 15.047 3.075 20.698 22.789 34.655 43.32 30.611Z" fill="url('#q')"/><path d="m267.372 51-.076.014c2.476 7.706 6.181 36.409 5.901 44.989-.645 19.773-9.302 37.573-22.782 50.301l-9.032-8.904c-4.367-5.816-13.513-4.977-16.657 1.771l-24.8 53.223c-2.075 4.453-.488 9.338 3.013 11.967l60.196 60.197c.307-.302.619-.597.923-.901 28.86-28.86 44.753-67.23 44.753-108.043 0-39.219-14.683-76.179-41.439-104.614Z" fill="url('#r')"/><path d="M267.279 51.4c2.476 7.706 6.18 36.408 5.901 44.988-.677 20.753-10.176 39.338-24.817 52.16l-6.588-10.175c-4.177-6.451-13.821-5.782-17.066 1.183l-24.8 53.223c-3.045 6.536 1.792 14.007 9.002 13.903l58.711-.845c7.684-.111 12.241-8.636 8.065-15.087l-6.431-9.932c25.077-20.043 41.829-50.416 42.734-83.76.095-3.521-.488-8.966-1.39-15.046-3.076-20.7-22.789-34.657-43.321-30.613Z" fill="url('#s')"/></g><defs><linearGradient id="b" x1="25.862" y1="90.782" x2="262.12" y2="327.04" gradientUnits="userSpaceOnUse"><stop stop-color="#B5D7FF"/><stop offset="1" stop-color="#76BAF8"/></linearGradient><linearGradient id="c" x1="72.991" y1="66.94" x2="248.424" y2="242.374" gradientUnits="userSpaceOnUse"><stop stop-color="#EDF7FF"/><stop offset="1" stop-color="#D5EFFE"/></linearGradient><linearGradient id="d" x1="152.392" y1="-12.46" x2="327.825" y2="162.973" gradientUnits="userSpaceOnUse"><stop stop-color="#EDF7FF"/><stop offset="1" stop-color="#D5EAFE"/></linearGradient><linearGradient id="e" x1="103.821" y1="12.824" x2="340.079" y2="249.082" gradientUnits="userSpaceOnUse"><stop stop-color="#B5D7FF"/><stop offset="1" stop-color="#76BAF8"/></linearGradient><linearGradient id="f" x1="115.584" y1="1.06" x2="351.842" y2="237.318" gradientUnits="userSpaceOnUse"><stop stop-color="#B5D7FF"/><stop offset="1" stop-color="#76C1F8"/></linearGradient><linearGradient id="g" x1="86.325" y1="53.607" x2="261.758" y2="229.04" gradientUnits="userSpaceOnUse"><stop stop-color="#EDF5FF"/><stop offset="1" stop-color="#D5EDFE"/></linearGradient><linearGradient id="h" x1="24.468" y1="115.464" x2="199.901" y2="290.897" gradientUnits="userSpaceOnUse"><stop stop-color="#EDF6FF"/><stop offset="1" stop-color="#D5EAFE"/></linearGradient><linearGradient id="i" x1="102.426" y1="37.506" x2="277.859" y2="212.939" gradientUnits="userSpaceOnUse"><stop stop-color="#EDF5FF"/><stop offset="1" stop-color="#D5EDFE"/></linearGradient><linearGradient id="j" x1="12.703" y1="127.228" x2="188.135" y2="302.661" gradientUnits="userSpaceOnUse"><stop stop-color="#EDF5FF"/><stop offset="1" stop-color="#D5EAFE"/></linearGradient><linearGradient id="k" x1="41.962" y1="74.681" x2="278.22" y2="310.939" gradientUnits="userSpaceOnUse"><stop stop-color="#B5DBFF"/><stop offset="1" stop-color="#76C1F8"/></linearGradient><linearGradient id="l" x1="-24.101" y1="140.748" x2="212.157" y2="377.006" gradientUnits="userSpaceOnUse"><stop stop-color="#B5D7FF"/><stop offset="1" stop-color="#76BAF8"/></linearGradient><linearGradient id="m" x1="55.297" y1="61.347" x2="291.555" y2="297.606" gradientUnits="userSpaceOnUse"><stop stop-color="#C0DDFF"/><stop offset="1" stop-color="#76B2F8"/></linearGradient><linearGradient id="n" x1="86.312" y1="31.017" x2="205.336" y2="244.485" gradientUnits="userSpaceOnUse"><stop stop-color="#3CB0FF"/><stop offset="1" stop-color="#0073FC"/></linearGradient><linearGradient id="o" x1="221.147" y1="175.402" x2="-101" y2="130" gradientUnits="userSpaceOnUse"><stop stop-color="#B5DBFF" stop-opacity="0"/><stop offset=".173" stop-color="#8FBEE9" stop-opacity=".173"/><stop offset=".232" stop-color="#83B4E2" stop-opacity=".232"/><stop offset=".454" stop-color="#5698C8" stop-opacity=".454"/><stop offset=".696" stop-color="#2D72B1" stop-opacity=".696"/><stop offset=".885" stop-color="#1466A2" stop-opacity=".885"/><stop offset="1" stop-color="#0B609D"/></linearGradient><linearGradient id="p" x1="158.809" y1="248.408" x2="19.084" y2="141.027" gradientUnits="userSpaceOnUse"><stop stop-color="#B5D7FF" stop-opacity="0"/><stop offset=".173" stop-color="#8FB8E9" stop-opacity=".173"/><stop offset=".454" stop-color="#5691C8" stop-opacity=".454"/><stop offset=".696" stop-color="#2D6AB1" stop-opacity=".696"/><stop offset=".885" stop-color="#145EA2" stop-opacity=".885"/><stop offset="1" stop-color="#0B4E9D"/></linearGradient><linearGradient id="q" x1="56.509" y1="107" x2="56.515" y2="296.628" gradientUnits="userSpaceOnUse"><stop stop-color="#FFE03E"/><stop offset="1" stop-color="#FF6B00"/></linearGradient><linearGradient id="r" x1="316.684" y1="209.278" x2="253.716" y2="146.309" gradientUnits="userSpaceOnUse"><stop stop-color="#B5E0FF" stop-opacity="0"/><stop offset=".173" stop-color="#8FBEE9" stop-opacity=".173"/><stop offset=".454" stop-color="#568AC8" stop-opacity=".454"/><stop offset=".503" stop-color="#4E84C3" stop-opacity=".503"/><stop offset=".696" stop-color="#2D72B1" stop-opacity=".696"/><stop offset=".885" stop-color="#145EA2" stop-opacity=".885"/><stop offset="1" stop-color="#0B689D"/></linearGradient><linearGradient id="s" x1="255.491" y1="50.701" x2="255.498" y2="240.329" gradientUnits="userSpaceOnUse"><stop stop-color="#FFE03E"/><stop offset="1" stop-color="#FF6B00"/></linearGradient><clipPath id="a"><path fill="#fff" d="M0 0h312v312H0z"/></clipPath></defs></svg>