<svg xmlns="http://www.w3.org/2000/svg"><defs><font id="NotoSans-Regular" horiz-adv-x="0"><font-face font-family="Noto Sans" font-weight="400" panose-1="2 11 5 2 4 5 4 2 2 4" ascent="800" descent="-200" x-height="536" cap-height="714" bbox="-621 -394 2800 1347" underline-thickness="50" underline-position="-125" unicode-range="U+000D-FFFD"/><glyph glyph-name="f_f" unicode="ff" horiz-adv-x="688" d="M332 468H197V0h-88v468H15v41l94 30v31q0 104 46 149.5T283 765q32 0 58.5-5.5T387 747l-23-69q-16 5-37 10t-43 5q-44 0-65.5-29.5T197 571v-35h135v-68zm344 0H541V0h-88v468h-94v41l94 30v31q0 104 46 149.5T627 765q32 0 58.5-5.5T731 747l-23-69q-16 5-37 10t-43 5q-44 0-65.5-29.5T541 571v-35h135v-68z"/><glyph glyph-name="fi" unicode="fi" horiz-adv-x="602" d="M332 468H197V0h-88v468H15v41l94 30v31q0 104 46 149.5T283 765q32 0 58.5-5.5T387 747l-23-69q-16 5-37 10t-43 5q-44 0-65.5-29.5T197 571v-35h135v-68zm142 269q20 0 35.5-13.5T525 681q0-28-15.5-42T474 625q-22 0-37 14t-15 42q0 29 15 42.5t37 13.5zm43-201V0h-88v536h88z"/><glyph glyph-name="fl" unicode="fl" horiz-adv-x="602" d="M332 468H197V0h-88v468H15v41l94 30v31q0 104 46 149.5T283 765q32 0 58.5-5.5T387 747l-23-69q-16 5-37 10t-43 5q-44 0-65.5-29.5T197 571v-35h135v-68zM517 0h-88v760h88V0z"/><glyph glyph-name="f_f_i" unicode="ffi" horiz-adv-x="946" d="M332 468H197V0h-88v468H15v41l94 30v31q0 104 46 149.5T283 765q32 0 58.5-5.5T387 747l-23-69q-16 5-37 10t-43 5q-44 0-65.5-29.5T197 571v-35h135v-68zm344 0H541V0h-88v468h-94v41l94 30v31q0 104 46 149.5T627 765q32 0 58.5-5.5T731 747l-23-69q-16 5-37 10t-43 5q-44 0-65.5-29.5T541 571v-35h135v-68zm142 269q20 0 35.5-13.5T869 681q0-28-15.5-42T818 625q-22 0-37 14t-15 42q0 29 15 42.5t37 13.5zm43-201V0h-88v536h88z"/><glyph glyph-name="f_f_l" unicode="ffl" horiz-adv-x="946" d="M332 468H197V0h-88v468H15v41l94 30v31q0 104 46 149.5T283 765q32 0 58.5-5.5T387 747l-23-69q-16 5-37 10t-43 5q-44 0-65.5-29.5T197 571v-35h135v-68zm344 0H541V0h-88v468h-94v41l94 30v31q0 104 46 149.5T627 765q32 0 58.5-5.5T731 747l-23-69q-16 5-37 10t-43 5q-44 0-65.5-29.5T541 571v-35h135v-68zM861 0h-88v760h88V0z"/><glyph glyph-name=".notdef" horiz-adv-x="600" d="M94 0v714h411V0H94zm51 51h309v612H145V51z"/><glyph glyph-name="NULL"/><glyph glyph-name="CR" horiz-adv-x="260"/><glyph glyph-name="space" horiz-adv-x="260"/><glyph glyph-name="exclam" unicode="!" horiz-adv-x="269" d="M163 201h-57L81 714h107zM72 54q0 37 18 52t44 15q25 0 43.5-15T196 54q0-36-18.5-52T134-14q-26 0-44 16T72 54z"/><glyph glyph-name="quotedbl" unicode="&quot;" horiz-adv-x="408" d="m160 714-20-258H85L65 714h95zm183 0-20-258h-55l-20 258h95z"/><glyph glyph-name="numbersign" unicode="#" horiz-adv-x="646" d="m480 436-31-160h137v-67H436L395 0h-71l41 209H222L183 0h-70l38 209H25v67h139l32 160H62v66h146l40 212h72l-40-212h144l40 212h69l-40-212h127v-66H480zM235 276h143l31 160H266z"/><glyph glyph-name="dollar" unicode="$" horiz-adv-x="572" d="M253 49q-55 1-107 9.5T62 82v85q34-16 87-28t104-13v202q-99 27-145 68T62 508q0 74 51.5 116T253 671v88h64v-87q53-1 96.5-11.5T493 635l-27-74q-32 13-70.5 22.5T317 596V395q66-19 110-40.5t66.5-53T516 220q0-70-52-113.5T317 53V-58h-64V49zm0 545q-54-4-79.5-25T148 515q0-40 22.5-61.5T253 417v177zm64-463q59 6 86 27.5t27 55.5q0 38-24 57.5T317 307V131z"/><glyph glyph-name="percent" unicode="%" horiz-adv-x="831" d="M195 724q74 0 112-58.5T345 501t-36.5-165.5T195 276q-71 0-108.5 59.5T49 501t35 164.5T195 724zm457-10L256 0h-77l396 714h77zm-457-52q-38 0-55.5-40.5T122 501t17.5-121 55.5-41q77 0 77 162 0 161-77 161zm437-224q73 0 111.5-58.5T782 215 745.5 49.5 632-10q-71 0-108.5 59.5T486 215t35 164.5T632 438zm0-63q-38 0-55.5-40T559 215q0-81 17.5-121.5T632 53q77 0 77 162 0 160-77 160z"/><glyph glyph-name="ampersand" unicode="&amp;" horiz-adv-x="732" d="M304 725q80 0 126.5-40.5T477 571q0-63-40.5-107T334 384l193-186q26 31 42.5 71.5T597 357h89q-16-64-40-119t-62-96L730 0H611l-87 84q-47-42-105-68T278-10q-103 0-164 51T53 186q0 77 41.5 123.5T207 396q-32 36-59.5 77T120 569q0 74 49.5 115T304 725zm-3-72q-42 0-68.5-22T206 570q0-36 19-66.5t55-67.5q59 34 84.5 64.5T390 571q0 36-24 59t-65 23zm-41-312q-54-32-84.5-65T145 189q0-55 37-88t99-33q64 0 110 21t77 50z"/><glyph glyph-name="quotesingle" unicode="'" horiz-adv-x="225" d="m160 714-20-258H85L65 714h95z"/><glyph glyph-name="parenleft" unicode="(" horiz-adv-x="300" d="M40 274q0 122 35.5 235.5T187 714h83q-70-94-105.5-207T129 275q0-116 35.5-227.5T269-158h-82Q111-70 75.5 41.5T40 274z"/><glyph glyph-name="parenright" unicode=")" horiz-adv-x="300" d="M260 274q0-121-35.5-232.5T113-158H31q69 94 104.5 205.5T171 275q0 119-35.5 232T30 714h83q76-91 111.5-204.5T260 274z"/><glyph glyph-name="asterisk" unicode="*" horiz-adv-x="551" d="m322 760-20-192 192 54 14-92-184-15 119-158-86-47-85 175-77-175-89 47 117 158-182 15 14 92 190-54-21 192h98z"/><glyph glyph-name="plus" unicode="+" horiz-adv-x="572" d="M321 388h199v-71H321V111h-72v206H50v71h199v207h72V388z"/><glyph glyph-name="comma" unicode="," horiz-adv-x="268" d="M192 105q-13-53-37.5-116.5T106-129H41Q55-72 69.5-4T91 116h94z"/><glyph glyph-name="hyphen" unicode="-" horiz-adv-x="322" d="M40 229v78h242v-78H40z"/><glyph glyph-name="period" unicode="." horiz-adv-x="268" d="M72 54q0 37 18 52t43 15q26 0 44.5-15T196 54q0-36-18.5-52T133-14q-25 0-43 16T72 54z"/><glyph glyph-name="slash" unicode="/" horiz-adv-x="372" d="M362 714 96 0H10l266 714h86z"/><glyph glyph-name="slash" unicode="∕" horiz-adv-x="372" d="M362 714 96 0H10l266 714h86z"/><glyph glyph-name="slash" unicode="∕" horiz-adv-x="372" d="M362 714 96 0H10l266 714h86z"/><glyph glyph-name="zero" unicode="0" horiz-adv-x="572" d="M523 358q0-115-24-197.5T423 34 285-10q-121 0-178.5 97.5T49 358q0 116 23.5 198T148 681.5 285 725q120 0 179-96.5T523 358zm-386 0q0-147 33.5-220T285 65q80 0 114.5 72.5T434 358q0 146-34.5 219T285 650q-81 0-114.5-73T137 358z"/><glyph glyph-name="one" unicode="1" horiz-adv-x="572" d="M355 0h-86v499q0 43 1 69t3 54q-16-16-29-27t-33-28l-76-62-46 59 193 150h73V0z"/><glyph glyph-name="two" unicode="2" horiz-adv-x="572" d="M520 0H48v73l187 189q54 54 91 96t56 82.5 19 88.5q0 59-35 89.5T275 649q-52 0-91.5-18T103 581l-47 59q42 35 96.5 59.5T275 724q100 0 158-50.5T491 534q0-56-23-105t-64-96.5T308 231L159 84v-4h361V0z"/><glyph glyph-name="three" unicode="3" horiz-adv-x="572" d="M493 547q0-72-40-114.5T345 376v-4q86-10 128-54t42-115q0-62-29-110.5T396.5 17 241-10q-56 0-104 8.5T45 29v82q45-22 97-34.5T242 64q96 0 138.5 37.5T423 205q0 67-52.5 96.5T223 331h-69v75h70q88 0 133.5 37t45.5 98q0 52-35 80.5T273 650q-58 0-99-17t-81-43l-44 60q38 30 94.5 52T272 724q112 0 166.5-50T493 547z"/><glyph glyph-name="four" unicode="4" horiz-adv-x="572" d="M552 162H448V0h-85v162H21v75l336 481h91V241h104v-79zM363 466q0 52 2 88.5t3 69.5h-4q-8-19-20-41t-23-37L107 241h256v225z"/><glyph glyph-name="five" unicode="5" horiz-adv-x="572" d="M275 438q110 0 175-55t65-155q0-111-70.5-174.5T248-10q-55 0-103.5 10T63 29v83q36-22 87.5-34.5T249 65q79 0 127.5 37.5T425 219q0 70-43 107.5T246 364q-28 0-64-5t-58-10l-44 28 27 337h358v-80H182l-17-207q17 3 46 7t64 4z"/><glyph glyph-name="six" unicode="6" horiz-adv-x="572" d="M55 305q0 77 13.5 151.5t49 135T217 688t165 36q21 0 46.5-2t41.5-7v-75q-18 6-40.5 9t-45.5 3q-69 0-115-23t-72.5-63-38.5-92-15-111h6q23 35 64 59.5T318 447q93 0 150-56.5T525 230q0-112-61.5-176T298-10q-68 0-123 34T87.5 128 55 305zM297 64q63 0 102 40.5T438 230q0 68-34.5 108T300 378q-47 0-82-19.5T163.5 309 144 247q0-43 17-85.5t51-70T297 64z"/><glyph glyph-name="seven" unicode="7" horiz-adv-x="572" d="m136 0 293 634H44v80h479v-68L233 0h-97z"/><glyph glyph-name="eight" unicode="8" horiz-adv-x="572" d="M285 724q94 0 154-44t60-127q0-43-18.5-75T431 421.5 363 378q44-21 80-47.5t57.5-61.5 21.5-84q0-90-63.5-142.5T288-10q-115 0-177 50.5T49 182q0 49 20.5 85t54.5 62 73 44q-52 30-88.5 72.5T72 554q0 55 28 92.5t76 57.5 109 20zm-1-71q-55 0-90.5-26.5T158 550q0-37 17.5-62t47.5-42.5 66-33.5q52 22 87.5 53t35.5 85q0 50-35 76.5T284 653zM135 181q0-52 37-86.5T286 60q73 0 111.5 34.5T436 184q0 52-41 86.5T286 331l-16 6q-66-28-100.5-64.5T135 181z"/><glyph glyph-name="nine" unicode="9" horiz-adv-x="572" d="M520 409q0-77-13.5-151.5t-49-135-100-96.5T192-10q-20 0-46.5 2.5T102 0v75q39-13 88-13 70 0 115.5 23t72.5 62.5 39 92T431 350h-6q-22-34-63.5-58.5T255 267q-92 0-148.5 56.5T50 483q0 75 28.5 129t79.5 83 120 29q68 0 123-34.5t87-104T520 409zM278 650q-62 0-101.5-41T137 484q0-69 33.5-108.5T274 336q48 0 83 19.5t54.5 49.5 19.5 62q0 43-17 85t-51 70-85 28z"/><glyph glyph-name="colon" unicode=":" horiz-adv-x="268" d="M72 482q0 38 18 53t43 15q26 0 44.5-15t18.5-53q0-36-18.5-52T133 414q-25 0-43 16t-18 52zm0-428q0 37 18 52t43 15q26 0 44.5-15T196 54q0-36-18.5-52T133-14q-25 0-43 16T72 54z"/><glyph glyph-name="semicolon" unicode=";" horiz-adv-x="268" d="M70 482q0 38 18 53t43 15q26 0 44.5-15t18.5-53q0-36-18.5-52T131 414q-25 0-43 16t-18 52zm113-377q-13-52-37.5-116.5T97-129H31q10 38 19.5 81.5t18 86T82 116h94z"/><glyph glyph-name="less" unicode="&lt;" horiz-adv-x="572" d="M521 116 50 323v50l471 235v-78L144 352l377-158v-78z"/><glyph glyph-name="equal" unicode="=" horiz-adv-x="572" d="M56 416v71h458v-71H56zm0-199v71h458v-71H56z"/><glyph glyph-name="greater" unicode="&gt;" horiz-adv-x="572" d="m50 194 377 157L50 530v78l471-235v-50L50 116v78z"/><glyph glyph-name="question" unicode="?" horiz-adv-x="434" d="M140 228q0 38 7.5 65.5t26 52.5 50.5 52q39 33 60.5 55t30.5 43 9 51q0 48-31 74t-90 26q-49 0-87-12.5T43 605l-31 70q40 21 88.5 35T209 724q95 0 147-47t52-128q0-45-14.5-76.5t-41-58T290 358q-33-28-50.5-49T216 267.5t-6-49.5v-17h-70v27zM117 54q0 37 17.5 52t44.5 15q25 0 43-15t18-52q0-36-18-52t-43-16q-27 0-44.5 16T117 54z"/><glyph glyph-name="at" unicode="@" horiz-adv-x="899" d="M841 357q0-46-10.5-90T798 187.5t-54-57-76-21.5q-46 0-72.5 26.5T563 196h-5q-18-37-53-62t-88-25q-76 0-117.5 51T258 295q0 66 26 116.5t73.5 79.5T470 520q44 0 86.5-7.5T623 496l-10-203q-1-18-1-25.5V257q0-52 18.5-69t43.5-17q31 0 52.5 25.5t33 68T771 358q0 93-37.5 157.5t-103 98.5T482 648q-114 0-192.5-47t-119-129.5T130 283q0-148 78-227t225-79q61 0 116.5 13.5T648 20v-68q-43-18-96.5-29.5T433-89q-118 0-202 44T102.5 81.5 58 280q0 93 29 172.5t84 138 133.5 91T482 714q104 0 185-43t127.5-123T841 357zm-505-64q0-64 25.5-93t68.5-29q56 0 80.5 42T539 322l6 125q-13 4-33 7t-41 3q-49 0-79-24t-43-61.5-13-78.5z"/><glyph glyph-name="A" unicode="A" horiz-adv-x="639" d="m545 0-86 221H176L91 0H0l279 717h81L638 0h-93zM352 517q-3 8-10 29t-13.5 43.5T318 624q-7-31-16-60.5T287 517l-81-216h226z"/><glyph glyph-name="B" unicode="B" horiz-adv-x="650" d="M301 714q134 0 202.5-39.5T572 537q0-63-35-104.5T436 379v-5q45-7 81.5-26t57.5-54 21-91q0-97-66.5-150T348 0H97v714h204zm18-304q92 0 126 29.5t34 87.5q0 59-41.5 84.5T305 637H187V410h132zm-132-75V76h144q95 0 132 37t37 97q0 56-38.5 90.5T324 335H187z"/><glyph glyph-name="C" unicode="C" horiz-adv-x="632" d="M403 645q-115 0-181-77t-66-211q0-133 61.5-210.5T402 69q47 0 89 8t82 20V19Q533 4 490.5-3T389-10q-109 0-182 45T97.5 163 61 358q0 108 39.5 190.5t116.5 129T404 724q113 0 197-42l-36-76q-33 15-73.5 27T403 645z"/><glyph glyph-name="D" unicode="D" horiz-adv-x="730" d="M669 364q0-181-98.5-272.5T296 0H97v714h220q108 0 187-40t122-117.5T669 364zm-95-3q0 143-70.5 209.5T304 637H187V77h97q290 0 290 284z"/><glyph glyph-name="E" unicode="E" horiz-adv-x="556" d="M496 0H97v714h399v-79H187V412h291v-78H187V79h309V0z"/><glyph glyph-name="F" unicode="F" horiz-adv-x="519" d="M187 0H97v714h399v-79H187V382h290v-79H187V0z"/><glyph glyph-name="G" unicode="G" horiz-adv-x="728" d="M407 377h247V27Q596 8 537-1t-134-9q-111 0-187 44.5t-115.5 127T61 357q0 112 44 194t126.5 127.5T431 724q60 0 113.5-11t99.5-31l-34-78q-38 17-85.5 29T426 645q-128 0-199.5-77T155 357q0-85 27.5-150.5t86.5-102T424 68q47 0 80 5t60 12v212H407v80z"/><glyph glyph-name="H" unicode="H" horiz-adv-x="741" d="M643 0h-90v333H187V0H97v714h90V412h366v302h90V0z"/><glyph glyph-name="I" unicode="I" horiz-adv-x="339" d="M298 0H40v52l84 19v571l-84 20v52h258v-52l-84-20V71l84-19V0z"/><glyph glyph-name="J" unicode="J" horiz-adv-x="273" d="M-4-190q-24 0-42 3.5t-32 9.5v76q16-4 34-7t38-3q25 0 47.5 10T78-66 92 4v710h90V11q0-103-51-152T-4-190z"/><glyph glyph-name="K" unicode="K" horiz-adv-x="619" d="M619 0H513L260 341l-73-64V0H97v714h90V362q30 34 61 68l62 68 193 216h105L325 403z"/><glyph glyph-name="L" unicode="L" horiz-adv-x="524" d="M97 0v714h90V80h312V0H97z"/><glyph glyph-name="M" unicode="M" horiz-adv-x="907" d="M412 0 177 626h-4q3-31 5-83.5t2-109.5V0H97v714h133l220-585h4l224 585h132V0h-89v439q0 52 2.5 103t4.5 83h-4L486 0h-74z"/><glyph glyph-name="N" unicode="N" horiz-adv-x="760" d="M663 0H558L176 593h-4q2-35 5-87t3-107V0H97v714h104l381-591h4q-1 16-2.5 48t-3 70-1.5 70v403h84V0z"/><glyph glyph-name="O" unicode="O" horiz-adv-x="781" d="M720 358q0-111-37.5-193.5T572 36 391-10q-111 0-184.5 46T97 165 61 359q0 110 36 192t109.5 128T392 725q107 0 180-45.5t110.5-128T720 358zm-564 0q0-135 57-212.5T391 68q122 0 178 77.5T625 358t-56 211.5T392 646t-178.5-76.5T156 358z"/><glyph glyph-name="P" unicode="P" horiz-adv-x="605" d="M286 714q140 0 204-55t64-155q0-59-26.5-110.5t-89-83.5T269 278h-82V0H97v714h189zm-8-77h-91V355h72q102 0 152 33t50 112q0 69-44 103t-139 34z"/><glyph glyph-name="Q" unicode="Q" horiz-adv-x="781" d="M720 358q0-131-52.5-223T512 8l171-178H554L416-9q-6 0-12.5-.5T391-10q-111 0-184.5 46T97 165 61 359q0 110 36 192t109.5 128T392 725q107 0 180-45.5t110.5-128T720 358zm-564 0q0-135 57-212.5T391 68q122 0 178 77.5T625 358t-56 211.5T392 646t-178.5-76.5T156 358z"/><glyph glyph-name="R" unicode="R" horiz-adv-x="622" d="M294 714q133 0 196.5-50.5T554 511q0-57-21-95t-53.5-60.5T411 320L607 0H502L329 295H187V0H97v714h197zm-5-78H187V371h107q87 0 127 34.5T461 507q0 70-42 99.5T289 636z"/><glyph glyph-name="S" unicode="S" horiz-adv-x="549" d="M502 191q0-95-69-148T247-10q-60 0-111 9T51 24v86q36-16 89.5-29T251 68q80 0 120.5 31t40.5 84q0 35-15 59t-51.5 44.5T244 330q-91 33-137.5 81T60 542q0 57 29 97.5t80.5 62.5T288 724q59 0 108-11t89-29l-28-77q-37 16-80.5 27T286 645q-67 0-101-28.5T151 541q0-36 15-60t49-43 92-41q63-23 106.5-49.5t66-63.5 22.5-93z"/><glyph glyph-name="T" unicode="T" horiz-adv-x="556" d="M323 0h-90v635H10v79h535v-79H323V0z"/><glyph glyph-name="U" unicode="U" horiz-adv-x="731" d="M640 252q0-74-30-133.5t-91.5-94T362-10q-133 0-202.5 72.5T90 254v460h90V251q0-87 46.5-135T367 68q97 0 140.5 51.5T551 252v462h89V252z"/><glyph glyph-name="V" unicode="V" horiz-adv-x="600" d="M600 714 345 0h-90L0 714h94l161-458q16-44 27-82.5t18-73.5q7 35 18 74t27 84l160 456h95z"/><glyph glyph-name="W" unicode="W" horiz-adv-x="930" d="M917 714 727 0h-91L497 468l-16 58-13 51.5-7 31.5q-1-13-10.5-55.5T427 465L292 0h-91L12 714h94l111-436q12-46 20.5-89t13.5-81q5 39 15 85t23 90l126 431h93l131-434q14-46 24-91.5t15-80.5q5 37 14 80.5t21 90.5l110 435h94z"/><glyph glyph-name="X" unicode="X" horiz-adv-x="586" d="M582 0H480L291 310 99 0H4l237 372L19 714h100l175-280 176 280h95L344 374z"/><glyph glyph-name="Y" unicode="Y" horiz-adv-x="566" d="m283 363 186 351h97L328 277V0h-90v273L0 714h98z"/><glyph glyph-name="Z" unicode="Z" horiz-adv-x="572" d="M533 0H38v68l376 566H50v80h473v-68L147 80h386V0z"/><glyph glyph-name="bracketleft" unicode="[" horiz-adv-x="329" d="M304-158H80v872h224v-72H166V-86h138v-72z"/><glyph glyph-name="backslash" unicode="\" horiz-adv-x="372" d="M96 714 363 0h-87L10 714h86z"/><glyph glyph-name="bracketright" unicode="]" horiz-adv-x="329" d="M25-86h138v728H25v72h224v-872H25v72z"/><glyph glyph-name="asciicircum" unicode="^" horiz-adv-x="572" d="m38 267 212 452h50l234-452h-78L276 626 116 267H38z"/><glyph glyph-name="underscore" unicode="_" horiz-adv-x="444" d="M446-154H-2v64h448v-64z"/><glyph glyph-name="grave" unicode="`" horiz-adv-x="281" d="M145 766q11-22 27.5-49.5t35-53.5 33.5-45v-12h-59q-23 18-52 46.5t-53.5 57T40 756v10h105z"/><glyph glyph-name="a" unicode="a" horiz-adv-x="561" d="M288 545q98 0 145-43t47-137V0h-64l-17 76h-4q-35-44-73.5-65T215-10q-73 0-121 38.5T46 149q0 80 63 123.5T303 320l91 3v32q0 67-29 93t-82 26q-42 0-80-12.5T132 433l-27 66q35 19 83 32.5T288 545zm26-286q-100-4-138.5-32T137 148q0-45 27.5-66T235 61q68 0 113 37.5T393 214v48z"/><glyph glyph-name="b" unicode="b" horiz-adv-x="615" d="M173 575q0-34-1.5-63.5T168 465h5q23 34 63 57t103 23q100 0 160.5-69.5T560 268 499 60 339-10q-63 0-103 23t-63 55h-7L148 0H85v760h88V575zm151-103q-85 0-118-49t-33-152v-4q0-99 32.5-151.5T326 63q72 0 107.5 53T469 269q0 203-145 203z"/><glyph glyph-name="c" unicode="c" horiz-adv-x="480" d="M300-10q-71 0-126.5 29t-87 90T55 265q0 99 33 161t89.5 91T306 546q41 0 79-8.5t62-20.5l-27-73q-24 9-56 17t-60 8q-158 0-158-203 0-97 38.5-148.5T299 66q44 0 77.5 9T438 97V19Q411 5 378.5-2.5T300-10z"/><glyph glyph-name="d" unicode="d" horiz-adv-x="615" d="M275-10q-100 0-160 69.5T55 267t60.5 208.5T276 546q62 0 101.5-23t64.5-56h6q-1 13-3.5 38.5T442 546v214h88V0h-71l-13 72h-4q-24-34-64-58T275-10zm14 73q85 0 119.5 46.5T443 250v16q0 100-33 153.5T288 473q-71 0-106.5-56.5T146 265q0-96 35.5-149T289 63z"/><glyph glyph-name="e" unicode="e" horiz-adv-x="564" d="M292 546q69 0 118.5-30t76-84.5T513 304v-53H146q2-91 46.5-138.5T317 65q51 0 90.5 9.5T489 102V25Q448 7 408-1.5T313-10q-76 0-134.5 31t-91 92.5T55 264q0 88 29.5 151t83 97T292 546zm-1-72q-63 0-99.5-40.5T148 321h273q-1 68-32 110.5T291 474z"/><glyph glyph-name="f" unicode="f" horiz-adv-x="344" d="M332 468H197V0h-88v468H15v41l94 30v31q0 104 46 149.5T283 765q32 0 58.5-5.5T387 747l-23-69q-16 5-37 10t-43 5q-44 0-65.5-29.5T197 571v-35h135v-68z"/><glyph glyph-name="g" unicode="g" horiz-adv-x="615" d="M275 546q53 0 95.5-20t72.5-61h5l12 71h70V-9q0-115-58.5-173T290-240q-118 0-193 34v81q79-42 198-42 69 0 108.5 40.5T443-16V5q0 12 1 34.5t2 31.5h-4q-54-81-166-81-104 0-162.5 73T55 267q0 128 58.5 203.5T275 546zm12-74q-67 0-104-53.5T146 266t36.5-151.5T289 62q81 0 118 43.5T444 246v21q0 110-38 157.5T287 472z"/><glyph glyph-name="h" unicode="h" horiz-adv-x="618" d="M173 537q0-40-5-75h6q26 41 70.5 62t96.5 21q98 0 147-46.5T537 349V0h-87v343q0 129-120 129-90 0-123.5-50.5T173 277V0H85v760h88V537z"/><glyph glyph-name="i" unicode="i" horiz-adv-x="258" d="M130 737q20 0 35.5-13.5T181 681q0-28-15.5-42T130 625q-22 0-37 14t-15 42q0 29 15 42.5t37 13.5zm43-201V0H85v536h88z"/><glyph glyph-name="j" unicode="j" horiz-adv-x="258" d="M78 681q0 29 15 42.5t37 13.5q20 0 35.5-13.5T181 681q0-28-15.5-42T130 625q-22 0-37 14t-15 42zM22-240q-25 0-44 3.5t-33 8.5v71q15-4 31-7t35-3q32 0 53 17.5T85-83v619h88V-80q0-75-36-117.5T22-240z"/><glyph glyph-name="k" unicode="k" horiz-adv-x="534" d="M172 363q0-16-1.5-42t-2.5-45h4q6 8 18 23t24.5 30.5T236 355l171 181h103L293 307 525 0H419L233 250l-61-53V0H85v760h87V363z"/><glyph glyph-name="l" unicode="l" horiz-adv-x="258" d="M173 0H85v760h88V0z"/><glyph glyph-name="m" unicode="m" horiz-adv-x="935" d="M673 546q91 0 136-46.5T854 349V0h-87v345q0 127-109 127-78 0-111.5-45T513 296V0h-87v345q0 127-110 127-81 0-112-50t-31-144V0H85v536h71l13-73h5q25 42 67.5 62.5T332 546q126 0 164-90h5q27 46 73.5 68t98.5 22z"/><glyph glyph-name="n" unicode="n" horiz-adv-x="618" d="M343 546q96 0 145-46.5T537 349V0h-87v343q0 129-120 129-89 0-123-50t-34-144V0H85v536h71l13-73h5q26 42 72 62.5t97 20.5z"/><glyph glyph-name="o" unicode="o" horiz-adv-x="605" d="M551 269q0-133-67.5-206T301-10q-71 0-126.5 32.5t-87.5 95T55 269q0 133 67 205t182 72q73 0 128.5-32.5t87-94T551 269zm-405 0q0-95 37.5-150.5T303 63q81 0 119 55.5T460 269t-38 149-120 54-119-54-37-149z"/><glyph glyph-name="p" unicode="p" horiz-adv-x="615" d="M340 546q99 0 159.5-69T560 269q0-137-60.5-208T339-10q-62 0-102.5 23.5T173 68h-6q2-17 4-43t2-45v-220H85v776h72l12-73h4q24 35 63 59t104 24zm-16-74q-82 0-115.5-46T173 286v-17q0-99 32.5-152.5T326 63q49 0 80.5 27t47 73.5T469 270q0 92-35.5 147T324 472z"/><glyph glyph-name="q" unicode="q" horiz-adv-x="615" d="M442-11q0 18 1 42t4 41h-6q-23-34-63.5-58T273-10q-97 0-157.5 69.5T55 267t61.5 208.5T276 546q63 0 103-24t64-59h4l13 73h70v-776h-88v229zM290 63q83 0 117.5 45.5T443 248v18q0 102-34 154.5T288 473q-72 0-107-56.5T146 265t35.5-148.5T290 63z"/><glyph glyph-name="r" unicode="r" horiz-adv-x="413" d="M335 546q15 0 32.5-1.5T398 540l-11-81q-13 3-28.5 5t-29.5 2q-41 0-77-22.5t-57.5-63T173 286V0H85v536h72l10-98h4q26 44 67 76t97 32z"/><glyph glyph-name="s" unicode="s" horiz-adv-x="479" d="M434 148q0-78-58-118T220-10q-56 0-96.5 9T52 24v80q32-16 77.5-29.5T222 61q67 0 97 21.5t30 57.5q0 20-11 36t-39.5 32-81.5 36q-52 20-89 40t-57 48-20 72q0 68 55.5 105T252 546q49 0 91.5-9.5T423 510l-30-70q-34 14-71 24t-76 10q-54 0-82.5-17.5T135 409q0-22 13-37.5t43.5-30T273 307q51-19 87-39t55-48.5 19-71.5z"/><glyph glyph-name="t" unicode="t" horiz-adv-x="361" d="M264 62q20 0 41 3.5t34 7.5V6q-14-7-40-11.5T249-10q-42 0-77.5 14.5T114 55 92 156v312H16v42l77 35 35 114h52V536h155v-68H180V158q0-49 23.5-72.5T264 62z"/><glyph glyph-name="u" unicode="u" horiz-adv-x="618" d="M533 536V0h-72l-13 71h-4q-26-42-72-61.5T274-10q-97 0-146 46.5T79 185v351h89V191q0-128 119-128 89 0 123.5 50T445 257v279h88z"/><glyph glyph-name="v" unicode="v" horiz-adv-x="508" d="M203 0 0 536h94l114-316q8-22 17-49t16-51.5T251 78h4q4 17 11.5 42t17 52 16.5 48l114 316h94L304 0H203z"/><glyph glyph-name="w" unicode="w" horiz-adv-x="786" d="M431 303q-13 41-22.5 80.5T394 445h-4q-4-22-13-61.5T354 302L258 1H158L11 537h91l74-286q11-43 21-87t14-73h4q4 17 9.5 42t12.5 52.5 14 49.5l95 302h96l92-302q11-34 21.5-74T570 92h4q3 25 13.5 69t22.5 90l75 286h90L626 1H523z"/><glyph glyph-name="x" unicode="x" horiz-adv-x="529" d="M212 274 27 536h100l138-202 137 202h99L316 274 511 0H411L265 214 117 0H18z"/><glyph glyph-name="y" unicode="y" horiz-adv-x="510" d="M1 536h94l116-305q15-40 27-76.5T256 85h4q6 25 19 65.5t27 81.5l109 304h95L279-74q-28-76-72.5-121T84-240q-24 0-42 2.5T11-232v70q11-2 26.5-4t32.5-2q46 0 74.5 26T189-73l28 71z"/><glyph glyph-name="z" unicode="z" horiz-adv-x="470" d="M431 0H39v58l288 410H56v68h368v-66L140 68h291V0z"/><glyph glyph-name="braceleft" unicode="{" horiz-adv-x="380" d="M348-158q-92 1-145 40T150 1v147q0 51-31.5 72.5T28 242v73q59 1 90.5 22t31.5 71v148q0 80 55 119t143 39v-72q-52-1-81.5-23T237 548V404q0-103-109-122v-6q109-19 109-122V7q0-49 29-70.5T348-86v-72z"/><glyph glyph-name="bar" unicode="|" horiz-adv-x="551" d="M239 760h73V-241h-73V760z"/><glyph glyph-name="braceright" unicode="}" horiz-adv-x="380" d="M32-86q52 2 81.5 23.5T143 8v145q0 103 109 122v6q-109 19-109 122v146q0 49-29 70.5T32 642v72q92-1 145-40t53-119V409q0-51 31.5-72.5T352 315v-73q-59-1-90.5-22T230 149V0q0-79-55-118.5T32-158v72z"/><glyph glyph-name="asciitilde" unicode="~" horiz-adv-x="572" d="M269 319q-36 16-59.5 21.5T164 346q-28 0-59-17t-55-42v78q48 53 120 53 29 0 57.5-6t74.5-26q36-16 59.5-21.5T406 359q29 0 60 17t55 42v-77q-49-54-120-54-28 0-57.5 6.5T269 319z"/><glyph glyph-name="uni00A0" horiz-adv-x="260"/><glyph glyph-name="exclamdown" unicode="¡" horiz-adv-x="269" d="M196 478q0-37-18-52t-44-15q-25 0-43.5 15T72 478q0 36 18.5 52t43.5 16q26 0 44-16t18-52zm-92-148h58l25-512H79z"/><glyph glyph-name="cent" unicode="¢" horiz-adv-x="572" d="M353 644q38-1 72.5-9.5T485 615l-26-73q-26 10-59 18t-60 8q-82 0-120.5-50.5T181 363t39.5-151.5T336 164q44 0 76.5 8.5T476 194v-77q-27-13-56-20.5T352 87v-97h-67V90q-59 9-102.5 39T115 216 91 362q0 91 24 149t68 89 102 40v84h68v-80z"/><glyph glyph-name="sterling" unicode="£" horiz-adv-x="572" d="M334 723q55 0 99-12t78-29l-31-70q-30 14-66.5 26T336 650q-57 0-87-29.5T219 525V386h204v-66H219V216q0-61-21-90.5T151 80h384V0H32v74q43 11 71 43t28 98v105H35v66h96v148q0 89 55.5 139T334 723z"/><glyph glyph-name="currency" unicode="¤" horiz-adv-x="572" d="M90 353q0 30 9.5 58.5T125 463l-66 68 49 47 66-64q23 17 52 26t60 9 58.5-9 51.5-26l67 64 48-47-64-67q15-23 25-51.5t10-59.5q0-63-35-112l63-66-47-47-67 64q-23-16-51-25t-59-9q-64 0-112 35l-66-64-48 47 65 66q-16 23-25.5 51.5T90 353zm67 0q0-36 17-65t46.5-46.5T286 224q37 0 66 17.5t46.5 46.5 17.5 65q0 37-17.5 66.5t-46.5 47-66 17.5q-36 0-65.5-17.5t-46.5-47-17-66.5z"/><glyph glyph-name="yen" unicode="¥" horiz-adv-x="572" d="m285 365 179 349h92L355 339h124v-64H328v-82h151v-64H328V0h-86v129H91v64h151v82H91v64h122L14 714h93z"/><glyph glyph-name="brokenbar" unicode="¦" horiz-adv-x="551" d="M239 760h73V379h-73v381zm0-620h73v-381h-73v381z"/><glyph glyph-name="section" unicode="§" horiz-adv-x="513" d="M67 395q0 50 24 80.5t55 45.5q-36 20-56 47.5T70 636q0 60 51 94.5T267 765q56 0 95-9.5t76-24.5l-27-67q-34 14-68 23.5t-82 9.5q-60 0-84.5-15.5T152 638t28-47.5T284 543q77-28 120-64t43-96q0-51-23-83.5T372 250q35-19 54.5-45.5T446 140q0-69-57.5-107T228-5q-55 0-96 8.5T59 28v75q32-15 79-28t94-13q74 0 102 21.5t28 49.5q0 19-9.5 33t-37 29.5T233 231q-52 20-89.5 41t-57 50T67 395zm75 10q0-37 31.5-62.5T285 287l22-8q23 14 43.5 35.5T371 370q0 25-13.5 45T310 453.5 214 491q-28-7-50-30t-22-56z"/><glyph glyph-name="dieresis" unicode="¨" horiz-adv-x="580" d="M149 681q0 26 14 37.5t33 11.5 33-11.5 14-37.5q0-25-14-37.5T196 631t-33 12.5-14 37.5zm188 0q0 26 13.5 37.5T383 730t33-11.5 14-37.5q0-25-14-37.5T383 631t-32.5 12.5T337 681z"/><glyph glyph-name="copyright" unicode="©" horiz-adv-x="832" d="M416-10q-80 0-147 27T152.5 93.5 76 210 49 357t27 147 76.5 116.5T269 697t147 27q76 0 142.5-27t117-76.5 79-116.5T783 357t-27-147-76.5-116.5T563 17 416-10zm0 53q64 0 120 23t99 65.5 67 99.5 24 126q0 65-23 122t-64.5 100-98 67.5T416 671q-90 0-160.5-40.5T145 519.5 105 357q0-65 23-122t64.5-100T291 67.5 416 43zm15 90q-99 0-148 61.5T234 357q0 65 23 115.5t68 79T435 580t123-30l-29-61q-50 26-93 26-59 0-91.5-42T312 357q0-76 28.5-117.5T435 198q23 0 51.5 6.5T540 221v-64q-24-10-49-17t-60-7z"/><glyph glyph-name="ordfeminine" unicode="ª" horiz-adv-x="357" d="M177 722q65 0 98-27t33-86V389h-47l-12 42q-20-21-48-34.5T135 383q-47 0-75 24.5T32 482q0 99 158 105l56 2v22q0 33-21 46t-50 13q-28 0-53-7.5T74 644l-22 49q26 13 58.5 21t66.5 8zm21-180q-60-2-81-17.5T96 482q0-25 14.5-36.5T150 434q51 0 73.5 23.5T246 521v23z"/><glyph glyph-name="guillemotleft" unicode="«" horiz-adv-x="509" d="m40 270 168 201 63-36-140-171L271 93l-63-37L40 257v13zm198 0 170 201 62-36-140-171L470 93l-62-37-170 201v13z"/><glyph glyph-name="logicalnot" unicode="¬" horiz-adv-x="572" d="M520 388V128h-71v189H50v71h470z"/><glyph glyph-name="uni00AD" unicode="­" horiz-adv-x="322" d="M40 229v78h242v-78H40z"/><glyph glyph-name="registered" unicode="®" horiz-adv-x="832" d="M416-10q-80 0-147 27T152.5 93.5 76 210 49 357t27 147 76.5 116.5T269 697t147 27q76 0 142.5-27t117-76.5 79-116.5T783 357t-27-147-76.5-116.5T563 17 416-10zm0 53q64 0 120 23t99 65.5 67 99.5 24 126q0 65-23 122t-64.5 100-98 67.5T416 671q-90 0-160.5-40.5T145 519.5 105 357q0-65 23-122t64.5-100T291 67.5 416 43zm-137 95v437h128q82 0 120-32t38-97q0-47-24-74.5T487 332l116-194h-86L417 311h-62V138h-76zm126 235q39 0 61 20t22 51q0 35-20 51t-64 16h-49V373h50z"/><glyph glyph-name="overscore" unicode="¯" horiz-adv-x="500" d="M503 760H-3v66h506v-66z"/><glyph glyph-name="degree" unicode="°" horiz-adv-x="428" d="M214 417q-72 0-115.5 42.5T55 570t43 111 116 43q71 0 115-43t44-111-44-110.5T214 417zm1 59q48 0 70.5 26t22.5 68q0 44-23.5 70T215 666q-49 0-72-26t-23-70q0-42 23-68t72-26z"/><glyph glyph-name="plusminus" unicode="±" horiz-adv-x="572" d="M321 391h199v-71H321V114h-72v206H50v71h199v207h72V391zM50 0v71h471V0H50z"/><glyph glyph-name="uni00B2" unicode="²" horiz-adv-x="350" d="M306 416H24v54l115 112q41 39 61.5 63.5t28 44T236 731q0 32-18.5 48T169 795t-54.5-11.5T64 752l-35 46q29 25 63.5 40t77.5 15q64 0 100.5-31.5T307 735q0-49-29.5-88T192 555l-81-77h195v-62z"/><glyph glyph-name="uni00B3" unicode="³" horiz-adv-x="350" d="M165 853q71 0 107-31t36-79q0-40-21.5-66T235 641v-3q39-7 62.5-32.5T321 539q0-58-42-94.5T148 408q-37 0-69 6.5T17 436v63q70-34 132-34 52 0 76 20.5t24 55.5q0 36-29 52.5T139 610H82v55h57q50 0 73.5 19.5T236 735q0 32-20.5 46.5T166 796q-31 0-57.5-10.5T55 758l-36 46q31 23 65.5 36t80.5 13z"/><glyph glyph-name="acute" unicode="´" horiz-adv-x="281" d="M241 756q-12-18-37-46.5t-53.5-57T98 606H40v12q15 19 32.5 45t34.5 53.5 28 49.5h106v-10z"/><glyph glyph-name="uni00B5" unicode="µ" horiz-adv-x="623" d="M538 536V0h-71l-14 72h-5q-25-40-65-61t-96-21q-39 0-67 12.5T172 35h-4q2-18 3.5-48t1.5-71v-156H85v776h88V190q0-127 120-127 89 0 123 50t34 144v279h88z"/><glyph glyph-name="paragraph" unicode="¶" horiz-adv-x="655" d="M549-127h-58v831H389v-831h-58v400q-15-4-34.5-6.5T260 264q-62 0-108 23t-71.5 77T55 509q0 96 27.5 150.5T160 737t115 23h274v-887z"/><glyph glyph-name="periodcentered" unicode="·" horiz-adv-x="268" d="M72 353q0 37 18 52t43 15q26 0 44.5-15t18.5-52q0-36-18.5-52T133 285q-25 0-43 16t-18 52z"/><glyph glyph-name="cedilla" unicode="¸" horiz-adv-x="225" d="M212-139q0-48-37-74.5T64-240q-32 0-50 5v55q9-2 24-3.5t29-1.5q36 0 55 9.5t19 34.5q0 26-26.5 38T50-86L93 0h58l-26-53q36-8 61.5-28t25.5-58z"/><glyph glyph-name="uni00B9" unicode="¹" horiz-adv-x="350" d="M240 844V416h-71v276q0 26 1.5 47t2.5 42q-10-9-22-19.5T126 742l-54-39-35 49 130 92h73z"/><glyph glyph-name="ordmasculine" unicode="º" horiz-adv-x="376" d="M345 553q0-81-43-125.5T187 383q-67 0-111 43.5T32 553q0 82 42 125.5T189 722q71 0 113.5-43T345 553zm-250 0q0-58 22-87.5t71-29.5 71 29.5 22 87.5q0 59-22 87.5T188 669t-71-28.5T95 553z"/><glyph glyph-name="guillemotright" unicode="»" horiz-adv-x="509" d="M469 257 299 56l-62 37 140 171-140 171 62 36 170-201v-13zm-199 0L101 56 39 93l140 171L39 435l62 36 169-201v-13z"/><glyph glyph-name="onequarter" unicode="¼" horiz-adv-x="745" d="m126 0 436 714h75L201 0h-75zm40 562q0 26 1.5 47t2.5 42q-10-9-22-19.5T123 612l-54-39-35 49 130 92h73V286h-71v276zM600 0v96H405v52l197 283h73V156h61V96h-61V0h-75zM475 156h125v93q0 21 1 49t2 52q-5-11-21-35.5T555 273z"/><glyph glyph-name="onehalf" unicode="½" horiz-adv-x="771" d="m96 0 436 714h75L171 0H96zm58 562q0 26 1.5 47t2.5 42q-10-9-22-19.5T111 612l-54-39-35 49 130 92h73V286h-71v276zM445 0v54l115 112q41 39 61.5 63.5t28 44T657 315q0 32-18.5 48T590 379t-54.5-11.5T485 336l-35 46q29 25 63.5 40t77.5 15q64 0 100.5-31.5T728 319q0-49-29.5-88T613 139l-81-77h195V0H445z"/><glyph glyph-name="threequarters" unicode="¾" horiz-adv-x="781" d="M146 278q-37 0-69 6.5T15 306v63q70-34 132-34 52 0 76 20.5t24 55.5q0 36-29 52.5T137 480H80v55h57q50 0 73.5 19.5T234 605q0 32-20.5 46.5T164 666q-31 0-57.5-10.5T53 628l-36 46q31 23 65.5 36t80.5 13q71 0 107-31t36-79q0-40-21.5-66T233 511v-3q39-7 62.5-32.5T319 409q0-58-42-94.5T146 278zM170 0l436 714h75L245 0h-75zm466 0v96H441v52l197 283h73V156h61V96h-61V0h-75zM511 156h125v93q0 21 1 49t2 52q-5-11-21-35.5T591 273z"/><glyph glyph-name="questiondown" unicode="¿" horiz-adv-x="434" d="M315 478q0-37-17.5-52T253 411q-25 0-43 15t-18 52q0 36 18 52t43 16q27 0 44.5-16t17.5-52zm-23-174q0-37-7.5-65T259 186.5 208 134q-38-32-60-54.5T117 36t-9-51q0-48 31.5-74t89.5-26q50 0 88 13t72 29l31-70q-40-21-88.5-35T223-192q-95 0-147 47T24-17q0 45 14.5 76.5t41 58T142 174q34 29 51 49.5t23 41.5 6 49v17h70v-27z"/><glyph glyph-name="Agrave" unicode="À" horiz-adv-x="639" d="m545 0-86 221H176L91 0H0l279 717h81L638 0h-93zM352 517q-3 8-10 29t-13.5 43.5T318 624q-7-31-16-60.5T287 517l-81-216h226zm-59 427q11-22 27.5-49.5t35-53.5 33.5-45v-12h-59q-23 18-52 46.5t-53.5 57T188 934v10h105z"/><glyph glyph-name="Aacute" unicode="Á" horiz-adv-x="639" d="m545 0-86 221H176L91 0H0l279 717h81L638 0h-93zM352 517q-3 8-10 29t-13.5 43.5T318 624q-7-31-16-60.5T287 517l-81-216h226zm114 417q-12-18-37-46.5t-53.5-57T323 784h-58v12q15 19 32.5 45t34.5 53.5 28 49.5h106v-10z"/><glyph glyph-name="Acircumflex" unicode="Â" horiz-adv-x="639" d="m545 0-86 221H176L91 0H0l279 717h81L638 0h-93zM352 517q-3 8-10 29t-13.5 43.5T318 624q-7-31-16-60.5T287 517l-81-216h226zm10 427q12-22 34.5-49.5t47-54T487 795v-11h-62q-26 16-54 39.5T316 874q-27-27-54-50t-53-40h-60v11q19 20 42.5 46t45.5 53.5 35 49.5h90z"/><glyph glyph-name="Atilde" unicode="Ã" horiz-adv-x="639" d="m545 0-86 221H176L91 0H0l279 717h81L638 0h-93zM352 517q-3 8-10 29t-13.5 43.5T318 624q-7-31-16-60.5T287 517l-81-216h226zM135 784q6 59 34.5 93.5T245 912q30 0 56.5-14.5T352 869t45-14q23 0 35.5 14.5T452 913h50q-6-58-34-93t-75-35q-28 0-54.5 14t-51 28.5T241 842q-24 0-36-14.5T186 784h-51z"/><glyph glyph-name="Adieresis" unicode="Ä" horiz-adv-x="639" d="m545 0-86 221H176L91 0H0l279 717h81L638 0h-93zM352 517q-3 8-10 29t-13.5 43.5T318 624q-7-31-16-60.5T287 517l-81-216h226zM178 859q0 26 14 37.5t33 11.5 33-11.5 14-37.5q0-25-14-37.5T225 809t-33 12.5-14 37.5zm188 0q0 26 13.5 37.5T412 908t33-11.5 14-37.5q0-25-14-37.5T412 809t-32.5 12.5T366 859z"/><glyph glyph-name="Aring" unicode="Å" horiz-adv-x="639" d="m545 0-86 221H176L91 0H0l279 717h81L638 0h-93zM352 517q-3 8-10 29t-13.5 43.5T318 624q-7-31-16-60.5T287 517l-81-216h226zm-35 150q-49 0-79 28t-30 78 30 77.5 79 27.5q47 0 79-27.5t32-76.5q0-51-31.5-79T317 667zm0 50q25 0 40.5 15t15.5 41-16 41-40 15-40-15-16-41 14.5-41 41.5-15z"/><glyph glyph-name="AE" unicode="Æ" horiz-adv-x="881" d="M821 0H449v221H199L92 0H-1l339 714h483v-79H539V412h263v-78H539V79h282V0zM234 301h215v333h-58z"/><glyph glyph-name="Ccedilla" unicode="Ç" horiz-adv-x="632" d="M403 645q-115 0-181-77t-66-211q0-133 61.5-210.5T402 69q47 0 89 8t82 20V19Q533 4 490.5-3T389-10q-109 0-182 45T97.5 163 61 358q0 108 39.5 190.5t116.5 129T404 724q113 0 197-42l-36-76q-33 15-73.5 27T403 645zm70-784q0-48-37-74.5T325-240q-32 0-50 5v55q9-2 24-3.5t29-1.5q36 0 55 9.5t19 34.5q0 26-26.5 38T311-86l43 86h58l-26-53q36-8 61.5-28t25.5-58z"/><glyph glyph-name="Egrave" unicode="È" horiz-adv-x="556" d="M496 0H97v714h399v-79H187V412h291v-78H187V79h309V0zM280 944q11-22 27.5-49.5t35-53.5 33.5-45v-12h-59q-23 18-52 46.5t-53.5 57T175 934v10h105z"/><glyph glyph-name="Eacute" unicode="É" horiz-adv-x="556" d="M496 0H97v714h399v-79H187V412h291v-78H187V79h309V0zm-43 934q-12-18-37-46.5t-53.5-57T310 784h-58v12q15 19 32.5 45t34.5 53.5 28 49.5h106v-10z"/><glyph glyph-name="Ecircumflex" unicode="Ê" horiz-adv-x="556" d="M496 0H97v714h399v-79H187V412h291v-78H187V79h309V0zM349 944q12-22 34.5-49.5t47-54T474 795v-11h-62q-26 16-54 39.5T303 874q-27-27-54-50t-53-40h-60v11q19 20 42.5 46t45.5 53.5 35 49.5h90z"/><glyph glyph-name="Edieresis" unicode="Ë" horiz-adv-x="556" d="M496 0H97v714h399v-79H187V412h291v-78H187V79h309V0zM165 859q0 26 14 37.5t33 11.5 33-11.5 14-37.5q0-25-14-37.5T212 809t-33 12.5-14 37.5zm188 0q0 26 13.5 37.5T399 908t33-11.5 14-37.5q0-25-14-37.5T399 809t-32.5 12.5T353 859z"/><glyph glyph-name="Igrave" unicode="Ì" horiz-adv-x="339" d="M298 0H40v52l84 19v571l-84 20v52h258v-52l-84-20V71l84-19V0zM145 944q11-22 27.5-49.5t35-53.5 33.5-45v-12h-59q-23 18-52 46.5t-53.5 57T40 934v10h105z"/><glyph glyph-name="Iacute" unicode="Í" horiz-adv-x="339" d="M298 0H40v52l84 19v571l-84 20v52h258v-52l-84-20V71l84-19V0zm20 934q-12-18-37-46.5t-53.5-57T175 784h-58v12q15 19 32.5 45t34.5 53.5 28 49.5h106v-10z"/><glyph glyph-name="Icircumflex" unicode="Î" horiz-adv-x="339" d="M298 0H40v52l84 19v571l-84 20v52h258v-52l-84-20V71l84-19V0zm-84 944q12-22 34.5-49.5t47-54T339 795v-11h-62q-26 16-54 39.5T168 874q-27-27-54-50t-53-40H1v11q19 20 42.5 46T89 894.5t35 49.5h90z"/><glyph glyph-name="Idieresis" unicode="Ï" horiz-adv-x="339" d="M298 0H40v52l84 19v571l-84 20v52h258v-52l-84-20V71l84-19V0zM30 859q0 26 14 37.5T77 908t33-11.5 14-37.5q0-25-14-37.5T77 809t-33 12.5T30 859zm188 0q0 26 13.5 37.5T264 908t33-11.5 14-37.5q0-25-14-37.5T264 809t-32.5 12.5T218 859z"/><glyph glyph-name="Eth" unicode="Ð" horiz-adv-x="730" d="M317 714q107 0 186-40t122.5-117.5T669 364q0-181-98.5-272.5T295 0H104v314H30v78h74v322h213zm-13-77H194V392h178v-78H194V77h90q290 0 290 284 0 143-71 209.5T304 637z"/><glyph glyph-name="Ntilde" unicode="Ñ" horiz-adv-x="760" d="M663 0H558L176 593h-4q2-35 5-87t3-107V0H97v714h104l381-591h4q-1 16-2.5 48t-3 70-1.5 70v403h84V0zM197 784q6 59 34.5 93.5T307 912q30 0 56.5-14.5T414 869t45-14q23 0 35.5 14.5T514 913h50q-6-58-34-93t-75-35q-28 0-54.5 14t-51 28.5T303 842q-24 0-36-14.5T248 784h-51z"/><glyph glyph-name="Ograve" unicode="Ò" horiz-adv-x="781" d="M720 358q0-111-37.5-193.5T572 36 391-10q-111 0-184.5 46T97 165 61 359q0 110 36 192t109.5 128T392 725q107 0 180-45.5t110.5-128T720 358zm-564 0q0-135 57-212.5T391 68q122 0 178 77.5T625 358t-56 211.5T392 646t-178.5-76.5T156 358zm210 586q11-22 27.5-49.5t35-53.5 33.5-45v-12h-59q-23 18-52 46.5t-53.5 57T261 934v10h105z"/><glyph glyph-name="Oacute" unicode="Ó" horiz-adv-x="781" d="M720 358q0-111-37.5-193.5T572 36 391-10q-111 0-184.5 46T97 165 61 359q0 110 36 192t109.5 128T392 725q107 0 180-45.5t110.5-128T720 358zm-564 0q0-135 57-212.5T391 68q122 0 178 77.5T625 358t-56 211.5T392 646t-178.5-76.5T156 358zm383 576q-12-18-37-46.5t-53.5-57T396 784h-58v12q15 19 32.5 45t34.5 53.5 28 49.5h106v-10z"/><glyph glyph-name="Ocircumflex" unicode="Ô" horiz-adv-x="781" d="M720 358q0-111-37.5-193.5T572 36 391-10q-111 0-184.5 46T97 165 61 359q0 110 36 192t109.5 128T392 725q107 0 180-45.5t110.5-128T720 358zm-564 0q0-135 57-212.5T391 68q122 0 178 77.5T625 358t-56 211.5T392 646t-178.5-76.5T156 358zm279 586q12-22 34.5-49.5t47-54T560 795v-11h-62q-26 16-54 39.5T389 874q-27-27-54-50t-53-40h-60v11q19 20 42.5 46t45.5 53.5 35 49.5h90z"/><glyph glyph-name="Otilde" unicode="Õ" horiz-adv-x="781" d="M720 358q0-111-37.5-193.5T572 36 391-10q-111 0-184.5 46T97 165 61 359q0 110 36 192t109.5 128T392 725q107 0 180-45.5t110.5-128T720 358zm-564 0q0-135 57-212.5T391 68q122 0 178 77.5T625 358t-56 211.5T392 646t-178.5-76.5T156 358zm52 426q6 59 34.5 93.5T318 912q30 0 56.5-14.5T425 869t45-14q23 0 35.5 14.5T525 913h50q-6-58-34-93t-75-35q-28 0-54.5 14t-51 28.5T314 842q-24 0-36-14.5T259 784h-51z"/><glyph glyph-name="Odieresis" unicode="Ö" horiz-adv-x="781" d="M720 358q0-111-37.5-193.5T572 36 391-10q-111 0-184.5 46T97 165 61 359q0 110 36 192t109.5 128T392 725q107 0 180-45.5t110.5-128T720 358zm-564 0q0-135 57-212.5T391 68q122 0 178 77.5T625 358t-56 211.5T392 646t-178.5-76.5T156 358zm95 501q0 26 14 37.5t33 11.5 33-11.5 14-37.5q0-25-14-37.5T298 809t-33 12.5-14 37.5zm188 0q0 26 13.5 37.5T485 908t33-11.5 14-37.5q0-25-14-37.5T485 809t-32.5 12.5T439 859z"/><glyph glyph-name="multiply" unicode="×" horiz-adv-x="572" d="m456 574 50-51-170-170 169-170-50-51-171 169-167-169-52 51 169 170L64 522l52 52 169-171z"/><glyph glyph-name="Oslash" unicode="Ø" horiz-adv-x="781" d="M720 358q0-111-37.5-193.5T572 36 391-10q-112 0-185 47l-48-68L97 9l52 74q-44 49-66 119T61 359q0 110 36 192t109.5 128T392 725q52 0 96.5-12t81.5-33l46 66 61-41-51-71q94-99 94-276zm-564 0q0-61 11.5-111t35.5-87l319 451q-52 35-130 35-121 0-178.5-76.5T156 358zm469 0q0 129-51 202L254 106q26-18 60.5-28T391 68q122 0 178 77.5T625 358z"/><glyph glyph-name="Ugrave" unicode="Ù" horiz-adv-x="731" d="M640 252q0-74-30-133.5t-91.5-94T362-10q-133 0-202.5 72.5T90 254v460h90V251q0-87 46.5-135T367 68q97 0 140.5 51.5T551 252v462h89V252zM341 944q11-22 27.5-49.5t35-53.5 33.5-45v-12h-59q-23 18-52 46.5t-53.5 57T236 934v10h105z"/><glyph glyph-name="Uacute" unicode="Ú" horiz-adv-x="731" d="M640 252q0-74-30-133.5t-91.5-94T362-10q-133 0-202.5 72.5T90 254v460h90V251q0-87 46.5-135T367 68q97 0 140.5 51.5T551 252v462h89V252zM514 934q-12-18-37-46.5t-53.5-57T371 784h-58v12q15 19 32.5 45t34.5 53.5 28 49.5h106v-10z"/><glyph glyph-name="Ucircumflex" unicode="Û" horiz-adv-x="731" d="M640 252q0-74-30-133.5t-91.5-94T362-10q-133 0-202.5 72.5T90 254v460h90V251q0-87 46.5-135T367 68q97 0 140.5 51.5T551 252v462h89V252zM410 944q12-22 34.5-49.5t47-54T535 795v-11h-62q-26 16-54 39.5T364 874q-27-27-54-50t-53-40h-60v11q19 20 42.5 46t45.5 53.5 35 49.5h90z"/><glyph glyph-name="Udieresis" unicode="Ü" horiz-adv-x="731" d="M640 252q0-74-30-133.5t-91.5-94T362-10q-133 0-202.5 72.5T90 254v460h90V251q0-87 46.5-135T367 68q97 0 140.5 51.5T551 252v462h89V252zM226 859q0 26 14 37.5t33 11.5 33-11.5 14-37.5q0-25-14-37.5T273 809t-33 12.5-14 37.5zm188 0q0 26 13.5 37.5T460 908t33-11.5 14-37.5q0-25-14-37.5T460 809t-32.5 12.5T414 859z"/><glyph glyph-name="Yacute" unicode="Ý" horiz-adv-x="566" d="m283 363 186 351h97L328 277V0h-90v273L0 714h98zm148 571q-12-18-37-46.5t-53.5-57T288 784h-58v12q15 19 32.5 45t34.5 53.5 28 49.5h106v-10z"/><glyph glyph-name="Thorn" unicode="Þ" horiz-adv-x="605" d="M554 382q0-60-26-111.5T439.5 187 268 155h-81V0H97v714h90V590h96q145 0 208-55t63-153zM259 231q105 0 153.5 33.5T461 377q0 69-43.5 102.5T276 513h-89V231h72z"/><glyph glyph-name="germandbls" unicode="ß" horiz-adv-x="631" d="M522 617q0-34-14-59.5t-35-45-42-35.5-35-31.5-14-33.5q0-13 6.5-24t25.5-25.5 56-39.5q54-36 85-73.5t31-96.5q0-85-51.5-124T400-10q-47 0-83 9t-62 25v79q26-16 64-29t78-13q55 0 79 23t24 63q0 36-20.5 61T406 267q-63 41-86 70.5T297 407q0 31 13.5 53t34 38.5 41 32.5 34 35 13.5 46q0 42-35.5 61T306 692q-35 0-65.5-9.5t-49-32.5-18.5-66V0H85v584q0 67 29 106.5t79 57T306 765q97 0 156.5-37T522 617z"/><glyph glyph-name="agrave" unicode="à" horiz-adv-x="561" d="M288 545q98 0 145-43t47-137V0h-64l-17 76h-4q-35-44-73.5-65T215-10q-73 0-121 38.5T46 149q0 80 63 123.5T303 320l91 3v32q0 67-29 93t-82 26q-42 0-80-12.5T132 433l-27 66q35 19 83 32.5T288 545zm26-286q-100-4-138.5-32T137 148q0-45 27.5-66T235 61q68 0 113 37.5T393 214v48zm-58 507q11-22 27.5-49.5t35-53.5 33.5-45v-12h-59q-23 18-52 46.5t-53.5 57T151 756v10h105z"/><glyph glyph-name="aacute" unicode="á" horiz-adv-x="561" d="M288 545q98 0 145-43t47-137V0h-64l-17 76h-4q-35-44-73.5-65T215-10q-73 0-121 38.5T46 149q0 80 63 123.5T303 320l91 3v32q0 67-29 93t-82 26q-42 0-80-12.5T132 433l-27 66q35 19 83 32.5T288 545zm26-286q-100-4-138.5-32T137 148q0-45 27.5-66T235 61q68 0 113 37.5T393 214v48zm115 497q-12-18-37-46.5t-53.5-57T286 606h-58v12q15 19 32.5 45t34.5 53.5 28 49.5h106v-10z"/><glyph glyph-name="acircumflex" unicode="â" horiz-adv-x="561" d="M288 545q98 0 145-43t47-137V0h-64l-17 76h-4q-35-44-73.5-65T215-10q-73 0-121 38.5T46 149q0 80 63 123.5T303 320l91 3v32q0 67-29 93t-82 26q-42 0-80-12.5T132 433l-27 66q35 19 83 32.5T288 545zm26-286q-100-4-138.5-32T137 148q0-45 27.5-66T235 61q68 0 113 37.5T393 214v48zm11 507q12-22 34.5-49.5t47-54T450 617v-11h-62q-26 16-54 39.5T279 696q-27-27-54-50t-53-40h-60v11q19 20 42.5 46t45.5 53.5 35 49.5h90z"/><glyph glyph-name="atilde" unicode="ã" horiz-adv-x="561" d="M288 545q98 0 145-43t47-137V0h-64l-17 76h-4q-35-44-73.5-65T215-10q-73 0-121 38.5T46 149q0 80 63 123.5T303 320l91 3v32q0 67-29 93t-82 26q-42 0-80-12.5T132 433l-27 66q35 19 83 32.5T288 545zm26-286q-100-4-138.5-32T137 148q0-45 27.5-66T235 61q68 0 113 37.5T393 214v48zM98 606q6 59 34.5 93.5T208 734q30 0 56.5-14.5T315 691t45-14q23 0 35.5 14.5T415 735h50q-6-58-34-93t-75-35q-28 0-54.5 14t-51 28.5T204 664q-24 0-36-14.5T149 606H98z"/><glyph glyph-name="adieresis" unicode="ä" horiz-adv-x="561" d="M288 545q98 0 145-43t47-137V0h-64l-17 76h-4q-35-44-73.5-65T215-10q-73 0-121 38.5T46 149q0 80 63 123.5T303 320l91 3v32q0 67-29 93t-82 26q-42 0-80-12.5T132 433l-27 66q35 19 83 32.5T288 545zm26-286q-100-4-138.5-32T137 148q0-45 27.5-66T235 61q68 0 113 37.5T393 214v48zM141 681q0 26 14 37.5t33 11.5 33-11.5 14-37.5q0-25-14-37.5T188 631t-33 12.5-14 37.5zm188 0q0 26 13.5 37.5T375 730t33-11.5 14-37.5q0-25-14-37.5T375 631t-32.5 12.5T329 681z"/><glyph glyph-name="aring" unicode="å" horiz-adv-x="561" d="M288 545q98 0 145-43t47-137V0h-64l-17 76h-4q-35-44-73.5-65T215-10q-73 0-121 38.5T46 149q0 80 63 123.5T303 320l91 3v32q0 67-29 93t-82 26q-42 0-80-12.5T132 433l-27 66q35 19 83 32.5T288 545zm26-286q-100-4-138.5-32T137 148q0-45 27.5-66T235 61q68 0 113 37.5T393 214v48zm-34 347q-49 0-79 28t-30 78 30 77.5 79 27.5q47 0 79-27.5t32-76.5q0-51-31.5-79T280 606zm0 50q25 0 40.5 15t15.5 41-16 41-40 15-40-15-16-41 14.5-41 41.5-15z"/><glyph glyph-name="ae" unicode="æ" horiz-adv-x="864" d="M603 546q65 0 112-30t72.5-84T813 306v-54H470q2-96 41.5-141.5T625 65q50 0 88 9.5t76 27.5V25Q749 7 710.5-1.5T622-10q-141 0-203 113-34-52-80-82.5T216-10q-73 0-121.5 38.5T46 149q0 80 60 123.5T290 320l90 3v34q0 65-30.5 91T268 474q-40 0-78.5-12T118 433l-27 66q35 20 85 33t99 13q62 0 102.5-20.5T439 459q26 41 68 64t96 23zm-1-72q-58 0-91.5-39.5T472 321h248q0 69-28.5 111T602 474zM303 259q-94-4-130-32t-36-79q0-45 25.5-66T230 61q63 0 105.5 37.5T378 214v48z"/><glyph glyph-name="ccedilla" unicode="ç" horiz-adv-x="480" d="M300-10q-71 0-126.5 29t-87 90T55 265q0 99 33 161t89.5 91T306 546q41 0 79-8.5t62-20.5l-27-73q-24 9-56 17t-60 8q-158 0-158-203 0-97 38.5-148.5T299 66q44 0 77.5 9T438 97V19Q411 5 378.5-2.5T300-10zm82-129q0-48-37-74.5T234-240q-32 0-50 5v55q9-2 24-3.5t29-1.5q36 0 55 9.5t19 34.5q0 26-26.5 38T220-86l43 86h58l-26-53q36-8 61.5-28t25.5-58z"/><glyph glyph-name="egrave" unicode="è" horiz-adv-x="564" d="M292 546q69 0 118.5-30t76-84.5T513 304v-53H146q2-91 46.5-138.5T317 65q51 0 90.5 9.5T489 102V25Q448 7 408-1.5T313-10q-76 0-134.5 31t-91 92.5T55 264q0 88 29.5 151t83 97T292 546zm-1-72q-63 0-99.5-40.5T148 321h273q-1 68-32 110.5T291 474zm-31 292q11-22 27.5-49.5t35-53.5 33.5-45v-12h-59q-23 18-52 46.5t-53.5 57T155 756v10h105z"/><glyph glyph-name="eacute" unicode="é" horiz-adv-x="564" d="M292 546q69 0 118.5-30t76-84.5T513 304v-53H146q2-91 46.5-138.5T317 65q51 0 90.5 9.5T489 102V25Q448 7 408-1.5T313-10q-76 0-134.5 31t-91 92.5T55 264q0 88 29.5 151t83 97T292 546zm-1-72q-63 0-99.5-40.5T148 321h273q-1 68-32 110.5T291 474zm142 282q-12-18-37-46.5t-53.5-57T290 606h-58v12q15 19 32.5 45t34.5 53.5 28 49.5h106v-10z"/><glyph glyph-name="ecircumflex" unicode="ê" horiz-adv-x="564" d="M292 546q69 0 118.5-30t76-84.5T513 304v-53H146q2-91 46.5-138.5T317 65q51 0 90.5 9.5T489 102V25Q448 7 408-1.5T313-10q-76 0-134.5 31t-91 92.5T55 264q0 88 29.5 151t83 97T292 546zm-1-72q-63 0-99.5-40.5T148 321h273q-1 68-32 110.5T291 474zm38 292q12-22 34.5-49.5t47-54T454 617v-11h-62q-26 16-54 39.5T283 696q-27-27-54-50t-53-40h-60v11q19 20 42.5 46t45.5 53.5 35 49.5h90z"/><glyph glyph-name="edieresis" unicode="ë" horiz-adv-x="564" d="M292 546q69 0 118.5-30t76-84.5T513 304v-53H146q2-91 46.5-138.5T317 65q51 0 90.5 9.5T489 102V25Q448 7 408-1.5T313-10q-76 0-134.5 31t-91 92.5T55 264q0 88 29.5 151t83 97T292 546zm-1-72q-63 0-99.5-40.5T148 321h273q-1 68-32 110.5T291 474zM145 681q0 26 14 37.5t33 11.5 33-11.5 14-37.5q0-25-14-37.5T192 631t-33 12.5-14 37.5zm188 0q0 26 13.5 37.5T379 730t33-11.5 14-37.5q0-25-14-37.5T379 631t-32.5 12.5T333 681z"/><glyph glyph-name="igrave" unicode="ì" horiz-adv-x="258" d="M173 0H85v536h88V0zm-69 766q11-22 27.5-49.5t35-53.5 33.5-45v-12h-59q-23 18-52 46.5t-53.5 57T-1 756v10h105z"/><glyph glyph-name="iacute" unicode="í" horiz-adv-x="258" d="M173 0H85v536h88V0zm104 756q-12-18-37-46.5t-53.5-57T134 606H76v12q15 19 32.5 45t34.5 53.5 28 49.5h106v-10z"/><glyph glyph-name="icircumflex" unicode="î" horiz-adv-x="258" d="M173 0H85v536h88V0zm0 766q12-22 34.5-49.5t47-54T298 617v-11h-62q-26 16-54 39.5T127 696q-27-27-54-50t-53-40h-60v11q19 20 42.5 46T48 716.5 83 766h90z"/><glyph glyph-name="idieresis" unicode="ï" horiz-adv-x="258" d="M173 0H85v536h88V0zM-11 681q0 26 14 37.5T36 730t33-11.5T83 681q0-25-14-37.5T36 631 3 643.5-11 681zm188 0q0 26 13.5 37.5T223 730t33-11.5 14-37.5q0-25-14-37.5T223 631t-32.5 12.5T177 681z"/><glyph glyph-name="eth" unicode="ð" horiz-adv-x="605" d="M216 765q32-15 64.5-33t61.5-39l115 67 38-54-99-57q68-64 111.5-158T551 275q0-142-67-213.5T301-10q-72 0-127.5 29.5t-87 84T55 233q0 112 63.5 176T290 473q53 0 92.5-14t63.5-44l4 2q-16 57-49 105t-75 86l-130-75-38 55 112 64q-21 14-44 27.5T180 705zm87-363q-84 0-121.5-44.5T144 230q0-73 38-120.5T303 62t121 48.5T462 251q0 62-39 106.5T303 402z"/><glyph glyph-name="ntilde" unicode="ñ" horiz-adv-x="618" d="M343 546q96 0 145-46.5T537 349V0h-87v343q0 129-120 129-89 0-123-50t-34-144V0H85v536h71l13-73h5q26 42 72 62.5t97 20.5zm-217 60q6 59 34.5 93.5T236 734q30 0 56.5-14.5T343 691t45-14q23 0 35.5 14.5T443 735h50q-6-58-34-93t-75-35q-28 0-54.5 14t-51 28.5T232 664q-24 0-36-14.5T177 606h-51z"/><glyph glyph-name="ograve" unicode="ò" horiz-adv-x="605" d="M551 269q0-133-67.5-206T301-10q-71 0-126.5 32.5t-87.5 95T55 269q0 133 67 205t182 72q73 0 128.5-32.5t87-94T551 269zm-405 0q0-95 37.5-150.5T303 63q81 0 119 55.5T460 269t-38 149-120 54-119-54-37-149zm132 497q11-22 27.5-49.5t35-53.5 33.5-45v-12h-59q-23 18-52 46.5t-53.5 57T173 756v10h105z"/><glyph glyph-name="oacute" unicode="ó" horiz-adv-x="605" d="M551 269q0-133-67.5-206T301-10q-71 0-126.5 32.5t-87.5 95T55 269q0 133 67 205t182 72q73 0 128.5-32.5t87-94T551 269zm-405 0q0-95 37.5-150.5T303 63q81 0 119 55.5T460 269t-38 149-120 54-119-54-37-149zm305 487q-12-18-37-46.5t-53.5-57T308 606h-58v12q15 19 32.5 45t34.5 53.5 28 49.5h106v-10z"/><glyph glyph-name="ocircumflex" unicode="ô" horiz-adv-x="605" d="M551 269q0-133-67.5-206T301-10q-71 0-126.5 32.5t-87.5 95T55 269q0 133 67 205t182 72q73 0 128.5-32.5t87-94T551 269zm-405 0q0-95 37.5-150.5T303 63q81 0 119 55.5T460 269t-38 149-120 54-119-54-37-149zm201 497q12-22 34.5-49.5t47-54T472 617v-11h-62q-26 16-54 39.5T301 696q-27-27-54-50t-53-40h-60v11q19 20 42.5 46t45.5 53.5 35 49.5h90z"/><glyph glyph-name="otilde" unicode="õ" horiz-adv-x="605" d="M551 269q0-133-67.5-206T301-10q-71 0-126.5 32.5t-87.5 95T55 269q0 133 67 205t182 72q73 0 128.5-32.5t87-94T551 269zm-405 0q0-95 37.5-150.5T303 63q81 0 119 55.5T460 269t-38 149-120 54-119-54-37-149zm-26 337q6 59 34.5 93.5T230 734q30 0 56.5-14.5T337 691t45-14q23 0 35.5 14.5T437 735h50q-6-58-34-93t-75-35q-28 0-54.5 14t-51 28.5T226 664q-24 0-36-14.5T171 606h-51z"/><glyph glyph-name="odieresis" unicode="ö" horiz-adv-x="605" d="M551 269q0-133-67.5-206T301-10q-71 0-126.5 32.5t-87.5 95T55 269q0 133 67 205t182 72q73 0 128.5-32.5t87-94T551 269zm-405 0q0-95 37.5-150.5T303 63q81 0 119 55.5T460 269t-38 149-120 54-119-54-37-149zm17 412q0 26 14 37.5t33 11.5 33-11.5 14-37.5q0-25-14-37.5T210 631t-33 12.5-14 37.5zm188 0q0 26 13.5 37.5T397 730t33-11.5 14-37.5q0-25-14-37.5T397 631t-32.5 12.5T351 681z"/><glyph glyph-name="divide" unicode="÷" horiz-adv-x="572" d="M285 462q-23 0-39.5 14.5T229 523q0 34 16.5 47t39.5 13 39-13 16-47q0-32-16-46.5T285 462zM50 317v71h471v-71H50zm235-196q-23 0-39.5 14.5T229 182q0 34 16.5 47t39.5 13 39-13 16-47q0-32-16-46.5T285 121z"/><glyph glyph-name="oslash" unicode="ø" horiz-adv-x="605" d="M551 269q0-133-67.5-206T301-10q-73 0-129 33l-40-56L74 6l45 62q-31 36-47.5 86.5T55 269q0 133 67 205t182 72q73 0 131-36l39 56 59-38-45-63q29-35 46-84.5T551 269zm-405 0q0-38 5.5-70.5T170 141l220 306q-36 25-88 25-82 0-119-54t-37-149zm314 0q0 74-23 123L217 86q34-23 86-23 81 0 119 55.5T460 269z"/><glyph glyph-name="ugrave" unicode="ù" horiz-adv-x="618" d="M533 536V0h-72l-13 71h-4q-26-42-72-61.5T274-10q-97 0-146 46.5T79 185v351h89V191q0-128 119-128 89 0 123.5 50T445 257v279h88zM284 766q11-22 27.5-49.5t35-53.5 33.5-45v-12h-59q-23 18-52 46.5t-53.5 57T179 756v10h105z"/><glyph glyph-name="uacute" unicode="ú" horiz-adv-x="618" d="M533 536V0h-72l-13 71h-4q-26-42-72-61.5T274-10q-97 0-146 46.5T79 185v351h89V191q0-128 119-128 89 0 123.5 50T445 257v279h88zm-76 220q-12-18-37-46.5t-53.5-57T314 606h-58v12q15 19 32.5 45t34.5 53.5 28 49.5h106v-10z"/><glyph glyph-name="ucircumflex" unicode="û" horiz-adv-x="618" d="M533 536V0h-72l-13 71h-4q-26-42-72-61.5T274-10q-97 0-146 46.5T79 185v351h89V191q0-128 119-128 89 0 123.5 50T445 257v279h88zM353 766q12-22 34.5-49.5t47-54T478 617v-11h-62q-26 16-54 39.5T307 696q-27-27-54-50t-53-40h-60v11q19 20 42.5 46t45.5 53.5 35 49.5h90z"/><glyph glyph-name="udieresis" unicode="ü" horiz-adv-x="618" d="M533 536V0h-72l-13 71h-4q-26-42-72-61.5T274-10q-97 0-146 46.5T79 185v351h89V191q0-128 119-128 89 0 123.5 50T445 257v279h88zM169 681q0 26 14 37.5t33 11.5 33-11.5 14-37.5q0-25-14-37.5T216 631t-33 12.5-14 37.5zm188 0q0 26 13.5 37.5T403 730t33-11.5 14-37.5q0-25-14-37.5T403 631t-32.5 12.5T357 681z"/><glyph glyph-name="yacute" unicode="ý" horiz-adv-x="510" d="M1 536h94l116-305q15-40 27-76.5T256 85h4q6 25 19 65.5t27 81.5l109 304h95L279-74q-28-76-72.5-121T84-240q-24 0-42 2.5T11-232v70q11-2 26.5-4t32.5-2q46 0 74.5 26T189-73l28 71zm402 220q-12-18-37-46.5t-53.5-57T260 606h-58v12q15 19 32.5 45t34.5 53.5 28 49.5h106v-10z"/><glyph glyph-name="thorn" unicode="þ" horiz-adv-x="615" d="M560 269q0-137-60.5-208T340-10q-63 0-103 23t-64 55h-6q1-7 2.5-23t2.5-33 1-28v-224H85V760h88V536q0-14-1-36.5t-2-35.5h4q24 34 63 58t103 24q99 0 159.5-70T560 269zm-91 1q0 101-35 151.5T325 472q-82 0-116-46t-36-138v-19q0-99 32.5-152.5T326 63q74 0 108.5 53.5T469 270z"/><glyph glyph-name="ydieresis" unicode="ÿ" horiz-adv-x="510" d="M1 536h94l116-305q15-40 27-76.5T256 85h4q6 25 19 65.5t27 81.5l109 304h95L279-74q-28-76-72.5-121T84-240q-24 0-42 2.5T11-232v70q11-2 26.5-4t32.5-2q46 0 74.5 26T189-73l28 71zm114 145q0 26 14 37.5t33 11.5 33-11.5 14-37.5q0-25-14-37.5T162 631t-33 12.5-14 37.5zm188 0q0 26 13.5 37.5T349 730t33-11.5 14-37.5q0-25-14-37.5T349 631t-32.5 12.5T303 681z"/><glyph glyph-name="Amacron" unicode="Ā" horiz-adv-x="639" d="m545 0-86 221H176L91 0H0l279 717h81L638 0h-93zM352 517q-3 8-10 29t-13.5 43.5T318 624q-7-31-16-60.5T287 517l-81-216h226zm114 338v-71H169v71h297z"/><glyph glyph-name="amacron" unicode="ā" horiz-adv-x="561" d="M288 545q98 0 145-43t47-137V0h-64l-17 76h-4q-35-44-73.5-65T215-10q-73 0-121 38.5T46 149q0 80 63 123.5T303 320l91 3v32q0 67-29 93t-82 26q-42 0-80-12.5T132 433l-27 66q35 19 83 32.5T288 545zm26-286q-100-4-138.5-32T137 148q0-45 27.5-66T235 61q68 0 113 37.5T393 214v48zm115 418v-71H132v71h297z"/><glyph glyph-name="Abreve" unicode="Ă" horiz-adv-x="639" d="m545 0-86 221H176L91 0H0l279 717h81L638 0h-93zM352 517q-3 8-10 29t-13.5 43.5T318 624q-7-31-16-60.5T287 517l-81-216h226zm121 401q-5-60-45.5-97T315 784q-74 0-111.5 36.5T162 918h54q5-41 30-52t71-11q39 0 67.5 12t33.5 51h55z"/><glyph glyph-name="abreve" unicode="ă" horiz-adv-x="561" d="M288 545q98 0 145-43t47-137V0h-64l-17 76h-4q-35-44-73.5-65T215-10q-73 0-121 38.5T46 149q0 80 63 123.5T303 320l91 3v32q0 67-29 93t-82 26q-42 0-80-12.5T132 433l-27 66q35 19 83 32.5T288 545zm26-286q-100-4-138.5-32T137 148q0-45 27.5-66T235 61q68 0 113 37.5T393 214v48zm122 481q-5-60-45.5-97T278 606q-74 0-111.5 36.5T125 740h54q5-41 30-52t71-11q39 0 67.5 12t33.5 51h55z"/><glyph glyph-name="Aogonek" unicode="Ą" horiz-adv-x="639" d="m545 0-86 221H176L91 0H0l279 717h81L638 0h-93zM352 517q-3 8-10 29t-13.5 43.5T318 624q-7-31-16-60.5T287 517l-81-216h226zm193-633q0-45 45-45 17 0 28.5 2.5T638-155v-56q-14-4-28-6.5t-34-2.5q-53 0-78 25t-25 69q0 29 14.5 56t36 49T565 15l48-15q-34-32-51-58.5T545-116z"/><glyph glyph-name="aogonek" unicode="ą" horiz-adv-x="561" d="M288 545q98 0 145-43t47-137V0h-64l-17 76h-4q-35-44-73.5-65T215-10q-73 0-121 38.5T46 149q0 80 63 123.5T303 320l91 3v32q0 67-29 93t-82 26q-42 0-80-12.5T132 433l-27 66q35 19 83 32.5T288 545zm26-286q-100-4-138.5-32T137 148q0-45 27.5-66T235 61q68 0 113 37.5T393 214v48zm98-375q0-45 45-45 17 0 28.5 2.5T505-155v-56q-14-4-28-6.5t-34-2.5q-53 0-78 25t-25 69q0 29 14.5 56t36 49T432 15l48-15q-34-32-51-58.5T412-116z"/><glyph glyph-name="Cacute" unicode="Ć" horiz-adv-x="632" d="M403 645q-115 0-181-77t-66-211q0-133 61.5-210.5T402 69q47 0 89 8t82 20V19Q533 4 490.5-3T389-10q-109 0-182 45T97.5 163 61 358q0 108 39.5 190.5t116.5 129T404 724q113 0 197-42l-36-76q-33 15-73.5 27T403 645zm125 289q-12-18-37-46.5t-53.5-57T385 784h-58v12q15 19 32.5 45t34.5 53.5 28 49.5h106v-10z"/><glyph glyph-name="cacute" unicode="ć" horiz-adv-x="480" d="M300-10q-71 0-126.5 29t-87 90T55 265q0 99 33 161t89.5 91T306 546q41 0 79-8.5t62-20.5l-27-73q-24 9-56 17t-60 8q-158 0-158-203 0-97 38.5-148.5T299 66q44 0 77.5 9T438 97V19Q411 5 378.5-2.5T300-10zm132 766q-12-18-37-46.5t-53.5-57T289 606h-58v12q15 19 32.5 45t34.5 53.5 28 49.5h106v-10z"/><glyph glyph-name="Ccircumflex" unicode="Ĉ" horiz-adv-x="632" d="M403 645q-115 0-181-77t-66-211q0-133 61.5-210.5T402 69q47 0 89 8t82 20V19Q533 4 490.5-3T389-10q-109 0-182 45T97.5 163 61 358q0 108 39.5 190.5t116.5 129T404 724q113 0 197-42l-36-76q-33 15-73.5 27T403 645zm21 299q12-22 34.5-49.5t47-54T549 795v-11h-62q-26 16-54 39.5T378 874q-27-27-54-50t-53-40h-60v11q19 20 42.5 46t45.5 53.5 35 49.5h90z"/><glyph glyph-name="ccircumflex" unicode="ĉ" horiz-adv-x="480" d="M300-10q-71 0-126.5 29t-87 90T55 265q0 99 33 161t89.5 91T306 546q41 0 79-8.5t62-20.5l-27-73q-24 9-56 17t-60 8q-158 0-158-203 0-97 38.5-148.5T299 66q44 0 77.5 9T438 97V19Q411 5 378.5-2.5T300-10zm28 776q12-22 34.5-49.5t47-54T453 617v-11h-62q-26 16-54 39.5T282 696q-27-27-54-50t-53-40h-60v11q19 20 42.5 46t45.5 53.5 35 49.5h90z"/><glyph glyph-name="Cdotaccent" unicode="Ċ" horiz-adv-x="632" d="M403 645q-115 0-181-77t-66-211q0-133 61.5-210.5T402 69q47 0 89 8t82 20V19Q533 4 490.5-3T389-10q-109 0-182 45T97.5 163 61 358q0 108 39.5 190.5t116.5 129T404 724q113 0 197-42l-36-76q-33 15-73.5 27T403 645zm-22 270q20 0 35.5-13.5T432 859q0-28-15.5-42T381 803q-22 0-37 14t-15 42q0 29 15 42.5t37 13.5z"/><glyph glyph-name="cdotaccent" unicode="ċ" horiz-adv-x="480" d="M300-10q-71 0-126.5 29t-87 90T55 265q0 99 33 161t89.5 91T306 546q41 0 79-8.5t62-20.5l-27-73q-24 9-56 17t-60 8q-158 0-158-203 0-97 38.5-148.5T299 66q44 0 77.5 9T438 97V19Q411 5 378.5-2.5T300-10zm-15 747q20 0 35.5-13.5T336 681q0-28-15.5-42T285 625q-22 0-37 14t-15 42q0 29 15 42.5t37 13.5z"/><glyph glyph-name="Ccaron" unicode="Č" horiz-adv-x="632" d="M403 645q-115 0-181-77t-66-211q0-133 61.5-210.5T402 69q47 0 89 8t82 20V19Q533 4 490.5-3T389-10q-109 0-182 45T97.5 163 61 358q0 108 39.5 190.5t116.5 129T404 724q113 0 197-42l-36-76q-33 15-73.5 27T403 645zm-69 139q-13 23-35 49.5T253 886t-42 45v13h60q26-17 54-41t53-51q27 27 55 51t54 41h62v-13q-19-19-43.5-45t-47-52.5T424 784h-90z"/><glyph glyph-name="ccaron" unicode="č" horiz-adv-x="480" d="M300-10q-71 0-126.5 29t-87 90T55 265q0 99 33 161t89.5 91T306 546q41 0 79-8.5t62-20.5l-27-73q-24 9-56 17t-60 8q-158 0-158-203 0-97 38.5-148.5T299 66q44 0 77.5 9T438 97V19Q411 5 378.5-2.5T300-10zm-62 616q-13 23-35 49.5T157 708t-42 45v13h60q26-17 54-41t53-51q27 27 55 51t54 41h62v-13q-19-19-43.5-45t-47-52.5T328 606h-90z"/><glyph glyph-name="Dcaron" unicode="Ď" horiz-adv-x="730" d="M669 364q0-181-98.5-272.5T296 0H97v714h220q108 0 187-40t122-117.5T669 364zm-95-3q0 143-70.5 209.5T304 637H187V77h97q290 0 290 284zM315 784q-13 23-35 49.5T234 886t-42 45v13h60q26-17 54-41t53-51q27 27 55 51t54 41h62v-13q-19-19-43.5-45t-47-52.5T405 784h-90z"/><glyph glyph-name="dcaron" unicode="ď" horiz-adv-x="615" d="M688 751q-4-18-15.5-45T646 650.5 616 600h-48v12q7 19 13.5 45.5t12 54T601 760h87v-9zM275-10q-100 0-160 69.5T55 267t60.5 208.5T276 546q62 0 101.5-23t64.5-56h6q-1 13-3.5 38.5T442 546v214h88V0h-71l-13 72h-4q-24-34-64-58T275-10zm14 73q85 0 119.5 46.5T443 250v16q0 100-33 153.5T288 473q-71 0-106.5-56.5T146 265q0-96 35.5-149T289 63z"/><glyph glyph-name="Dcroat" unicode="Đ" horiz-adv-x="730" d="M317 714q107 0 186-40t122.5-117.5T669 364q0-181-98.5-272.5T295 0H104v314H30v78h74v322h213zm-13-77H194V392h178v-78H194V77h90q290 0 290 284 0 143-71 209.5T304 637z"/><glyph glyph-name="dcroat" unicode="đ" horiz-adv-x="617" d="M275-10q-100 0-160 69.5T55 265q0 140 60.5 209T275 543q63 0 102.5-23t64.5-56h6q-2 13-4 38.5t-2 41.5v61H229v66h213v89h88v-89h76v-66h-76V0h-72l-13 72h-4q-24-34-64-58T275-10zm15 73q84 0 118.5 46T443 248v17q0 101-33 153t-122 52q-71 0-106-55t-35-151 35-148.5T290 63z"/><glyph glyph-name="Emacron" unicode="Ē" horiz-adv-x="556" d="M496 0H97v714h399v-79H187V412h291v-78H187V79h309V0zm-43 855v-71H156v71h297z"/><glyph glyph-name="emacron" unicode="ē" horiz-adv-x="564" d="M292 546q69 0 118.5-30t76-84.5T513 304v-53H146q2-91 46.5-138.5T317 65q51 0 90.5 9.5T489 102V25Q448 7 408-1.5T313-10q-76 0-134.5 31t-91 92.5T55 264q0 88 29.5 151t83 97T292 546zm-1-72q-63 0-99.5-40.5T148 321h273q-1 68-32 110.5T291 474zm142 203v-71H136v71h297z"/><glyph glyph-name="Ebreve" unicode="Ĕ" horiz-adv-x="556" d="M496 0H97v714h399v-79H187V412h291v-78H187V79h309V0zm-36 918q-5-60-45.5-97T302 784q-74 0-111.5 36.5T149 918h54q5-41 30-52t71-11q39 0 67.5 12t33.5 51h55z"/><glyph glyph-name="ebreve" unicode="ĕ" horiz-adv-x="564" d="M292 546q69 0 118.5-30t76-84.5T513 304v-53H146q2-91 46.5-138.5T317 65q51 0 90.5 9.5T489 102V25Q448 7 408-1.5T313-10q-76 0-134.5 31t-91 92.5T55 264q0 88 29.5 151t83 97T292 546zm-1-72q-63 0-99.5-40.5T148 321h273q-1 68-32 110.5T291 474zm149 266q-5-60-45.5-97T282 606q-74 0-111.5 36.5T129 740h54q5-41 30-52t71-11q39 0 67.5 12t33.5 51h55z"/><glyph glyph-name="Edotaccent" unicode="Ė" horiz-adv-x="556" d="M496 0H97v714h399v-79H187V412h291v-78H187V79h309V0zM306 915q20 0 35.5-13.5T357 859q0-28-15.5-42T306 803q-22 0-37 14t-15 42q0 29 15 42.5t37 13.5z"/><glyph glyph-name="edotaccent" unicode="ė" horiz-adv-x="564" d="M292 546q69 0 118.5-30t76-84.5T513 304v-53H146q2-91 46.5-138.5T317 65q51 0 90.5 9.5T489 102V25Q448 7 408-1.5T313-10q-76 0-134.5 31t-91 92.5T55 264q0 88 29.5 151t83 97T292 546zm-1-72q-63 0-99.5-40.5T148 321h273q-1 68-32 110.5T291 474zm-5 263q20 0 35.5-13.5T337 681q0-28-15.5-42T286 625q-22 0-37 14t-15 42q0 29 15 42.5t37 13.5z"/><glyph glyph-name="Eogonek" unicode="Ę" horiz-adv-x="556" d="M496 0H97v714h399v-79H187V412h291v-78H187V79h309V0zm-98-116q0-45 45-45 17 0 28.5 2.5T491-155v-56q-14-4-28-6.5t-34-2.5q-53 0-78 25t-25 69q0 29 14.5 56t36 49T418 15l48-15q-34-32-51-58.5T398-116z"/><glyph glyph-name="eogonek" unicode="ę" horiz-adv-x="564" d="M389-116q0-45 45-45 17 0 28.5 2.5T482-155v-56q-14-4-28-6.5t-34-2.5q-53 0-78 25t-25 69q0 34 20.5 65.5T383-6q-31-4-70-4-76 0-134.5 31t-91 92.5T55 264q0 88 29.5 151t83 97T292 546q69 0 118.5-30t76-84.5T513 304v-53H146q2-91 46.5-138.5T317 65q51 0 90.5 9.5T489 102V25q-40-32-62-56t-30-44-8-41zm-98 590q-63 0-99.5-40.5T148 321h273q-1 68-32 110.5T291 474z"/><glyph glyph-name="Ecaron" unicode="Ě" horiz-adv-x="556" d="M496 0H97v714h399v-79H187V412h291v-78H187V79h309V0zM259 784q-13 23-35 49.5T178 886t-42 45v13h60q26-17 54-41t53-51q27 27 55 51t54 41h62v-13q-19-19-43.5-45t-47-52.5T349 784h-90z"/><glyph glyph-name="ecaron" unicode="ě" horiz-adv-x="564" d="M292 546q69 0 118.5-30t76-84.5T513 304v-53H146q2-91 46.5-138.5T317 65q51 0 90.5 9.5T489 102V25Q448 7 408-1.5T313-10q-76 0-134.5 31t-91 92.5T55 264q0 88 29.5 151t83 97T292 546zm-1-72q-63 0-99.5-40.5T148 321h273q-1 68-32 110.5T291 474zm-52 132q-13 23-35 49.5T158 708t-42 45v13h60q26-17 54-41t53-51q27 27 55 51t54 41h62v-13q-19-19-43.5-45t-47-52.5T329 606h-90z"/><glyph glyph-name="Gcircumflex" unicode="Ĝ" horiz-adv-x="728" d="M407 377h247V27Q596 8 537-1t-134-9q-111 0-187 44.5t-115.5 127T61 357q0 112 44 194t126.5 127.5T431 724q60 0 113.5-11t99.5-31l-34-78q-38 17-85.5 29T426 645q-128 0-199.5-77T155 357q0-85 27.5-150.5t86.5-102T424 68q47 0 80 5t60 12v212H407v80zm42 567q12-22 34.5-49.5t47-54T574 795v-11h-62q-26 16-54 39.5T403 874q-27-27-54-50t-53-40h-60v11q19 20 42.5 46t45.5 53.5 35 49.5h90z"/><glyph glyph-name="gcircumflex" unicode="ĝ" horiz-adv-x="615" d="M275 546q53 0 95.5-20t72.5-61h5l12 71h70V-9q0-115-58.5-173T290-240q-118 0-193 34v81q79-42 198-42 69 0 108.5 40.5T443-16V5q0 12 1 34.5t2 31.5h-4q-54-81-166-81-104 0-162.5 73T55 267q0 128 58.5 203.5T275 546zm12-74q-67 0-104-53.5T146 266t36.5-151.5T289 62q81 0 118 43.5T444 246v21q0 110-38 157.5T287 472zm54 294q12-22 34.5-49.5t47-54T466 617v-11h-62q-26 16-54 39.5T295 696q-27-27-54-50t-53-40h-60v11q19 20 42.5 46t45.5 53.5 35 49.5h90z"/><glyph glyph-name="Gbreve" unicode="Ğ" horiz-adv-x="728" d="M407 377h247V27Q596 8 537-1t-134-9q-111 0-187 44.5t-115.5 127T61 357q0 112 44 194t126.5 127.5T431 724q60 0 113.5-11t99.5-31l-34-78q-38 17-85.5 29T426 645q-128 0-199.5-77T155 357q0-85 27.5-150.5t86.5-102T424 68q47 0 80 5t60 12v212H407v80zm153 541q-5-60-45.5-97T402 784q-74 0-111.5 36.5T249 918h54q5-41 30-52t71-11q39 0 67.5 12t33.5 51h55z"/><glyph glyph-name="gbreve" unicode="ğ" horiz-adv-x="615" d="M275 546q53 0 95.5-20t72.5-61h5l12 71h70V-9q0-115-58.5-173T290-240q-118 0-193 34v81q79-42 198-42 69 0 108.5 40.5T443-16V5q0 12 1 34.5t2 31.5h-4q-54-81-166-81-104 0-162.5 73T55 267q0 128 58.5 203.5T275 546zm12-74q-67 0-104-53.5T146 266t36.5-151.5T289 62q81 0 118 43.5T444 246v21q0 110-38 157.5T287 472zm165 268q-5-60-45.5-97T294 606q-74 0-111.5 36.5T141 740h54q5-41 30-52t71-11q39 0 67.5 12t33.5 51h55z"/><glyph glyph-name="Gdotaccent" unicode="Ġ" horiz-adv-x="728" d="M407 377h247V27Q596 8 537-1t-134-9q-111 0-187 44.5t-115.5 127T61 357q0 112 44 194t126.5 127.5T431 724q60 0 113.5-11t99.5-31l-34-78q-38 17-85.5 29T426 645q-128 0-199.5-77T155 357q0-85 27.5-150.5t86.5-102T424 68q47 0 80 5t60 12v212H407v80zm-1 538q20 0 35.5-13.5T457 859q0-28-15.5-42T406 803q-22 0-37 14t-15 42q0 29 15 42.5t37 13.5z"/><glyph glyph-name="gdotaccent" unicode="ġ" horiz-adv-x="615" d="M275 546q53 0 95.5-20t72.5-61h5l12 71h70V-9q0-115-58.5-173T290-240q-118 0-193 34v81q79-42 198-42 69 0 108.5 40.5T443-16V5q0 12 1 34.5t2 31.5h-4q-54-81-166-81-104 0-162.5 73T55 267q0 128 58.5 203.5T275 546zm12-74q-67 0-104-53.5T146 266t36.5-151.5T289 62q81 0 118 43.5T444 246v21q0 110-38 157.5T287 472zm11 265q20 0 35.5-13.5T349 681q0-28-15.5-42T298 625q-22 0-37 14t-15 42q0 29 15 42.5t37 13.5z"/><glyph glyph-name="uni0122" unicode="Ģ" horiz-adv-x="728" d="M407 377h247V27Q596 8 537-1t-134-9q-111 0-187 44.5t-115.5 127T61 357q0 112 44 194t126.5 127.5T431 724q60 0 113.5-11t99.5-31l-34-78q-38 17-85.5 29T426 645q-128 0-199.5-77T155 357q0-85 27.5-150.5t86.5-102T424 68q47 0 80 5t60 12v212H407v80zm59-447q-4-18-16.5-45.5t-29-55.5-34.5-50h-48v12q8 17 16.5 43.5t15.5 55 9 49.5h87v-9z"/><glyph glyph-name="uni0123" unicode="ģ" horiz-adv-x="615" d="M363 754q-8-17-16.5-43.5T331 656t-10-50h-87v9q5 18 17 45t28.5 55.5T314 766h49v-12zm-88-208q53 0 95.5-20t72.5-61h5l12 71h70V-9q0-115-58.5-173T290-240q-118 0-193 34v81q79-42 198-42 69 0 108.5 40.5T443-16V5q0 12 1 34.5t2 31.5h-4q-54-81-166-81-104 0-162.5 73T55 267q0 128 58.5 203.5T275 546zm12-74q-67 0-104-53.5T146 266t36.5-151.5T289 62q81 0 118 43.5T444 246v21q0 110-38 157.5T287 472z"/><glyph glyph-name="Hcircumflex" unicode="Ĥ" horiz-adv-x="741" d="M643 0h-90v333H187V0H97v714h90V412h366v302h90V0zM415 944q12-22 34.5-49.5t47-54T540 795v-11h-62q-26 16-54 39.5T369 874q-27-27-54-50t-53-40h-60v11q19 20 42.5 46t45.5 53.5 35 49.5h90z"/><glyph glyph-name="hcircumflex" unicode="ĥ" horiz-adv-x="618" d="M173 537q0-40-5-75h6q26 41 70.5 62t96.5 21q98 0 147-46.5T537 349V0h-87v343q0 129-120 129-90 0-123.5-50.5T173 277V0H85v760h88V537zm1 453q12-22 34.5-49.5t47-54T299 841v-11h-62q-26 16-54 39.5T128 920q-27-27-54-50t-53-40h-60v11q19 20 42.5 46T49 940.5 84 990h90z"/><glyph glyph-name="Hbar" unicode="Ħ" horiz-adv-x="741" d="M97 0v523H0v72h97v119h90V595h366v119h90V595h97v-72h-97V0h-90v333H187V0H97zm90 412h366v111H187V412z"/><glyph glyph-name="hbar" unicode="ħ" horiz-adv-x="618" d="M173 760v-90h212v-66H173v-87q0-19-1.5-38.5T168 443h6q26 41 71 62t97 21q97 0 146-47t49-150V0h-87v323q0 129-120 129-90 0-123.5-50T173 258V0H85v604H9v66h76v90h88z"/><glyph glyph-name="Itilde" unicode="Ĩ" horiz-adv-x="339" d="M298 0H40v52l84 19v571l-84 20v52h258v-52l-84-20V71l84-19V0zM-13 784q6 59 34.5 93.5T97 912q30 0 56.5-14.5T204 869t45-14q23 0 35.5 14.5T304 913h50q-6-58-34-93t-75-35q-28 0-54.5 14t-51 28.5T93 842q-24 0-36-14.5T38 784h-51z"/><glyph glyph-name="itilde" unicode="ĩ" horiz-adv-x="258" d="M173 0H85v536h88V0zM-54 606q6 59 34.5 93.5T56 734q30 0 56.5-14.5T163 691t45-14q23 0 35.5 14.5T263 735h50q-6-58-34-93t-75-35q-28 0-54.5 14t-51 28.5T52 664q-24 0-36-14.5T-3 606h-51z"/><glyph glyph-name="Imacron" unicode="Ī" horiz-adv-x="339" d="M298 0H40v52l84 19v571l-84 20v52h258v-52l-84-20V71l84-19V0zm20 855v-71H21v71h297z"/><glyph glyph-name="imacron" unicode="ī" horiz-adv-x="258" d="M173 0H85v536h88V0zm104 677v-71H-20v71h297z"/><glyph glyph-name="Ibreve" unicode="Ĭ" horiz-adv-x="339" d="M298 0H40v52l84 19v571l-84 20v52h258v-52l-84-20V71l84-19V0zm27 918q-5-60-45.5-97T167 784q-74 0-111.5 36.5T14 918h54q5-41 30-52t71-11q39 0 67.5 12t33.5 51h55z"/><glyph glyph-name="ibreve" unicode="ĭ" horiz-adv-x="258" d="M173 0H85v536h88V0zm111 740q-5-60-45.5-97T126 606q-74 0-111.5 36.5T-27 740h54q5-41 30-52t71-11q39 0 67.5 12t33.5 51h55z"/><glyph glyph-name="Iogonek" unicode="Į" horiz-adv-x="339" d="M298 0H40v52l84 19v571l-84 20v52h258v-52l-84-20V71l84-19V0zm-94-116q0-45 45-45 17 0 28.5 2.5T297-155v-56q-14-4-28-6.5t-34-2.5q-53 0-78 25t-25 69q0 29 14.5 56t36 49T224 15l48-15q-34-32-51-58.5T204-116z"/><glyph glyph-name="iogonek" unicode="į" horiz-adv-x="258" d="M130 737q20 0 35.5-13.5T181 681q0-28-15.5-42T130 625q-22 0-37 14t-15 42q0 29 15 42.5t37 13.5zm43-201V0H85v536h88zM99-116q0-45 45-45 17 0 28.5 2.5T192-155v-56q-14-4-28-6.5t-34-2.5q-53 0-78 25t-25 69q0 29 14.5 56t36 49T119 15l48-15q-34-32-51-58.5T99-116z"/><glyph glyph-name="Idotaccent" unicode="İ" horiz-adv-x="339" d="M298 0H40v52l84 19v571l-84 20v52h258v-52l-84-20V71l84-19V0zM171 915q20 0 35.5-13.5T222 859q0-28-15.5-42T171 803q-22 0-37 14t-15 42q0 29 15 42.5t37 13.5z"/><glyph glyph-name="IJ" unicode="Ĳ" horiz-adv-x="612" d="M298 0H40v52l84 19v571l-84 20v52h258v-52l-84-20V71l84-19V0zm37-190q-24 0-42 3.5t-32 9.5v76q16-4 34-7t38-3q25 0 47.5 10T417-66t14 70v710h90V11q0-103-51-152t-135-49z"/><glyph glyph-name="ij" unicode="ĳ" horiz-adv-x="516" d="M130 737q20 0 35.5-13.5T181 681q0-28-15.5-42T130 625q-22 0-37 14t-15 42q0 29 15 42.5t37 13.5zm43-201V0H85v536h88zm163 145q0 29 15 42.5t37 13.5q20 0 35.5-13.5T439 681q0-28-15.5-42T388 625q-22 0-37 14t-15 42zm-56-921q-25 0-44 3.5t-33 8.5v71q15-4 31-7t35-3q32 0 53 17.5T343-83v619h88V-80q0-75-36-117.5T280-240z"/><glyph glyph-name="Jcircumflex" unicode="Ĵ" horiz-adv-x="273" d="M-4-190q-24 0-42 3.5t-32 9.5v76q16-4 34-7t38-3q25 0 47.5 10T78-66 92 4v710h90V11q0-103-51-152T-4-190zM181 944q12-22 34.5-49.5t47-54T306 795v-11h-62q-26 16-54 39.5T135 874q-27-27-54-50t-53-40h-60v11q19 20 42.5 46T56 894.5 91 944h90z"/><glyph glyph-name="jcircumflex" unicode="ĵ" horiz-adv-x="258" d="M22-240q-25 0-44 3.5t-33 8.5v71q15-4 31-7t35-3q32 0 53 17.5T85-83v619h88V-80q0-75-36-117.5T22-240zM173 766q12-22 34.5-49.5t47-54T298 617v-11h-62q-26 16-54 39.5T127 696q-27-27-54-50t-53-40h-60v11q19 20 42.5 46T48 716.5 83 766h90z"/><glyph glyph-name="uni0136" unicode="Ķ" horiz-adv-x="619" d="M619 0H513L260 341l-73-64V0H97v714h90V362q30 34 61 68l62 68 193 216h105L325 403zM394-70q-4-18-16.5-45.5t-29-55.5-34.5-50h-48v12q8 17 16.5 43.5t15.5 55 9 49.5h87v-9z"/><glyph glyph-name="uni0137" unicode="ķ" horiz-adv-x="534" d="M172 363q0-16-1.5-42t-2.5-45h4q6 8 18 23t24.5 30.5T236 355l171 181h103L293 307 525 0H419L233 250l-61-53V0H85v760h87V363zM331-70q-4-18-16.5-45.5t-29-55.5-34.5-50h-48v12q8 17 16.5 43.5t15.5 55 9 49.5h87v-9z"/><glyph glyph-name="kgreenlandic" unicode="ĸ" horiz-adv-x="534" d="M509 536 306 299 525 0H420L244 242l-66-54V0H85v536h93V397q0-40-2-78t-4-58h2q9 13 19.5 26.5T213 312l190 224h106z"/><glyph glyph-name="Lacute" unicode="Ĺ" horiz-adv-x="524" d="M97 0v714h90V80h312V0H97zm191 934q-12-18-37-46.5t-53.5-57T145 784H87v12q15 19 32.5 45t34.5 53.5 28 49.5h106v-10z"/><glyph glyph-name="lacute" unicode="ĺ" horiz-adv-x="258" d="M173 0H85v760h88V0zm104 980q-12-18-37-46.5t-53.5-57T134 830H76v12q15 19 32.5 45t34.5 53.5 28 49.5h106v-10z"/><glyph glyph-name="uni013B" unicode="Ļ" horiz-adv-x="524" d="M97 0v714h90V80h312V0H97zm267-70q-4-18-16.5-45.5t-29-55.5-34.5-50h-48v12q8 17 16.5 43.5t15.5 55 9 49.5h87v-9z"/><glyph glyph-name="uni013C" unicode="ļ" horiz-adv-x="258" d="M173 0H85v760h88V0zm20-70q-4-18-16.5-45.5t-29-55.5-34.5-50H65v12q8 17 16.5 43.5t15.5 55 9 49.5h87v-9z"/><glyph glyph-name="Lcaron" unicode="Ľ" horiz-adv-x="524" d="M499 705q-4-18-15.5-45T457 604.5 427 554h-48v12q7 19 13.5 45.5t12 54T412 714h87v-9zM97 0v714h90V80h312V0H97z"/><glyph glyph-name="lcaron" unicode="ľ" horiz-adv-x="258" d="M337 751q-4-18-15.5-45T295 650.5 265 600h-48v12q7 19 13.5 45.5t12 54T250 760h87v-9zM173 0H85v760h88V0z"/><glyph glyph-name="Ldot" unicode="Ŀ" horiz-adv-x="524" d="M97 0v714h90V80h312V0H97zm286 413q20 0 35.5-13.5T434 357q0-28-15.5-42T383 301q-22 0-37 14t-15 42q0 29 15 42.5t37 13.5z"/><glyph glyph-name="ldot" unicode="ŀ" horiz-adv-x="268" d="M173 0H85v760h88V0zm90 435q20 0 35.5-13.5T314 379q0-28-15.5-42T263 323q-22 0-37 14t-15 42q0 29 15 42.5t37 13.5z"/><glyph glyph-name="Lslash" unicode="Ł" horiz-adv-x="524" d="M97 0v247l-49-28-35 60 84 50v385h90V382l137 81 36-63-173-100V80h312V0H97z"/><glyph glyph-name="lslash" unicode="ł" horiz-adv-x="258" d="M78 0v285l-51-32-36 59 87 56v392h88V425l64 44 37-59-101-68V0H78z"/><glyph glyph-name="Nacute" unicode="Ń" horiz-adv-x="760" d="M663 0H558L176 593h-4q2-35 5-87t3-107V0H97v714h104l381-591h4q-1 16-2.5 48t-3 70-1.5 70v403h84V0zM528 934q-12-18-37-46.5t-53.5-57T385 784h-58v12q15 19 32.5 45t34.5 53.5 28 49.5h106v-10z"/><glyph glyph-name="nacute" unicode="ń" horiz-adv-x="618" d="M343 546q96 0 145-46.5T537 349V0h-87v343q0 129-120 129-89 0-123-50t-34-144V0H85v536h71l13-73h5q26 42 72 62.5t97 20.5zm114 210q-12-18-37-46.5t-53.5-57T314 606h-58v12q15 19 32.5 45t34.5 53.5 28 49.5h106v-10z"/><glyph glyph-name="uni0145" unicode="Ņ" horiz-adv-x="760" d="M663 0H558L176 593h-4q2-35 5-87t3-107V0H97v714h104l381-591h4q-1 16-2.5 48t-3 70-1.5 70v403h84V0zM444-70q-4-18-16.5-45.5t-29-55.5-34.5-50h-48v12q8 17 16.5 43.5t15.5 55 9 49.5h87v-9z"/><glyph glyph-name="uni0146" unicode="ņ" horiz-adv-x="618" d="M343 546q96 0 145-46.5T537 349V0h-87v343q0 129-120 129-89 0-123-50t-34-144V0H85v536h71l13-73h5q26 42 72 62.5t97 20.5zm30-616q-4-18-16.5-45.5t-29-55.5-34.5-50h-48v12q8 17 16.5 43.5t15.5 55 9 49.5h87v-9z"/><glyph glyph-name="Ncaron" unicode="Ň" horiz-adv-x="760" d="M663 0H558L176 593h-4q2-35 5-87t3-107V0H97v714h104l381-591h4q-1 16-2.5 48t-3 70-1.5 70v403h84V0zM334 784q-13 23-35 49.5T253 886t-42 45v13h60q26-17 54-41t53-51q27 27 55 51t54 41h62v-13q-19-19-43.5-45t-47-52.5T424 784h-90z"/><glyph glyph-name="ncaron" unicode="ň" horiz-adv-x="618" d="M343 546q96 0 145-46.5T537 349V0h-87v343q0 129-120 129-89 0-123-50t-34-144V0H85v536h71l13-73h5q26 42 72 62.5t97 20.5zm-80 60q-13 23-35 49.5T182 708t-42 45v13h60q26-17 54-41t53-51q27 27 55 51t54 41h62v-13q-19-19-43.5-45t-47-52.5T353 606h-90z"/><glyph glyph-name="napostrophe" unicode="ŉ" horiz-adv-x="688" d="M413 546q96 0 145-46.5T607 349V0h-87v343q0 129-120 129-89 0-123-50t-34-144V0h-88v536h71l13-73h5q26 42 72 62.5t97 20.5zM152 703q-13-52-37.5-116.5T66 469H1q10 38 19.5 81.5t17.5 86T51 714h94z"/><glyph glyph-name="Eng" unicode="Ŋ" horiz-adv-x="760" d="M475-190q-25 0-43.5 3.5T399-177v76q16-4 35-7t41-3q26 0 49.5 9.5t39 34T579 0L176 593h-4q2-19 3.5-54t3-75 1.5-77V0H97v714h104l381-572h4q-3 32-5 88.5T579 342v372h84V6q0-100-51-148t-137-48z"/><glyph glyph-name="eng" unicode="ŋ" horiz-adv-x="618" d="M394-240q-24 0-41 3.5t-30 8.5v71q14-4 28-7t32-3q29 0 48 17.5T450-83v427q0 128-119 128-89 0-123.5-49.5T173 279V0H85v536h71l14-73h5q26 42 70.5 62.5T342 546q98 0 147-46.5T538 350V-80q0-75-35-117.5T394-240z"/><glyph glyph-name="Omacron" unicode="Ō" horiz-adv-x="781" d="M720 358q0-111-37.5-193.5T572 36 391-10q-111 0-184.5 46T97 165 61 359q0 110 36 192t109.5 128T392 725q107 0 180-45.5t110.5-128T720 358zm-564 0q0-135 57-212.5T391 68q122 0 178 77.5T625 358t-56 211.5T392 646t-178.5-76.5T156 358zm383 497v-71H242v71h297z"/><glyph glyph-name="omacron" unicode="ō" horiz-adv-x="605" d="M551 269q0-133-67.5-206T301-10q-71 0-126.5 32.5t-87.5 95T55 269q0 133 67 205t182 72q73 0 128.5-32.5t87-94T551 269zm-405 0q0-95 37.5-150.5T303 63q81 0 119 55.5T460 269t-38 149-120 54-119-54-37-149zm305 408v-71H154v71h297z"/><glyph glyph-name="Obreve" unicode="Ŏ" horiz-adv-x="781" d="M720 358q0-111-37.5-193.5T572 36 391-10q-111 0-184.5 46T97 165 61 359q0 110 36 192t109.5 128T392 725q107 0 180-45.5t110.5-128T720 358zm-564 0q0-135 57-212.5T391 68q122 0 178 77.5T625 358t-56 211.5T392 646t-178.5-76.5T156 358zm390 560q-5-60-45.5-97T388 784q-74 0-111.5 36.5T235 918h54q5-41 30-52t71-11q39 0 67.5 12t33.5 51h55z"/><glyph glyph-name="obreve" unicode="ŏ" horiz-adv-x="605" d="M551 269q0-133-67.5-206T301-10q-71 0-126.5 32.5t-87.5 95T55 269q0 133 67 205t182 72q73 0 128.5-32.5t87-94T551 269zm-405 0q0-95 37.5-150.5T303 63q81 0 119 55.5T460 269t-38 149-120 54-119-54-37-149zm312 471q-5-60-45.5-97T300 606q-74 0-111.5 36.5T147 740h54q5-41 30-52t71-11q39 0 67.5 12t33.5 51h55z"/><glyph glyph-name="Ohungarumlaut" unicode="Ő" horiz-adv-x="781" d="M720 358q0-111-37.5-193.5T572 36 391-10q-111 0-184.5 46T97 165 61 359q0 110 36 192t109.5 128T392 725q107 0 180-45.5t110.5-128T720 358zm-564 0q0-135 57-212.5T391 68q122 0 178 77.5T625 358t-56 211.5T392 646t-178.5-76.5T156 358zm414 576q-10-17-33-46t-50-57.5-50-46.5h-50v12q14 19 30 45t31.5 53.5T474 944h96v-10zm-176 0q-10-17-33-46t-50-57.5-50-46.5h-50v12q21 29 46 71.5t41 76.5h96v-10z"/><glyph glyph-name="ohungarumlaut" unicode="ő" horiz-adv-x="605" d="M551 269q0-133-67.5-206T301-10q-71 0-126.5 32.5t-87.5 95T55 269q0 133 67 205t182 72q73 0 128.5-32.5t87-94T551 269zm-405 0q0-95 37.5-150.5T303 63q81 0 119 55.5T460 269t-38 149-120 54-119-54-37-149zm336 487q-10-17-33-46t-50-57.5-50-46.5h-50v12q14 19 30 45t31.5 53.5T386 766h96v-10zm-176 0q-10-17-33-46t-50-57.5-50-46.5h-50v12q21 29 46 71.5t41 76.5h96v-10z"/><glyph glyph-name="OE" unicode="Œ" horiz-adv-x="928" d="M386 725q50 0 96-11h386v-79H581V412h268v-78H581V79h287V0H488q-22-4-46.5-7T391-10q-111 0-184.5 46T97 165 61 359t35.5 193 108 127.5T386 725zm8-79q-123 0-181-76.5T155 358t58-212.5T393 68q57 0 99 17v545q-41 16-98 16z"/><glyph glyph-name="oe" unicode="œ" horiz-adv-x="946" d="M677 545q101 0 159-65.5T894 304v-53H538q2-96 43.5-141T700 65q53 0 91.5 9.5T870 102V25Q830 7 791-1.5T699-10q-68 0-120 28t-84 83q-31-55-82-83T296-10q-70 0-124.5 32.5t-86 95T54 269q0 132 65.5 204T299 545q63 0 113-28t80-82q29 53 76.5 81.5T677 545zm-1-72q-60 0-95-39t-41-113h261q0 69-30 110.5T676 473zm-381-1q-79 0-114-51t-35-152 36-153.5T297 63q78 0 114 51t36 151q0 104-36.5 155.5T295 472z"/><glyph glyph-name="Racute" unicode="Ŕ" horiz-adv-x="622" d="M294 714q133 0 196.5-50.5T554 511q0-57-21-95t-53.5-60.5T411 320L607 0H502L329 295H187V0H97v714h197zm-5-78H187V371h107q87 0 127 34.5T461 507q0 70-42 99.5T289 636zm170 298q-12-18-37-46.5t-53.5-57T316 784h-58v12q15 19 32.5 45t34.5 53.5 28 49.5h106v-10z"/><glyph glyph-name="racute" unicode="ŕ" horiz-adv-x="413" d="M335 546q15 0 32.5-1.5T398 540l-11-81q-13 3-28.5 5t-29.5 2q-41 0-77-22.5t-57.5-63T173 286V0H85v536h72l10-98h4q26 44 67 76t97 32zm53 210q-12-18-37-46.5t-53.5-57T245 606h-58v12q15 19 32.5 45t34.5 53.5 28 49.5h106v-10z"/><glyph glyph-name="uni0156" unicode="Ŗ" horiz-adv-x="622" d="M294 714q133 0 196.5-50.5T554 511q0-57-21-95t-53.5-60.5T411 320L607 0H502L329 295H187V0H97v714h197zm-5-78H187V371h107q87 0 127 34.5T461 507q0 70-42 99.5T289 636zM392-70q-4-18-16.5-45.5t-29-55.5-34.5-50h-48v12q8 17 16.5 43.5t15.5 55 9 49.5h87v-9z"/><glyph glyph-name="uni0157" unicode="ŗ" horiz-adv-x="413" d="M335 546q15 0 32.5-1.5T398 540l-11-81q-13 3-28.5 5t-29.5 2q-41 0-77-22.5t-57.5-63T173 286V0H85v536h72l10-98h4q26 44 67 76t97 32zM190-70q-4-18-16.5-45.5t-29-55.5-34.5-50H62v12q8 17 16.5 43.5t15.5 55 9 49.5h87v-9z"/><glyph glyph-name="Rcaron" unicode="Ř" horiz-adv-x="622" d="M294 714q133 0 196.5-50.5T554 511q0-57-21-95t-53.5-60.5T411 320L607 0H502L329 295H187V0H97v714h197zm-5-78H187V371h107q87 0 127 34.5T461 507q0 70-42 99.5T289 636zm-24 148q-13 23-35 49.5T184 886t-42 45v13h60q26-17 54-41t53-51q27 27 55 51t54 41h62v-13q-19-19-43.5-45t-47-52.5T355 784h-90z"/><glyph glyph-name="rcaron" unicode="ř" horiz-adv-x="413" d="M335 546q15 0 32.5-1.5T398 540l-11-81q-13 3-28.5 5t-29.5 2q-41 0-77-22.5t-57.5-63T173 286V0H85v536h72l10-98h4q26 44 67 76t97 32zm-141 60q-13 23-35 49.5T113 708t-42 45v13h60q26-17 54-41t53-51q27 27 55 51t54 41h62v-13q-19-19-43.5-45t-47-52.5T284 606h-90z"/><glyph glyph-name="Sacute" unicode="Ś" horiz-adv-x="549" d="M502 191q0-95-69-148T247-10q-60 0-111 9T51 24v86q36-16 89.5-29T251 68q80 0 120.5 31t40.5 84q0 35-15 59t-51.5 44.5T244 330q-91 33-137.5 81T60 542q0 57 29 97.5t80.5 62.5T288 724q59 0 108-11t89-29l-28-77q-37 16-80.5 27T286 645q-67 0-101-28.5T151 541q0-36 15-60t49-43 92-41q63-23 106.5-49.5t66-63.5 22.5-93zm-69 743q-12-18-37-46.5t-53.5-57T290 784h-58v12q15 19 32.5 45t34.5 53.5 28 49.5h106v-10z"/><glyph glyph-name="sacute" unicode="ś" horiz-adv-x="479" d="M434 148q0-78-58-118T220-10q-56 0-96.5 9T52 24v80q32-16 77.5-29.5T222 61q67 0 97 21.5t30 57.5q0 20-11 36t-39.5 32-81.5 36q-52 20-89 40t-57 48-20 72q0 68 55.5 105T252 546q49 0 91.5-9.5T423 510l-30-70q-34 14-71 24t-76 10q-54 0-82.5-17.5T135 409q0-22 13-37.5t43.5-30T273 307q51-19 87-39t55-48.5 19-71.5zm-46 608q-12-18-37-46.5t-53.5-57T245 606h-58v12q15 19 32.5 45t34.5 53.5 28 49.5h106v-10z"/><glyph glyph-name="Scircumflex" unicode="Ŝ" horiz-adv-x="549" d="M502 191q0-95-69-148T247-10q-60 0-111 9T51 24v86q36-16 89.5-29T251 68q80 0 120.5 31t40.5 84q0 35-15 59t-51.5 44.5T244 330q-91 33-137.5 81T60 542q0 57 29 97.5t80.5 62.5T288 724q59 0 108-11t89-29l-28-77q-37 16-80.5 27T286 645q-67 0-101-28.5T151 541q0-36 15-60t49-43 92-41q63-23 106.5-49.5t66-63.5 22.5-93zM329 944q12-22 34.5-49.5t47-54T454 795v-11h-62q-26 16-54 39.5T283 874q-27-27-54-50t-53-40h-60v11q19 20 42.5 46t45.5 53.5 35 49.5h90z"/><glyph glyph-name="scircumflex" unicode="ŝ" horiz-adv-x="479" d="M434 148q0-78-58-118T220-10q-56 0-96.5 9T52 24v80q32-16 77.5-29.5T222 61q67 0 97 21.5t30 57.5q0 20-11 36t-39.5 32-81.5 36q-52 20-89 40t-57 48-20 72q0 68 55.5 105T252 546q49 0 91.5-9.5T423 510l-30-70q-34 14-71 24t-76 10q-54 0-82.5-17.5T135 409q0-22 13-37.5t43.5-30T273 307q51-19 87-39t55-48.5 19-71.5zM284 766q12-22 34.5-49.5t47-54T409 617v-11h-62q-26 16-54 39.5T238 696q-27-27-54-50t-53-40H71v11q19 20 42.5 46t45.5 53.5 35 49.5h90z"/><glyph glyph-name="Scedilla" unicode="Ş" horiz-adv-x="549" d="M502 191q0-95-69-148T247-10q-60 0-111 9T51 24v86q36-16 89.5-29T251 68q80 0 120.5 31t40.5 84q0 35-15 59t-51.5 44.5T244 330q-91 33-137.5 81T60 542q0 57 29 97.5t80.5 62.5T288 724q59 0 108-11t89-29l-28-77q-37 16-80.5 27T286 645q-67 0-101-28.5T151 541q0-36 15-60t49-43 92-41q63-23 106.5-49.5t66-63.5 22.5-93zM356-139q0-48-37-74.5T208-240q-32 0-50 5v55q9-2 24-3.5t29-1.5q36 0 55 9.5t19 34.5q0 26-26.5 38T194-86l43 86h58l-26-53q36-8 61.5-28t25.5-58z"/><glyph glyph-name="scedilla" unicode="ş" horiz-adv-x="479" d="M434 148q0-78-58-118T220-10q-56 0-96.5 9T52 24v80q32-16 77.5-29.5T222 61q67 0 97 21.5t30 57.5q0 20-11 36t-39.5 32-81.5 36q-52 20-89 40t-57 48-20 72q0 68 55.5 105T252 546q49 0 91.5-9.5T423 510l-30-70q-34 14-71 24t-76 10q-54 0-82.5-17.5T135 409q0-22 13-37.5t43.5-30T273 307q51-19 87-39t55-48.5 19-71.5zm-95-287q0-48-37-74.5T191-240q-32 0-50 5v55q9-2 24-3.5t29-1.5q36 0 55 9.5t19 34.5q0 26-26.5 38T177-86l43 86h58l-26-53q36-8 61.5-28t25.5-58z"/><glyph glyph-name="Scaron" unicode="Š" horiz-adv-x="549" d="M502 191q0-95-69-148T247-10q-60 0-111 9T51 24v86q36-16 89.5-29T251 68q80 0 120.5 31t40.5 84q0 35-15 59t-51.5 44.5T244 330q-91 33-137.5 81T60 542q0 57 29 97.5t80.5 62.5T288 724q59 0 108-11t89-29l-28-77q-37 16-80.5 27T286 645q-67 0-101-28.5T151 541q0-36 15-60t49-43 92-41q63-23 106.5-49.5t66-63.5 22.5-93zM239 784q-13 23-35 49.5T158 886t-42 45v13h60q26-17 54-41t53-51q27 27 55 51t54 41h62v-13q-19-19-43.5-45t-47-52.5T329 784h-90z"/><glyph glyph-name="scaron" unicode="š" horiz-adv-x="479" d="M434 148q0-78-58-118T220-10q-56 0-96.5 9T52 24v80q32-16 77.5-29.5T222 61q67 0 97 21.5t30 57.5q0 20-11 36t-39.5 32-81.5 36q-52 20-89 40t-57 48-20 72q0 68 55.5 105T252 546q49 0 91.5-9.5T423 510l-30-70q-34 14-71 24t-76 10q-54 0-82.5-17.5T135 409q0-22 13-37.5t43.5-30T273 307q51-19 87-39t55-48.5 19-71.5zM194 606q-13 23-35 49.5T113 708t-42 45v13h60q26-17 54-41t53-51q27 27 55 51t54 41h62v-13q-19-19-43.5-45t-47-52.5T284 606h-90z"/><glyph glyph-name="uni021A" unicode="Ț" horiz-adv-x="556" d="M323 0h-90v635H10v79h535v-79H323V0zm19-70q-4-18-16.5-45.5t-29-55.5-34.5-50h-48v12q8 17 16.5 43.5t15.5 55 9 49.5h87v-9z"/><glyph glyph-name="uni021B" unicode="ț" horiz-adv-x="361" d="M264 62q20 0 41 3.5t34 7.5V6q-14-7-40-11.5T249-10q-42 0-77.5 14.5T114 55 92 156v312H16v42l77 35 35 114h52V536h155v-68H180V158q0-49 23.5-72.5T264 62zm14-132q-4-18-16.5-45.5t-29-55.5-34.5-50h-48v12q8 17 16.5 43.5t15.5 55 9 49.5h87v-9z"/><glyph glyph-name="Tcaron" unicode="Ť" horiz-adv-x="556" d="M323 0h-90v635H10v79h535v-79H323V0zm-91 784q-13 23-35 49.5T151 886t-42 45v13h60q26-17 54-41t53-51q27 27 55 51t54 41h62v-13q-19-19-43.5-45t-47-52.5T322 784h-90z"/><glyph glyph-name="tcaron" unicode="ť" horiz-adv-x="361" d="M470 751q-4-18-15.5-45T428 650.5 398 600h-48v12q7 19 13.5 45.5t12 54T383 760h87v-9zM264 62q20 0 41 3.5t34 7.5V6q-14-7-40-11.5T249-10q-42 0-77.5 14.5T114 55 92 156v312H16v42l77 35 35 114h52V536h155v-68H180V158q0-49 23.5-72.5T264 62z"/><glyph glyph-name="Tbar" unicode="Ŧ" horiz-adv-x="556" d="M232 0v325H83v74h149v235H10v80h535v-80H322V399h148v-74H322V0h-90z"/><glyph glyph-name="tbar" unicode="ŧ" horiz-adv-x="361" d="M264 62q20 0 41 3.5t34 7.5V6q-14-7-40-11.5T249-10q-42 0-77.5 14.5T114 55 92 156v124H24v66h68v122H16v42l77 35 35 114h52V536h155v-68H180V346h146v-66H180V158q0-49 23.5-72.5T264 62z"/><glyph glyph-name="Utilde" unicode="Ũ" horiz-adv-x="731" d="M640 252q0-74-30-133.5t-91.5-94T362-10q-133 0-202.5 72.5T90 254v460h90V251q0-87 46.5-135T367 68q97 0 140.5 51.5T551 252v462h89V252zM183 784q6 59 34.5 93.5T293 912q30 0 56.5-14.5T400 869t45-14q23 0 35.5 14.5T500 913h50q-6-58-34-93t-75-35q-28 0-54.5 14t-51 28.5T289 842q-24 0-36-14.5T234 784h-51z"/><glyph glyph-name="utilde" unicode="ũ" horiz-adv-x="618" d="M533 536V0h-72l-13 71h-4q-26-42-72-61.5T274-10q-97 0-146 46.5T79 185v351h89V191q0-128 119-128 89 0 123.5 50T445 257v279h88zm-407 70q6 59 34.5 93.5T236 734q30 0 56.5-14.5T343 691t45-14q23 0 35.5 14.5T443 735h50q-6-58-34-93t-75-35q-28 0-54.5 14t-51 28.5T232 664q-24 0-36-14.5T177 606h-51z"/><glyph glyph-name="Umacron" unicode="Ū" horiz-adv-x="731" d="M640 252q0-74-30-133.5t-91.5-94T362-10q-133 0-202.5 72.5T90 254v460h90V251q0-87 46.5-135T367 68q97 0 140.5 51.5T551 252v462h89V252zM514 855v-71H217v71h297z"/><glyph glyph-name="umacron" unicode="ū" horiz-adv-x="618" d="M533 536V0h-72l-13 71h-4q-26-42-72-61.5T274-10q-97 0-146 46.5T79 185v351h89V191q0-128 119-128 89 0 123.5 50T445 257v279h88zm-76 141v-71H160v71h297z"/><glyph glyph-name="Ubreve" unicode="Ŭ" horiz-adv-x="731" d="M640 252q0-74-30-133.5t-91.5-94T362-10q-133 0-202.5 72.5T90 254v460h90V251q0-87 46.5-135T367 68q97 0 140.5 51.5T551 252v462h89V252zM521 918q-5-60-45.5-97T363 784q-74 0-111.5 36.5T210 918h54q5-41 30-52t71-11q39 0 67.5 12t33.5 51h55z"/><glyph glyph-name="ubreve" unicode="ŭ" horiz-adv-x="618" d="M533 536V0h-72l-13 71h-4q-26-42-72-61.5T274-10q-97 0-146 46.5T79 185v351h89V191q0-128 119-128 89 0 123.5 50T445 257v279h88zm-69 204q-5-60-45.5-97T306 606q-74 0-111.5 36.5T153 740h54q5-41 30-52t71-11q39 0 67.5 12t33.5 51h55z"/><glyph glyph-name="Uring" unicode="Ů" horiz-adv-x="731" d="M640 252q0-74-30-133.5t-91.5-94T362-10q-133 0-202.5 72.5T90 254v460h90V251q0-87 46.5-135T367 68q97 0 140.5 51.5T551 252v462h89V252zM365 784q-49 0-79 28t-30 78 30 77.5 79 27.5q47 0 79-27.5t32-76.5q0-51-31.5-79T365 784zm0 50q25 0 40.5 15t15.5 41-16 41-40 15-40-15-16-41 14.5-41 41.5-15z"/><glyph glyph-name="uring" unicode="ů" horiz-adv-x="618" d="M533 536V0h-72l-13 71h-4q-26-42-72-61.5T274-10q-97 0-146 46.5T79 185v351h89V191q0-128 119-128 89 0 123.5 50T445 257v279h88zm-225 70q-49 0-79 28t-30 78 30 77.5 79 27.5q47 0 79-27.5t32-76.5q0-51-31.5-79T308 606zm0 50q25 0 40.5 15t15.5 41-16 41-40 15-40-15-16-41 14.5-41 41.5-15z"/><glyph glyph-name="Uhungarumlaut" unicode="Ű" horiz-adv-x="731" d="M640 252q0-74-30-133.5t-91.5-94T362-10q-133 0-202.5 72.5T90 254v460h90V251q0-87 46.5-135T367 68q97 0 140.5 51.5T551 252v462h89V252zm-95 682q-10-17-33-46t-50-57.5-50-46.5h-50v12q14 19 30 45t31.5 53.5T449 944h96v-10zm-176 0q-10-17-33-46t-50-57.5-50-46.5h-50v12q21 29 46 71.5t41 76.5h96v-10z"/><glyph glyph-name="uhungarumlaut" unicode="ű" horiz-adv-x="618" d="M533 536V0h-72l-13 71h-4q-26-42-72-61.5T274-10q-97 0-146 46.5T79 185v351h89V191q0-128 119-128 89 0 123.5 50T445 257v279h88zm-45 220q-10-17-33-46t-50-57.5-50-46.5h-50v12q14 19 30 45t31.5 53.5T392 766h96v-10zm-176 0q-10-17-33-46t-50-57.5-50-46.5h-50v12q21 29 46 71.5t41 76.5h96v-10z"/><glyph glyph-name="Uogonek" unicode="Ų" horiz-adv-x="731" d="M466-107q0-29 12-41.5t33-12.5q17 0 28.5 2.5T559-155v-56q-14-4-28-6.5t-34-2.5q-53 0-78 26t-25 77q0 31 16 61.5T447-1q-39-9-85-9-133 0-202.5 72.5T90 254v460h90V251q0-87 46.5-135T367 68q97 0 140.5 51.5T551 252v462h89V252q0-63-22-116t-66-89q-44-50-65-84.5T466-107z"/><glyph glyph-name="uogonek" unicode="ų" horiz-adv-x="618" d="M533 536V0h-72l-13 71h-4q-26-42-72-61.5T274-10q-97 0-146 46.5T79 185v351h89V191q0-128 119-128 89 0 123.5 50T445 257v279h88zm-85-652q0-45 45-45 17 0 28.5 2.5T541-155v-56q-14-4-28-6.5t-34-2.5q-53 0-78 25t-25 69q0 29 14.5 56t36 49T468 15l48-15q-34-32-51-58.5T448-116z"/><glyph glyph-name="Wcircumflex" unicode="Ŵ" horiz-adv-x="930" d="M917 714 727 0h-91L497 468l-16 58-13 51.5-7 31.5q-1-13-10.5-55.5T427 465L292 0h-91L12 714h94l111-436q12-46 20.5-89t13.5-81q5 39 15 85t23 90l126 431h93l131-434q14-46 24-91.5t15-80.5q5 37 14 80.5t21 90.5l110 435h94zM509 944q12-22 34.5-49.5t47-54T634 795v-11h-62q-26 16-54 39.5T463 874q-27-27-54-50t-53-40h-60v11q19 20 42.5 46t45.5 53.5 35 49.5h90z"/><glyph glyph-name="wcircumflex" unicode="ŵ" horiz-adv-x="786" d="M431 303q-13 41-22.5 80.5T394 445h-4q-4-22-13-61.5T354 302L258 1H158L11 537h91l74-286q11-43 21-87t14-73h4q4 17 9.5 42t12.5 52.5 14 49.5l95 302h96l92-302q11-34 21.5-74T570 92h4q3 25 13.5 69t22.5 90l75 286h90L626 1H523zm6 463q12-22 34.5-49.5t47-54T562 617v-11h-62q-26 16-54 39.5T391 696q-27-27-54-50t-53-40h-60v11q19 20 42.5 46t45.5 53.5 35 49.5h90z"/><glyph glyph-name="Ycircumflex" unicode="Ŷ" horiz-adv-x="566" d="m283 363 186 351h97L328 277V0h-90v273L0 714h98zm44 581q12-22 34.5-49.5t47-54T452 795v-11h-62q-26 16-54 39.5T281 874q-27-27-54-50t-53-40h-60v11q19 20 42.5 46t45.5 53.5 35 49.5h90z"/><glyph glyph-name="ycircumflex" unicode="ŷ" horiz-adv-x="510" d="M1 536h94l116-305q15-40 27-76.5T256 85h4q6 25 19 65.5t27 81.5l109 304h95L279-74q-28-76-72.5-121T84-240q-24 0-42 2.5T11-232v70q11-2 26.5-4t32.5-2q46 0 74.5 26T189-73l28 71zm298 230q12-22 34.5-49.5t47-54T424 617v-11h-62q-26 16-54 39.5T253 696q-27-27-54-50t-53-40H86v11q19 20 42.5 46t45.5 53.5 35 49.5h90z"/><glyph glyph-name="Ydieresis" unicode="Ÿ" horiz-adv-x="566" d="m283 363 186 351h97L328 277V0h-90v273L0 714h98zM143 859q0 26 14 37.5t33 11.5 33-11.5 14-37.5q0-25-14-37.5T190 809t-33 12.5-14 37.5zm188 0q0 26 13.5 37.5T377 908t33-11.5 14-37.5q0-25-14-37.5T377 809t-32.5 12.5T331 859z"/><glyph glyph-name="Zacute" unicode="Ź" horiz-adv-x="572" d="M533 0H38v68l376 566H50v80h473v-68L147 80h386V0zm-95 934q-12-18-37-46.5t-53.5-57T295 784h-58v12q15 19 32.5 45t34.5 53.5 28 49.5h106v-10z"/><glyph glyph-name="zacute" unicode="ź" horiz-adv-x="470" d="M431 0H39v58l288 410H56v68h368v-66L140 68h291V0zm-48 756q-12-18-37-46.5t-53.5-57T240 606h-58v12q15 19 32.5 45t34.5 53.5 28 49.5h106v-10z"/><glyph glyph-name="Zdotaccent" unicode="Ż" horiz-adv-x="572" d="M533 0H38v68l376 566H50v80h473v-68L147 80h386V0zM291 915q20 0 35.5-13.5T342 859q0-28-15.5-42T291 803q-22 0-37 14t-15 42q0 29 15 42.5t37 13.5z"/><glyph glyph-name="zdotaccent" unicode="ż" horiz-adv-x="470" d="M431 0H39v58l288 410H56v68h368v-66L140 68h291V0zM236 737q20 0 35.5-13.5T287 681q0-28-15.5-42T236 625q-22 0-37 14t-15 42q0 29 15 42.5t37 13.5z"/><glyph glyph-name="Zcaron" unicode="Ž" horiz-adv-x="572" d="M533 0H38v68l376 566H50v80h473v-68L147 80h386V0zM244 784q-13 23-35 49.5T163 886t-42 45v13h60q26-17 54-41t53-51q27 27 55 51t54 41h62v-13q-19-19-43.5-45t-47-52.5T334 784h-90z"/><glyph glyph-name="zcaron" unicode="ž" horiz-adv-x="470" d="M431 0H39v58l288 410H56v68h368v-66L140 68h291V0zM189 606q-13 23-35 49.5T108 708t-42 45v13h60q26-17 54-41t53-51q27 27 55 51t54 41h62v-13q-19-19-43.5-45t-47-52.5T279 606h-90z"/><glyph glyph-name="longs" unicode="ſ" horiz-adv-x="326" d="M261 692q-41 0-64.5-26T173 577V0H85v577q0 103 48.5 145.5T262 765q31 0 56-5.5t44-13.5l-23-69q-16 5-37 10t-41 5z"/><glyph glyph-name="fhook" unicode="ƒ" horiz-adv-x="414" d="M130-242q-64 0-103.5 35T-13-113q0 10 1 21t4 22l75-16q-1-4-1.5-9.5T65-107q0-31 16.5-46.5T120-169q28 0 43.5 19T179-82v550H85v41l94 30v31q0 104 46 149.5T353 765q32 0 58.5-5.5T457 747l-23-69q-16 5-37 10t-43 5q-44 0-65.5-29.5T267 571v-35h135v-68H267V-79q0-76-33.5-119.5T130-242z"/><glyph glyph-name="Aringacute" unicode="Ǻ" horiz-adv-x="640" d="M271 838q21 24 45 58t40 62h106v-8q-10-14-33-37t-50-46-49-38h-59v9zm-13-230q-49 27-49 90 0 50 30.5 78t78.5 28q47 0 79.5-27.5T430 699q0-31-13-54t-35-36L640 0h-93l-82 192H170L92 0H0zm60 34q25 0 40.5 14.5T374 698t-15.5 41.5T318 754q-24 0-40-14.5T262 698q0-26 14.5-41t41.5-15zM201 272h238l-84 207q-7 18-17.5 46T319 580q-8-27-18-56.5T284 477z"/><glyph glyph-name="aringacute" unicode="ǻ" horiz-adv-x="561" d="M446 952q-10-11-38-29.5T348 886t-55-30h-63v8q21 19 45 45.5t40 48.5h131v-6zM285 817q47 0 79-27.5t32-76.5q0-51-31.5-79T285 606q-49 0-79 28t-30 78 30 77.5 79 27.5zm0-49q-24 0-40-15t-16-41 14.5-41 41.5-15q25 0 40.5 15t15.5 41-16 41-40 15zm3-223q98 0 145-43t47-137V0h-64l-17 76h-4q-35-44-73.5-65T215-10q-73 0-121 38.5T46 149q0 80 63 123.5T303 320l91 3v32q0 67-29 93t-82 26q-42 0-80-12.5T132 433l-27 66q35 19 83 32.5T288 545zm26-286q-100-4-138.5-32T137 148q0-45 27.5-66T235 61q68 0 113 37.5T393 214v48z"/><glyph glyph-name="AEacute" unicode="Ǽ" horiz-adv-x="881" d="M821 0H449v221H199L92 0H-1l339 714h483v-79H539V412h263v-78H539V79h282V0zM234 301h215v333h-58zm407 633q-12-18-37-46.5t-53.5-57T498 784h-58v12q15 19 32.5 45t34.5 53.5 28 49.5h106v-10z"/><glyph glyph-name="aeacute" unicode="ǽ" horiz-adv-x="864" d="M603 546q65 0 112-30t72.5-84T813 306v-54H470q2-96 41.5-141.5T625 65q50 0 88 9.5t76 27.5V25Q749 7 710.5-1.5T622-10q-141 0-203 113-34-52-80-82.5T216-10q-73 0-121.5 38.5T46 149q0 80 60 123.5T290 320l90 3v34q0 65-30.5 91T268 474q-40 0-78.5-12T118 433l-27 66q35 20 85 33t99 13q62 0 102.5-20.5T439 459q26 41 68 64t96 23zm-1-72q-58 0-91.5-39.5T472 321h248q0 69-28.5 111T602 474zM303 259q-94-4-130-32t-36-79q0-45 25.5-66T230 61q63 0 105.5 37.5T378 214v48zm284 497q-12-18-37-46.5t-53.5-57T444 606h-58v12q15 19 32.5 45t34.5 53.5 28 49.5h106v-10z"/><glyph glyph-name="Oslashacute" unicode="Ǿ" horiz-adv-x="781" d="M720 358q0-111-37.5-193.5T572 36 391-10q-112 0-185 47l-48-68L97 9l52 74q-44 49-66 119T61 359q0 110 36 192t109.5 128T392 725q52 0 96.5-12t81.5-33l46 66 61-41-51-71q94-99 94-276zm-564 0q0-61 11.5-111t35.5-87l319 451q-52 35-130 35-121 0-178.5-76.5T156 358zm469 0q0 129-51 202L254 106q26-18 60.5-28T391 68q122 0 178 77.5T625 358zm-85 576q-12-18-37-46.5t-53.5-57T397 784h-58v12q15 19 32.5 45t34.5 53.5 28 49.5h106v-10z"/><glyph glyph-name="oslashacute" unicode="ǿ" horiz-adv-x="605" d="M551 269q0-133-67.5-206T301-10q-73 0-129 33l-40-56L74 6l45 62q-31 36-47.5 86.5T55 269q0 133 67 205t182 72q73 0 131-36l39 56 59-38-45-63q29-35 46-84.5T551 269zm-405 0q0-38 5.5-70.5T170 141l220 306q-36 25-88 25-82 0-119-54t-37-149zm314 0q0 74-23 123L217 86q34-23 86-23 81 0 119 55.5T460 269zm-9 487q-12-18-37-46.5t-53.5-57T308 606h-58v12q15 19 32.5 45t34.5 53.5 28 49.5h106v-10z"/><glyph glyph-name="uni0218" unicode="Ș" horiz-adv-x="549" d="M502 191q0-95-69-148T247-10q-60 0-111 9T51 24v86q36-16 89.5-29T251 68q80 0 120.5 31t40.5 84q0 35-15 59t-51.5 44.5T244 330q-91 33-137.5 81T60 542q0 57 29 97.5t80.5 62.5T288 724q59 0 108-11t89-29l-28-77q-37 16-80.5 27T286 645q-67 0-101-28.5T151 541q0-36 15-60t49-43 92-41q63-23 106.5-49.5t66-63.5 22.5-93zM321-70q-4-18-16.5-45.5t-29-55.5-34.5-50h-48v12q8 17 16.5 43.5t15.5 55 9 49.5h87v-9z"/><glyph glyph-name="uni0219" unicode="ș" horiz-adv-x="479" d="M434 148q0-78-58-118T220-10q-56 0-96.5 9T52 24v80q32-16 77.5-29.5T222 61q67 0 97 21.5t30 57.5q0 20-11 36t-39.5 32-81.5 36q-52 20-89 40t-57 48-20 72q0 68 55.5 105T252 546q49 0 91.5-9.5T423 510l-30-70q-34 14-71 24t-76 10q-54 0-82.5-17.5T135 409q0-22 13-37.5t43.5-30T273 307q51-19 87-39t55-48.5 19-71.5zM304-70q-4-18-16.5-45.5t-29-55.5-34.5-50h-48v12q8 17 16.5 43.5t15.5 55 9 49.5h87v-9z"/><glyph glyph-name="circumflex" unicode="ˆ" horiz-adv-x="418" d="M253 766q12-22 34.5-49.5t47-54T378 617v-11h-62q-26 16-54 39.5T207 696q-27-27-54-50t-53-40H40v11q19 20 42.5 46t45.5 53.5 35 49.5h90z"/><glyph glyph-name="caron" unicode="ˇ" horiz-adv-x="418" d="M163 606q-13 23-35 49.5T82 708t-42 45v13h60q26-17 54-41t53-51q27 27 55 51t54 41h62v-13q-19-19-43.5-45t-47-52.5T253 606h-90z"/><glyph glyph-name="macronmod" unicode="ˉ" horiz-adv-x="377" d="M337 677v-71H40v71h297z"/><glyph glyph-name="breve" unicode="˘" horiz-adv-x="391" d="M351 740q-5-60-45.5-97T193 606q-74 0-111.5 36.5T40 740h54q5-41 30-52t71-11q39 0 67.5 12t33.5 51h55z"/><glyph glyph-name="dotaccent" unicode="˙" horiz-adv-x="183" d="M92 737q20 0 35.5-13.5T143 681q0-28-15.5-42T92 625q-22 0-37 14t-15 42q0 29 15 42.5T92 737z"/><glyph glyph-name="ring" unicode="˚" horiz-adv-x="300" d="M149 606q-49 0-79 28t-30 78 30 77.5 79 27.5q47 0 79-27.5t32-76.5q0-51-31.5-79T149 606zm0 50q25 0 40.5 15t15.5 41-16 41-40 15-40-15-16-41 14.5-41 41.5-15z"/><glyph glyph-name="ogonek" unicode="˛" horiz-adv-x="245" d="M112-116q0-45 45-45 17 0 28.5 2.5T205-155v-56q-14-4-28-6.5t-34-2.5q-53 0-78 25t-25 69q0 29 14.5 56t36 49T132 15l48-15q-34-32-51-58.5T112-116z"/><glyph glyph-name="tilde" unicode="˜" horiz-adv-x="447" d="M40 606q6 59 34.5 93.5T150 734q30 0 56.5-14.5T257 691t45-14q23 0 35.5 14.5T357 735h50q-6-58-34-93t-75-35q-28 0-54.5 14t-51 28.5T146 664q-24 0-36-14.5T91 606H40z"/><glyph glyph-name="hungarumlaut" unicode="˝" horiz-adv-x="439" d="M399 756q-10-17-33-46t-50-57.5-50-46.5h-50v12q14 19 30 45t31.5 53.5T303 766h96v-10zm-176 0q-10-17-33-46t-50-57.5T90 606H40v12q21 29 46 71.5t41 76.5h96v-10z"/><glyph glyph-name="tonos" unicode="΄" horiz-adv-x="234" d="M40 606v12l48 158h106v-10L99 606H40z"/><glyph glyph-name="dieresistonos" unicode="΅" horiz-adv-x="648" d="M262 606v12l38 158h106v-10l-85-160h-59zm-66 25q-19 0-33 12.5T149 681q0 26 14 37.5t33 11.5 33-11.5 14-37.5q0-25-14-37.5T196 631zm255 0q-19 0-32.5 12.5T405 681q0 26 13.5 37.5T451 730t33-11.5 14-37.5q0-25-14-37.5T451 631z"/><glyph glyph-name="Alphatonos" unicode="Ά" horiz-adv-x="708" d="m614 0-86 221H245L160 0H69l279 717h81L707 0h-93zM421 517q-3 8-10 29t-13.5 43.5T387 624q-7-31-16-60.5T356 517l-81-216h226zM10 544v12l48 158h106v-10L69 544H10z"/><glyph glyph-name="anoteleia" unicode="·" horiz-adv-x="268" d="M72 483q0 37 18 52t43 15q26 0 44.5-15t18.5-52q0-36-18.5-52T133 415q-25 0-43 16t-18 52z"/><glyph glyph-name="Epsilontonos" unicode="Έ" horiz-adv-x="720" d="M660 0H261v714h399v-79H351V412h291v-78H351V79h309V0zM10 544v12l48 158h106v-10L69 544H10z"/><glyph glyph-name="Etatonos" unicode="Ή" horiz-adv-x="905" d="M807 0h-90v333H351V0h-90v714h90V412h366v302h90V0zM10 544v12l48 158h106v-10L69 544H10z"/><glyph glyph-name="Iotatonos" unicode="Ί" horiz-adv-x="523" d="M482 0H224v52l84 19v571l-84 20v52h258v-52l-84-20V71l84-19V0zM10 544v12l48 158h106v-10L69 544H10z"/><glyph glyph-name="Omicrontonos" unicode="Ό" horiz-adv-x="895" d="M834 358q0-111-37.5-193.5T686 36 505-10q-111 0-184.5 46T211 165t-36 194q0 110 36 192t109.5 128T506 725q107 0 180-45.5t110.5-128T834 358zm-564 0q0-135 57-212.5T505 68q122 0 178 77.5T739 358t-56 211.5T506 646t-178.5-76.5T270 358zM10 544v12l48 158h106v-10L69 544H10z"/><glyph glyph-name="Upsilontonos" unicode="Ύ" horiz-adv-x="780" d="m497 363 186 351h97L542 277V0h-90v273L214 714h98zM10 544v12l48 158h106v-10L69 544H10z"/><glyph glyph-name="Omegatonos" unicode="Ώ" horiz-adv-x="841" d="M149 0v79h158q-37 28-72 70.5T177.5 251 155 384q0 98 38 175t111 121.5T482 725q106 0 179-44t111-121 38-175q0-75-22-134t-56.5-101.5T659 79h157V0H548v72q62 44 99 90t53 99.5T716 381q0 76-25 136t-76.5 94.5T482 646q-80 0-131.5-34.5t-76-94.5T250 381q0-66 16-119.5t52.5-99T417 72V0H149zM10 544v12l48 158h106v-10L69 544H10z"/><glyph glyph-name="iotadieresistonos" unicode="ΐ" horiz-adv-x="332" d="M233-10q-79 0-115 42.5T82 150v386h88V147q0-49 21-66.5T244 63q20 0 35.5 3t30.5 7V2q-13-5-32-8.5T233-10zM109 606v12l38 158h106v-10l-85-160h-59zm-66 25q-19 0-33 12.5T-4 681q0 26 14 37.5T43 730t33-11.5T90 681q0-25-14-37.5T43 631zm255 0q-19 0-32.5 12.5T252 681q0 26 13.5 37.5T298 730t33-11.5 14-37.5q0-25-14-37.5T298 631z"/><glyph glyph-name="Alpha" unicode="Α" horiz-adv-x="639" d="m545 0-86 221H176L91 0H0l279 717h81L638 0h-93zM352 517q-3 8-10 29t-13.5 43.5T318 624q-7-31-16-60.5T287 517l-81-216h226z"/><glyph glyph-name="Beta" unicode="Β" horiz-adv-x="650" d="M301 714q134 0 202.5-39.5T572 537q0-63-35-104.5T436 379v-5q45-7 81.5-26t57.5-54 21-91q0-97-66.5-150T348 0H97v714h204zm18-304q92 0 126 29.5t34 87.5q0 59-41.5 84.5T305 637H187V410h132zm-132-75V76h144q95 0 132 37t37 97q0 56-38.5 90.5T324 335H187z"/><glyph glyph-name="Gamma" unicode="Γ" horiz-adv-x="499" d="M97 0v714h379v-79H187V0H97z"/><glyph glyph-name="uni0394" unicode="Δ" horiz-adv-x="639" d="M10 0v50l269 667h81L628 50V0H10zm103 81h411L357 517q-3 8-11 29t-15.5 43.5L319 624q-7-31-18-60.5T284 517z"/><glyph glyph-name="Epsilon" unicode="Ε" horiz-adv-x="556" d="M496 0H97v714h399v-79H187V412h291v-78H187V79h309V0z"/><glyph glyph-name="Zeta" unicode="Ζ" horiz-adv-x="572" d="M533 0H38v68l376 566H50v80h473v-68L147 80h386V0z"/><glyph glyph-name="Eta" unicode="Η" horiz-adv-x="741" d="M643 0h-90v333H187V0H97v714h90V412h366v302h90V0z"/><glyph glyph-name="Theta" unicode="Θ" horiz-adv-x="781" d="M720 358q0-111-37.5-193.5T572 36 391-10q-111 0-184.5 46T97 165 61 359q0 110 36 192t109.5 128T392 725q107 0 180-45.5t110.5-128T720 358zm-564 0q0-135 57-212.5T391 68q122 0 178 77.5T625 358t-56 211.5T392 646t-178.5-76.5T156 358zm84-34v78h302v-78H240z"/><glyph glyph-name="Iota" unicode="Ι" horiz-adv-x="339" d="M298 0H40v52l84 19v571l-84 20v52h258v-52l-84-20V71l84-19V0z"/><glyph glyph-name="Kappa" unicode="Κ" horiz-adv-x="619" d="M619 0H513L260 341l-73-64V0H97v714h90V362q30 34 61 68l62 68 193 216h105L325 403z"/><glyph glyph-name="Lambda" unicode="Λ" horiz-adv-x="609" d="m0 0 264 717h81L608 0h-93L337 517q-3 8-10 29t-13.5 43.5T303 624q-7-31-16-60.5T272 517L91 0H0z"/><glyph glyph-name="Mu" unicode="Μ" horiz-adv-x="907" d="M412 0 177 626h-4q3-31 5-83.5t2-109.5V0H97v714h133l220-585h4l224 585h132V0h-89v439q0 52 2.5 103t4.5 83h-4L486 0h-74z"/><glyph glyph-name="Nu" unicode="Ν" horiz-adv-x="760" d="M663 0H558L176 593h-4q2-35 5-87t3-107V0H97v714h104l381-591h4q-1 16-2.5 48t-3 70-1.5 70v403h84V0z"/><glyph glyph-name="Xi" unicode="Ξ" horiz-adv-x="624" d="M80 633v81h464v-81H80zm40-300v81h384v-81H120zM60 0v81h504V0H60z"/><glyph glyph-name="Omicron" unicode="Ο" horiz-adv-x="781" d="M720 358q0-111-37.5-193.5T572 36 391-10q-111 0-184.5 46T97 165 61 359q0 110 36 192t109.5 128T392 725q107 0 180-45.5t110.5-128T720 358zm-564 0q0-135 57-212.5T391 68q122 0 178 77.5T625 358t-56 211.5T392 646t-178.5-76.5T156 358z"/><glyph glyph-name="Pi" unicode="Π" horiz-adv-x="731" d="M97 0v714h536V0h-89v635H187V0H97z"/><glyph glyph-name="Rho" unicode="Ρ" horiz-adv-x="605" d="M286 714q140 0 204-55t64-155q0-59-26.5-110.5t-89-83.5T269 278h-82V0H97v714h189zm-8-77h-91V355h72q102 0 152 33t50 112q0 69-44 103t-139 34z"/><glyph glyph-name="Sigma" unicode="Σ" horiz-adv-x="572" d="M38 0v74l236 295L48 639v75h473v-80H210.5l-47.5 1 205-243v-27L141 80q38 0 73.5.5t75.5.5h243V0H38z"/><glyph glyph-name="Tau" unicode="Τ" horiz-adv-x="556" d="M323 0h-90v635H10v79h535v-79H323V0z"/><glyph glyph-name="Upsilon" unicode="Υ" horiz-adv-x="566" d="m283 363 186 351h97L328 277V0h-90v273L0 714h98z"/><glyph glyph-name="Phi" unicode="Φ" horiz-adv-x="843" d="M377 0v90q-99 2-162.5 28t-99 67.5-50 90T51 370q0 53 16 102t53 87.5 100 62T377 646v68h89v-68q95-1 158-24t99.5-61 52.5-87.5T792 370q0-48-15-97t-51.5-89.5-100-66T466 90V0h-89zm0 164v406q-90-2-141.5-28.5T163 471t-21-100q0-59 23.5-105t75-72.5T377 164zm89 0q87 3 138.5 30.5t74 73.5T701 371t-21 101-72 70-142 28V164z"/><glyph glyph-name="Chi" unicode="Χ" horiz-adv-x="586" d="M582 0H480L291 310 99 0H4l237 372L19 714h100l175-280 176 280h95L344 374z"/><glyph glyph-name="Psi" unicode="Ψ" horiz-adv-x="821" d="M366 0v187q-136 7-206 80.5T90 489v225h92V488q0-86 23-135t64.5-69 96.5-20v450h88V264q55 0 96.5 20t64.5 69 23 135v226h92V489q0-148-69.5-221.5T454 187V0h-88z"/><glyph glyph-name="uni03A9" unicode="Ω" horiz-adv-x="717" d="M25 0v79h158q-37 28-72 70.5T53.5 251 31 384q0 98 38 175t111 121.5T358 725q106 0 179-44t111-121 38-175q0-75-22-134t-56.5-101.5T535 79h157V0H424v72q62 44 99 90t53 99.5T592 381q0 76-25 136t-76.5 94.5T358 646q-80 0-131.5-34.5t-76-94.5T126 381q0-66 16-119.5t52.5-99T293 72V0H25z"/><glyph glyph-name="Iotadieresis" unicode="Ϊ" horiz-adv-x="339" d="M298 0H40v52l84 19v571l-84 20v52h258v-52l-84-20V71l84-19V0zM30 859q0 26 14 37.5T77 908t33-11.5 14-37.5q0-25-14-37.5T77 809t-33 12.5T30 859zm188 0q0 26 13.5 37.5T264 908t33-11.5 14-37.5q0-25-14-37.5T264 809t-32.5 12.5T218 859z"/><glyph glyph-name="Upsilondieresis" unicode="Ϋ" horiz-adv-x="566" d="m283 363 186 351h97L328 277V0h-90v273L0 714h98zM143 859q0 26 14 37.5t33 11.5 33-11.5 14-37.5q0-25-14-37.5T190 809t-33 12.5-14 37.5zm188 0q0 26 13.5 37.5T377 908t33-11.5 14-37.5q0-25-14-37.5T377 809t-32.5 12.5T331 859z"/><glyph glyph-name="alphatonos" unicode="ά" horiz-adv-x="623" d="M273-10q-96 0-157 69.5T55 266q0 136 59.5 208T277 546q56 0 98-23t68-60h4l13 73h70V118q0-31 12-43.5T571 62q8 0 17 2t13 3V3q-7-4-23-8.5T545-10q-37 0-61.5 18T448 72h-7q-25-36-66.5-59T273-10zm18 73q83 0 117.5 47.5T443 261v6q0 100-33.5 153T290 473q-73 0-108.5-53.5T146 265q0-202 145-202zm-21 543v12l48 158h106v-10l-95-160h-59z"/><glyph glyph-name="epsilontonos" unicode="έ" horiz-adv-x="470" d="M268-10Q152-10 98.5 34.5T45 146q0 60 33.5 89t79.5 42v5q-43 14-69 43.5T63 403q0 68 52 105.5T261 546q56 0 101.5-11.5T437 507l-28-73q-32 18-68.5 28.5T261 473q-60 0-85.5-20.5T150 397q0-46 36.5-64.5T271 314h69v-68h-69q-66 0-100.5-24.5T136 151q0-43 34.5-64.5T268 65q52 0 90.5 8T428 97V19Q397 3 356-3.5T268-10zm-28 616v12l48 158h106v-10l-95-160h-59z"/><glyph glyph-name="etatonos" unicode="ή" horiz-adv-x="608" d="M440-240v583q0 129-115 129-85 0-118.5-50T173 278V0H85v536h71l13-73h5q26 42 69.5 62.5T338 546q92 0 140.5-46.5T527 349v-589h-87zM225 606v12l48 158h106v-10l-95-160h-59z"/><glyph glyph-name="iotatonos" unicode="ί" horiz-adv-x="332" d="M233-10q-79 0-115 42.5T82 150v386h88V147q0-49 21-66.5T244 63q20 0 35.5 3t30.5 7V2q-13-5-32-8.5T233-10zM113 606v12l48 158h106v-10l-95-160h-59z"/><glyph glyph-name="upsilondieresistonos" unicode="ΰ" horiz-adv-x="598" d="M282-10q-67 0-107.5 17.5t-61 50-27.5 77-7 98.5v303h88V236q0-57 9-95.5T211.5 82 289 62q72 0 111.5 57T440 296q0 70-8 125t-23 115h88q16-59 24-114.5t8-129.5q0-155-65-228.5T282-10zm-25 616v12l38 158h106v-10l-85-160h-59zm-66 25q-19 0-33 12.5T144 681q0 26 14 37.5t33 11.5 33-11.5 14-37.5q0-25-14-37.5T191 631zm255 0q-19 0-32.5 12.5T400 681q0 26 13.5 37.5T446 730t33-11.5 14-37.5q0-25-14-37.5T446 631z"/><glyph glyph-name="alpha" unicode="α" horiz-adv-x="623" d="M273-10q-96 0-157 69.5T55 266q0 136 59.5 208T277 546q56 0 98-23t68-60h4l13 73h70V118q0-31 12-43.5T571 62q8 0 17 2t13 3V3q-7-4-23-8.5T545-10q-37 0-61.5 18T448 72h-7q-25-36-66.5-59T273-10zm18 73q83 0 117.5 47.5T443 261v6q0 100-33.5 153T290 473q-73 0-108.5-53.5T146 265q0-202 145-202z"/><glyph glyph-name="beta" unicode="β" horiz-adv-x="613" d="M85-240v769q0 86 30.5 137.5t82.5 75T314 765q102 0 157-49.5T526 574q0-72-41.5-114T384 406v-4q76-10 125-59t49-140q0-68-30.5-116t-83-72.5T326-10q-54 0-87.5 9T173 24v-264H85zM318 62q70 0 111 38.5T470 209q0 53-20.5 87.5t-54 52T324 366h-83v68h73q57 0 89.5 37.5T436 570q0 62-36.5 92T312 692q-35 0-67-13.5T193 629t-20-104V103q35-18 67-29.5T318 62z"/><glyph glyph-name="gamma" unicode="γ" horiz-adv-x="516" d="M193-210V-7L0 536h91l97-289q8-24 20-57t22.5-64.5T246 74h4q85 94 117 205.5T399 536h87q0-103-18-193.5t-62.5-175T281-4v-206h-88z"/><glyph glyph-name="delta" unicode="δ" horiz-adv-x="588" d="M291-10q-71 0-127 29t-87.5 82T45 225q0 96 47.5 155T226 473q-23 15-45 33t-36 44.5-14 64.5q0 36 20 70.5t63 57T325 765q50 0 87-11t62.5-25.5T512 703l-38-69q-31 24-68.5 41.5T324 693q-42 0-65.5-12T226 651.5t-9-33.5q0-17 8-34t32.5-36.5T331 502q89-47 132-92.5t57-89 14-85.5q0-85-34-139t-89.5-80T291-10zm2 72q74 0 114.5 48.5T448 233t-40 123-108 81q-76-26-120.5-73.5T135 233q0-77 43-124t115-47z"/><glyph glyph-name="epsilon" unicode="ε" horiz-adv-x="470" d="M268-10Q152-10 98.5 34.5T45 146q0 60 33.5 89t79.5 42v5q-43 14-69 43.5T63 403q0 68 52 105.5T261 546q56 0 101.5-11.5T437 507l-28-73q-32 18-68.5 28.5T261 473q-60 0-85.5-20.5T150 397q0-46 36.5-64.5T271 314h69v-68h-69q-66 0-100.5-24.5T136 151q0-43 34.5-64.5T268 65q52 0 90.5 8T428 97V19Q397 3 356-3.5T268-10z"/><glyph glyph-name="zeta" unicode="ζ" horiz-adv-x="460" d="M324-202q17 32 29.5 65T366-82q0 19-5.5 31.5t-24 22T280-11Q194 8 145 35.5t-69.5 66T55 191q0 57 24.5 113T148 421.5 248 556l109 141q-4 0-27.5-1t-57-2-67.5-1H85v67h372v-53L307 508q-58-78-93.5-131T162 283.5 146 203q0-34 12-59t47.5-44T313 64q78-18 109.5-43.5T454-57q0-44-13-78.5T411-202h-87z"/><glyph glyph-name="eta" unicode="η" horiz-adv-x="608" d="M440-240v583q0 129-115 129-85 0-118.5-50T173 278V0H85v536h71l13-73h5q26 42 69.5 62.5T338 546q92 0 140.5-46.5T527 349v-589h-87z"/><glyph glyph-name="theta" unicode="θ" horiz-adv-x="594" d="M296-10Q172-10 113.5 93T55 377q0 122 24 209t77.5 133T296 765q125 0 184.5-101.5T540 377q0-121-24.5-207.5t-78-133T296-10zM144 422h306q-5 136-41 202.5T296 691q-76 0-111.5-66.5T144 422zM296 63q78 0 115 68.5T451 354H144q2-153 37.5-222T296 63z"/><glyph glyph-name="iota" unicode="ι" horiz-adv-x="332" d="M233-10q-79 0-115 42.5T82 150v386h88V147q0-49 21-66.5T244 63q20 0 35.5 3t30.5 7V2q-13-5-32-8.5T233-10z"/><glyph glyph-name="kappa" unicode="κ" horiz-adv-x="534" d="M509 536 306 299 525 0H420L244 242l-66-54V0H85v536h93V397q0-40-2-78t-4-58h2q9 13 19.5 26.5T213 312l190 224h106z"/><glyph glyph-name="lambda" unicode="λ" horiz-adv-x="519" d="M462-10q-29 0-47.5 13T383 53l-79 223q-8 24-19.5 57T263 398t-15 53h-4q-7-36-21.5-83T195 281L103 0H9l196 538-26 67q-16 44-45.5 66T56 693q-18 0-31.5-2T0 687v70q14 4 30.5 6t36.5 2q77 0 124-38.5T270 602L460 97q8-21 14.5-28t17.5-7q8 0 15 2t12 3V2q-11-5-25.5-8.5T462-10z"/><glyph glyph-name="uni03BC" unicode="μ" horiz-adv-x="626" d="M85-240v776h88V190q0-127 122-127 82 0 116 50t34 144v279h88V118q0-31 12-43.5T574 62q8 0 17 2t13 3V3q-7-4-23-8.5T548-10q-37 0-61.5 18T451 72h-7q-25-40-62-61t-93-21q-39 0-68 12.5T172 35h-4q2-18 3.5-48t1.5-71v-156H85z"/><glyph glyph-name="nu" unicode="ν" horiz-adv-x="516" d="M190 0 0 536h91l97-289q8-24 20-57t22.5-64.5T246 74h4q85 94 117 205.5T399 536h87q0-105-18-195.5t-61.5-174T285 0h-95z"/><glyph glyph-name="xi" unicode="ξ" horiz-adv-x="490" d="M324-202q16 32 29 63.5T366-79q0 15-5 27t-22.5 22.5T281-11Q208 5 157.5 30T81 95.5 55 198q0 81 43.5 130.5T205 395v6Q89 430 89 542q0 47 20.5 77.5t54 49.5 73.5 30q-19-2-53-4t-68-2H85v67h372v-62h-26q-69 0-127.5-13.5t-94-45.5-35.5-90q0-51 37-83.5T337 433h108v-67H334q-70 0-111.5-21.5T163 288t-18-78q0-47 18-74t58-43 105-32q53-12 80.5-29T444-7t10-49q0-44-12.5-77.5T411-202h-87z"/><glyph glyph-name="omicron" unicode="ο" horiz-adv-x="605" d="M551 269q0-133-67.5-206T301-10q-71 0-126.5 32.5t-87.5 95T55 269q0 133 67 205t182 72q73 0 128.5-32.5t87-94T551 269zm-405 0q0-95 37.5-150.5T303 63q81 0 119 55.5T460 269t-38 149-120 54-119-54-37-149z"/><glyph glyph-name="pi" unicode="π" horiz-adv-x="653" d="M550-10q-111 0-111 128v350H212V0h-87v468H16v68h615v-68H526V124q0-35 13-48.5T572 62q14 0 25.5 3t18.5 7V3q-8-4-25.5-8.5T550-10z"/><glyph glyph-name="rho" unicode="ρ" horiz-adv-x="600" d="M70-240v515q0 137 63.5 204T298 546q117 0 182-74t65-209q0-85-31-146.5t-85.5-94T304-10q-40 0-78 11.5T159 35h-5q2-16 3-52t1-81v-142H70zM303 63q72 0 111.5 51.5T454 263q0 107-40.5 158T296 472q-137 0-137-198V112q29-25 66.5-37T303 63z"/><glyph glyph-name="sigma" unicode="σ" horiz-adv-x="614" d="M296-10q-109 0-175 68T55 256q0 101 35 162.5t99 89.5 151 28h242v-68H460q38-37 59-88.5T540 256t-27.5-132.5-81.5-97T296-10zm2 73q54 0 88 26t50 69.5 16 95.5q0 128-77 214h-35q-98 0-147-49.5T144 256q0-85 36-139t118-54z"/><glyph glyph-name="tau" unicode="τ" horiz-adv-x="490" d="M332-11q-46 0-85 13.5T184 52t-24 103v313H16v68h442v-68H249V164q0-58 26.5-81T345 60q22 0 45.5 3.5T430 71V5q-14-6-41.5-11T332-11z"/><glyph glyph-name="upsilon" unicode="υ" horiz-adv-x="598" d="M282-10q-67 0-107.5 17.5t-61 50-27.5 77-7 98.5v303h88V236q0-57 9-95.5T211.5 82 289 62q72 0 111.5 57T440 296q0 70-8 125t-23 115h88q16-59 24-114.5t8-129.5q0-155-65-228.5T282-10z"/><glyph glyph-name="phi" unicode="φ" horiz-adv-x="725" d="M320-240V-8q-79 7-139 41.5t-93 94T55 268q0 122 69 194t196 82v216h86V544q80-7 139.5-42t92.5-94 33-140q0-121-70.5-193T406-8v-232h-86zm0 302v411q-92-9-132.5-61T147 268t41-144.5T320 62zm86 0q90 10 132 62.5T580 268q0 185-174 204V62z"/><glyph glyph-name="chi" unicode="χ" horiz-adv-x="594" d="m18-240 237 373-119 250q-19 39-33.5 62T62 468q-19 0-33-6v69q11 3 21 5.5t31 2.5q30 0 49.5-9t36-30.5T201 439l111-230 180 327h94L349 131 449-76q22-45 38.5-68.5T541-168q13 0 24.5 1.5T586-164v-68q-11-3-26-5.5t-36-2.5q-39 0-64 11.5T416.5-192 379-127L292 55 112-240H18z"/><glyph glyph-name="psi" unicode="ψ" horiz-adv-x="749" d="M330-240V-9q-76 3-132.5 28.5T110 103 79 260v276h87V257q0-75 21.5-116t59-57T330 64v696h86V65q85 8 131.5 58.5T594 280q0 69-8 127.5T562 536h87q16-67 23.5-127t7.5-126q0-103-34.5-165.5t-94-92T416-9v-231h-86z"/><glyph glyph-name="omega" unicode="ω" horiz-adv-x="799" d="M256-10q-62 0-104.5 34T87 119 65 260q0 95 26 164t63 112h90q-37-43-64-111t-27-166q0-97 30-146.5T262 63q50 0 73 37t23 93v161h84V193q0-62 25-96t70-34q50 0 80 49.5T647 259q0 95-24.5 161.5T556 536h90q40-46 64.5-114.5T735 260q0-80-22-141t-64.5-95T544-10q-55 0-90 25.5T402 100h-5q-16-59-50.5-84.5T256-10z"/><glyph glyph-name="iotadieresis" unicode="ϊ" horiz-adv-x="332" d="M233-10q-79 0-115 42.5T82 150v386h88V147q0-49 21-66.5T244 63q20 0 35.5 3t30.5 7V2q-13-5-32-8.5T233-10zM-6 681q0 26 14 37.5T41 730t33-11.5T88 681q0-25-14-37.5T41 631 8 643.5-6 681zm188 0q0 26 13.5 37.5T228 730t33-11.5 14-37.5q0-25-14-37.5T228 631t-32.5 12.5T182 681z"/><glyph glyph-name="upsilondieresis" unicode="ϋ" horiz-adv-x="598" d="M282-10q-67 0-107.5 17.5t-61 50-27.5 77-7 98.5v303h88V236q0-57 9-95.5T211.5 82 289 62q72 0 111.5 57T440 296q0 70-8 125t-23 115h88q16-59 24-114.5t8-129.5q0-155-65-228.5T282-10zM142 681q0 26 14 37.5t33 11.5 33-11.5 14-37.5q0-25-14-37.5T189 631t-33 12.5-14 37.5zm188 0q0 26 13.5 37.5T376 730t33-11.5 14-37.5q0-25-14-37.5T376 631t-32.5 12.5T330 681z"/><glyph glyph-name="omicrontonos" unicode="ό" horiz-adv-x="605" d="M551 269q0-133-67.5-206T301-10q-71 0-126.5 32.5t-87.5 95T55 269q0 133 67 205t182 72q73 0 128.5-32.5t87-94T551 269zm-405 0q0-95 37.5-150.5T303 63q81 0 119 55.5T460 269t-38 149-120 54-119-54-37-149zm136 337v12l48 158h106v-10l-95-160h-59z"/><glyph glyph-name="upsilontonos" unicode="ύ" horiz-adv-x="598" d="M282-10q-67 0-107.5 17.5t-61 50-27.5 77-7 98.5v303h88V236q0-57 9-95.5T211.5 82 289 62q72 0 111.5 57T440 296q0 70-8 125t-23 115h88q16-59 24-114.5t8-129.5q0-155-65-228.5T282-10zm-21 616v12l48 158h106v-10l-95-160h-59z"/><glyph glyph-name="omegatonos" unicode="ώ" horiz-adv-x="799" d="M256-10q-62 0-104.5 34T87 119 65 260q0 95 26 164t63 112h90q-37-43-64-111t-27-166q0-97 30-146.5T262 63q50 0 73 37t23 93v161h84V193q0-62 25-96t70-34q50 0 80 49.5T647 259q0 95-24.5 161.5T556 536h90q40-46 64.5-114.5T735 260q0-80-22-141t-64.5-95T544-10q-55 0-90 25.5T402 100h-5q-16-59-50.5-84.5T256-10zm123 616v12l48 158h106v-10l-95-160h-59z"/><glyph glyph-name="uni0401" unicode="Ё" horiz-adv-x="556" d="M496 0H97v714h399v-79H187V412h291v-78H187V79h309V0zM164 859q0 26 14 37.5t33 11.5 33-11.5 14-37.5q0-25-14-37.5T211 809t-33 12.5-14 37.5zm188 0q0 26 13.5 37.5T398 908t33-11.5 14-37.5q0-25-14-37.5T398 809t-32.5 12.5T352 859z"/><glyph glyph-name="uni0402" unicode="Ђ" horiz-adv-x="741" d="M484-10q-49 0-76 12v78q29-10 72-10 22 0 44.5 8.5T562 111t15 70v64q0 58-29 86t-99 28H265V0h-89v635H10v79h472v-79H265V438h191q101 0 155.5-46.5T666 257v-70q0-100-51-148.5T484-10z"/><glyph glyph-name="uni0403" unicode="Ѓ" horiz-adv-x="524" d="M500 714v-80H187V0H97v714h403zm-54 220q-12-18-37-46.5t-53.5-57T303 784h-58v12q15 19 32.5 45t34.5 53.5 28 49.5h106v-10z"/><glyph glyph-name="uni0404" unicode="Є" horiz-adv-x="643" d="M407 645q-106 0-171-59t-78-175h348v-78H156q5-127 67.5-195.5T407 69q49 0 93 8t86 20V19q-78-29-191-29-116 0-190 46T96 164.5 61 358q0 110 40 192.5T218.5 679 409 725q65 0 114.5-12t90.5-32l-37-77q-35 17-77 29t-93 12z"/><glyph glyph-name="uni0405" unicode="Ѕ" horiz-adv-x="549" d="M502 191q0-95-69-148T247-10q-60 0-111 9T51 24v86q36-16 89.5-29T251 68q80 0 120.5 31t40.5 84q0 35-15 59t-51.5 44.5T244 330q-91 33-137.5 81T60 542q0 57 29 97.5t80.5 62.5T288 724q59 0 108-11t89-29l-28-77q-37 16-80.5 27T286 645q-67 0-101-28.5T151 541q0-36 15-60t49-43 92-41q63-23 106.5-49.5t66-63.5 22.5-93z"/><glyph glyph-name="uni0406" unicode="І" horiz-adv-x="339" d="M298 0H40v52l84 19v571l-84 20v52h258v-52l-84-20V71l84-19V0z"/><glyph glyph-name="uni0407" unicode="Ї" horiz-adv-x="339" d="M298 0H40v52l84 19v571l-84 20v52h258v-52l-84-20V71l84-19V0zM30 859q0 26 14 37.5T77 908t33-11.5 14-37.5q0-25-14-37.5T77 809t-33 12.5T30 859zm188 0q0 26 13.5 37.5T264 908t33-11.5 14-37.5q0-25-14-37.5T264 809t-32.5 12.5T218 859z"/><glyph glyph-name="uni0408" unicode="Ј" horiz-adv-x="273" d="M-4-190q-24 0-42 3.5t-32 9.5v76q16-4 34-7t38-3q25 0 47.5 10T78-66 92 4v710h90V11q0-103-51-152T-4-190z"/><glyph glyph-name="uni0409" unicode="Љ" horiz-adv-x="936" d="M66-11q-17 0-34 3.5T1 1v75q11-5 25-8.5T56 64q30 0 47 23.5t27 60 18 75.5q8 40 19.5 113T193 506t28 208h340V412h59q105 0 166-27t86.5-73T898 209q0-94-63-151.5T635 0H471v635H297q-10-74-21.5-155.5T253 324t-22-126q-13-67-32-114t-50.5-71T66-11zm558 88q93 0 137 32.5t44 99.5q0 69-48 97t-148 28h-48V77h63z"/><glyph glyph-name="uni040A" unicode="Њ" horiz-adv-x="958" d="M97 0v714h90V412h306v302h91V412h58q105 0 166-27t86.5-73T920 209q0-94-63-151.5T658 0H493v333H187V0H97zm550 77q92 0 136 32.5t44 99.5q0 69-48 97t-147 28h-48V77h63z"/><glyph glyph-name="uni040B" unicode="Ћ" horiz-adv-x="741" d="M510 714v-80H265V437h194q100 0 153.5-46T666 256V0h-90v245q0 58-27.5 85.5T453 358H265V0h-90v634H10v80h500z"/><glyph glyph-name="uni040C" unicode="Ќ" horiz-adv-x="618" d="M618 0H510L187 362V0H97v714h90V368l315 346h102L294 367zM477 934q-12-18-37-46.5t-53.5-57T334 784h-58v12q15 19 32.5 45t34.5 53.5 28 49.5h106v-10z"/><glyph glyph-name="uni040E" unicode="Ў" horiz-adv-x="624" d="M505 936q-7-75-50.5-113.5T316 784q-98 0-138.5 38T132 936h82q5-54 28.5-72.5T318 845q46 0 72.5 19.5T422 936h83zM396 203q-32-71-64.5-118.5t-76.5-71T143-10q-28 0-52.5 4T46 5v89q20-9 43-14.5t48-5.5q56 0 88.5 24t60.5 85L11 714h99l199-393q5-10 12-25.5t12-29.5h4q4 11 10 26.5t10 25.5l172 396h95z"/><glyph glyph-name="uni040F" unicode="Џ" horiz-adv-x="731" d="M633 0H408v-188h-92V0H97v714h90V80h357v634h89V0z"/><glyph glyph-name="uni0410" unicode="А" horiz-adv-x="639" d="m545 0-86 221H176L91 0H0l279 717h81L638 0h-93zM352 517q-3 8-10 29t-13.5 43.5T318 624q-7-31-16-60.5T287 517l-81-216h226z"/><glyph glyph-name="uni0411" unicode="Б" horiz-adv-x="615" d="M97 0v714h424v-79H187V412h106q107 0 166-26.5t82-72T564 209q0-98-59-153.5T306 0H97zm200 77q96 0 135 32.5t39 99.5q0 69-43 97t-146 28h-95V77h110z"/><glyph glyph-name="uni0412" unicode="В" horiz-adv-x="650" d="M301 714q134 0 202.5-39.5T572 537q0-63-35-104.5T436 379v-5q45-7 81.5-26t57.5-54 21-91q0-97-66.5-150T348 0H97v714h204zm18-304q92 0 126 29.5t34 87.5q0 59-41.5 84.5T305 637H187V410h132zm-132-75V76h144q95 0 132 37t37 97q0 56-38.5 90.5T324 335H187z"/><glyph glyph-name="uni0413" unicode="Г" horiz-adv-x="524" d="M500 714v-80H187V0H97v714h403z"/><glyph glyph-name="uni0414" unicode="Д" horiz-adv-x="691" d="M578 714V80h91v-268h-86V0H92v-188H6V80h55q36 62 68.5 139T187 380.5 228 550t20 164h330zm-251-81q-4-58-19.5-131t-39-149.5-52-147.5T156 80h333v553H327z"/><glyph glyph-name="uni0415" unicode="Е" horiz-adv-x="556" d="M496 0H97v714h399v-79H187V412h291v-78H187V79h309V0z"/><glyph glyph-name="uni0416" unicode="Ж" horiz-adv-x="854" d="M288 367 11 714h100l273-346v346h86V368l273 346h100L566 368 852 0H749L470 362V0h-86v362L104 0H1z"/><glyph glyph-name="uni0417" unicode="З" horiz-adv-x="588" d="M519 547q0-73-46-115.5T350 377v-4q90-12 137-56t47-115q0-94-72-153T246-10q-58 0-110.5 8.5T38 29v82q47-22 102.5-34.5T245 64q96 0 145.5 36T440 202q0 68-58 99t-162 31H118v75h97q106 0 158.5 35.5T426 538q0 54-40 83t-104 29q-67 0-111.5-17T84 589l-43 61q42 31 103.5 52.5T283 724q116 0 176-50t60-127z"/><glyph glyph-name="uni0418" unicode="И" horiz-adv-x="768" d="M98 714h84V322q0-33-1-74t-2.5-75-3.5-50h4l393 591h100V0h-84v388q0 37 1.5 79t3.5 77 3 50h-4L198 0H98v714z"/><glyph glyph-name="uni0419" unicode="Й" horiz-adv-x="768" d="M584 936q-7-75-50.5-113.5T395 784q-98 0-138.5 38T211 936h82q5-54 28.5-72.5T397 845q46 0 72.5 19.5T501 936h83zM98 714h84V322q0-33-1-74t-2.5-75-3.5-50h4l393 591h100V0h-84v388q0 37 1.5 79t3.5 77 3 50h-4L198 0H98v714z"/><glyph glyph-name="uni041A" unicode="К" horiz-adv-x="618" d="M618 0H510L187 362V0H97v714h90V368l315 346h102L294 367z"/><glyph glyph-name="uni041B" unicode="Л" horiz-adv-x="708" d="M611 0h-90v635H295q-9-74-20-155.5T253 324t-22-126q-13-67-32-114t-50.5-71T66-11q-17 0-34.5 3.5T1 1v75q11-5 25-8.5T56 64q30 0 47.5 24.5t27.5 61 17 72.5q8 38 19.5 111.5t25 171.5T220 714h391V0z"/><glyph glyph-name="uni041C" unicode="М" horiz-adv-x="907" d="M412 0 177 626h-4q3-31 5-83.5t2-109.5V0H97v714h133l220-585h4l224 585h132V0h-89v439q0 52 2.5 103t4.5 83h-4L486 0h-74z"/><glyph glyph-name="uni041D" unicode="Н" horiz-adv-x="741" d="M643 0h-90v333H187V0H97v714h90V412h366v302h90V0z"/><glyph glyph-name="uni041E" unicode="О" horiz-adv-x="781" d="M720 358q0-111-37.5-193.5T572 36 391-10q-111 0-184.5 46T97 165 61 359q0 110 36 192t109.5 128T392 725q107 0 180-45.5t110.5-128T720 358zm-564 0q0-135 57-212.5T391 68q122 0 178 77.5T625 358t-56 211.5T392 646t-178.5-76.5T156 358z"/><glyph glyph-name="uni041F" unicode="П" horiz-adv-x="731" d="M97 0v714h536V0h-89v635H187V0H97z"/><glyph glyph-name="uni0420" unicode="Р" horiz-adv-x="605" d="M286 714q140 0 204-55t64-155q0-59-26.5-110.5t-89-83.5T269 278h-82V0H97v714h189zm-8-77h-91V355h72q102 0 152 33t50 112q0 69-44 103t-139 34z"/><glyph glyph-name="uni0421" unicode="С" horiz-adv-x="632" d="M403 645q-115 0-181-77t-66-211q0-133 61.5-210.5T402 69q47 0 89 8t82 20V19Q533 4 490.5-3T389-10q-109 0-182 45T97.5 163 61 358q0 108 39.5 190.5t116.5 129T404 724q113 0 197-42l-36-76q-33 15-73.5 27T403 645z"/><glyph glyph-name="uni0422" unicode="Т" horiz-adv-x="556" d="M323 0h-90v635H10v79h535v-79H323V0z"/><glyph glyph-name="uni0423" unicode="У" horiz-adv-x="624" d="M396 203q-32-71-64.5-118.5t-76.5-71T143-10q-28 0-52.5 4T46 5v89q20-9 43-14.5t48-5.5q56 0 88.5 24t60.5 85L11 714h99l199-393q5-10 12-25.5t12-29.5h4q4 11 10 26.5t10 25.5l172 396h95z"/><glyph glyph-name="uni0424" unicode="Ф" horiz-adv-x="804" d="M446 724v-88q116-2 183-38t95-95.5T752 370q0-48-14.5-95.5t-49.5-86-94-62.5-148-26V-10h-89v110q-91 2-150.5 26.5t-93.5 64T65 277t-14 93q0 71 28.5 130.5T175 597t182 39v88h89zm-89-164q-80-2-127.5-26T162 468.5 142 371q0-88 51.5-140.5T357 174v386zm89-386q116 4 165.5 57.5T661 371q0 57-20 98.5t-67 65T446 560V174z"/><glyph glyph-name="uni0425" unicode="Х" horiz-adv-x="586" d="M582 0H480L291 310 99 0H4l237 372L19 714h100l175-280 176 280h95L344 374z"/><glyph glyph-name="uni0426" unicode="Ц" horiz-adv-x="741" d="M720 79v-267h-86V0H97v714h90V80h357v634h89V79h87z"/><glyph glyph-name="uni0427" unicode="Ч" horiz-adv-x="698" d="M601 0h-90v293q-58-20-108.5-32.5T290 248q-100 0-155 46.5T80 429v285h90V442q0-58 30.5-86.5T299 327q59 0 106 11t106 30v346h90V0z"/><glyph glyph-name="uni0428" unicode="Ш" horiz-adv-x="1037" d="M939 0H97v714h90V80h285v634h90V80h286v634h91V0z"/><glyph glyph-name="uni0429" unicode="Щ" horiz-adv-x="1041" d="M1011 79v-267h-86V0H97v714h90V80h278v634h91V80h279v634h90V79h86z"/><glyph glyph-name="uni042A" unicode="Ъ" horiz-adv-x="692" d="M174 0v635H8v79h255V412h113q100 0 158-27t82.5-73T641 209q0-94-61-151.5T388 0H174zm205 77q87 0 128 32.5t41 99.5q0 69-45 97t-138 28H263V77h116z"/><glyph glyph-name="uni042B" unicode="Ы" horiz-adv-x="858" d="M97 0v714h90V412h110q100 0 157.5-27t82-73T561 209q0-94-60.5-151.5T308 0H97zm574 0v714h90V0h-90zM300 76q86 0 127 33t41 100q0 69-44.5 96.5T287 333H187V76h113z"/><glyph glyph-name="uni042C" unicode="Ь" horiz-adv-x="642" d="M97 0v714h90V412h134q100 0 159-27t85-73 26-103q0-94-64-151.5T332 0H97zm226 77q175 0 175 132 0 69-48 97t-140 28H187V77h136z"/><glyph glyph-name="uni042D" unicode="Э" horiz-adv-x="633" d="M232 645q-50 0-91-11.5T67 607l-37 75q41 20 94 31t109 11q115 0 189.5-46T534 551.5 571 369q0-117-38-202T418.5 36 226-10q-62 0-105 7T36 19v78q42-11 85-19.5t91-8.5q129 0 194.5 68.5T476 334H129v79h346q-10 110-74.5 171T232 645z"/><glyph glyph-name="uni042E" unicode="Ю" horiz-adv-x="1052" d="M990 358q0-111-35.5-193.5T849 36 675-10q-102 0-171.5 42T397 151t-41 182H187V0H97v714h90V412h171q7 95 44 165.5t105 109T673 725q103 0 173.5-45.5t107-128T990 358zm-540 0q0-135 53.5-212.5T672 68q117 0 170.5 77.5T896 358t-53 211.5T674 646t-170-77-54-211z"/><glyph glyph-name="uni042F" unicode="Я" horiz-adv-x="639" d="M312 296 127 0H22l200 312q-38 13-71.5 36T96 411 75 514q0 97 67 148.5T342 714h200V0h-90v296H312zm32 341q-85 0-130.5-29.5T168 510q0-66 44-102t136-36h104v265H344z"/><glyph glyph-name="uni0430" unicode="а" horiz-adv-x="561" d="M288 545q98 0 145-43t47-137V0h-64l-17 76h-4q-35-44-73.5-65T215-10q-73 0-121 38.5T46 149q0 80 63 123.5T303 320l91 3v32q0 67-29 93t-82 26q-42 0-80-12.5T132 433l-27 66q35 19 83 32.5T288 545zm26-286q-100-4-138.5-32T137 148q0-45 27.5-66T235 61q68 0 113 37.5T393 214v48z"/><glyph glyph-name="uni0431" unicode="б" horiz-adv-x="599" d="M57 322q0 176 53 274.5T281 720q65 14 127 25t116 20l15-77q-35-5-79-12.5t-87-15-74-14.5q-65-14-103-67.5T153 412h6q14 19 38.5 39t59 34 78.5 14q104 0 157-67t53-174q0-89-31-149t-86-89.5T300-10q-111 0-177 85T57 322zM307 63q65 0 105 42t40 144q0 82-30.5 129.5T321 426q-44 0-80-19.5T181 362t-34-42q0-49 7-95t24.5-82.5 49-58T307 63z"/><glyph glyph-name="uni0432" unicode="в" horiz-adv-x="576" d="M516 401q0-50-30-78t-77-38v-4q50-7 87-35.5t37-88.5q0-68-50.5-112.5T316 0H85v536h230q57 0 102.5-12.5t72-42T516 401zm-89-11q0 38-27.5 55.5T310 463H173V316h121q133 0 133 74zm15-233q0 46-35 66t-103 20H173V71h133q66 0 101 19.5t35 66.5z"/><glyph glyph-name="uni0433" unicode="г" horiz-adv-x="433" d="M412 536v-74H173V0H85v536h327z"/><glyph glyph-name="uni0434" unicode="д" horiz-adv-x="581" d="M483 536V74h78v-260h-85V0H103v-186H19V74h43q69 95 103.5 216.5T201 536h282zm-204-69q-4-68-21-140.5T214.5 188 153 74h245v393H279z"/><glyph glyph-name="uni0435" unicode="е" horiz-adv-x="564" d="M292 546q69 0 118.5-30t76-84.5T513 304v-53H146q2-91 46.5-138.5T317 65q51 0 90.5 9.5T489 102V25Q448 7 408-1.5T313-10q-76 0-134.5 31t-91 92.5T55 264q0 88 29.5 151t83 97T292 546zm-1-72q-63 0-99.5-40.5T148 321h273q-1 68-32 110.5T291 474z"/><glyph glyph-name="uni0436" unicode="ж" horiz-adv-x="750" d="M728 536 507 276 747 0H647L415 272V0h-82v272L101 0H1l240 276L20 536h96l217-260v260h82V276l218 260h95z"/><glyph glyph-name="uni0437" unicode="з" horiz-adv-x="490" d="M226 546q92 0 146.5-36.5T427 405q0-49-27-77.5T326 286v-4q32-9 59-25t43.5-42 16.5-67q0-67-55.5-112.5T216-10q-58 0-105 9.5T33 25v79q34-16 80.5-29T215 62q60 0 101.5 20.5T358 153q0 90-153 90h-72v72h58q69 0 110.5 18.5T343 397q0 38-31.5 57T221 473q-44 0-77.5-8.5T70 439l-31 70q84 37 187 37z"/><glyph glyph-name="uni0438" unicode="и" horiz-adv-x="643" d="M168 209q0-12-1-36t-2.5-48-2.5-38l287 449h108V0h-82v316q0 16 .5 42t1.5 51.5 2 38.5L194 0H85v536h83V209z"/><glyph glyph-name="uni0439" unicode="й" horiz-adv-x="643" d="M519 758q-7-75-50.5-113.5T330 606q-98 0-138.5 38T146 758h82q5-54 28.5-72.5T332 667q46 0 72.5 19.5T436 758h83zM168 209q0-12-1-36t-2.5-48-2.5-38l287 449h108V0h-82v316q0 16 .5 42t1.5 51.5 2 38.5L194 0H85v536h83V209z"/><glyph glyph-name="uni043A" unicode="к" horiz-adv-x="529" d="M402 536h96L269 278 517 0H415L173 272V0H85v536h88V276z"/><glyph glyph-name="uni043B" unicode="л" horiz-adv-x="578" d="M493 0h-89v463H246q-13-169-36-272.5T149 40 53-7Q40-7 27.5-5.5T7 0v66q6-2 13-3t14-1q54 0 86.5 115T170 536h323V0z"/><glyph glyph-name="uni043C" unicode="м" horiz-adv-x="746" d="M660 536V0h-79v342q0 21 1.5 44t3.5 45h-3L408 0h-74L164 431h-3q3-45 3-92V0H85v536h117l169-431 172 431h117z"/><glyph glyph-name="uni043D" unicode="н" horiz-adv-x="637" d="M173 536V313h291v223h88V0h-88v239H173V0H85v536h88z"/><glyph glyph-name="uni043E" unicode="о" horiz-adv-x="605" d="M551 269q0-133-67.5-206T301-10q-71 0-126.5 32.5t-87.5 95T55 269q0 133 67 205t182 72q73 0 128.5-32.5t87-94T551 269zm-405 0q0-95 37.5-150.5T303 63q81 0 119 55.5T460 269t-38 149-120 54-119-54-37-149z"/><glyph glyph-name="uni043F" unicode="п" horiz-adv-x="624" d="M538 536V0h-88v461H173V0H85v536h453z"/><glyph glyph-name="uni0440" unicode="р" horiz-adv-x="615" d="M340 546q99 0 159.5-69T560 269q0-137-60.5-208T339-10q-62 0-102.5 23.5T173 68h-6q2-17 4-43t2-45v-220H85v776h72l12-73h4q24 35 63 59t104 24zm-16-74q-82 0-115.5-46T173 286v-17q0-99 32.5-152.5T326 63q49 0 80.5 27t47 73.5T469 270q0 92-35.5 147T324 472z"/><glyph glyph-name="uni0441" unicode="с" horiz-adv-x="480" d="M300-10q-71 0-126.5 29t-87 90T55 265q0 99 33 161t89.5 91T306 546q41 0 79-8.5t62-20.5l-27-73q-24 9-56 17t-60 8q-158 0-158-203 0-97 38.5-148.5T299 66q44 0 77.5 9T438 97V19Q411 5 378.5-2.5T300-10z"/><glyph glyph-name="uni0442" unicode="т" horiz-adv-x="476" d="M455 462H280V0h-87v462H20v74h435v-74z"/><glyph glyph-name="uni0443" unicode="у" horiz-adv-x="510" d="M1 536h94l116-305q15-40 27-76.5T256 85h4q6 25 19 65.5t27 81.5l109 304h95L279-74q-28-76-72.5-121T84-240q-24 0-42 2.5T11-232v70q11-2 26.5-4t32.5-2q46 0 74.5 26T189-73l28 71z"/><glyph glyph-name="uni0444" unicode="ф" horiz-adv-x="725" d="M405 544q80-7 139.5-42t92.5-94 33-140q0-121-70.5-193T405-8v-232h-86V-8q-79 7-139 41.5t-93 94T54 268q0 122 70.5 194T322 544v216h83V544zm-83-73q-92-9-134-60.5T146 268t42.5-143T322 64v407zm83-407q90 10 132 62t42 142-42.5 141T405 470V64z"/><glyph glyph-name="uni0445" unicode="х" horiz-adv-x="529" d="M212 274 27 536h100l138-202 137 202h99L316 274 511 0H411L265 214 117 0H18z"/><glyph glyph-name="uni0446" unicode="ц" horiz-adv-x="632" d="M614-186h-86V0H85v536h88V74h277v462h88V73h76v-259z"/><glyph glyph-name="uni0447" unicode="ч" horiz-adv-x="613" d="M162 341q0-92 103-92 50 0 91 15.5t84 41.5v230h88V0h-88v239q-45-29-88.5-45.5T247 177q-82 0-127.5 43T74 335v201h88V341z"/><glyph glyph-name="uni0448" unicode="ш" horiz-adv-x="898" d="M812 536V0H85v536h88V74h231v462h88V74h232v462h88z"/><glyph glyph-name="uni0449" unicode="щ" horiz-adv-x="906" d="M811 536V73h78v-258h-88V0H85v536h88V74h231v462h88V74h232v462h87z"/><glyph glyph-name="uni044A" unicode="ъ" horiz-adv-x="696" d="M277 536V316h148q110 0 163.5-38.5T642 164 591 44.5 424 0H189v462H18v74h259zm145-294H277V71h148q59 0 94.5 20t35.5 68-33 65.5T422 242z"/><glyph glyph-name="uni044B" unicode="ы" horiz-adv-x="778" d="M85 0v536h88V316h139q104 0 154-38t50-114q0-75-49-119.5T308 0H85zm520 0v536h88V0h-88zM300 71q57 0 93 19.5t36 68.5-33 66.5-95 17.5H173V71h127z"/><glyph glyph-name="uni044C" unicode="ь" horiz-adv-x="594" d="M332 316q209 0 209-152 0-75-51-119.5T328 0H85v536h88V316h159zm121-157q0 49-34.5 66.5T322 243H173V71h151q56 0 92.5 20t36.5 68z"/><glyph glyph-name="uni044D" unicode="э" horiz-adv-x="494" d="M171-10q-46 0-79.5 7.5T29 19v76q30-12 65-21t79-9q78 0 124 42t51 133H84v72h263q-7 82-46.5 120T185 470q-29 0-63.5-8T60 444l-25 71q29 13 69 22t80 9q75 0 132.5-28t90-89T439 268q0-95-34.5-157t-95-91.5T171-10z"/><glyph glyph-name="uni044E" unicode="ю" horiz-adv-x="836" d="M781 269q0-133-64-206T544-10q-102 0-164.5 64T309 239H173V0H85v536h88V313h137q11 113 73 173t163 60q69 0 122-32.5t83-94T781 269zm-382 0q0-101 35-153.5T545 63q77 0 111 52.5T690 269t-34.5 152T545 472t-111-51-35-152z"/><glyph glyph-name="uni044F" unicode="я" horiz-adv-x="559" d="M118 0H16l153 225q-31 8-60 25.5t-47 49T44 378q0 77 52 117.5T234 536h240V0h-88v213H256zm11 377q0-46 34.5-68.5T260 286h126v177H243q-61 0-87.5-24T129 377z"/><glyph glyph-name="uni0451" unicode="ё" horiz-adv-x="564" d="M292 546q69 0 118.5-30t76-84.5T513 304v-53H146q2-91 46.5-138.5T317 65q51 0 90.5 9.5T489 102V25Q448 7 408-1.5T313-10q-76 0-134.5 31t-91 92.5T55 264q0 88 29.5 151t83 97T292 546zm-1-72q-63 0-99.5-40.5T148 321h273q-1 68-32 110.5T291 474zM144 681q0 26 14 37.5t33 11.5 33-11.5 14-37.5q0-25-14-37.5T191 631t-33 12.5-14 37.5zm188 0q0 26 13.5 37.5T378 730t33-11.5 14-37.5q0-25-14-37.5T378 631t-32.5 12.5T332 681z"/><glyph glyph-name="uni0452" unicode="ђ" horiz-adv-x="618" d="M399-240q-22 0-38.5 3.5T332-228v72q13-4 26-7t29-3q27 0 45 17.5T450-83v407q0 128-119 128-89 0-123-50t-34-144V0H85v605H9v65h76v90h88v-90h192v-65H173v-88q0-19-1-38t-3-36h5q26 41 71 62t97 21q98 0 147-46.5T538 330V-79q0-76-34-118.5T399-240z"/><glyph glyph-name="uni0453" unicode="ѓ" horiz-adv-x="433" d="M412 536v-74H173V0H85v536h327zm-22 220q-12-18-37-46.5t-53.5-57T247 606h-58v12q15 19 32.5 45t34.5 53.5 28 49.5h106v-10z"/><glyph glyph-name="uni0454" unicode="є" horiz-adv-x="495" d="M310-10q-74 0-131.5 28.5T88 108 55 265q0 100 34 162t92.5 90.5T313 546q41 0 80.5-8t67.5-21l-26-72q-28 11-61.5 18t-62.5 7q-77 0-117-39t-48-119h263v-72H145q5-89 45-132t118-43q45 0 80 9t65 21V19Q425 5 391-2.5T310-10z"/><glyph glyph-name="uni0455" unicode="ѕ" horiz-adv-x="479" d="M434 148q0-78-58-118T220-10q-56 0-96.5 9T52 24v80q32-16 77.5-29.5T222 61q67 0 97 21.5t30 57.5q0 20-11 36t-39.5 32-81.5 36q-52 20-89 40t-57 48-20 72q0 68 55.5 105T252 546q49 0 91.5-9.5T423 510l-30-70q-34 14-71 24t-76 10q-54 0-82.5-17.5T135 409q0-22 13-37.5t43.5-30T273 307q51-19 87-39t55-48.5 19-71.5z"/><glyph glyph-name="uni0456" unicode="і" horiz-adv-x="258" d="M130 737q20 0 35.5-13.5T181 681q0-28-15.5-42T130 625q-22 0-37 14t-15 42q0 29 15 42.5t37 13.5zm43-201V0H85v536h88z"/><glyph glyph-name="uni0457" unicode="ї" horiz-adv-x="258" d="M173 0H85v536h88V0zM-11 681q0 26 14 37.5T36 730t33-11.5T83 681q0-25-14-37.5T36 631 3 643.5-11 681zm188 0q0 26 13.5 37.5T223 730t33-11.5 14-37.5q0-25-14-37.5T223 631t-32.5 12.5T177 681z"/><glyph glyph-name="uni0458" unicode="ј" horiz-adv-x="258" d="M78 681q0 29 15 42.5t37 13.5q20 0 35.5-13.5T181 681q0-28-15.5-42T130 625q-22 0-37 14t-15 42zM22-240q-25 0-44 3.5t-33 8.5v71q15-4 31-7t35-3q32 0 53 17.5T85-83v619h88V-80q0-75-36-117.5T22-240z"/><glyph glyph-name="uni0459" unicode="љ" horiz-adv-x="842" d="M459 536V316h124q105 0 155.5-38.5T789 164 739 44.5 573 0H370v462H245q-13-169-36-272T148.5 40 54-7Q22-7 7 0v65q5-1 12-2.5T33 61q54 0 87 115.5T170 536h289zm108-294H459V71h111q58 0 94.5 20t36.5 68-34.5 65.5T567 242z"/><glyph glyph-name="uni045A" unicode="њ" horiz-adv-x="886" d="M504 536V315h120q107 0 157.5-38T832 164 783 44.5 618 0H413v239H175V0H85v536h90V313h240v223h89zm108-294H502V71h112q59 0 95 20t36 68-34 65.5-99 17.5z"/><glyph glyph-name="uni045B" unicode="ћ" horiz-adv-x="618" d="M173 760v-90h212v-66H173v-87q0-19-1.5-38.5T168 443h6q26 41 71 62t97 21q97 0 146-47t49-150V0h-87v323q0 129-120 129-90 0-123.5-50T173 258V0H85v604H9v66h76v90h88z"/><glyph glyph-name="uni045C" unicode="ќ" horiz-adv-x="529" d="M402 536h96L269 278 517 0H415L173 272V0H85v536h88V276zm18 220q-12-18-37-46.5t-53.5-57T277 606h-58v12q15 19 32.5 45t34.5 53.5 28 49.5h106v-10z"/><glyph glyph-name="uni045E" unicode="ў" horiz-adv-x="510" d="M444 758q-7-75-50.5-113.5T255 606q-98 0-138.5 38T71 758h82q5-54 28.5-72.5T257 667q46 0 72.5 19.5T361 758h83zM1 536h94l116-305q15-40 27-76.5T256 85h4q6 25 19 65.5t27 81.5l109 304h95L279-74q-28-76-72.5-121T84-240q-24 0-42 2.5T11-232v70q11-2 26.5-4t32.5-2q46 0 74.5 26T189-73l28 71z"/><glyph glyph-name="uni045F" unicode="џ" horiz-adv-x="626" d="M272 0H85v536h88V74h279v462h88V0H358v-185h-86V0z"/><glyph glyph-name="uni0490" unicode="Ґ" horiz-adv-x="532" d="M509 861V634H187V0H97v714h328v147h84z"/><glyph glyph-name="uni0491" unicode="ґ" horiz-adv-x="436" d="M414 692V468H173V0H85v536h243v156h86z"/><glyph glyph-name="Wgrave" unicode="Ẁ" horiz-adv-x="930" d="M917 714 727 0h-91L497 468l-16 58-13 51.5-7 31.5q-1-13-10.5-55.5T427 465L292 0h-91L12 714h94l111-436q12-46 20.5-89t13.5-81q5 39 15 85t23 90l126 431h93l131-434q14-46 24-91.5t15-80.5q5 37 14 80.5t21 90.5l110 435h94zM440 944q11-22 27.5-49.5t35-53.5 33.5-45v-12h-59q-23 18-52 46.5t-53.5 57T335 934v10h105z"/><glyph glyph-name="wgrave" unicode="ẁ" horiz-adv-x="786" d="M431 303q-13 41-22.5 80.5T394 445h-4q-4-22-13-61.5T354 302L258 1H158L11 537h91l74-286q11-43 21-87t14-73h4q4 17 9.5 42t12.5 52.5 14 49.5l95 302h96l92-302q11-34 21.5-74T570 92h4q3 25 13.5 69t22.5 90l75 286h90L626 1H523zm-63 463q11-22 27.5-49.5t35-53.5 33.5-45v-12h-59q-23 18-52 46.5t-53.5 57T263 756v10h105z"/><glyph glyph-name="Wacute" unicode="Ẃ" horiz-adv-x="930" d="M917 714 727 0h-91L497 468l-16 58-13 51.5-7 31.5q-1-13-10.5-55.5T427 465L292 0h-91L12 714h94l111-436q12-46 20.5-89t13.5-81q5 39 15 85t23 90l126 431h93l131-434q14-46 24-91.5t15-80.5q5 37 14 80.5t21 90.5l110 435h94zM613 934q-12-18-37-46.5t-53.5-57T470 784h-58v12q15 19 32.5 45t34.5 53.5 28 49.5h106v-10z"/><glyph glyph-name="wacute" unicode="ẃ" horiz-adv-x="786" d="M431 303q-13 41-22.5 80.5T394 445h-4q-4-22-13-61.5T354 302L258 1H158L11 537h91l74-286q11-43 21-87t14-73h4q4 17 9.5 42t12.5 52.5 14 49.5l95 302h96l92-302q11-34 21.5-74T570 92h4q3 25 13.5 69t22.5 90l75 286h90L626 1H523zm110 453q-12-18-37-46.5t-53.5-57T398 606h-58v12q15 19 32.5 45t34.5 53.5 28 49.5h106v-10z"/><glyph glyph-name="Wdieresis" unicode="Ẅ" horiz-adv-x="930" d="M917 714 727 0h-91L497 468l-16 58-13 51.5-7 31.5q-1-13-10.5-55.5T427 465L292 0h-91L12 714h94l111-436q12-46 20.5-89t13.5-81q5 39 15 85t23 90l126 431h93l131-434q14-46 24-91.5t15-80.5q5 37 14 80.5t21 90.5l110 435h94zM325 859q0 26 14 37.5t33 11.5 33-11.5 14-37.5q0-25-14-37.5T372 809t-33 12.5-14 37.5zm188 0q0 26 13.5 37.5T559 908t33-11.5 14-37.5q0-25-14-37.5T559 809t-32.5 12.5T513 859z"/><glyph glyph-name="wdieresis" unicode="ẅ" horiz-adv-x="786" d="M431 303q-13 41-22.5 80.5T394 445h-4q-4-22-13-61.5T354 302L258 1H158L11 537h91l74-286q11-43 21-87t14-73h4q4 17 9.5 42t12.5 52.5 14 49.5l95 302h96l92-302q11-34 21.5-74T570 92h4q3 25 13.5 69t22.5 90l75 286h90L626 1H523zM253 681q0 26 14 37.5t33 11.5 33-11.5 14-37.5q0-25-14-37.5T300 631t-33 12.5-14 37.5zm188 0q0 26 13.5 37.5T487 730t33-11.5 14-37.5q0-25-14-37.5T487 631t-32.5 12.5T441 681z"/><glyph glyph-name="Ygrave" unicode="Ỳ" horiz-adv-x="566" d="m283 363 186 351h97L328 277V0h-90v273L0 714h98zm-25 581q11-22 27.5-49.5t35-53.5 33.5-45v-12h-59q-23 18-52 46.5t-53.5 57T153 934v10h105z"/><glyph glyph-name="ygrave" unicode="ỳ" horiz-adv-x="510" d="M1 536h94l116-305q15-40 27-76.5T256 85h4q6 25 19 65.5t27 81.5l109 304h95L279-74q-28-76-72.5-121T84-240q-24 0-42 2.5T11-232v70q11-2 26.5-4t32.5-2q46 0 74.5 26T189-73l28 71zm229 230q11-22 27.5-49.5t35-53.5 33.5-45v-12h-59q-23 18-52 46.5t-53.5 57T125 756v10h105z"/><glyph glyph-name="endash" unicode="–" horiz-adv-x="500" d="M40 229v78h420v-78H40z"/><glyph glyph-name="emdash" unicode="—" horiz-adv-x="1000" d="M40 229v78h920v-78H40z"/><glyph glyph-name="uni2015" unicode="―" horiz-adv-x="1000" d="M40 229v78h920v-78H40z"/><glyph glyph-name="underscoredbl" unicode="‗" horiz-adv-x="411" d="M413-90H-2v64h415v-64zm0-132H-2v64h415v-64z"/><glyph glyph-name="quoteleft" unicode="‘" horiz-adv-x="175" d="M12 480q14 53 38 117t48 117h65q-9-38-19-81.5t-18-86-13-77.5H18z"/><glyph glyph-name="quoteright" unicode="’" horiz-adv-x="175" d="M163 703q-13-52-37.5-116.5T77 469H12q10 38 19.5 81.5t17.5 86T62 714h94z"/><glyph glyph-name="quotesinglbase" unicode="‚" horiz-adv-x="250" d="M182 105q-13-52-37.5-116.5T96-129H31q10 38 19.5 81.5t17.5 86T81 116h94z"/><glyph glyph-name="quotereversed" unicode="‛" horiz-adv-x="175" d="M114 714q5-35 13-77.5t18-86 19-81.5H99q-25 53-49 117.5T12 703l7 11h95z"/><glyph glyph-name="quotedblleft" unicode="“" horiz-adv-x="359" d="M347 714q-14-58-28-125.5T297 469h-95l-7 11q14 53 38 116.5T282 714h65zm-185 0q-14-58-28-125.5T112 469H18l-6 11q14 53 37.5 116.5T98 714h64z"/><glyph glyph-name="quotedblright" unicode="”" horiz-adv-x="359" d="M347 703q-13-53-37.5-117T261 469h-66q10 38 19.5 81.5t18 86T246 714h94zm-185 0q-13-53-37.5-117T76 469H12q10 38 19 81.5t17 86T61 714h94z"/><glyph glyph-name="quotedblbase" unicode="„" horiz-adv-x="416" d="M366 105q-13-53-37.5-117T280-129h-66q10 38 19.5 81.5t18 86T265 116h94zm-185 0q-13-53-37.5-117T95-129H31q10 38 19 81.5t17 86T80 116h94z"/><glyph glyph-name="dagger" unicode="†" horiz-adv-x="512" d="m448 484-171 15L302 0H202l24 499-161-15v87l161-15-24 204h100l-25-204 171 15v-87z"/><glyph glyph-name="daggerdbl" unicode="‡" horiz-adv-x="512" d="m281 241 171 15v-85l-171 14L305 0H204l24 185-168-14v85l168-15-21 143 21 135-168-15v85l168-15-24 186h101l-24-186 171 15v-85l-171 15 21-135z"/><glyph glyph-name="bullet" unicode="•" horiz-adv-x="376" d="M77 365q0 68 32 96t79 28 79-28 32-96q0-66-32-95t-79-29-79 29-32 95z"/><glyph glyph-name="ellipsis" unicode="…" horiz-adv-x="791" d="M72 54q0 37 18 52t43 15q26 0 44.5-15T196 54q0-36-18.5-52T133-14q-25 0-43 16T72 54zm262 0q0 37 18 52t43 15q26 0 44.5-15T458 54q0-36-18.5-52T395-14q-25 0-43 16t-18 52zm261 0q0 37 18 52t43 15q26 0 44.5-15T719 54q0-36-18.5-52T656-14q-25 0-43 16t-18 52z"/><glyph glyph-name="perthousand" unicode="‰" horiz-adv-x="1177" d="M195 724q74 0 112-58.5T345 501t-36.5-165.5T195 276q-71 0-108.5 59.5T49 501t35 164.5T195 724zm457-10L256 0h-77l396 714h77zm-457-52q-38 0-55.5-40.5T122 501t17.5-121 55.5-41q77 0 77 162 0 161-77 161zm437-224q73 0 111.5-58.5T782 215 745.5 49.5 632-10q-71 0-108.5 59.5T486 215t35 164.5T632 438zm346 0q73 0 111.5-58.5T1128 215t-36.5-165.5T978-10q-71 0-108.5 59.5T832 215t35 164.5T978 438zm-346-63q-38 0-55.5-40T559 215q0-81 17.5-121.5T632 53q77 0 77 162 0 160-77 160zm346 0q-38 0-55.5-40T905 215q0-81 17.5-121.5T978 53q77 0 77 162 0 160-77 160z"/><glyph glyph-name="minute" unicode="′" horiz-adv-x="232" d="M168 714h90L97 456H39z"/><glyph glyph-name="second" unicode="″" horiz-adv-x="408" d="M344 714h90L273 456h-58zm-176 0h90L97 456H39z"/><glyph glyph-name="guilsinglleft" unicode="‹" horiz-adv-x="310" d="m40 270 168 201 63-36-140-171L271 93l-63-37L40 257v13z"/><glyph glyph-name="guilsinglright" unicode="›" horiz-adv-x="310" d="m101 471 169-201v-13L101 56 39 93l140 171L39 435z"/><glyph glyph-name="exclamdbl" unicode="‼" horiz-adv-x="499" d="M163 201h-57L81 714h107zM72 54q0 37 18 52t44 15q25 0 43.5-15T196 54q0-36-18.5-52T134-14q-26 0-44 16T72 54zm321 147h-57l-25 513h107zM302 54q0 37 18 52t44 15q25 0 43.5-15T426 54q0-36-18.5-52T364-14q-26 0-44 16t-18 52z"/><glyph glyph-name="fraction" unicode="⁄" horiz-adv-x="130" d="M320 714-116 0h-75l436 714h75z"/><glyph glyph-name="uni207F" unicode="ⁿ" horiz-adv-x="402" d="M223 615q62 0 94-28t32-91V287h-56v206q0 77-78 77-59 0-81-30t-22-86V287H55v322h46l9-44h3q17 25 47 37.5t63 12.5z"/><glyph glyph-name="franc" unicode="₣" horiz-adv-x="572" d="M130 0v130H45v65h85v519h387v-79H217V384h281v-79H217V195h151v-65H217V0h-87z"/><glyph glyph-name="lira" unicode="₤" horiz-adv-x="572" d="M336 723q56 0 99.5-11t77.5-28l-31-69q-31 14-67.5 24T337 649q-53 0-84.5-29T221 525v-88h202v-65H221v-78h202v-66H220q0-65-19-98.5T152 80h384V0H33v74q47 10 73.5 47T133 228H36v66h97v78H36v65h97v66q0 103 47.5 161.5T336 723z"/><glyph glyph-name="peseta" unicode="₧" horiz-adv-x="776" d="M210 714q133 0 192-55t59-155q0-60-24.5-111.5t-82.5-83T194 278h-31V0H76v714h134zm-6-77h-41V355h26q92 0 137.5 33.5T372 500q0 69-41 103t-127 34zm414-120V413h110v-67H618V138q0-37 13-57t44-20q15 0 35.5 3t30.5 7V6q-12-6-33.5-11T654-10q-55 0-87 33.5T535 127v219h-77v40l78 36 31 95h51z"/><glyph glyph-name="Euro" unicode="€" horiz-adv-x="572" d="M380 723q50 0 94-11t85-35l-37-72q-28 15-65.5 28T380 646q-152 0-189-191h244v-65H184q-1-10-1-19v-38.5l1-21.5h221v-65H192q17-85 65.5-131.5T388 68q39 0 78.5 9.5T537 100V22Q506 9 468.5-.5T383-10q-121 0-189.5 69T103 246H23v65h72q-1 12-1 20v21q0 11 .5 21.5T95 390H23v65h79q19 123 89 195.5T380 723z"/><glyph glyph-name="uni2105" unicode="℅" horiz-adv-x="821" d="M236 383q-73 0-122 39.5T65 549q0 62 23.5 99t63.5 54 88 17q27 0 52-5t43-13l-17-52q-17 6-38.5 10.5T239 664q-105 0-105-114 0-113 103-113 26 0 50 5t43 12v-52q-19-9-44.5-14t-49.5-5zm404 331L244 0h-77l396 714h77zm116-551q0-81-42.5-124.5T600-5q-65 0-108.5 43.5T448 163q0 82 42.5 125T603 331q65 0 109-43t44-125zm-239 0q0-50 19.5-82T602 49q45 0 64.5 32t19.5 82q0 52-19.5 83T602 277q-46 0-65.5-31T517 163z"/><glyph glyph-name="uni2113" unicode="ℓ" horiz-adv-x="520" d="M311 58q35 0 61.5 22.5T403 161h51q-4-82-41.5-126.5T302-10q-41 0-76 16.5T169.5 61 148 164v113q-22-8-46-15t-48-13v59q26 7 49 14.5t45 14.5v239q0 41 14.5 74.5t46 53.5 83.5 20q58 0 92.5-38.5T419 577q0-65-24.5-118.5T327 365t-97-63V167q0-50 19.5-79.5T311 58zm41 516q0 92-60 92-38 0-50-25.5T230 574V366q122 64 122 208z"/><glyph glyph-name="uni2116" unicode="№" horiz-adv-x="1020" d="M95 0v714h101l325-588h4q-1 26-3 60t-3 68.5-1 59.5v400h79V0h-98L170 590h-4q2-26 3.5-61.5t3-70.5 1.5-62V0H95zm725 134q-64 0-106 44t-42 126 40.5 125.5T823 473q64 0 106.5-43T972 304q0-82-41-126t-111-44zm2 58q44 0 63 28.5t19 83.5q0 56-19 82.5T822 413q-43 0-63-26.5T739 304q0-55 19.5-83.5T822 192zM692 0v69h257V0H692z"/><glyph glyph-name="trademark" unicode="™" horiz-adv-x="773" d="M325 362v352h94l94-271 97 271h91V362h-64v204q0 8 1 31.5t2 35.5h-4L535 362h-53l-96 271h-4q1-16 2-36t1-26V362h-60zm-207 0v298H17v54h266v-54H181V362h-63z"/><glyph glyph-name="uni2126" unicode="Ω" horiz-adv-x="717" d="M25 0v79h158q-37 28-72 70.5T53.5 251 31 384q0 98 38 175t111 121.5T358 725q106 0 179-44t111-121 38-175q0-75-22-134t-56.5-101.5T535 79h157V0H424v72q62 44 99 90t53 99.5T592 381q0 76-25 136t-76.5 94.5T358 646q-80 0-131.5-34.5t-76-94.5T126 381q0-66 16-119.5t52.5-99T293 72V0H25z"/><glyph glyph-name="estimated" unicode="℮" horiz-adv-x="619" d="M309-17q-84 0-142 39T79.5 124 50 259t23 124 60.5 86 83.5 50 92 16q74 0 132.5-33.5T534 406t34-147H164V85q22-23 61-41.5T309 25q73 0 116 30t77 84l35-20q-23-37-52.5-68T413 1.5 309-17zm146 453q-19 20-57 39t-90 19q-49 0-85-17t-59-40V301h291v135z"/><glyph glyph-name="oneeighth" unicode="⅛" horiz-adv-x="830" d="m110 0 436 714h75L185 0h-75zm54 562q0 26 1.5 47t2.5 42q-10-9-22-19.5T121 612l-54-39-35 49 130 92h73V286h-71v276zM601-8q-73 0-112 32t-39 88q0 41 22.5 68t54.5 44q-31 20-47.5 41.5T463 325q0 36 19 61t50.5 37.5T601 436q55 0 95-26.5t40-81.5q0-37-21-61t-51-40q39-16 62.5-43.5T750 115q0-56-41.5-89.5T601-8zm1 262q29 11 47.5 27.5T668 326q0 26-18 40.5T600 381t-50-14.5-18-40.5 20-43 50-29zm-3-206q42 0 62 18t20 46q0 29-22.5 48T598 192l-13 5q-33-16-50-36t-17-49q0-28 20-46t61-18z"/><glyph glyph-name="threeeighths" unicode="⅜" horiz-adv-x="830" d="M148 278q-37 0-69 6.5T17 306v63q70-34 132-34 52 0 76 20.5t24 55.5q0 36-29 52.5T139 480H82v55h57q50 0 73.5 19.5T236 605q0 32-20.5 46.5T166 666q-31 0-57.5-10.5T55 628l-36 46q31 23 65.5 36t80.5 13q71 0 107-31t36-79q0-40-21.5-66T235 511v-3q39-7 62.5-32.5T321 409q0-58-42-94.5T148 278zM143 0l436 714h75L218 0h-75zm470-8q-73 0-112 32t-39 88q0 41 22.5 68t54.5 44q-31 20-47.5 41.5T475 325q0 36 19 61t50.5 37.5T613 436q55 0 95-26.5t40-81.5q0-37-21-61t-51-40q39-16 62.5-43.5T762 115q0-56-41.5-89.5T613-8zm1 262q29 11 47.5 27.5T680 326q0 26-18 40.5T612 381t-50-14.5-18-40.5 20-43 50-29zm-3-206q42 0 62 18t20 46q0 29-22.5 48T610 192l-13 5q-33-16-50-36t-17-49q0-28 20-46t61-18z"/><glyph glyph-name="fiveeighths" unicode="⅝" horiz-adv-x="830" d="m139 0 436 714h75L214 0h-75zm20 277q-32 0-67 6.5T35 303v67q27-16 61.5-25.5T157 335q45 0 71.5 20t26.5 63q0 38-26.5 59T154 498q-26 0-44.5-4T76 486l-31 20 16 208h243v-55H119l-9-109q12 2 26.5 4t31.5 2q67 0 112-34t45-98q0-70-42-108.5T159 277zM612-8q-73 0-112 32t-39 88q0 41 22.5 68t54.5 44q-31 20-47.5 41.5T474 325q0 36 19 61t50.5 37.5T612 436q55 0 95-26.5t40-81.5q0-37-21-61t-51-40q39-16 62.5-43.5T761 115q0-56-41.5-89.5T612-8zm1 262q29 11 47.5 27.5T679 326q0 26-18 40.5T611 381t-50-14.5-18-40.5 20-43 50-29zm-3-206q42 0 62 18t20 46q0 29-22.5 48T609 192l-13 5q-33-16-50-36t-17-49q0-28 20-46t61-18z"/><glyph glyph-name="seveneighths" unicode="⅞" horiz-adv-x="830" d="m97 0 436 714h75L172 0H97zm2 286 170 368H48v60h295v-49L173 286H99zM609-8q-73 0-112 32t-39 88q0 41 22.5 68t54.5 44q-31 20-47.5 41.5T471 325q0 36 19 61t50.5 37.5T609 436q55 0 95-26.5t40-81.5q0-37-21-61t-51-40q39-16 62.5-43.5T758 115q0-56-41.5-89.5T609-8zm1 262q29 11 47.5 27.5T676 326q0 26-18 40.5T608 381t-50-14.5-18-40.5 20-43 50-29zm-3-206q42 0 62 18t20 46q0 29-22.5 48T606 192l-13 5q-33-16-50-36t-17-49q0-28 20-46t61-18z"/><glyph glyph-name="uni0326" unicode="̦" d="M64-70q-4-18-16.5-45.5t-29-55.5-34.5-50h-48v12q8 17 16.5 43.5t15.5 55 9 49.5h87v-9z"/><glyph glyph-name="uni2074" unicode="⁴" horiz-adv-x="350" d="M341 512h-61v-96h-75v96H10v52l197 283h73V572h61v-60zM205 665q0 21 1 49t2 52q-5-11-21-35.5T160 689L80 572h125v93z"/><glyph glyph-name="uni2075" unicode="⁵" horiz-adv-x="350" d="M299 844v-55H114l-9-109q12 2 26.5 4t31.5 2q67 0 112-34t45-98q0-70-42-108.5T154 407q-32 0-67 6.5T30 433v67q27-16 61.5-25.5T152 465q45 0 71.5 20t26.5 63q0 38-26.5 59T149 628q-26 0-44.5-4T71 616l-31 20 16 208h243z"/><glyph glyph-name="uni2077" unicode="⁷" horiz-adv-x="350" d="m79 416 170 368H28v60h295v-49L153 416H79z"/><glyph glyph-name="uni2078" unicode="⁸" horiz-adv-x="350" d="M176 852q55 0 95-26.5t40-81.5q0-37-21-61t-51-40q39-16 62.5-43.5T325 531q0-56-41.5-89.5T176 408q-73 0-112 32t-39 88q0 41 22.5 68t54.5 44q-31 20-47.5 41.5T38 741q0 36 19 60.5t50.5 37.5 68.5 13zm-1-55q-32 0-50-14.5T107 742t20-43 50-29q29 11 47.5 27.5T243 742q0 26-18 40.5T175 797zm-15-184q-33-16-50-36t-17-49q0-28 20-46t61-18q42 0 62 18t20 46q0 29-22.5 48T173 608z"/><glyph glyph-name="uni2000" horiz-adv-x="500"/><glyph glyph-name="uni2001" horiz-adv-x="1000"/><glyph glyph-name="uni2002" horiz-adv-x="500"/><glyph glyph-name="uni2003" horiz-adv-x="1000"/><glyph glyph-name="uni2004" horiz-adv-x="333"/><glyph glyph-name="uni2005" horiz-adv-x="250"/><glyph glyph-name="uni2006" horiz-adv-x="167"/><glyph glyph-name="uni2007" horiz-adv-x="572"/><glyph glyph-name="uni2008" horiz-adv-x="268"/><glyph glyph-name="uni2009" horiz-adv-x="166"/><glyph glyph-name="uni200A" horiz-adv-x="100"/><glyph glyph-name="uni200B" unicode="​"/><glyph glyph-name="uniFEFF"/><glyph glyph-name="uniFFFC" unicode="￼" horiz-adv-x="1000" d="M41 593v148h148v-54H95v-94H41zm780 94v54h148V593h-53v94h-95zm-573 0v54h132v-54H248zm191 0v54h133v-54H439zm191 0v54h133v-54H630zm339-285h-53v132h53V402zm-874 0H41v132h54V402zm327-95q0-66-31-106.5T294 160t-97 40.5T166 307q0 67 31 107t97 40 97-40 31-107zm125 143q53 0 80.5-16t27.5-57q0-24-11.5-40T611 317v-4q22-4 37-18t15-48q0-39-26.5-61T564 164H463v286h84zm181-289q-24 0-39 5v50q8-1 15.5-2.5T722 212q18 0 30 8.5t12 33.5v196h61V256q0-49-27-72t-70-23zM228 307q0-45 16-70.5t50-25.5q35 0 50.5 25.5T360 307t-15.5 70.5T294 403q-34 0-50-25.5T228 307zm327 30q23 0 31.5 8t8.5 24q0 31-43 31h-29v-63h32zM95 210H41v133h54V210zm874 0h-53v133h53V210zm-446 79v-75h36q24 0 33 10.5t9 28.5q0 16-9 26t-35 10h-34zM969 19h-53v132h53V19zM95 19H41v132h54V19zM41-187v148h54v-95h94v-53H41zm780 0v53h95v95h53v-148H821zm-191 0v53h133v-53H630zm-382 0v53h132v-53H248zm191 0v53h133v-53H439z"/><glyph glyph-name="uniFFFD" unicode="�" horiz-adv-x="1000" d="m499 760 459-458-459-458L41 302zm32-558q0 25 10 40t43 40q43 35 64.5 65.5T670 427q0 67-46 104t-126 37q-42 0-86-14t-78-34l40-87q33 17 64 28t58 11q31 0 46-14t15-37q0-28-13-45.5T498 332q-37-30-53.5-57.5T428 208v-29h103v23zM415 45q0-35 20-50.5T484-21q27 0 47.5 15.5T552 45q0 37-20.5 52T484 112q-29 0-49-15t-20-52z"/><glyph glyph-name="uni01F0" unicode="ǰ" horiz-adv-x="258" d="M22-240q-25 0-44 3.5t-33 8.5v71q15-4 31-7t35-3q32 0 53 17.5T85-83v619h88V-80q0-75-36-117.5T22-240zm61 846q-13 23-35 49.5T2 708t-42 45v13h60q26-17 54-41t53-51q27 27 55 51t54 41h62v-13q-19-19-43.5-45t-47-52.5T173 606H83z"/><glyph glyph-name="uni02BC" unicode="ʼ" horiz-adv-x="175" d="M163 703q-13-52-37.5-116.5T77 469H12q10 38 19.5 81.5t17.5 86T62 714h94z"/><glyph glyph-name="uni1E3E" unicode="Ḿ" horiz-adv-x="907" d="M412 0 177 626h-4q3-31 5-83.5t2-109.5V0H97v714h133l220-585h4l224 585h132V0h-89v439q0 52 2.5 103t4.5 83h-4L486 0h-74zm183 934q-12-18-37-46.5t-53.5-57T452 784h-58v12q15 19 32.5 45t34.5 53.5 28 49.5h106v-10z"/><glyph glyph-name="uni1E3F" unicode="ḿ" horiz-adv-x="935" d="M673 546q91 0 136-46.5T854 349V0h-87v345q0 127-109 127-78 0-111.5-45T513 296V0h-87v345q0 127-110 127-81 0-112-50t-31-144V0H85v536h71l13-73h5q25 42 67.5 62.5T332 546q126 0 164-90h5q27 46 73.5 68t98.5 22zm-53 210q-12-18-37-46.5t-53.5-57T477 606h-58v12q15 19 32.5 45t34.5 53.5 28 49.5h106v-10z"/><glyph glyph-name="uni1E00" unicode="Ḁ" horiz-adv-x="639" d="m545 0-86 221H176L91 0H0l279 717h81L638 0h-93zM352 517q-3 8-10 29t-13.5 43.5T318 624q-7-31-16-60.5T287 517l-81-216h226zm-33-790q-49 0-79 28t-30 78 30 78 79 28q47 0 79.5-28t32.5-77q0-51-32-79t-80-28zm0 50q25 0 40.5 15t15.5 41q0 27-16 41.5T319-111q-25 0-40.5-14.5T263-167q0-26 14-41t42-15z"/><glyph glyph-name="uni1E01" unicode="ḁ" horiz-adv-x="561" d="M288 545q98 0 145-43t47-137V0h-64l-17 76h-4q-35-44-73.5-65T215-10q-73 0-121 38.5T46 149q0 80 63 123.5T303 320l91 3v32q0 67-29 93t-82 26q-42 0-80-12.5T132 433l-27 66q35 19 83 32.5T288 545zm26-286q-100-4-138.5-32T137 148q0-45 27.5-66T235 61q68 0 113 37.5T393 214v48zm-50-532q-49 0-79 28t-30 78 30 78 79 28q47 0 79.5-28t32.5-77q0-51-32-79t-80-28zm0 50q25 0 40.5 15t15.5 41q0 27-16 41.5T264-111q-25 0-40.5-14.5T208-167q0-26 14-41t42-15z"/><glyph glyph-name="uni02F3" unicode="˳" horiz-adv-x="333" d="M165-273q-49 0-79 28t-30 78 30 78 79 28q47 0 79.5-28t32.5-77q0-51-32-79t-80-28zm0 50q25 0 40.5 15t15.5 41q0 27-16 41.5T165-111q-25 0-40.5-14.5T109-167q0-26 14-41t42-15z"/><glyph glyph-name="Ohorn" unicode="Ơ" horiz-adv-x="784" d="M719 358q0-111-37-193.5T572 36 391-10q-112 0-185 46T97 165 61 359q0 110 36 192t109.5 128T392 725q82 0 144-27.5T639 621q42 11 53 49t11 90h95l7-11q-11-59-39.5-109T674 567q45-85 45-209zm-563 0q0-135 56.5-212.5T391 68t177.5 77.5T624 358q0 134-55 211t-177 77q-123 0-179.5-77T156 358z"/><glyph glyph-name="ohorn" unicode="ơ" horiz-adv-x="616" d="M551 269q0-133-67.5-206T301-10q-71 0-126.5 32.5t-87.5 95T55 269q0 133 67 205t182 72q53 0 97.5-18t76.5-51q45 14 56 52.5t11 88.5h94l7-11q-13-69-42-115.5T517 424q16-31 25-70t9-85zm-405 0q0-101 37.5-153.5T303 63q83 0 120 52.5T460 269t-37.5 152T302 472q-82 0-119-51t-37-152z"/><glyph glyph-name="Uhorn" unicode="Ư" horiz-adv-x="780" d="M640 617q49 8 63.5 46t14.5 97h93l7-11q-8-47-26.5-87.5t-54.5-68-97-38.5V252q0-74-28-133.5t-87.5-94T369-10q-136 0-207.5 72.5T90 254v460h90V250q0-86 47.5-134T371 68q65 0 104.5 23.5t57.5 65 18 94.5v463h89v-97z"/><glyph glyph-name="uhorn" unicode="ư" horiz-adv-x="674" d="M708 608q-8-47-26-89t-53.5-70-95.5-35V0h-72l-13 71h-4q-26-42-71.5-61.5T276-10q-98 0-147.5 46.5T79 185v350h89V191q0-128 119-128 89 0 123.5 50T445 257v278h88v-59q48 8 61.5 46.5T608 619h93z"/><glyph glyph-name="uni0400" unicode="Ѐ" horiz-adv-x="556" d="M496 0H97v714h399v-79H187V412h291v-78H187V79h309V0zM279 944q11-22 27.5-49.5t35-53.5 33.5-45v-12h-59q-23 18-52 46.5t-53.5 57T174 934v10h105z"/><glyph glyph-name="uni040D" unicode="Ѝ" horiz-adv-x="768" d="M98 714h84V322q0-33-1-74t-2.5-75-3.5-50h4l393 591h100V0h-84v388q0 37 1.5 79t3.5 77 3 50h-4L198 0H98v714zm271 230q11-22 27.5-49.5t35-53.5 33.5-45v-12h-59q-23 18-52 46.5t-53.5 57T264 934v10h105z"/><glyph glyph-name="uni0450" unicode="ѐ" horiz-adv-x="564" d="M292 546q69 0 118.5-30t76-84.5T513 304v-53H146q2-91 46.5-138.5T317 65q51 0 90.5 9.5T489 102V25Q448 7 408-1.5T313-10q-76 0-134.5 31t-91 92.5T55 264q0 88 29.5 151t83 97T292 546zm-1-72q-63 0-99.5-40.5T148 321h273q-1 68-32 110.5T291 474zm-32 292q11-22 27.5-49.5t35-53.5 33.5-45v-12h-59q-23 18-52 46.5t-53.5 57T154 756v10h105z"/><glyph glyph-name="uni045D" unicode="ѝ" horiz-adv-x="643" d="M168 209q0-12-1-36t-2.5-48-2.5-38l287 449h108V0h-82v316q0 16 .5 42t1.5 51.5 2 38.5L194 0H85v536h83V209zm136 557q11-22 27.5-49.5t35-53.5 33.5-45v-12h-59q-23 18-52 46.5t-53.5 57T199 756v10h105z"/><glyph glyph-name="uni0460" unicode="Ѡ" horiz-adv-x="919" d="M238-5q-55 95-101.5 213t-76 247.5T25 714h93q5-91 21-179.5t39-169 48.5-149T276 97h5q7 29 18.5 67.5T326 243l97 263q-9 52-15 106t-8 102h93q3-84 19-170.5T552 375t52.5-154.5T661 92h4q60 119 96.5 275.5T800 714h94q-4-205-52.5-389T701-5h-80q-32 52-63 118.5t-57 135T458 376L323-5h-85z"/><glyph glyph-name="uni0461" unicode="ѡ" horiz-adv-x="789" d="M765 537q-7-146-52-278T582 0h-82q-30 52-60 117.5T391 242L273 0h-80q-42 67-81 152.5t-64.5 183T18 537h87q6-95 26-181t48-156.5T234 78h3q9 26 23 52.5t27 53.5l74 149q-12 50-18.5 102.5T334 537h88q3-81 19.5-162T484 218t55-142h4q54 86 91 204.5T678 537h87z"/><glyph glyph-name="uni0462" unicode="Ѣ" horiz-adv-x="675" d="M162 0v536H9v76h153v102h91V612h202v-76H253V412h94q106 0 166-27t85-73 25-103q0-95-61-152T362 0H162zm190 76q94 0 136 33t42 100q0 68-46 96t-147 28h-84V76h99z"/><glyph glyph-name="uni0463" unicode="ѣ" horiz-adv-x="634" d="M213 644V536h169v-73H213V315h151q217 0 217-151 0-75-51.5-119.5T362 0H126v463H9v73h117v108h87zm143-402H213V71h145q59 0 97.5 20t38.5 68-35.5 65.5T356 242z"/><glyph glyph-name="uni0464" unicode="Ѥ" horiz-adv-x="922" d="M681-10q-109 0-181 42.5t-108.5 120T351 333H187V0H97v714h90V412h167q10 94 51.5 163.5t115 109T698 724q56 0 106-13t89-33l-36-76q-34 17-73.5 30T695 645q-107 0-170-60t-77-173h338v-78H446q5-126 67-195.5T694 69q47 0 89 8t83 20V19Q826 4 783-3t-102-7z"/><glyph glyph-name="uni0465" unicode="ѥ" horiz-adv-x="742" d="M562-10q-70 0-125.5 26T348 97.5 310 239H173V0H85v536h88V313h138q9 82 43 133.5t88 75.5 121 24q41 0 79-8.5t65-20.5l-26-72q-26 11-57.5 18t-60.5 7q-76 0-115-38.5T401 313h256v-74H400q9-174 162-174 44 0 76.5 9T700 95V19Q672 5 640.5-2.5T562-10z"/><glyph glyph-name="uni0466" unicode="Ѧ" horiz-adv-x="683" d="M385 714 683 0h-95L452 330h-70V0h-82v330h-70L93 0H0l298 714h87zm-44-88q-4-15-11.5-38.5t-16.5-48-17-44.5l-35-88h161l-39 97q-11 29-22 58.5T341 626z"/><glyph glyph-name="uni0467" unicode="ѧ" horiz-adv-x="572" d="M339 536 567 0h-90l-99 235h-53V0h-79v235h-55L94 0H4l227 536h108zm-56-59q-14-46-35-96l-29-74h132l-29 73q-24 61-35 97h-4z"/><glyph glyph-name="uni0468" unicode="Ѩ" horiz-adv-x="929" d="M632 714 929 0h-98L696 333h-68V0h-81v333h-69L342 0h-96l139 333H187V0H97v714h90V412h231l126 302h88zm-45-88q-7-30-18-60t-25-65l-35-90h155l-36 96q-12 31-22.5 60T587 626z"/><glyph glyph-name="uni0469" unicode="ѩ" horiz-adv-x="780" d="M547 536 774 0h-89L585 239h-53V0h-79v239h-52L301 0h-90l101 239H171V0H85v536h86V312h173l95 224h108zm-56-59q-6-19-16-47.5T454 374l-27-63h130l-28 71q-11 29-20 54t-14 41h-4z"/><glyph glyph-name="uni046A" unicode="Ѫ" horiz-adv-x="729" d="M652 714v-66L448 408q66-4 104-27t60-63.5 39-96.5L717 0h-92l-66 219q-14 47-29.5 73t-43 36.5T409 339V0h-90v339q-50 0-76.5-10.5T201 292t-29-73L107 0H11l66 221q17 56 38.5 96t59 63.5T277 408L77 648v66h575zm-109-81H185l179-215z"/><glyph glyph-name="uni046B" unicode="ѫ" horiz-adv-x="640" d="M568 536v-51L406 312q54-5 84-24.5t47-51 32-72.5L632 0h-88l-63 162q-13 34-26.5 53t-35 27.5T360 251V0h-81v251q-40 0-61.5-8t-34-27.5T157 162L93 0H6l63 164q16 40 32.5 71.5T148 287t84 25L70 485v51h498zm-111-72H181l138-151z"/><glyph glyph-name="uni046C" unicode="Ѭ" horiz-adv-x="984" d="M913 714v-66L710 407q66-4 104-27t59.5-63 38.5-96L979 0h-89l-67 219q-15 50-32 75.5T747 329t-76 9V0h-91v338q-49 0-76.5-11t-43-36.5T431 219L366 0h-94l70 225q25 81 55 108H187V0H97v714h90V412h347L338 648v66h575zm-109-81H447l179-216z"/><glyph glyph-name="uni046D" unicode="ѭ" horiz-adv-x="849" d="M779 536v-51L617 311q54-5 84-24.5t47-50.5 32-72L843 0h-88l-63 162q-13 33-26.5 52.5t-35 27.5-59.5 8V0h-81v250q-38 0-60-8t-35.5-27-26.5-53L304 0h-87l63 164q9 24 19 44t21 32H171V0H85v536h86V313h271L281 485v51h498zm-111-72H392l138-148z"/><glyph glyph-name="uni046E" unicode="Ѯ" horiz-adv-x="587" d="M420 853q17 0 29.5-2.5T470 846v-57q-6 2-15.5 4t-18.5 2q-23 0-49.5-21T337 720q88-12 134-59t46-114q0-73-48.5-116T342 376v-4q90-12 140-55t50-114q0-94-65-149.5T253-7q-55-2-83-9.5t-38-20T122-66q0-22 17.5-36t66.5-14q44 0 75 1.5t59.5 3T402-110q44 0 69-5.5t39-13.5v-85q-10 8-36.5 16.5T397-189q-32 0-58-1t-56-2.5-75-1.5q-69 0-107.5 17.5t-54.5 47T30-65q0 60 50.5 94.5T251 68q98 3 142.5 36T438 204q0 69-60 98.5T218 332H116v75h98q105 0 157.5 35.5T424 538q0 54-40 83t-104 29q-61 0-108-17t-89-44l-44 61q37 25 80 43.5t96 25.5q-25 30-56.5 62.5T106 836v13h64q24-16 54-42.5t55-52.5q19 23 40 46t46.5 38 54.5 15z"/><glyph glyph-name="uni046F" unicode="ѯ" horiz-adv-x="490" d="M377 664q16 0 29-2.5t20-4.5v-57q-13 5-33 5-22 0-47-19t-47-48q59-13 93.5-47t34.5-86q0-49-28-77.5T324 286v-4q32-9 59.5-24.5T428 216t17-66q0-67-55.5-111T212-7q-52-1-77.5-8t-34-18.5T92-60q0-22 17-33.5t63-11.5q53 0 99.5 2.5T355-100q33 0 52-5.5t28-14.5v-74q-11 11-33 16t-45 5q-34 0-86-2.5T163-178q-59 0-92 17.5T25-116 12-61Q12-28 29-.5t58 45T198 63q72 1 116 21.5t44 69.5q0 47-38.5 68T203 243h-70v72h58q69 0 110.5 18.5T343 397q0 38-31.5 57T221 473q-39 0-75-8.5T70 439l-31 70q31 13 60 21.5t62 12.5q-21 26-47.5 55.5T67 647v13h64q24-17 50-41t54-51q19 23 40 45t46.5 36.5T377 664z"/><glyph glyph-name="uni0470" unicode="Ѱ" horiz-adv-x="804" d="M366 0v187q-136 7-206 80.5T90 489v225h92V488q0-86 23-135t64.5-69 96.5-20v450h88V264q55 0 96.5 20t64.5 69 23 135v226h92V489q0-148-69.5-221.5T454 187V0h-88z"/><glyph glyph-name="uni0471" unicode="ѱ" horiz-adv-x="761" d="M330-240V-9q-76 3-132.5 28.5T110 103 79 260v276h87V257q0-75 21.5-116t59-57T330 64v696h86V65q85 8 131.5 58.5T594 280q0 69-8 127.5T562 536h87q16-67 23.5-127t7.5-126q0-103-34.5-165.5t-94-92T416-9v-231h-86z"/><glyph glyph-name="uni0472" unicode="Ѳ" horiz-adv-x="782" d="M720 358q0-111-37.5-193.5T572 36 391-10q-111 0-184.5 46T97 165 61 359q0 110 36 192t109.5 128T392 725q107 0 180-45.5t110.5-128T720 358zM392 646q-112 0-169-64.5T157 403h466q-9 114-64.5 178.5T392 646zm-1-578q114 0 170.5 68T624 325H157q6-121 62.5-189T391 68z"/><glyph glyph-name="uni0473" unicode="ѳ" horiz-adv-x="605" d="M551 269q0-133-67.5-206T301-10q-71 0-126.5 32.5t-87.5 95T55 269q0 133 67 205t182 72q73 0 128.5-32.5t87-94T551 269zM302 472q-74 0-111-40.5T147 312h312q-7 79-45.5 119.5T302 472zm1-409q77 0 114 45t42 131H146q5-86 43-131t114-45z"/><glyph glyph-name="uni0474" unicode="Ѵ" horiz-adv-x="635" d="M615 646q-34 0-52.5-32T522 512L360 0H257L0 714h94l163-457q17-49 29-88t21-77q8 39 20.5 83t27.5 93l80 253q23 72 42.5 115.5t48 63.5 76.5 20q18 0 34.5-3.5T665 710v-74q-12 5-24 7.5t-26 2.5z"/><glyph glyph-name="uni0475" unicode="ѵ" horiz-adv-x="516" d="M496 541q12 0 22-2t19-4v-68q-13 5-34 5-22 0-36-20t-28-62L316 0H199L0 536h92l127-355q15-42 25-73.5T256 62h4q4 21 12 57t19 70l70 218q17 52 33.5 81t40 41 61.5 12z"/><glyph glyph-name="uni0476" unicode="Ѷ" horiz-adv-x="635" d="M615 646q-34 0-52.5-32T522 512L360 0H257L0 714h94l163-457q17-49 29-88t21-77q8 39 20.5 83t27.5 93l80 253q23 72 42.5 115.5t48 63.5 76.5 20q18 0 34.5-3.5T665 710v-74q-12 5-24 7.5t-26 2.5zM361 944q16-34 40.5-76.5T447 796v-12h-50q-22 18-49 46.5T298 888t-34 46v10h97zm-176 0q16-34 40.5-76.5T271 796v-12h-50q-22 18-49 46.5T122 888t-34 46v10h97z"/><glyph glyph-name="uni0477" unicode="ѷ" horiz-adv-x="516" d="M496 541q12 0 22-2t19-4v-68q-13 5-34 5-22 0-36-20t-28-62L316 0H199L0 536h92l127-355q15-42 25-73.5T256 62h4q4 21 12 57t19 70l70 218q17 52 33.5 81t40 41 61.5 12zM308 766q16-34 40.5-76.5T394 618v-12h-50q-22 18-49 46.5T245 710t-34 46v10h97zm-176 0q16-34 40.5-76.5T218 618v-12h-50q-22 18-49 46.5T69 710t-34 46v10h97z"/><glyph glyph-name="uni0478" unicode="Ѹ" horiz-adv-x="1220" d="M669 358q0-111-34.5-193.5T532.5 36 365-10q-103 0-170.5 46T94 165 61 359q0 110 33 192t100.5 128T366 725q100 0 167-45.5t101.5-128T669 358zm-514 0q0-135 50.5-212.5T365 68q110 0 159.5 77.5T574 358t-49 211.5T366 646q-109 0-160-76.5T155 358zm553 178h93l119-307q15-39 26.5-75T965 84h4q5 25 18.5 65.5T1015 230l107 306h93L986-74q-28-76-73-121t-122-45q-25 0-43 2.5t-31 5.5v70q11-2 26.5-4t32.5-2q46 0 74.5 26T896-73l28 71z"/><glyph glyph-name="uni0479" unicode="ѹ" horiz-adv-x="1095" d="M551 269q0-133-67.5-206T301-10q-71 0-126.5 32.5t-87.5 95T55 269q0 133 67 205t182 72q73 0 128.5-32.5t87-94T551 269zm-405 0q0-95 37.5-150.5T303 63q81 0 119 55.5T460 269t-38 149-120 54-119-54-37-149zm440 267h94l116-305q15-40 27-76.5T841 85h4q6 25 19 65.5t27 81.5l109 304h95L864-74q-28-76-72.5-121T669-240q-24 0-42 2.5t-31 5.5v70q11-2 26.5-4t32.5-2q46 0 74.5 26T774-73l28 71z"/><glyph glyph-name="Omegaroundcy" unicode="Ѻ" horiz-adv-x="821" d="M411-59q-28 0-46.5 12.5T341-5Q250 9 187.5 58T93 184 61 359q0 146 72 242.5T341 719q5 29 23.5 41t46.5 12q27 0 45-12t25-41q88-14 150-62t95.5-124.5T760 358t-33-174.5-95-125T482-5q-7-29-25.5-41.5T411-59zM341 75q8 23 26 32.5t44 9.5q24 0 42-9.5T480 75q92 20 138.5 94T665 358t-46.5 188.5T480 639q-8-23-26-33t-43-10q-26 0-44 10t-26 32q-91-19-138.5-92T155 358t47.5-189T341 75z"/><glyph glyph-name="omegaroundcy" unicode="ѻ" horiz-adv-x="659" d="M604 269q0-116-56-186.5T393-5q-8-48-63-48-28 0-43 11T267-4q-94 17-153 86.5T55 269q0 115 56.5 185T268 541q4 26 19 36.5t43 10.5q26 0 42.5-10.5T393 540q95-17 153-87t58-184zm-91 0q0 81-29.5 131T392 466q-7-20-21.5-28.5T330 429t-41 8.5-21 29.5q-64-15-93-65t-29-133 29.5-134T269 69q6 20 21 28.5t40 8.5q50 0 62-36 63 15 92 66t29 133z"/><glyph glyph-name="Omegatitlocy" unicode="Ѽ" horiz-adv-x="1026" d="M336 926q0 53 30.5 80t83.5 27q38 0 74.5-14.5t77.5-29 92-14.5h6v-62h-8q-56 0-100 14t-78 27.5-62 13.5q-52 0-52-57h-64v15zm105-138q59 19 59 46 0 13-12 17.5t-24.5 11T451 887q0 19 13 28.5t35 9.5q28 0 44.5-17t16.5-46q0-39-30-67.5T441 752v36zM339-10q-93 0-155 47.5t-92.5 132T61 365q0 109 31 189.5t89 125T319 724q38 0 75.5-12t67.5-33l-34-67q-22 17-48 27t-55 10q-82 0-127-76.5T153 364q0-135 51-214.5T356 70q31 0 58.5 12t52.5 31v215h90V113q26-20 54-31.5T671 70q101 0 152 79.5T874 364q0 132-45.5 208.5T701 649q-29 0-54.5-10T598 612l-34 67q30 21 67.5 33t75.5 12q80 0 138-44.5t89-125T965 365q0-111-30.5-195.5t-92-132T688-10q-104 0-175 62-71-62-174-62z"/><glyph glyph-name="omegatitlocy" unicode="ѽ" horiz-adv-x="904" d="M390 881q38 0 74.5-14.5T542 838t91-14h7v-63h-8q-57 0-101 14t-77.5 28-61.5 14q-52 0-52-57h-64v15q0 53 30 79.5t84 26.5zm49-107q28 0 44.5-17t16.5-46q0-40-30.5-68T381 601v35q58 20 58 48 0 13-12 17.5T403 712t-12 24q0 38 48 38zM288-10q-107 0-168.5 71.5T58 265q0 136 57 209t157 73q34 0 62-8.5t53-22.5l-30-67q-24 11-44.5 17.5T272 473q-61 0-92-53t-31-154q0-94 39-148t106-54q34 0 60 12.5t54 40.5v157h88V118q28-29 55-41.5T612 64q68 0 105.5 54T755 266q0 101-31.5 154T631 473q-19 0-40-6.5T547 449l-31 67q25 14 53.5 22.5T632 547q100 0 157-73t57-209q0-132-61.5-203.5T616-10q-56 0-96.5 20T452 64q-28-34-68-54t-96-20z"/><glyph glyph-name="Otcy" unicode="Ѿ" horiz-adv-x="919" d="M667 883v-16l-40-84h-16l-24 50h-91l-24-50h-16l-24 50h-90l-24-50h-16l-39 84v16h404zM238-5q-55 95-101.5 213t-76 247.5T25 714h93q5-91 21-179.5t39-169 48.5-149T276 97h5q7 29 18.5 67.5T326 243l97 263q-9 52-15 106t-8 102h93q3-84 19-170.5T552 375t52.5-154.5T661 92h4q60 119 96.5 275.5T800 714h94q-4-205-52.5-389T701-5h-80q-32 52-63 118.5t-57 135T458 376L323-5h-85z"/><glyph glyph-name="otcy" unicode="ѿ" horiz-adv-x="789" d="M589 706v-16l-40-84h-16l-24 50h-91l-24-50h-16l-24 50h-90l-24-50h-16l-39 84v16h404zm176-169q-7-146-52-278T582 0h-82q-30 52-60 117.5T391 242L273 0h-80q-42 67-81 152.5t-64.5 183T18 537h87q6-95 26-181t48-156.5T234 78h3q9 26 23 52.5t27 53.5l74 149q-12 50-18.5 102.5T334 537h88q3-81 19.5-162T484 218t55-142h4q54 86 91 204.5T678 537h87z"/><glyph glyph-name="uni0480" unicode="Ҁ" horiz-adv-x="643" d="M412 724q56 0 108.5-11t93.5-31l-37-77q-34 16-75.5 27.5T410 644q-118 0-186-77t-68-211q0-131 59-208t192-77q25 0 47.5 2.5T496 83v-323h-90v230q-124 0-200 47.5T95 168 60 357q0 108 41.5 191T222 677.5 412 724z"/><glyph glyph-name="uni0481" unicode="ҁ" horiz-adv-x="492" d="M313 546q40 0 80-8.5t65-20.5l-26-73q-25 9-59 17t-63 8q-83 0-123.5-49T146 266t41-153 121-48q32 0 54 6t42 15v-326h-88v230q-127 0-194 66.5T55 265q0 100 33.5 162t92 90.5T313 546z"/><glyph glyph-name="uni0482" unicode="҂" horiz-adv-x="609" d="m447 628 59-34-90-155 141-81-34-57-139 81-100-172 140-82-33-57-140 81L162-2l-60 33 89 156-140 81 33 57 141-82 99 173-141 81 34 58 140-82z"/><glyph glyph-name="uni0488" unicode="҈" d="M-129 667q3 53 32.5 83.5T-7 781q58 0 89.5-32t35.5-82H71q-3 34-25.5 43T-7 719q-36 0-55-8.5T-85 667h-44zm340-167q2 53 32 83.5t90 30.5q58 0 89.5-31.5T458 500h-47q-4 34-26 43t-52 9q-36 0-55-8.5T255 500h-44zm-676 0q3 53 32.5 83.5T-343 614q58 0 89.5-31.5T-218 500h-47q-3 34-25.5 43t-52.5 9q-36 0-55-8.5t-23-43.5h-44zm-104-285q2 52 32 83t90 31q58 0 89.5-32t35.5-82h-47q-4 33-26 42t-52 9q-36 0-55-8t-23-43h-44zm891 0q3 52 32.5 83t90.5 31q57 0 89-32t35-82h-46q-4 33-26.5 42t-51.5 9q-36 0-55.5-8T367 215h-45zM-465-78q3 53 32.5 83.5T-343 36q58 0 89.5-32t35.5-82h-47q-3 33-25.5 42.5T-343-26q-36 0-55-8.5T-421-78h-44zm676 0q2 53 32 83.5T333 36q58 0 89.5-32T458-78h-47q-4 33-26 42.5T333-26q-36 0-55-8.5T255-78h-44zm-340-163q3 52 32.5 83T-7-127q58 0 89.5-32t35.5-82H71q-3 33-25.5 42T-7-190q-36 0-55-8t-23-43h-44z"/><glyph glyph-name="uni0489" unicode="҉" d="M65 820q-12-49-23.5-105.5T24 614h-82l-6 9q12 45 32 98t40 99h57zm-409-129q27-43 58.5-91t57.5-83l-58-57-9 1q-23 41-47 92t-42 97zm778-90q-43-27-91-58.5T260 485l-57 57 1 10q41 23 92 47t98 42zm-984-267q50-12 106.5-23.5T-344 293v-82l-9-6q-45 12-97.5 32t-99.5 40v57zm903 0q45-12 98-32t99-40v-57q-49 12-105.5 23.5T344 246v82zM294 53q23-40 47-91.5t42-98.5l-40-41q-27 44-58.5 92T227-4l57 58zm-554-23 57-58-1-9q-40-23-91.5-47t-98.5-42l-40 40q43 27 91 58.5t83 57.5zM65-83q-12-45-32-97.5T-7-280h-57q12 50 23.5 106.5T-23-74h82z"/><glyph glyph-name="uni048A" unicode="Ҋ" horiz-adv-x="785" d="M383 771q-98 0-138 37.5T200 923h81q5-54 28.5-72.5T385 832q45 0 72 19.5t32 71.5h83q-6-75-50-113.5T383 771zm210-959L670 0h-83v388q0 29 1.5 67t3.5 75.5 4 62.5h-4L197 0H97v714h84V321q0-33-1.5-71.5t-3-72.5-2.5-55h4l393 592h99V79h98l-72-267H593z"/><glyph glyph-name="uni048B" unicode="ҋ" horiz-adv-x="659" d="M329 606q-98 0-138 38t-45 114h81q5-54 28.5-72.5T331 667q45 0 72 19.5t32 71.5h83q-6-75-50-113.5T329 606zm167-791L557 0h-82v317q0 20 .5 45t1.5 48.5 2 38.5L193 0H85v536h83V224q0-32-2-69.5T162 87l287 449h108V74h92l-63-259h-90z"/><glyph glyph-name="uni048C" unicode="Ҍ" horiz-adv-x="615" d="M187 714v-90h164v-78H187V412h90q108 0 171-26.5t89.5-72.5T564 209q0-98-65-153.5T294 0H97v546H23v78h74v90h90zm98-381h-98V76h102q181 0 181 133 0 68-48 96t-137 28z"/><glyph glyph-name="uni048D" unicode="ҍ" horiz-adv-x="594" d="M173 760V641h148v-67H173V316h150q111 0 164.5-38.5T541 164 489 44.5 321 0H85v574H9v67h76v119h88zm142-518H173V71h144q60 0 98 20t38 68-35 65.5T315 242z"/><glyph glyph-name="uni048E" unicode="Ҏ" horiz-adv-x="613" d="M561 504q0-57-25-107t-82-81l57-75-51-43-71 93q-48-13-115-13h-87V0H97v714h196q139 0 203.5-55T561 504zM266 355q21 0 39 1t35 3l-50 66 55 42 65-83q28 17 43 45t15 71q0 137-186 137h-95V355h79z"/><glyph glyph-name="uni048F" unicode="ҏ" horiz-adv-x="615" d="M339-10q-62 0-102.5 23.5T173 68h-6q2-20 4-47t2-41v-220H85v776h72l13-73h4q24 35 63 59t103 24q99 0 159.5-69T560 269q0-84-23-142.5T473 34l55-75-52-41-63 84q-33-12-74-12zm-15 482q-82 0-115.5-46T173 286v-17q0-99 32.5-152.5T326 63q22 0 40 6l-58 75 55 41 61-79q23 26 34 67t11 97q0 101-35.5 151.5T324 472z"/><glyph glyph-name="uni0492" unicode="Ғ" horiz-adv-x="530" d="M507 714v-80H187V392h206v-78H187V0H97v314H23v78h74v322h410z"/><glyph glyph-name="uni0493" unicode="ғ" horiz-adv-x="434" d="M413 536v-74H172V301h168v-68H172V0H84v233H8v68h76v235h329z"/><glyph glyph-name="uni0494" unicode="Ҕ" horiz-adv-x="651" d="M277 314q-20 0-47.5-2.5T187 307V0H97v714h415v-80H187V384q19 3 48.5 6t56.5 3q161 0 242-86t81-234q0-109-34-181t-94-107-138-35q-46 0-77.5 6T211-226v80q31-12 62-18t65-6q90 0 136.5 61.5T521 73q0 119-64 180t-180 61z"/><glyph glyph-name="uni0495" unicode="ҕ" horiz-adv-x="533" d="M418 536v-74H173V305l34 4 35 2q127 0 194.5-67.5T504 29q0-97-29-157.5T397-217t-109-28q-38 0-66.5 7.5T168-216v78q23-13 52-21.5t63-8.5q63 0 96.5 48T413 30q0 105-42 154.5T240 234q-16 0-33-1.5t-34-5.5V0H85v536h333z"/><glyph glyph-name="uni0496" unicode="Җ" horiz-adv-x="904" d="M843 714 566 368 790 80h95v-268h-86V0h-50L470 362V0h-86v362L104 0H1l287 367L11 714h100l273-346v346h86V368l273 346h100z"/><glyph glyph-name="uni0497" unicode="җ" horiz-adv-x="796" d="M728 536 507 276 682 73h98v-258h-85V0h-48L415 272V0h-82v272L101 0H1l240 276L20 536h96l217-260v260h82V276l218 260h95z"/><glyph glyph-name="uni0498" unicode="Ҙ" horiz-adv-x="588" d="M279-116q0 25-15 51t-43 55q-51 2-97 11T38 29v82q47-22 102.5-34.5T245 64q96 0 145.5 36T440 202q0 68-58 99t-162 31H118v75h97q106 0 158.5 35.5T426 538q0 54-40 83t-104 29q-67 0-111.5-17T84 589l-43 61q42 31 103.5 52.5T283 724q116 0 176-50t60-127q0-73-46-115.5T350 377v-4q90-12 137-56t47-115q0-88-62.5-145.5T284-9q25-19 46-48t21-67q0-44-25.5-70T251-220q-31 0-58 8v56q17-5 43-5 18 0 30.5 11.5T279-116z"/><glyph glyph-name="uni0499" unicode="ҙ" horiz-adv-x="490" d="M239-116q0 25-15 51.5T180-9Q87-4 33 25v79q34-16 80.5-29T215 62q60 0 101.5 20.5T358 153q0 90-153 90h-72v72h58q69 0 110.5 18.5T343 397q0 38-31.5 57T221 473q-44 0-77.5-8.5T70 439l-31 70q84 37 187 37 92 0 146.5-36.5T427 405q0-49-27-77.5T326 286v-4q32-9 59-25t43.5-42 16.5-67q0-63-48.5-107T245-9q24-20 45-48.5t21-66.5q0-44-25.5-70T211-220q-31 0-58 8v56q17-5 43-5 18 0 30.5 11.5T239-116z"/><glyph glyph-name="uni049A" unicode="Қ" horiz-adv-x="670" d="M604 714 294 367 547 80h108v-268h-86V0h-59L187 362V0H97v714h90V368l315 346h102z"/><glyph glyph-name="uni049B" unicode="қ" horiz-adv-x="557" d="M458-186V0h-43L173 272V0H85v536h88V276l229 260h96L269 278 452 74h90v-260h-84z"/><glyph glyph-name="uni049C" unicode="Ҝ" horiz-adv-x="618" d="M309 140h-61v154l-61 68V0H97v714h90V368l61 67v165h61v-98l193 212h102L309 384v-34L618 0H510L309 225v-85z"/><glyph glyph-name="uni049D" unicode="ҝ" horiz-adv-x="529" d="M293 495v-83l109 124h96L293 305v-54L517 0H415L293 137V45h-64v164l-56 63V0H85v536h88V276l56 64v155h64z"/><glyph glyph-name="uni049E" unicode="Ҟ" horiz-adv-x="618" d="M13 550v79h84v85h90v-85h94v-79h-94V368l315 346h102L294 367 618 0H510L187 362V0H97v550H13z"/><glyph glyph-name="uni049F" unicode="ҟ" horiz-adv-x="534" d="M173 760v-90h182v-65H173V276l229 260h96L269 278 517 0H415L173 272V0H85v605H9v65h76v90h88z"/><glyph glyph-name="uni04A0" unicode="Ҡ" horiz-adv-x="693" d="M678 714 368 367 692 0H584L261 362V0h-90v634H7v80h254V368l315 346h102z"/><glyph glyph-name="uni04A1" unicode="ҡ" horiz-adv-x="623" d="M600 536 371 277 619 0H518L275 272V0h-86v464H18v72h257V276l230 260h95z"/><glyph glyph-name="uni04A2" unicode="Ң" horiz-adv-x="755" d="M643-188V0h-89v333H187V0H97v714h90V412h367v302h89V80h86v-268h-86z"/><glyph glyph-name="uni04A3" unicode="ң" horiz-adv-x="657" d="M544-185V0h-80v239H173V0H85v536h88V313h291v223h88V74h79v-259h-87z"/><glyph glyph-name="uni04A4" unicode="Ҥ" horiz-adv-x="815" d="M97 0v714h90V412h366v302h254v-80H643V0h-90v333H187V0H97z"/><glyph glyph-name="uni04A5" unicode="ҥ" horiz-adv-x="738" d="M85 0v536h88V313h291v223h259v-72H552V0h-88v239H173V0H85z"/><glyph glyph-name="uni04A6" unicode="Ҧ" horiz-adv-x="1056" d="M608 386q19 3 46.5 4.5T707 392q152 0 232.5-86T1020 71q0-107-33.5-178.5t-93-107T756-250q-47 0-78 6.5T617-226v80q31-11 62-17.5t65-6.5q89 0 135.5 62T926 72q0 120-58.5 180.5T701 313q-21 0-49.5-1.5T608 306V0h-89v633H187V0H97v714h511V386z"/><glyph glyph-name="uni04A7" unicode="ҧ" horiz-adv-x="863" d="M519 305q16 2 33 4t33 2q70 0 126.5-28t89.5-90 33-164q0-97-26.5-157.5t-72-88.5T634-245q-36 0-63 7.5T521-216v78q22-13 48-21.5t58-8.5q57 0 87 48t30 150q0 105-40 154.5T581 234q-14 0-31-2t-31-7V0h-88v462H173V0H85v536h434V305z"/><glyph glyph-name="uni04A8" unicode="Ҩ" horiz-adv-x="779" d="M716 331q0-65-17.5-119t-45-94T594 54q15-7 33-11t41-4q38 0 68 11v-79q-14-6-33.5-9T663-41q-46 0-85 13T504 8q-25-9-56.5-13.5T384-10q-104 0-176.5 45T98 161 61 349q0 176 76.5 276T375 725q32 0 61-5t47-12l-24-76q-12 5-37 9.5t-48 4.5q-116 0-167.5-78T155 353q0-145 64-215t170-70q23 0 45 5-40 49-62.5 118T349 335q0 86 24 140.5t65.5 80T532 581q51 0 92.5-24.5t66.5-79T716 331zm-91-3q0 82-23.5 130.5T533 507q-46 0-69-49t-23-128q0-71 23-130.5t59-97.5q48 32 75 93.5T625 328z"/><glyph glyph-name="uni04A9" unicode="ҩ" horiz-adv-x="642" d="M289 546q29 0 49.5-3.5T373 534l-19-71q-10 3-28 6t-38 3q-80 0-111.5-55T145 261q0-57 15.5-102T211 88.5 303 63q17 0 29 2.5t15 3.5q-28 32-46.5 75.5T282 246q0 92 45 135t112 43q65 0 107.5-41.5T589 246q0-68-28.5-116.5T493 54q10-4 25-8t30-4q30 0 57 7v-70q-12-4-29.5-6T541-29q-37 0-71 10.5T407 10q-21-8-46-14t-62-6q-79 0-133.5 37T83 126 55 263q0 128 59 205.5T289 546zm150-191q-34 0-51.5-29.5T370 243q0-49 18-86.5T431 98q32 20 52 57.5t20 89.5q0 51-15.5 80.5T439 355z"/><glyph glyph-name="uni04AA" unicode="Ҫ" horiz-adv-x="632" d="M377-116q0 27-17 55T313-3Q187 19 124 114.5T61 358q0 108 39.5 190.5t116.5 129T404 724q113 0 197-42l-36-76q-33 15-73.5 27T403 645q-115 0-181-77t-66-211q0-133 61.5-210.5T402 69q47 0 89 8t82 20V19Q533 4 490.5-3T389-10h-5q24-20 44.5-48t20.5-66q0-44-25.5-70T349-220q-31 0-58 8v56q17-5 43-5 18 0 30.5 11.5T377-116z"/><glyph glyph-name="uni04AB" unicode="ҫ" horiz-adv-x="480" d="M298-116q0 27-17 55T233-3q-80 18-129 83.5T55 265q0 99 33 161t89.5 91T306 546q41 0 79-8.5t62-20.5l-27-73q-24 9-56 17t-60 8q-158 0-158-203 0-97 38.5-148.5T299 66q44 0 77.5 9T438 97V19Q411 5 379-2.5T305-10q24-20 44.5-48t20.5-66q0-44-25.5-70T270-220q-31 0-58 8v56q17-5 43-5 18 0 30.5 11.5T298-116z"/><glyph glyph-name="uni04AC" unicode="Ҭ" horiz-adv-x="556" d="M322-188V0h-90v633H9v81h536v-81H322V80h86v-268h-86z"/><glyph glyph-name="uni04AD" unicode="ҭ" horiz-adv-x="475" d="M454 536v-73H280V73h79v-258h-86V0h-80v463H20v73h434z"/><glyph glyph-name="uni04AE" unicode="Ү" horiz-adv-x="566" d="m283 363 186 351h97L328 277V0h-90v273L0 714h98z"/><glyph glyph-name="uni04AF" unicode="ү" horiz-adv-x="508" d="M298-240h-88V-2L0 536h92l112-294q15-40 29-84.5T252 88h5q6 25 19 69t29 85l111 294h92L298-2v-238z"/><glyph glyph-name="uni04B0" unicode="Ұ" horiz-adv-x="566" d="M238 0v170H90v79h148v24L0 714h98l185-351 186 351h97L328 277v-28h147v-79H328V0h-90z"/><glyph glyph-name="uni04B1" unicode="ұ" horiz-adv-x="508" d="M508 536 299 0h134v-67H298v-173h-88v173H73V0h136L0 536h92l110-291q17-46 30-85t20-72h4q8 33 21.5 73.5T309 249l107 287h92z"/><glyph glyph-name="uni04B2" unicode="Ҳ" horiz-adv-x="631" d="M530-188V0h-50L291 310 99 0H4l237 372L19 714h100l175-280 176 280h95L344 374 530 80h86v-268h-86z"/><glyph glyph-name="uni04B3" unicode="ҳ" horiz-adv-x="552" d="M451-186V0h-40L265 214 117 0H18l194 274L27 536h100l138-202 137 202h99L316 274 459 74h78v-260h-86z"/><glyph glyph-name="uni04B4" unicode="Ҵ" horiz-adv-x="862" d="M754-188V0H214v633H9v81h523v-81H304V80h356v634h90V80h89v-268h-85z"/><glyph glyph-name="uni04B5" unicode="ҵ" horiz-adv-x="724" d="M620-185V0H174v463H20v73h414v-73H261V74h276v462h88V73h81v-258h-86z"/><glyph glyph-name="uni04B6" unicode="Ҷ" horiz-adv-x="703" d="M601 714V80h86v-268h-86V0h-90v293q-58-20-108.5-32.5T290 248q-100 0-155 46.5T80 429v285h90V442q0-58 30.5-86.5T299 327q59 0 106 11t106 30v346h90z"/><glyph glyph-name="uni04B7" unicode="ҷ" horiz-adv-x="621" d="M528 536V74h79v-260h-87V0h-80v239q-45-29-88.5-45.5T247 177q-82 0-127.5 43T74 335v201h88V341q0-92 103-92 50 0 91 15.5t84 41.5v230h88z"/><glyph glyph-name="uni04B8" unicode="Ҹ" horiz-adv-x="698" d="M601 714V0h-91v291q-34-13-69-23.5T368 252V102h-61v146q-111 0-169 45T80 429v285h90V442q0-57 32-86t105-29v169h61V331q39 4 75 13.5t67 21.5v348h91z"/><glyph glyph-name="uni04B9" unicode="ҹ" horiz-adv-x="606" d="M520 536V0h-88v239q-28-19-56-33t-60-22V63h-59v114q-4-1-13-1-82 0-126 43.5T74 334v202h88V340q0-89 95-92v145h59V254q30 6 58 19.5t58 32.5v230h88z"/><glyph glyph-name="uni04BA" unicode="Һ" horiz-adv-x="698" d="M97 714h90V421q58 20 112 32.5T408 466q100 0 155-46.5T618 285V0h-90v272q0 58-30.5 86.5T399 387q-59 0-106-10.5T187 346V0H97v714z"/><glyph glyph-name="uni04BB" unicode="һ" horiz-adv-x="618" d="M173 537q0-40-5-75h6q26 41 70.5 62t96.5 21q98 0 147-46.5T537 349V0h-87v343q0 129-120 129-90 0-123.5-50.5T173 277V0H85v760h88V537z"/><glyph glyph-name="uni04BC" unicode="Ҽ" horiz-adv-x="849" d="M494 725q106 0 171-45t94.5-123.5T789 375v-51H271q8-123 68.5-189T521 69q68 0 122.5 12T744 109V27Q701 11 646 .5T511-10q-159 0-242 89.5T176 324h-24q-55 0-90 31.5T27 440q0 20 4 37t10 29h75q-3-7-6.5-22.5T106 451q0-49 54-49h17q20 159 100.5 241T494 725zm-1-80q-97 0-155.5-62T271 402h422q0 113-46.5 178T493 645z"/><glyph glyph-name="uni04BD" unicode="ҽ" horiz-adv-x="665" d="M392 545q70 0 119.5-30t76-84T614 304v-53H246q2-97 45.5-141.5T414 65q58 0 96 9.5t80 26.5V25Q549 7 509-1.5T414-10q-115 0-185 67t-74 194q-64 1-98.5 28T22 361q0 18 4 34t9 26h72q-4-7-7-21t-3-31q0-49 51-49h10q10 79 42.5 128.5t82.5 73T392 545zm-2-72q-62 0-99-39t-43-114h274q0 69-32 111t-100 42z"/><glyph glyph-name="uni04BE" unicode="Ҿ" horiz-adv-x="849" d="M494 725q106 0 171-44.5t94.5-123T789 378v-54H271q8-123 68.5-189T521 69q68 0 122.5 12T744 109V27q-39-14-87.5-23.5T541-8v-180h-87V-5Q323 9 254 96.5T176 324h-24q-55 0-90 31.5T27 440q0 20 4 37t10 29h75q-3-7-6.5-22.5T106 451q0-49 54-49h17q16 159 98.5 241T494 725zm-1-80q-97 0-155.5-62T271 402h422q0 76-19 130t-63 83.5T493 645z"/><glyph glyph-name="uni04BF" unicode="ҿ" horiz-adv-x="665" d="M354-4q-90 14-143 79t-56 176q-64 1-98.5 28T22 361q0 18 4 34t9 26h72q-4-7-7-21t-3-31q0-49 51-49h10q16 115 80.5 170T392 545q70 0 119.5-30t76-84T614 304v-53H246q2-97 45.5-141.5T414 65q58 0 96 9.5t80 26.5V25Q555 9 519.5 1.5T440-8v-177h-86V-4zm36 477q-62 0-99-39t-43-114h274q0 69-32 111t-100 42z"/><glyph glyph-name="uni04C0" unicode="Ӏ" horiz-adv-x="339" d="M298 0H40v52l84 19v571l-84 20v52h258v-52l-84-20V71l84-19V0z"/><glyph glyph-name="uni04C1" unicode="Ӂ" horiz-adv-x="854" d="M617 936q-7-75-50.5-113.5T428 784q-98 0-138.5 38T244 936h82q5-54 28.5-72.5T430 845q46 0 72.5 19.5T534 936h83zM288 367 11 714h100l273-346v346h86V368l273 346h100L566 368 852 0H749L470 362V0h-86v362L104 0H1z"/><glyph glyph-name="uni04C2" unicode="ӂ" horiz-adv-x="750" d="M562 758q-7-75-50.5-113.5T373 606q-98 0-138.5 38T189 758h82q5-54 28.5-72.5T375 667q46 0 72.5 19.5T479 758h83zm166-222L507 276 747 0H647L415 272V0h-82v272L101 0H1l240 276L20 536h96l217-260v260h82V276l218 260h95z"/><glyph glyph-name="uni04C3" unicode="Ӄ" horiz-adv-x="696" d="M298 380h21q163 0 244-82.5T644 72q0-110-36-181.5t-97.5-106T371-250q-46 0-77 6t-61 18v80q31-12 62.5-18t71.5-6q84 0 134.5 61T552 72q0 80-32.5 131.5T430 280t-131 25q-34 0-62.5-4T187 290V0H97v714h90V361q23 29 50 60.5t52 59.5l209 233h107z"/><glyph glyph-name="uni04C4" unicode="ӄ" horiz-adv-x="560" d="M526 29q0-97-30.5-157T415-216.5 306-245q-36 0-63.5 7.5T192-216v76q23-12 49.5-21t59.5-9q60 0 99 48t39 151q0 104-46.5 151T258 227q-18 0-42-3.5t-44-8.5V0H85v536h87V284l234 252h97L279 300q74-1 129.5-28.5t86.5-87T526 29z"/><glyph glyph-name="uni04C5" unicode="Ӆ" horiz-adv-x="719" d="M611 80h97l-72-268H533L611 0h-90v635H295q-9-74-20-155.5T253 324t-22-126q-13-67-32-114t-50.5-71T66-11q-17 0-34.5 3.5T1 1v75q11-5 25-8.5T56 64q30 0 47.5 24.5t27.5 61 17 72.5q8 38 19.5 111.5t25 171.5T220 714h391V80z"/><glyph glyph-name="uni04C6" unicode="ӆ" horiz-adv-x="587" d="M492 74h92l-64-259h-89L492 0h-88v463H245q-12-169-35.5-272T148 41 53-6Q24-6 7 0v67q12-3 27-3 54 0 86.5 114.5T169 536h323V74z"/><glyph glyph-name="uni04C7" unicode="Ӈ" horiz-adv-x="731" d="M643 70q0-110-34-181t-93.5-105T378-250q-47 0-77.5 6T239-226v79q31-12 62-18t66-6q92 0 139.5 59T554 68v265H187V0H97v714h90V412h367v302h89V70z"/><glyph glyph-name="uni04C8" unicode="ӈ" horiz-adv-x="621" d="M552 24q0-97-26.5-156t-72-86T352-245q-36 0-62.5 7.5T240-217v78q21-11 47.5-20t57.5-9q57 0 87.5 44.5T463 24v215H173V0H85v536h88V313h290v223h89V24z"/><glyph glyph-name="uni04C9" unicode="Ӊ" horiz-adv-x="756" d="M643 80h98l-73-268H565L643 0h-89v333H187V0H97v714h90V412h367v302h89V80z"/><glyph glyph-name="uni04CA" unicode="ӊ" horiz-adv-x="662" d="M85 0v536h88V313h291v223h88V74h92l-64-259h-90L552 0h-88v239H173V0H85z"/><glyph glyph-name="uni04CB" unicode="Ӌ" horiz-adv-x="698" d="M601 0h-87v-188h-86V80h83v213q-58-20-108.5-32.5T290 248q-100 0-155 46.5T80 429v285h90V442q0-58 30.5-86.5T299 327q59 0 106 11t106 30v346h90V0z"/><glyph glyph-name="uni04CC" unicode="ӌ" horiz-adv-x="613" d="M528 536V0h-79v-186h-86V74h77v165q-45-29-88.5-45.5T247 177q-82 0-127.5 43T74 335v201h88V341q0-92 103-92 50 0 91 15.5t84 41.5v230h88z"/><glyph glyph-name="uni04CD" unicode="Ӎ" horiz-adv-x="917" d="M412 0 177 626h-4q3-26 4.5-60.5t2-67.5.5-56V0H97v714h133l221-585h4l223 585h132V80h97l-72-268H731L810 0h-89v448q0 24 1 57.5t2.5 66.5 3.5 53h-4L486 0h-74z"/><glyph glyph-name="uni04CE" unicode="ӎ" horiz-adv-x="755" d="m752 74-64-259h-90L660 0h-79v342q0 21 1.5 44t3.5 45h-3L408 0h-74L164 431h-3q3-45 3-92V0H85v536h117l169-431 172 431h117V74h92z"/><glyph glyph-name="uni04CF" unicode="ӏ" horiz-adv-x="339" d="M298 0H40v52l84 19v571l-84 20v52h258v-52l-84-20V71l84-19V0z"/><glyph glyph-name="uni04D0" unicode="Ӑ" horiz-adv-x="639" d="M507 936q-7-75-50.5-113.5T318 784q-98 0-138.5 38T134 936h82q5-54 28.5-72.5T320 845q46 0 72.5 19.5T424 936h83zM545 0l-86 221H176L91 0H0l279 717h81L638 0h-93zM352 517q-3 8-10 29t-13.5 43.5T318 624q-7-31-16-60.5T287 517l-81-216h226z"/><glyph glyph-name="uni04D1" unicode="ӑ" horiz-adv-x="561" d="M470 758q-7-75-50.5-113.5T281 606q-98 0-138.5 38T97 758h82q5-54 28.5-72.5T283 667q46 0 72.5 19.5T387 758h83zM288 545q98 0 145-43t47-137V0h-64l-17 76h-4q-35-44-73.5-65T215-10q-73 0-121 38.5T46 149q0 80 63 123.5T303 320l91 3v32q0 67-29 93t-82 26q-42 0-80-12.5T132 433l-27 66q35 19 83 32.5T288 545zm26-286q-100-4-138.5-32T137 148q0-45 27.5-66T235 61q68 0 113 37.5T393 214v48z"/><glyph glyph-name="uni04D2" unicode="Ӓ" horiz-adv-x="639" d="m545 0-86 221H176L91 0H0l279 717h81L638 0h-93zM352 517q-3 8-10 29t-13.5 43.5T318 624q-7-31-16-60.5T287 517l-81-216h226zM177 859q0 26 14 37.5t33 11.5 33-11.5 14-37.5q0-25-14-37.5T224 809t-33 12.5-14 37.5zm188 0q0 26 13.5 37.5T411 908t33-11.5 14-37.5q0-25-14-37.5T411 809t-32.5 12.5T365 859z"/><glyph glyph-name="uni04D3" unicode="ӓ" horiz-adv-x="561" d="M288 545q98 0 145-43t47-137V0h-64l-17 76h-4q-35-44-73.5-65T215-10q-73 0-121 38.5T46 149q0 80 63 123.5T303 320l91 3v32q0 67-29 93t-82 26q-42 0-80-12.5T132 433l-27 66q35 19 83 32.5T288 545zm26-286q-100-4-138.5-32T137 148q0-45 27.5-66T235 61q68 0 113 37.5T393 214v48zM140 681q0 26 14 37.5t33 11.5 33-11.5 14-37.5q0-25-14-37.5T187 631t-33 12.5-14 37.5zm188 0q0 26 13.5 37.5T374 730t33-11.5 14-37.5q0-25-14-37.5T374 631t-32.5 12.5T328 681z"/><glyph glyph-name="uni04D4" unicode="Ӕ" horiz-adv-x="881" d="M821 0H449v221H199L92 0H-1l339 714h483v-79H539V412h263v-78H539V79h282V0zM234 301h215v333h-58z"/><glyph glyph-name="uni04D5" unicode="ӕ" horiz-adv-x="864" d="M603 546q65 0 112-30t72.5-84T813 306v-54H470q2-96 41.5-141.5T625 65q50 0 88 9.5t76 27.5V25Q749 7 710.5-1.5T622-10q-141 0-203 113-34-52-80-82.5T216-10q-73 0-121.5 38.5T46 149q0 80 60 123.5T290 320l90 3v34q0 65-30.5 91T268 474q-40 0-78.5-12T118 433l-27 66q35 20 85 33t99 13q62 0 102.5-20.5T439 459q26 41 68 64t96 23zm-1-72q-58 0-91.5-39.5T472 321h248q0 69-28.5 111T602 474zM303 259q-94-4-130-32t-36-79q0-45 25.5-66T230 61q63 0 105.5 37.5T378 214v48z"/><glyph glyph-name="uni04D6" unicode="Ӗ" horiz-adv-x="556" d="M494 936q-7-75-50.5-113.5T305 784q-98 0-138.5 38T121 936h82q5-54 28.5-72.5T307 845q46 0 72.5 19.5T411 936h83zm2-936H97v714h399v-79H187V412h291v-78H187V79h309V0z"/><glyph glyph-name="uni04D7" unicode="ӗ" horiz-adv-x="564" d="M474 758q-7-75-50.5-113.5T285 606q-98 0-138.5 38T101 758h82q5-54 28.5-72.5T287 667q46 0 72.5 19.5T391 758h83zM292 546q69 0 118.5-30t76-84.5T513 304v-53H146q2-91 46.5-138.5T317 65q51 0 90.5 9.5T489 102V25Q448 7 408-1.5T313-10q-76 0-134.5 31t-91 92.5T55 264q0 88 29.5 151t83 97T292 546zm-1-72q-63 0-99.5-40.5T148 321h273q-1 68-32 110.5T291 474z"/><glyph glyph-name="uni04D8" unicode="Ә" horiz-adv-x="739" d="M332 646q-67 0-123.5-12T104 605v82q44 16 97.5 27T334 725q113 0 189-46t115-128.5T677 356q0-111-37-193T531.5 35.5 355-10q-106 0-171.5 45.5t-95 128T59 357v34h523q-7 121-68 188t-182 67zm23-577q98 0 159 62.5T582 312H155q0-75 19-129.5t63-84T355 69z"/><glyph glyph-name="uni04D9" unicode="ә" horiz-adv-x="564" d="M251 546q77 0 135-31t90.5-92T509 272q0-88-29.5-151t-83-97T272-10q-68 0-118 30t-76.5 84.5T51 232v53h367q-2 91-46.5 138.5T247 471q-51 0-90.5-9.5T75 434v77q41 18 81 26.5t95 8.5zM143 215q1-68 32-110.5T273 62q63 0 99.5 40.5T416 215H143z"/><glyph glyph-name="uni04DA" unicode="Ӛ" horiz-adv-x="739" d="M332 646q-67 0-123.5-12T104 605v82q44 16 97.5 27T334 725q113 0 189-46t115-128.5T677 356q0-111-37-193T531.5 35.5 355-10q-106 0-171.5 45.5t-95 128T59 357v34h523q-7 121-68 188t-182 67zm23-577q98 0 159 62.5T582 312H155q0-75 19-129.5t63-84T355 69zM208 859q0 26 14 37.5t33 11.5 33-11.5 14-37.5q0-25-14-37.5T255 809t-33 12.5-14 37.5zm188 0q0 26 13.5 37.5T442 908t33-11.5 14-37.5q0-25-14-37.5T442 809t-32.5 12.5T396 859z"/><glyph glyph-name="uni04DB" unicode="ӛ" horiz-adv-x="564" d="M251 546q77 0 135-31t90.5-92T509 272q0-88-29.5-151t-83-97T272-10q-68 0-118 30t-76.5 84.5T51 232v53h367q-2 91-46.5 138.5T247 471q-51 0-90.5-9.5T75 434v77q41 18 81 26.5t95 8.5zM143 215q1-68 32-110.5T273 62q63 0 99.5 40.5T416 215H143zm-10 466q0 26 14 37.5t33 11.5 33-11.5 14-37.5q0-25-14-37.5T180 631t-33 12.5-14 37.5zm188 0q0 26 13.5 37.5T367 730t33-11.5 14-37.5q0-25-14-37.5T367 631t-32.5 12.5T321 681z"/><glyph glyph-name="uni04DC" unicode="Ӝ" horiz-adv-x="854" d="M288 367 11 714h100l273-346v346h86V368l273 346h100L566 368 852 0H749L470 362V0h-86v362L104 0H1zm-1 492q0 26 14 37.5t33 11.5 33-11.5 14-37.5q0-25-14-37.5T334 809t-33 12.5-14 37.5zm188 0q0 26 13.5 37.5T521 908t33-11.5 14-37.5q0-25-14-37.5T521 809t-32.5 12.5T475 859z"/><glyph glyph-name="uni04DD" unicode="ӝ" horiz-adv-x="750" d="M728 536 507 276 747 0H647L415 272V0h-82v272L101 0H1l240 276L20 536h96l217-260v260h82V276l218 260h95zM232 681q0 26 14 37.5t33 11.5 33-11.5 14-37.5q0-25-14-37.5T279 631t-33 12.5-14 37.5zm188 0q0 26 13.5 37.5T466 730t33-11.5 14-37.5q0-25-14-37.5T466 631t-32.5 12.5T420 681z"/><glyph glyph-name="uni04DE" unicode="Ӟ" horiz-adv-x="588" d="M519 547q0-73-46-115.5T350 377v-4q90-12 137-56t47-115q0-94-72-153T246-10q-58 0-110.5 8.5T38 29v82q47-22 102.5-34.5T245 64q96 0 145.5 36T440 202q0 68-58 99t-162 31H118v75h97q106 0 158.5 35.5T426 538q0 54-40 83t-104 29q-67 0-111.5-17T84 589l-43 61q42 31 103.5 52.5T283 724q116 0 176-50t60-127zM146 859q0 26 14 37.5t33 11.5 33-11.5 14-37.5q0-25-14-37.5T193 809t-33 12.5-14 37.5zm188 0q0 26 13.5 37.5T380 908t33-11.5 14-37.5q0-25-14-37.5T380 809t-32.5 12.5T334 859z"/><glyph glyph-name="uni04DF" unicode="ӟ" horiz-adv-x="490" d="M226 546q92 0 146.5-36.5T427 405q0-49-27-77.5T326 286v-4q32-9 59-25t43.5-42 16.5-67q0-67-55.5-112.5T216-10q-58 0-105 9.5T33 25v79q34-16 80.5-29T215 62q60 0 101.5 20.5T358 153q0 90-153 90h-72v72h58q69 0 110.5 18.5T343 397q0 38-31.5 57T221 473q-44 0-77.5-8.5T70 439l-31 70q84 37 187 37zM93 681q0 26 14 37.5t33 11.5 33-11.5 14-37.5q0-25-14-37.5T140 631t-33 12.5T93 681zm188 0q0 26 13.5 37.5T327 730t33-11.5 14-37.5q0-25-14-37.5T327 631t-32.5 12.5T281 681z"/><glyph glyph-name="uni04E0" unicode="Ӡ" horiz-adv-x="584" d="M499 714v-71L254 407q128-4 201.5-54T529 204q0-94-71-154T241-10q-58 0-109.5 8.5T35 29v82q47-22 102-34.5T242 64q97 0 145 37t48 104-56.5 98T217 334h-67v73l235 227H55v80h444z"/><glyph glyph-name="uni04E1" unicode="ӡ" horiz-adv-x="498" d="M437 536v-64L218 228q68-4 124-30.5t89-75T464 1q0-71-32.5-125.5t-92-85T199-240q-59 0-106 9.5T14-205v80q33-16 82-29t107-13q77 0 125 44.5T376-1q0 84-55.5 121.5T174 158h-59v61l219 243H28v74h409z"/><glyph glyph-name="uni04E2" unicode="Ӣ" horiz-adv-x="768" d="M98 714h84V322q0-33-1-74t-2.5-75-3.5-50h4l393 591h100V0h-84v388q0 37 1.5 79t3.5 77 3 50h-4L198 0H98v714zm445 141v-71H246v71h297z"/><glyph glyph-name="uni04E3" unicode="ӣ" horiz-adv-x="643" d="M168 209q0-12-1-36t-2.5-48-2.5-38l287 449h108V0h-82v316q0 16 .5 42t1.5 51.5 2 38.5L194 0H85v536h83V209zm310 468v-71H181v71h297z"/><glyph glyph-name="uni04E4" unicode="Ӥ" horiz-adv-x="768" d="M98 714h84V322q0-33-1-74t-2.5-75-3.5-50h4l393 591h100V0h-84v388q0 37 1.5 79t3.5 77 3 50h-4L198 0H98v714zm156 145q0 26 14 37.5t33 11.5 33-11.5 14-37.5q0-25-14-37.5T301 809t-33 12.5-14 37.5zm188 0q0 26 13.5 37.5T488 908t33-11.5 14-37.5q0-25-14-37.5T488 809t-32.5 12.5T442 859z"/><glyph glyph-name="uni04E5" unicode="ӥ" horiz-adv-x="643" d="M168 209q0-12-1-36t-2.5-48-2.5-38l287 449h108V0h-82v316q0 16 .5 42t1.5 51.5 2 38.5L194 0H85v536h83V209zm21 472q0 26 14 37.5t33 11.5 33-11.5 14-37.5q0-25-14-37.5T236 631t-33 12.5-14 37.5zm188 0q0 26 13.5 37.5T423 730t33-11.5 14-37.5q0-25-14-37.5T423 631t-32.5 12.5T377 681z"/><glyph glyph-name="uni04E6" unicode="Ӧ" horiz-adv-x="781" d="M720 358q0-111-37.5-193.5T572 36 391-10q-111 0-184.5 46T97 165 61 359q0 110 36 192t109.5 128T392 725q107 0 180-45.5t110.5-128T720 358zm-564 0q0-135 57-212.5T391 68q122 0 178 77.5T625 358t-56 211.5T392 646t-178.5-76.5T156 358zm94 501q0 26 14 37.5t33 11.5 33-11.5 14-37.5q0-25-14-37.5T297 809t-33 12.5-14 37.5zm188 0q0 26 13.5 37.5T484 908t33-11.5 14-37.5q0-25-14-37.5T484 809t-32.5 12.5T438 859z"/><glyph glyph-name="uni04E7" unicode="ӧ" horiz-adv-x="605" d="M551 269q0-133-67.5-206T301-10q-71 0-126.5 32.5t-87.5 95T55 269q0 133 67 205t182 72q73 0 128.5-32.5t87-94T551 269zm-405 0q0-95 37.5-150.5T303 63q81 0 119 55.5T460 269t-38 149-120 54-119-54-37-149zm16 412q0 26 14 37.5t33 11.5 33-11.5 14-37.5q0-25-14-37.5T209 631t-33 12.5-14 37.5zm188 0q0 26 13.5 37.5T396 730t33-11.5 14-37.5q0-25-14-37.5T396 631t-32.5 12.5T350 681z"/><glyph glyph-name="uni04E8" unicode="Ө" horiz-adv-x="782" d="M720 358q0-111-37.5-193.5T572 36 391-10q-111 0-184.5 46T97 165 61 359q0 110 36 192t109.5 128T392 725q107 0 180-45.5t110.5-128T720 358zM392 646q-112 0-169-64.5T157 403h466q-9 114-64.5 178.5T392 646zm-1-578q114 0 170.5 68T624 325H157q6-121 62.5-189T391 68z"/><glyph glyph-name="uni04E9" unicode="ө" horiz-adv-x="605" d="M551 269q0-133-67.5-206T301-10q-71 0-126.5 32.5t-87.5 95T55 269q0 133 67 205t182 72q73 0 128.5-32.5t87-94T551 269zM302 472q-74 0-111-40.5T147 312h312q-7 79-45.5 119.5T302 472zm1-409q77 0 114 45t42 131H146q5-86 43-131t114-45z"/><glyph glyph-name="uni04EA" unicode="Ӫ" horiz-adv-x="782" d="M720 358q0-111-37.5-193.5T572 36 391-10q-111 0-184.5 46T97 165 61 359q0 110 36 192t109.5 128T392 725q107 0 180-45.5t110.5-128T720 358zM392 646q-112 0-169-64.5T157 403h466q-9 114-64.5 178.5T392 646zm-1-578q114 0 170.5 68T624 325H157q6-121 62.5-189T391 68zM250 846q0 26 14 37.5t33 11.5 33-11.5 14-37.5q0-25-14-37.5T297 796t-33 12.5-14 37.5zm188 0q0 26 13.5 37.5T484 895t33-11.5 14-37.5q0-25-14-37.5T484 796t-32.5 12.5T438 846z"/><glyph glyph-name="uni04EB" unicode="ӫ" horiz-adv-x="605" d="M551 269q0-133-67.5-206T301-10q-71 0-126.5 32.5t-87.5 95T55 269q0 133 67 205t182 72q73 0 128.5-32.5t87-94T551 269zM302 472q-74 0-111-40.5T147 312h312q-7 79-45.5 119.5T302 472zm1-409q77 0 114 45t42 131H146q5-86 43-131t114-45zM161 681q0 26 14 37.5t33 11.5 33-11.5 14-37.5q0-25-14-37.5T208 631t-33 12.5-14 37.5zm188 0q0 26 13.5 37.5T395 730t33-11.5 14-37.5q0-25-14-37.5T395 631t-32.5 12.5T349 681z"/><glyph glyph-name="uni04EC" unicode="Ӭ" horiz-adv-x="633" d="M232 645q-50 0-91-11.5T67 607l-37 75q41 20 94 31t109 11q115 0 189.5-46T534 551.5 571 369q0-117-38-202T418.5 36 226-10q-62 0-105 7T36 19v78q42-11 85-19.5t91-8.5q129 0 194.5 68.5T476 334H129v79h346q-10 110-74.5 171T232 645zM96 859q0 26 14 37.5t33 11.5 33-11.5 14-37.5q0-25-14-37.5T143 809t-33 12.5T96 859zm188 0q0 26 13.5 37.5T330 908t33-11.5 14-37.5q0-25-14-37.5T330 809t-32.5 12.5T284 859z"/><glyph glyph-name="uni04ED" unicode="ӭ" horiz-adv-x="494" d="M171-10q-46 0-79.5 7.5T29 19v76q30-12 65-21t79-9q78 0 124 42t51 133H84v72h263q-7 82-46.5 120T185 470q-29 0-63.5-8T60 444l-25 71q29 13 69 22t80 9q75 0 132.5-28t90-89T439 268q0-95-34.5-157t-95-91.5T171-10zM67 681q0 26 14 37.5t33 11.5 33-11.5 14-37.5q0-25-14-37.5T114 631t-33 12.5T67 681zm188 0q0 26 13.5 37.5T301 730t33-11.5 14-37.5q0-25-14-37.5T301 631t-32.5 12.5T255 681z"/><glyph glyph-name="uni04EE" unicode="Ӯ" horiz-adv-x="624" d="M396 203q-32-71-64.5-118.5t-76.5-71T143-10q-28 0-52.5 4T46 5v89q20-9 43-14.5t48-5.5q56 0 88.5 24t60.5 85L11 714h99l199-393q5-10 12-25.5t12-29.5h4q4 11 10 26.5t10 25.5l172 396h95zm78 652v-71H177v71h297z"/><glyph glyph-name="uni04EF" unicode="ӯ" horiz-adv-x="510" d="M1 536h94l116-305q15-40 27-76.5T256 85h4q6 25 19 65.5t27 81.5l109 304h95L279-74q-28-76-72.5-121T84-240q-24 0-42 2.5T11-232v70q11-2 26.5-4t32.5-2q46 0 74.5 26T189-73l28 71zm402 141v-71H106v71h297z"/><glyph glyph-name="uni04F0" unicode="Ӱ" horiz-adv-x="624" d="M396 203q-32-71-64.5-118.5t-76.5-71T143-10q-28 0-52.5 4T46 5v89q20-9 43-14.5t48-5.5q56 0 88.5 24t60.5 85L11 714h99l199-393q5-10 12-25.5t12-29.5h4q4 11 10 26.5t10 25.5l172 396h95zM185 859q0 26 14 37.5t33 11.5 33-11.5 14-37.5q0-25-14-37.5T232 809t-33 12.5-14 37.5zm188 0q0 26 13.5 37.5T419 908t33-11.5 14-37.5q0-25-14-37.5T419 809t-32.5 12.5T373 859z"/><glyph glyph-name="uni04F1" unicode="ӱ" horiz-adv-x="510" d="M1 536h94l116-305q15-40 27-76.5T256 85h4q6 25 19 65.5t27 81.5l109 304h95L279-74q-28-76-72.5-121T84-240q-24 0-42 2.5T11-232v70q11-2 26.5-4t32.5-2q46 0 74.5 26T189-73l28 71zm113 145q0 26 14 37.5t33 11.5 33-11.5 14-37.5q0-25-14-37.5T161 631t-33 12.5-14 37.5zm188 0q0 26 13.5 37.5T348 730t33-11.5 14-37.5q0-25-14-37.5T348 631t-32.5 12.5T302 681z"/><glyph glyph-name="uni04F2" unicode="Ӳ" horiz-adv-x="624" d="M396 203q-32-71-64.5-118.5t-76.5-71T143-10q-28 0-52.5 4T46 5v89q20-9 43-14.5t48-5.5q56 0 88.5 24t60.5 85L11 714h99l199-393q5-10 12-25.5t12-29.5h4q4 11 10 26.5t10 25.5l172 396h95zm165 731q-10-17-33-46t-50-57.5-50-46.5h-50v12q14 19 30 45t31.5 53.5T465 944h96v-10zm-176 0q-10-17-33-46t-50-57.5-50-46.5h-50v12q21 29 46 71.5t41 76.5h96v-10z"/><glyph glyph-name="uni04F3" unicode="ӳ" horiz-adv-x="510" d="M1 536h94l116-305q15-40 27-76.5T256 85h4q6 25 19 65.5t27 81.5l109 304h95L279-74q-28-76-72.5-121T84-240q-24 0-42 2.5T11-232v70q11-2 26.5-4t32.5-2q46 0 74.5 26T189-73l28 71zm489 220q-10-17-33-46t-50-57.5-50-46.5h-50v12q14 19 30 45t31.5 53.5T394 766h96v-10zm-176 0q-10-17-33-46t-50-57.5-50-46.5h-50v12q21 29 46 71.5t41 76.5h96v-10z"/><glyph glyph-name="uni04F4" unicode="Ӵ" horiz-adv-x="698" d="M601 0h-90v293q-58-20-108.5-32.5T290 248q-100 0-155 46.5T80 429v285h90V442q0-58 30.5-86.5T299 327q59 0 106 11t106 30v346h90V0zM197 859q0 26 14 37.5t33 11.5 33-11.5 14-37.5q0-25-14-37.5T244 809t-33 12.5-14 37.5zm188 0q0 26 13.5 37.5T431 908t33-11.5 14-37.5q0-25-14-37.5T431 809t-32.5 12.5T385 859z"/><glyph glyph-name="uni04F5" unicode="ӵ" horiz-adv-x="613" d="M162 341q0-92 103-92 50 0 91 15.5t84 41.5v230h88V0h-88v239q-45-29-88.5-45.5T247 177q-82 0-127.5 43T74 335v201h88V341zm-4 340q0 26 14 37.5t33 11.5 33-11.5 14-37.5q0-25-14-37.5T205 631t-33 12.5-14 37.5zm188 0q0 26 13.5 37.5T392 730t33-11.5 14-37.5q0-25-14-37.5T392 631t-32.5 12.5T346 681z"/><glyph glyph-name="uni04F6" unicode="Ӷ" horiz-adv-x="530" d="M507 714v-80H187V80h85v-268h-85V0H97v714h410z"/><glyph glyph-name="uni04F7" unicode="ӷ" horiz-adv-x="433" d="M411 536v-73H173V73h79v-258h-87V0H85v536h326z"/><glyph glyph-name="uni04F8" unicode="Ӹ" horiz-adv-x="858" d="M97 0v714h90V412h110q100 0 157.5-27t82-73T561 209q0-94-60.5-151.5T308 0H97zm574 0v714h90V0h-90zM300 76q86 0 127 33t41 100q0 69-44.5 96.5T287 333H187V76h113zm-8 783q0 26 14 37.5t33 11.5 33-11.5 14-37.5q0-25-14-37.5T339 809t-33 12.5-14 37.5zm188 0q0 26 13.5 37.5T526 908t33-11.5 14-37.5q0-25-14-37.5T526 809t-32.5 12.5T480 859z"/><glyph glyph-name="uni04F9" unicode="ӹ" horiz-adv-x="778" d="M85 0v536h88V316h139q104 0 154-38t50-114q0-75-49-119.5T308 0H85zm520 0v536h88V0h-88zM300 71q57 0 93 19.5t36 68.5-33 66.5-95 17.5H173V71h127zm-56 610q0 26 14 37.5t33 11.5 33-11.5 14-37.5q0-25-14-37.5T291 631t-33 12.5-14 37.5zm188 0q0 26 13.5 37.5T478 730t33-11.5 14-37.5q0-25-14-37.5T478 631t-32.5 12.5T432 681z"/><glyph glyph-name="uni04FA" unicode="Ӻ" horiz-adv-x="530" d="M148-198q-19 0-34.5 4T88-186v73q8-3 21-6t29-3q48 0 48 52V0H97v314H23v78h74v322h410v-80H187V392h206v-78H187V80h78V-65q0-64-28.5-98.5T148-198z"/><glyph glyph-name="uni04FB" unicode="ӻ" horiz-adv-x="434" d="M132-198q-19 0-34.5 4T72-186v73q8-3 21-6t29-3q48 0 48 52V0H84v233H8v68h76v235h329v-74H172V301h168v-68H172V68h77V-65q0-64-28.5-98.5T132-198z"/><glyph glyph-name="uni04FC" unicode="Ӽ" horiz-adv-x="632" d="M492-198q-19 0-34.5 4t-25.5 8v73q8-3 21-6t29-3q48 0 48 52V0h-50L291 310 99 0H4l237 372L19 714h100l175-280 176 280h95L344 374 531 80h78V-65q0-64-28.5-98.5T492-198z"/><glyph glyph-name="uni04FD" unicode="ӽ" horiz-adv-x="550" d="M418-198q-19 0-34.5 4t-25.5 8v73q8-3 21-6t29-3q48 0 48 52V0h-45L265 214 117 0H18l194 274L27 536h100l138-202 137 202h99L316 274 462 68h73V-65q0-64-28.5-98.5T418-198z"/><glyph glyph-name="uni04FE" unicode="Ӿ" horiz-adv-x="586" d="M61 417h150L19 714h100l175-281 175 281h96L372 417h153v-79H367L582 0H480L291 310 99 0H3l215 338H61v79z"/><glyph glyph-name="uni04FF" unicode="ӿ" horiz-adv-x="529" d="M56 310h131L27 536h100l138-202 137 202h99L340 310h134v-68H338L511 0H411L265 214 117 0H18l172 242H56v68z"/><glyph glyph-name="uni0500" unicode="Ԁ" horiz-adv-x="615" d="M323 0Q181 0 121.5 51.5T62 197q0 57 25.5 106t84.5 79 158 30h109v302h90V0H323zm16 77h100v257H337q-95 0-138.5-34T155 204q0-67 42.5-97T339 77z"/><glyph glyph-name="uni0501" unicode="ԁ" horiz-adv-x="615" d="M275-10q-100 0-160 69.5T55 267t60.5 208.5T276 546q62 0 101.5-23t64.5-56h6q-1 13-3.5 38.5T442 546v214h88V0h-71l-13 72h-4q-24-34-64-58T275-10zm14 73q85 0 119.5 46.5T443 250v16q0 100-33 153.5T288 473q-71 0-106.5-56.5T146 265q0-96 35.5-149T289 63z"/><glyph glyph-name="uni0502" unicode="Ԃ" horiz-adv-x="902" d="M507 178q0-57 28.5-83.5T616 68q48 0 77 29t29 84v233h89V177q0-81-49-134T616-10q-61 0-99.5 22T455 72q-25-37-65-59T287-9Q177-9 119.5 43T62 197q0 65 29 113t92 75 165 27h69v302h90V178zM347 333q-95 0-143.5-31T155 196q0-128 136-128 47 0 74.5 15.5t39.5 40 12 52.5v157h-70z"/><glyph glyph-name="uni0503" unicode="ԃ" horiz-adv-x="899" d="M514 201q0-64 22-101t87-37q56 0 81.5 32t25.5 97v150h89V184q0-98-50-145.5T625-9q-50 0-81 12t-49.5 33.5T463 86q-30-40-72.5-68T273-10q-99 0-159 69.5T54 266q0 138 59.5 209T267 546q61 0 98.5-23t60.5-56h6q-1 13-3 38t-2 41v214h87V201zM281 472q-70 0-103-53t-33-154 33.5-151.5T282 63q80 0 112.5 46T428 249v17q0 100-31 153t-116 53z"/><glyph glyph-name="uni0504" unicode="Ԅ" horiz-adv-x="905" d="M265 724q110 0 168-49.5T491 548q0-73-45.5-116.5T329 376v-4q84-12 129.5-55T505 200q1-70 26.5-100.5T616 69q57 0 83.5 29.5T726 192v222h88V184q0-97-52-145.5T616-10q-91 0-147 47.5T412 192q-1 75-54 107.5T207 332h-97v73h93q97 0 146 36.5t49 96.5q0 54-37.5 83T263 650q-58 0-101.5-17T80 590l-45 60q41 31 100 52.5T265 724z"/><glyph glyph-name="uni0505" unicode="ԅ" horiz-adv-x="809" d="M215 546q88 0 142-36.5T411 405q0-49-25.5-77.5T316 286v-4q49-10 79.5-39t32.5-81q2-45 26.5-71.5T536 64q105 0 105 128v150h87V184q0-194-191-194-189 0-195 161-2 49-37.5 70.5T198 243h-69v72h56q65 0 103 18.5t38 63.5q0 38-29.5 57T212 473q-38 0-72.5-8.5T67 439l-29 70q41 19 82 28t95 9z"/></font>
</defs>
</svg>
