<svg width="312" height="312" fill="none" xmlns="http://www.w3.org/2000/svg">
  <g clip-path="url(#a)">
    <path d="M262.24 66.324a135.813 135.813 0 0 1-85.71-30.461c-11.958-9.73-29.103-9.73-41.061 0a135.816 135.816 0 0 1-85.71 30.461c-9.75 0-17.654 7.904-17.654 17.654v47.312a201.709 201.709 0 0 0 74.412 156.466l14.532 11.822c20.357 16.562 49.545 16.562 69.902 0l14.531-11.822a201.717 201.717 0 0 0 74.412-156.469V83.973c-.001-9.75-7.904-17.649-17.654-17.649Z" fill="url(#b)"/>
    <path d="M279.894 83.973c0-9.75-7.903-17.648-17.653-17.648a135.814 135.814 0 0 1-85.71-30.462A32.477 32.477 0 0 0 156 28.566V312a55.277 55.277 0 0 0 34.951-12.422l14.532-11.822a201.717 201.717 0 0 0 74.412-156.469l-.001-47.314Z" fill="url(#c)"/>
    <path d="M156 296.425a14.903 14.903 0 0 1-9.373-3.331l-27.793-22.612c-20.3-16.516-36.971-37.738-48.21-61.371-11.24-23.633-17.18-49.958-17.18-76.128V95.437c0-4.542 3.713-8.404 8.248-8.644 30.932-1.636 60.835-13.106 84.935-32.712A14.895 14.895 0 0 1 156 50.749c3.403 0 6.732 1.183 9.372 3.331 24.1 19.608 54.005 31.078 84.936 32.713 4.535.24 8.248 4.101 8.248 8.643v37.545c0 26.17-5.941 52.495-17.18 76.129-11.24 23.634-27.911 44.856-48.211 61.372l-27.793 22.612a14.896 14.896 0 0 1-9.372 3.331Z" fill="url(#d)"/>
    <path d="M181.848 171.294h-51.694v-27.3c0-13.472 10.922-24.394 24.394-24.394h2.906c13.473 0 24.394 10.922 24.394 24.394v27.3Z" fill="url(#e)"/>
    <path d="m265.75 205.489-84.36-84.36v110.73h-66.989l71.418 71.417a55.725 55.725 0 0 0 5.134-3.698l14.531-11.822a201.671 201.671 0 0 0 60.266-82.267Z" fill="url(#f)"/>
    <path d="M155.995 110.679c-19.987 0-36.247 16.261-36.247 36.248v48.548h14.761v-48.548c0-11.848 9.639-21.487 21.486-21.487 11.848 0 21.486 9.639 21.486 21.487v48.548h14.761v-48.548c0-19.987-16.26-36.248-36.247-36.248Z" fill="url(#g)"/>
    <path d="M184.535 159.395h-57.077c-11.052 0-20.007 8.955-20.007 20.006v37.395c0 11.052 8.955 20.007 20.007 20.007h57.077c11.051 0 20.006-8.955 20.006-20.007v-37.395c0-11.051-8.955-20.006-20.006-20.006Z" fill="url(#h)"/>
    <path d="M107.451 193.929v22.868c0 11.051 8.955 20.006 20.007 20.006h57.077c11.051 0 20.006-8.955 20.006-20.006v-22.868h-97.09Z" fill="url(#i)"/>
    <path d="M163.381 205.381v10.471a7.327 7.327 0 0 1-2.166 5.215 7.343 7.343 0 0 1-5.215 2.165 7.383 7.383 0 0 1-7.381-7.38v-10.471c-6.249-3.011-10.392-9.693-9.575-17.261.846-7.833 7.174-14.181 15.007-15.046 10.294-1.142 19.003 6.888 19.003 16.946 0 6.77-3.956 12.606-9.673 15.361Z" fill="url(#j)"/>
    <path opacity=".6" d="M129.807 40.217a135.922 135.922 0 0 1-10.685 7.054l149.756 149.756a201.597 201.597 0 0 0 11.015-65.739V83.974c0-9.75-7.904-17.649-17.653-17.649a135.815 135.815 0 0 1-85.711-30.461 32.517 32.517 0 0 0-3.274-2.34c-6.895.651-12.794 1.065-17.256 1.065a63.432 63.432 0 0 0-26.192 5.628Z" fill="url(#k)"/>
    <path opacity=".5" d="m278.249 156.97-99.158-99.158-1.732-.066a123.601 123.601 0 0 0-43.452 6.135l-1.808.597 135.673 135.673a201.603 201.603 0 0 0 10.477-43.181Z" fill="url(#l)"/>
    <path opacity=".5" d="M148.733 88.142 265.842 205.25a201.823 201.823 0 0 0 7.201-21.855L163.262 73.615l-14.529 14.527Z" fill="url(#m)"/>
    <path d="M178.258 56.95a41.097 41.097 0 0 0-22.26-6.52 41.105 41.105 0 0 0-22.261 6.52 5.448 5.448 0 0 0 5.889 9.167 30.227 30.227 0 0 1 16.372-4.792c5.83 0 11.492 1.657 16.371 4.792a5.444 5.444 0 0 0 7.528-1.639 5.447 5.447 0 0 0-1.639-7.527Z" fill="url(#n)"/>
    <path d="M191.537 36.86c-10.583-6.872-22.872-10.506-35.539-10.506-12.667 0-24.957 3.634-35.54 10.507a7.004 7.004 0 0 0 7.631 11.748c8.306-5.395 17.957-8.247 27.909-8.247 9.952 0 19.603 2.852 27.908 8.246a6.998 6.998 0 0 0 9.689-2.059 7.004 7.004 0 0 0-2.058-9.688Z" fill="url(#o)"/>
    <path d="M206.065 14.865C191.17 5.14 173.857 0 155.998 0s-35.171 5.14-50.067 14.865a8.56 8.56 0 0 0 9.36 14.336c12.105-7.902 26.181-12.08 40.707-12.08 14.527 0 28.603 4.177 40.707 12.08a8.521 8.521 0 0 0 4.672 1.394 8.56 8.56 0 0 0 4.688-15.73Z" fill="url(#p)"/>
    <path d="M155.999 91.151c5.674 0 10.273-4.599 10.273-10.272 0-5.674-4.599-10.273-10.273-10.273-5.673 0-10.272 4.599-10.272 10.273 0 5.673 4.599 10.272 10.272 10.272Z" fill="url(#q)"/>
  </g>
  <defs>
    <linearGradient id="b" x1="99.493" y1="54.361" x2="217.163" y2="238.859" gradientUnits="userSpaceOnUse">
      <stop stop-color="#3CB0FF"/>
      <stop offset="1" stop-color="#0073FC"/>
    </linearGradient>
    <linearGradient id="c" x1="189.694" y1="54.361" x2="315.716" y2="153.158" gradientUnits="userSpaceOnUse">
      <stop stop-color="#3CB0FF"/>
      <stop offset="1" stop-color="#0073FC"/>
    </linearGradient>
    <linearGradient id="d" x1="109.225" y1="73.108" x2="213.127" y2="228.687" gradientUnits="userSpaceOnUse">
      <stop stop-color="#1E92E1"/>
      <stop offset="1" stop-color="#005FE8"/>
    </linearGradient>
    <linearGradient id="e" x1="157.005" y1="149.036" x2="151.237" y2="105.614" gradientUnits="userSpaceOnUse">
      <stop stop-color="#570AAE" stop-opacity="0"/>
      <stop offset=".225" stop-color="#380177" stop-opacity=".18"/>
      <stop offset=".572" stop-color="#3F0087" stop-opacity=".572"/>
      <stop offset=".996" stop-color="#433F44" stop-opacity=".996"/>
      <stop offset="1" stop-color="#290057"/>
    </linearGradient>
    <linearGradient id="f" x1="207.292" y1="259.292" x2="54.906" y2="155.992" gradientUnits="userSpaceOnUse">
      <stop stop-color="#245997" stop-opacity="0"/>
      <stop offset="1" stop-color="#0B2842"/>
    </linearGradient>
    <linearGradient id="g" x1="131.676" y1="131.227" x2="333.178" y2="355.506" gradientUnits="userSpaceOnUse">
      <stop stop-color="#F2EDFF"/>
      <stop offset="1" stop-color="#E0D5FE"/>
    </linearGradient>
    <linearGradient id="h" x1="155.996" y1="159.395" x2="155.998" y2="253.5" gradientUnits="userSpaceOnUse">
      <stop stop-color="#FFE03E"/>
      <stop offset="1" stop-color="#FF6B00"/>
    </linearGradient>
    <linearGradient id="i" x1="156.998" y1="169.5" x2="155.996" y2="236.803" gradientUnits="userSpaceOnUse">
      <stop stop-color="#FFE03E"/>
      <stop offset="1" stop-color="#FF6B00"/>
    </linearGradient>
    <linearGradient id="j" x1="148.219" y1="177.54" x2="170.796" y2="205.02" gradientUnits="userSpaceOnUse">
      <stop stop-color="#1E92E1"/>
      <stop offset="1" stop-color="#005FE8"/>
    </linearGradient>
    <linearGradient id="k" x1="217.796" y1="157.545" x2="74.044" y2="42.228" gradientUnits="userSpaceOnUse">
      <stop stop-color="#245997" stop-opacity="0"/>
      <stop offset="1" stop-color="#0B2842"/>
    </linearGradient>
    <linearGradient id="l" x1="221.799" y1="165.742" x2="95.474" y2="60.038" gradientUnits="userSpaceOnUse">
      <stop stop-color="#245997" stop-opacity="0"/>
      <stop offset="1" stop-color="#0B2842"/>
    </linearGradient>
    <linearGradient id="m" x1="225.029" y1="173.463" x2="110.394" y2="85.146" gradientUnits="userSpaceOnUse">
      <stop stop-color="#245997" stop-opacity="0"/>
      <stop offset="1" stop-color="#0B2842"/>
    </linearGradient>
    <linearGradient id="n" x1="155.998" y1="50.43" x2="155.998" y2="66.982" gradientUnits="userSpaceOnUse">
      <stop stop-color="#FFE03E"/>
      <stop offset="1" stop-color="#FF6B00"/>
    </linearGradient>
    <linearGradient id="o" x1="155.997" y1="26.354" x2="155.997" y2="49.74" gradientUnits="userSpaceOnUse">
      <stop stop-color="#FFE03E"/>
      <stop offset="1" stop-color="#FF6B00"/>
    </linearGradient>
    <linearGradient id="p" x1="155.998" y1="0" x2="155.998" y2="30.595" gradientUnits="userSpaceOnUse">
      <stop stop-color="#FFE03E"/>
      <stop offset="1" stop-color="#FF6B00"/>
    </linearGradient>
    <linearGradient id="q" x1="155.999" y1="70.606" x2="155.999" y2="91.151" gradientUnits="userSpaceOnUse">
      <stop stop-color="#FFE03E"/>
      <stop offset="1" stop-color="#FF6B00"/>
    </linearGradient>
    <clipPath id="a">
      <path fill="#fff" d="M0 0h312v312H0z"/>
    </clipPath>
  </defs>
</svg>
