<svg width="100" height="100" fill="none" xmlns="http://www.w3.org/2000/svg">
  <g clip-path="url(#a)">
    <path d="m61.623 30.68-8.817 4.8c-1.547.842-1.612 3.039-.118 3.97l2.303 1.435c-3.047 4.154-6.93 7.857-11.593 11.047-4.923 3.37-10.722 6.18-17.233 8.354-11.168 3.728-20.67 4.29-20.807 4.298a2.36 2.36 0 1 0 .253 4.713c.409-.022 10.15-.581 21.927-4.494 6.949-2.31 13.161-5.315 18.464-8.934 5.241-3.576 9.6-7.761 13.006-12.48l2.073 1.292c1.494.931 3.437-.094 3.512-1.853l.426-10.03c.075-1.786-1.826-2.972-3.396-2.117Z" fill="url(#b)"/>
    <path d="M34.415 100h-28.7a2.59 2.59 0 0 1-2.59-2.59V78.675a2.59 2.59 0 0 1 2.59-2.59h28.7V100Z" fill="url(#c)"/>
    <path d="M65.707 100H34.416V65.489a2.59 2.59 0 0 1 2.59-2.59h28.7V100Z" fill="url(#d)"/>
    <path d="M94.406 100h-28.7V43.714a2.59 2.59 0 0 1 2.588-2.59h26.112a2.59 2.59 0 0 1 2.59 2.59V97.41a2.59 2.59 0 0 1-2.59 2.59Z" fill="url(#e)"/>
    <path d="M78.9 27.622c-9.07-3.888-16.918 4.91-26.02.559a.601.601 0 0 1-.337-.543V8.481a.6.6 0 0 1 .833-.556c9.058 3.88 16.905-4.917 26.02-.559.208.1.337.312.337.542v19.157a.6.6 0 0 1-.834.556Z" fill="url(#f)"/>
    <path d="M78.893 5.14h4.246v35.985h-4.246V5.14Z" fill="url(#g)"/>
    <path d="M85.15 4.134a4.134 4.134 0 1 1-8.27.002 4.134 4.134 0 0 1 8.27-.002Z" fill="url(#h)"/>
    <path d="M3.125 86.814V97.41a2.59 2.59 0 0 0 2.59 2.59h88.691a2.59 2.59 0 0 0 2.59-2.59V86.814H3.125Z" fill="url(#i)"/>
    <path d="M25.653 49.118c.278 0 .537-.087.778-.261.24-.175.361-.373.361-.597v-1.27c2.116-.305 3.79-1.125 5.026-2.46 1.234-1.334 1.851-3.133 1.851-5.396 0-1.238-.189-2.32-.566-3.242a5.688 5.688 0 0 0-1.682-2.294c-.743-.606-1.449-1.08-2.116-1.422-.668-.341-1.505-.702-2.513-1.081v-7.407c.422.122.833.277 1.234.467.907.431 1.462.646 1.664.646h1.647c.511 0 .92-.247 1.226-.74.307-.495.46-.97.46-1.426 0-.836-.652-1.488-1.956-1.956-1.305-.469-2.73-.728-4.275-.78v-1.025c0-.228-.12-.43-.361-.608a1.29 1.29 0 0 0-.779-.266h-1.647c-.304 0-.564.089-.779.266-.215.177-.323.38-.323.608v1.102c-2.051.228-3.768.912-5.148 2.051-1.381 1.14-2.071 2.811-2.071 5.01 0 .785.089 1.499.266 2.144a4.36 4.36 0 0 0 .874 1.687c.405.48.791.89 1.159 1.232.367.342.886.67 1.558.986.67.317 1.209.556 1.615.72.404.165.987.387 1.747.664v8.616a6.04 6.04 0 0 1-1.319-.577c-.854-.506-1.526-.98-2.015-1.422-.49-.443-.884-.664-1.184-.664h-1.648c-.453 0-.856.24-1.208.72-.353.481-.529.961-.529 1.442 0 1.022.766 2.024 2.299 3.007 1.532.983 3.4 1.487 5.604 1.512v1.156c0 .224.107.423.323.598.215.173.475.26.78.26h1.647Zm.911-12.903c.313.226.587.466.823.72.582.632.874 1.504.874 2.616 0 1.494-.566 2.558-1.697 3.194v-6.53Zm-3.433-6.565a6.417 6.417 0 0 1-1.117-.735c-.614-.517-.921-1.27-.921-2.256 0-1.356.68-2.291 2.038-2.807v5.798Z" fill="url(#j)"/>
    <path d="M15 42.585c0-.48.176-.961.528-1.441.353-.48.756-.721 1.21-.721.3 0 .695.221 1.184.664.489.443 1.16.916 2.015 1.422.855.505 1.844.796 2.966.872v-8.91c-.76-.278-1.343-.5-1.747-.665a33.57 33.57 0 0 1-1.615-.72c-.672-.315-1.191-.644-1.558-.986a13.988 13.988 0 0 1-1.159-1.232 4.378 4.378 0 0 1-.874-1.687 8.064 8.064 0 0 1-.266-2.143c0-2.2.69-3.87 2.07-5.01 1.38-1.14 3.098-1.824 5.15-2.052v-1.102c0-.228.106-.43.322-.608.215-.177.475-.266.78-.266.277 0 .537.089.778.266.24.177.36.38.36.608V19.9c1.546.05 2.97.31 4.275.779 1.305.469 1.957 1.12 1.957 1.956 0 .456-.154.931-.46 1.425-.306.494-.715.741-1.226.741-.202 0-.757-.215-1.664-.646a8.072 8.072 0 0 0-2.881-.76v7.7c1.008.38 1.845.74 2.512 1.081.668.342 1.374.816 2.117 1.422a5.692 5.692 0 0 1 1.681 2.294c.378.923.567 2.004.567 3.242 0 2.263-.617 4.062-1.852 5.397-1.235 1.334-2.91 2.154-5.025 2.46v1.269c0 .224-.12.422-.361.597-.241.174-.5.26-.779.26-.304 0-.564-.086-.779-.26-.215-.174-.323-.373-.323-.597v-1.156c-2.203-.026-4.072-.53-5.604-1.512C15.766 44.608 15 43.606 15 42.585Zm4.446-15.926c0 .986.306 1.738.92 2.256.615.518 1.536 1.005 2.765 1.46v-6.907c-2.457.304-3.685 1.367-3.685 3.191Zm5.47 16.646c2.23-.404 3.345-1.656 3.345-3.754 0-1.112-.292-1.984-.874-2.616-.583-.632-1.406-1.175-2.47-1.63v8Z" fill="url(#k)"/>
  </g>
  <defs>
    <linearGradient id="b" x1="24.27" y1="37.566" x2="44.288" y2="64.041" gradientUnits="userSpaceOnUse">
      <stop stop-color="red"/>
      <stop offset="1" stop-color="#C53737"/>
    </linearGradient>
    <linearGradient id="c" x1="11.635" y1="78.261" x2="19.533" y2="96.795" gradientUnits="userSpaceOnUse">
      <stop stop-color="#3CB0FF"/>
      <stop offset="1" stop-color="#0073FC"/>
    </linearGradient>
    <linearGradient id="d" x1="42.926" y1="66.275" x2="58.556" y2="89.916" gradientUnits="userSpaceOnUse">
      <stop stop-color="#3CB0FF"/>
      <stop offset="1" stop-color="#0073FC"/>
    </linearGradient>
    <linearGradient id="e" x1="74.215" y1="46.482" x2="101.141" y2="72.147" gradientUnits="userSpaceOnUse">
      <stop stop-color="#3CB0FF"/>
      <stop offset="1" stop-color="#0073FC"/>
    </linearGradient>
    <linearGradient id="f" x1="66.139" y1="8.306" x2="66.139" y2="29.259" gradientUnits="userSpaceOnUse">
      <stop stop-color="#80FF00"/>
      <stop offset="1" stop-color="#62C400"/>
    </linearGradient>
    <linearGradient id="g" x1="79.937" y1="23.133" x2="82.365" y2="23.133" gradientUnits="userSpaceOnUse">
      <stop stop-color="#FFFBF8"/>
      <stop offset=".188" stop-color="#FAF8F6"/>
      <stop offset=".404" stop-color="#F2EFEC"/>
      <stop offset=".635" stop-color="#EAE0D5"/>
      <stop offset=".875" stop-color="#DFC9B5"/>
      <stop offset="1" stop-color="#D8BFA1"/>
    </linearGradient>
    <linearGradient id="h" x1="78.915" y1="4.135" x2="83.643" y2="4.135" gradientUnits="userSpaceOnUse">
      <stop stop-color="#FFFBF8"/>
      <stop offset=".188" stop-color="#FAF8F6"/>
      <stop offset=".404" stop-color="#F2EFEC"/>
      <stop offset=".635" stop-color="#EAE0D5"/>
      <stop offset=".875" stop-color="#DFC9B5"/>
      <stop offset="1" stop-color="#D8BFA1"/>
    </linearGradient>
    <linearGradient id="i" x1="50.062" y1="88.451" x2="50.062" y2="100.708" gradientUnits="userSpaceOnUse">
      <stop stop-color="#0085FF" stop-opacity="0"/>
      <stop offset=".203" stop-color="#0094FF" stop-opacity=".08"/>
      <stop offset=".499" stop-color="#06F" stop-opacity=".27"/>
      <stop offset=".852" stop-color="#0085FF" stop-opacity=".72"/>
      <stop offset="1" stop-color="#06F" stop-opacity=".97"/>
    </linearGradient>
    <linearGradient id="j" x1="24.335" y1="18" x2="24.336" y2="55.831" gradientUnits="userSpaceOnUse">
      <stop stop-color="#E1C220"/>
      <stop offset="1" stop-color="#EB5700"/>
    </linearGradient>
    <linearGradient id="k" x1="23.511" y1="18" x2="23.513" y2="55.83" gradientUnits="userSpaceOnUse">
      <stop stop-color="#FFE03E"/>
      <stop offset="1" stop-color="#FF6B00"/>
    </linearGradient>
    <clipPath id="a">
      <path fill="#fff" d="M0 0h100v100H0z"/>
    </clipPath>
  </defs>
</svg>
