<svg width="100" height="100" fill="none" xmlns="http://www.w3.org/2000/svg">
  <path d="M12.17 14.258h75.662a5.76 5.76 0 0 1 5.76 5.76V68.19a5.76 5.76 0 0 1-5.76 5.76H12.17a5.76 5.76 0 0 1-5.76-5.76V20.017a5.76 5.76 0 0 1 5.76-5.76Z" fill="url(#a)"/>
  <path d="M86.84 73.168H13.16a5.608 5.608 0 0 1-5.61-5.61V20.65c0-3.098 2.512-5.609 5.61-5.609h73.678c3.099 0 5.61 2.51 5.61 5.61v46.908c0 3.099-2.511 5.61-5.609 5.61Z" fill="url(#b)"/>
  <path d="M6.41 58.19v10a5.76 5.76 0 0 0 5.76 5.76h75.662a5.76 5.76 0 0 0 5.76-5.76v-10H6.41Z" fill="url(#c)"/>
  <path d="M85.913 69.23H14.087a2.538 2.538 0 0 1-2.538-2.538V21.515a2.538 2.538 0 0 1 2.538-2.538h71.826a2.538 2.538 0 0 1 2.539 2.538v45.177a2.538 2.538 0 0 1-2.539 2.538Z" fill="url(#d)"/>
  <path d="M91.63 85.732H8.37A8.37 8.37 0 0 1 0 77.362a5.033 5.033 0 0 1 5.033-5.033h89.934A5.033 5.033 0 0 1 100 77.362a8.37 8.37 0 0 1-8.37 8.37Z" fill="url(#e)"/>
  <path d="M0 79a8.369 8.369 0 0 0 8.347 7.783h83.26A8.369 8.369 0 0 0 99.954 79H0Z" fill="url(#f)"/>
  <path d="M58.503 80.956H41.496a5.246 5.246 0 0 1-5.246-5.245v-.228a3.154 3.154 0 0 1 3.154-3.154h21.19a3.154 3.154 0 0 1 3.155 3.154v.228a5.246 5.246 0 0 1-5.246 5.245Z" fill="url(#g)"/>
  <path d="M59.653 36.457a3.283 3.283 0 0 0-1.44-.95l-9.751-3.25c-2.584-.862-5.043 1.596-4.181 4.18l3.25 9.752c.197.588.532 1.071.95 1.438L63.694 62.84c1.113 1.274 3.103 1.533 4.511.435l5.299 5.28a1.74 1.74 0 0 0 2.604.165l4.636-4.637a1.74 1.74 0 0 0-.163-2.604l-5.281-5.299c1.098-1.408.84-3.398-.435-4.511l-15.212-15.21Z" fill="url(#h)"/>
  <path d="m58.214 35.507-9.753-3.25c-2.583-.862-5.041 1.596-4.18 4.18l3.25 9.752c.777 2.331 3.735 3.03 5.473 1.292l.477-.478 4.484 6.01a1.74 1.74 0 0 0 2.626.19l4.636-4.637a1.74 1.74 0 0 0-.189-2.626l-6.01-4.483.477-.478c1.737-1.737 1.04-4.695-1.291-5.472Z" fill="url(#i)"/>
  <path d="M10.096 75.468a1.518 1.518 0 1 1-3.037 0 1.518 1.518 0 0 1 3.037 0Z" fill="url(#j)"/>
  <path d="M14.586 75.468a1.518 1.518 0 1 1-3.037 0 1.518 1.518 0 0 1 3.037 0Z" fill="url(#k)"/>
  <path d="M19.076 75.468a1.519 1.519 0 1 1-3.038-.001 1.519 1.519 0 0 1 3.038.001Z" fill="url(#l)"/>
  <defs>
    <linearGradient id="a" x1="30.12" y1="19.69" x2="48.333" y2="67.398" gradientUnits="userSpaceOnUse">
      <stop stop-color="#3CB0FF"/>
      <stop offset="1" stop-color="#0073FC"/>
    </linearGradient>
    <linearGradient id="b" x1="30.639" y1="20.33" x2="48.375" y2="66.788" gradientUnits="userSpaceOnUse">
      <stop stop-color="#3CB0FF"/>
      <stop offset="1" stop-color="#0073FC"/>
    </linearGradient>
    <linearGradient id="c" x1="50.001" y1="62.758" x2="50.001" y2="77.494" gradientUnits="userSpaceOnUse">
      <stop stop-color="#424E5A" stop-opacity="0"/>
      <stop offset=".347" stop-color="#333A43" stop-opacity=".349"/>
      <stop offset="1" stop-color="#083556"/>
    </linearGradient>
    <linearGradient id="d" x1="40.587" y1="34.724" x2="52.309" y2="62.08" gradientUnits="userSpaceOnUse">
      <stop stop-color="#FCF9F7"/>
      <stop offset="1" stop-color="#FCEADD"/>
    </linearGradient>
    <linearGradient id="e" x1="27.196" y1="73.549" x2="28.108" y2="85.754" gradientUnits="userSpaceOnUse">
      <stop stop-color="#3CB0FF"/>
      <stop offset="1" stop-color="#0073FC"/>
    </linearGradient>
    <linearGradient id="f" x1="0" y1="79" x2="3.281" y2="96.814" gradientUnits="userSpaceOnUse">
      <stop stop-color="#2EA2FE"/>
      <stop offset="1" stop-color="#198CFD"/>
    </linearGradient>
    <linearGradient id="g" x1="50" y1="74.83" x2="50" y2="82.897" gradientUnits="userSpaceOnUse">
      <stop stop-color="#183189" stop-opacity=".48"/>
      <stop offset=".347" stop-color="#244062" stop-opacity=".68"/>
      <stop offset="1" stop-color="#082356"/>
    </linearGradient>
    <linearGradient id="h" x1="71.499" y1="56.5" x2="43.389" y2="42.556" gradientUnits="userSpaceOnUse">
      <stop stop-color="#3E5959" stop-opacity="0"/>
      <stop offset="1" stop-color="#384949" stop-opacity=".21"/>
    </linearGradient>
    <linearGradient id="i" x1="54.922" y1="32.081" x2="54.922" y2="58.379" gradientUnits="userSpaceOnUse">
      <stop stop-color="#FFE03E"/>
      <stop offset="1" stop-color="#FF6B00"/>
    </linearGradient>
    <linearGradient id="j" x1="7.964" y1="74.854" x2="9.248" y2="76.139" gradientUnits="userSpaceOnUse">
      <stop stop-color="#C6E56F"/>
      <stop offset=".145" stop-color="#C1E46E"/>
      <stop offset=".313" stop-color="#B3E16D"/>
      <stop offset=".492" stop-color="#9CDD6A"/>
      <stop offset=".679" stop-color="#7CD767"/>
      <stop offset=".871" stop-color="#52CF62"/>
      <stop offset="1" stop-color="#32C95F"/>
    </linearGradient>
    <linearGradient id="k" x1="12.454" y1="74.854" x2="13.739" y2="76.139" gradientUnits="userSpaceOnUse">
      <stop stop-color="#C6E56F"/>
      <stop offset=".145" stop-color="#C1E46E"/>
      <stop offset=".313" stop-color="#B3E16D"/>
      <stop offset=".492" stop-color="#9CDD6A"/>
      <stop offset=".679" stop-color="#7CD767"/>
      <stop offset=".871" stop-color="#52CF62"/>
      <stop offset="1" stop-color="#32C95F"/>
    </linearGradient>
    <linearGradient id="l" x1="16.944" y1="74.854" x2="18.228" y2="76.139" gradientUnits="userSpaceOnUse">
      <stop stop-color="#FF4C54"/>
      <stop offset="1" stop-color="#BE3F45"/>
    </linearGradient>
  </defs>
</svg>
