<svg aria-hidden="true" style="position:absolute;width:0;height:0;overflow:hidden" xmlns="http://www.w3.org/2000/svg">
  <defs>
    <symbol id="kyivpost" viewBox="0 0 147 32">
      <path d="M76.404.366c-.183.091.152.244.701.305 1.737.152 1.829.579 1.829 10.179 0 9.265-.03 9.356-1.676 9.844-.61.183.792.274 4.419.274 4.632 0 5.15-.03 3.962-.335l-1.371-.366-.244-1.829c-.122-1.006-.183-5.12-.152-9.143l.091-7.314 1.25-.091c1.006-.061 1.402.061 2.164.792 2.743 2.53 1.798 8.899-1.341 8.899-.366 0-.762.152-.884.335-.366.61 3.535.122 4.937-.579 2.133-1.097 3.779-3.505 3.779-5.547 0-1.128-.67-2.712-1.554-3.566C90.729.578 89.023.213 82.501.182c-3.17-.03-5.912.061-6.095.183zM1.432.518c1.859.244 1.92.518 1.92 9.844 0 9.143-.122 9.813-1.615 9.996-.457.061-.823.244-.823.396s2.133.274 5.059.274c3.261 0 4.968-.091 4.846-.305-.091-.183-.579-.305-1.036-.305-.488 0-1.036-.213-1.25-.457-.488-.579-.853-9.63-.396-9.143.183.152 1.31 1.676 2.53 3.322 2.804 3.87 4.754 5.943 6.004 6.461.64.274 2.164.427 4.419.396 2.895-.03 3.261-.091 2.286-.335-.61-.183-1.798-.914-2.621-1.646-1.432-1.28-5.364-5.882-7.741-9.051l-1.158-1.524 2.072-2.103c3.596-3.688 5.486-5.15 7.04-5.577 1.371-.396 1.25-.396-2.682-.396-2.743-.03-3.901.061-3.413.244.366.152.67.488.67.731 0 .579-2.834 3.87-5.638 6.583-1.676 1.615-2.011 1.829-1.859 1.219.091-.427.183-2.286.183-4.114 0-1.859.122-3.535.274-3.749.152-.244.731-.549 1.28-.67.64-.152-.945-.244-4.145-.213-2.865 0-4.724.061-4.206.122z"/>
      <path d="M33.524 3.017c0 .152.274.396.61.488.488.152.579.366.427.853-.366 1.25-3.505 6.613-3.779 6.461-.335-.213-4.084-6.857-3.931-6.979.061-.061.396-.244.731-.427.457-.274-.396-.335-3.81-.335-4.053.03-4.328.061-3.444.457 1.189.518 1.92 1.432 4.815 6.217l2.286 3.779v3.078c0 3.17-.213 3.81-1.25 3.81-.305 0-.64.122-.731.305-.122.213 1.524.305 4.693.305 3.078 0 4.907-.122 4.907-.305s-.396-.305-.853-.305c-1.463 0-1.859-.549-2.072-2.926-.274-3.139.213-4.907 2.408-8.625 2.133-3.627 3.779-5.516 4.724-5.516.366 0 .67-.152.67-.305 0-.183-1.28-.305-3.2-.305-1.768 0-3.2.122-3.2.274zM40.838 3.109c0 .152.244.244.579.244.305 0 .701.183.884.396.396.488.792 14.385.427 15.604-.183.67-.457.945-1.067 1.006-.457.061-.823.244-.823.396s2.011.274 4.754.274c3.078 0 4.663-.091 4.541-.305-.091-.183-.61-.305-1.097-.305-.67 0-.975-.183-1.189-.792-.183-.427-.305-4.053-.305-8.046 0-7.802.091-8.229 1.585-8.229.366 0 .549-.091.427-.213-.274-.274-8.716-.305-8.716-.03zM100.663 3.291c-4.206 1.493-6.4 4.876-6.126 9.417.213 3.535 2.133 6.339 5.394 7.802 2.133.975 6.613 1.097 8.96.244 3.383-1.189 5.608-3.779 6.248-7.345.731-4.023-1.158-7.68-4.968-9.691-2.072-1.067-7.04-1.31-9.509-.427zm6.552 1.829c.518.366 1.31 1.463 1.798 2.438.792 1.585.853 2.011.853 5.242 0 3.048-.091 3.657-.701 4.785-.792 1.554-1.981 2.225-3.81 2.225-3.413 0-5.73-3.627-5.699-8.96.03-3.474.884-5.577 2.59-6.309 1.097-.488 3.931-.152 4.968.579zM119.924 3.078c-2.56.975-4.023 3.17-3.688 5.577.274 1.859 1.219 3.109 3.535 4.815 4.419 3.23 4.968 4.145 3.505 5.608-.731.731-.975.792-2.621.67-2.286-.152-3.322-.884-3.962-2.804-.61-1.798-.884-1.28-.884 1.524v1.981l1.158.488c1.585.67 5.608.64 7.284-.061 1.463-.579 3.017-2.194 3.322-3.383.335-1.31-.061-3.657-.762-4.632-.366-.518-1.798-1.707-3.2-2.621-1.371-.945-2.773-1.981-3.078-2.316-.792-.884-.731-2.408.183-3.139 1.097-.884 3.627-.61 4.846.549.518.488.914 1.189.914 1.585s.152.701.305.701c.427 0 .396-4.175-.03-4.45-.61-.366-5.882-.427-6.827-.091zM128.427 3.078c-.03.091-.183 1.128-.274 2.286-.152 2.042-.152 2.072.305 1.128.61-1.341 1.28-1.615 3.931-1.615h2.316l-.03 6.156c0 3.413-.122 6.857-.213 7.71-.183 1.402-.305 1.554-1.28 1.89-.914.305-.305.366 3.962.335 3.139 0 4.663-.091 4.023-.244-.579-.122-1.189-.396-1.371-.579-.244-.244-.396-2.712-.457-7.863l-.091-7.497 2.469.183c2.651.183 3.352.518 3.352 1.615 0 .366.122.762.274.853.244.152.792-4.023.549-4.267-.183-.213-17.341-.305-17.463-.091zM50.133 3.352c.091.152.457.305.762.305.823 0 1.036.396 5.181 9.6 2.011 4.51 3.749 8.259 3.81 8.35.396.366 1.402-1.219 3.444-5.455 6.187-12.922 5.79-12.19 6.766-12.404 2.072-.396 1.036-.701-2.438-.701-2.377 0-3.627.122-3.505.305.091.152.518.305.945.305s.823.183.914.396c.122.335-3.901 10.027-4.419 10.636-.244.274-4.297-9.509-4.297-10.362 0-.457.183-.67.579-.67.335 0 .701-.152.792-.305.122-.183-1.371-.305-4.267-.305s-4.389.122-4.267.305zM.61 27.733V32h145.097l-.091-4.206-.091-4.175L.611 23.467v4.267zm9.203-.701c.091 2.286.122 2.377.945 2.651 1.493.518 1.89 0 1.981-2.682.061-1.798.183-2.316.518-2.316.731 0 .64 4.297-.122 5.211-.731.914-2.773 1.006-3.596.183-.762-.762-1.006-5.394-.274-5.394.366 0 .488.457.549 2.347zm7.254-1.097v1.28l1.371-1.28c.731-.67 1.615-1.25 1.89-1.25.396 0 .122.427-.914 1.432l-1.493 1.402 1.402 1.402c.762.792 1.402 1.524 1.402 1.646 0 .488-.64.122-2.103-1.189l-1.554-1.402v1.432c0 1.006-.122 1.371-.366 1.31-.274-.091-.427-1.067-.488-3.078-.061-2.499 0-2.956.396-2.956.335 0 .457.335.457 1.25zm9.508-.731c.701.64.701 1.768-.03 2.499-.549.549-.549.579 0 1.432.305.488.579 1.067.579 1.25 0 .762-.549.396-1.128-.762-.488-.884-.823-1.158-1.554-1.219-.884-.091-.945-.03-1.036 1.067-.183 2.225-.701.975-.792-1.89l-.091-2.895h1.737c1.189 0 1.92.152 2.316.518zm6.918 2.346c.67 1.585 1.25 2.956 1.25 3.048 0 .488-.67.091-.975-.579s-.518-.762-1.92-.762-1.615.091-1.92.762c-.366.792-1.158 1.097-.884.335 1.006-2.59 2.53-5.669 2.804-5.669.213 0 .945 1.28 1.646 2.865zm3.993.183c0 1.829-.122 3.048-.305 3.048s-.305-1.219-.305-3.048.122-3.048.305-3.048.305 1.219.305 3.048zm4.906-.853 1.646 2.164.091-2.164c.122-3.352.67-2.651.67.884 0 1.798-.122 3.017-.305 2.956-.152-.061-1.036-1.097-1.95-2.347l-1.676-2.225-.091 2.225c-.122 3.23-.67 2.682-.792-.792-.061-2.255 0-2.895.335-2.895.213 0 1.158.975 2.072 2.194zm8.808-1.89c0 .152-.67.305-1.524.305-1.493 0-1.524.03-1.524.884s.061.914 1.463 1.006c1.859.122 1.859.67 0 .792-1.402.091-1.463.152-1.463 1.006s.03.884 1.524.884c1.158 0 1.524.122 1.524.457 0 .396-.335.457-1.89.396l-1.92-.091-.091-2.987-.091-2.956h2.011c1.128 0 1.981.122 1.981.305zm3.048.122c0 .67-.335 1.402-.64 1.402-.152 0-.274-.427-.274-.914 0-.61.152-.914.457-.914.244 0 .457.183.457.427zm6.095.031c.549.67.244.792-.853.396-1.158-.457-2.042-.061-2.042.853 0 .427.396.701 1.371 1.036.762.244 1.554.579 1.768.701.518.366.457 1.432-.152 2.103-.884 1.006-4.053.579-4.053-.549 0-.335.122-.366.579-.122 1.31.67 3.413.091 2.834-.792-.122-.183-.823-.549-1.585-.792-1.707-.549-2.286-1.676-1.371-2.682.67-.762 2.926-.853 3.505-.152zm10.331-.031c.457.518.03.853-.579.457-.701-.427-1.89-.335-2.499.244-.366.335-.549.914-.549 1.768 0 1.615.731 2.377 2.194 2.225.853-.061 1.036-.213 1.097-.945.091-.701 0-.823-.67-.823-.427 0-.792-.152-.792-.305 0-.183.488-.305 1.067-.305h1.067v1.493c0 1.432-.03 1.524-.945 1.707-2.469.549-4.023-.64-4.023-3.078 0-1.92.914-2.865 2.865-2.865.853 0 1.554.183 1.768.427zm3.688 2.164v2.59h1.371c1.006 0 1.371.122 1.371.457 0 .366-.396.457-1.829.457h-1.829v-3.048c0-2.499.091-3.048.457-3.048s.457.488.457 2.59zm8.808-1.92c1.92 2.011.549 5.425-2.133 5.425-.335 0-1.036-.396-1.524-.884-1.189-1.219-1.25-3.322-.122-4.45.975-1.006 2.895-1.067 3.779-.091zm7.07-.091c.67.518.701.67.366 1.524-.183.549-.213 1.006-.061 1.128.152.091.274.549.274 1.036 0 1.25-1.067 1.89-2.956 1.768L86.4 30.63l-.091-2.987-.091-2.956h1.676c1.158 0 1.859.183 2.347.579zm6.857 2.316c.701 1.554 1.189 2.926 1.097 3.017-.244.274-.975-.427-.975-.914 0-.305-.457-.427-1.615-.427-1.463 0-1.676.091-1.981.762-.335.731-.975 1.067-.975.488 0-.152.274-.914.61-1.676l1.219-2.773c.305-.762.762-1.371.975-1.371s.975 1.31 1.646 2.895zm4.084-.335v2.59l1.371.091c2.072.152 1.798.701-.366.792l-1.92.091v-3.078c0-2.499.091-3.048.457-3.048s.457.488.457 2.56zm9.295-.396c.488 1.189.975 2.194 1.097 2.286.122.061.67-.914 1.219-2.164s1.158-2.286 1.371-2.286c.427 0-2.042 5.851-2.53 6.004-.274.091-2.865-5.181-2.834-5.79 0-.122.183-.213.396-.213.183 0 .762.975 1.28 2.164zm10.118-1.494c.945.884 1.006 3.474.091 4.45-1.158 1.25-2.804 1.219-3.962-.03-.853-.884-.823-3.2.03-4.297.823-1.036 2.773-1.128 3.84-.122zm3.993 2.286c-.061 2.011-.213 2.987-.457 3.078-.305.091-.396-.64-.396-2.956 0-2.56.091-3.078.457-3.078.396 0 .457.457.396 2.956zm6.735-2.53c.457.518.03.853-.579.457-.823-.488-2.072-.305-2.56.396-1.463 2.072.427 4.724 2.56 3.596.335-.183.64-.183.731-.03.305.488-.61.945-1.95 1.006-1.097.03-1.432-.091-2.042-.792-.427-.518-.701-1.219-.701-1.89 0-1.158.67-2.712 1.28-2.956.853-.335 2.926-.213 3.261.213zm6.43-.122c0 .152-.67.305-1.524.305-1.524 0-1.524 0-1.524 1.006 0 .975 0 .975 1.371.884 1.097-.091 1.371-.03 1.371.366 0 .366-.305.488-1.371.488-1.31 0-1.371.03-1.371.914s.03.914 1.524.914c1.158 0 1.524.122 1.524.457 0 .396-.335.457-1.89.396l-1.92-.091-.091-2.987-.091-2.956h2.011c1.128 0 1.981.122 1.981.305z"/>
      <path d="M23.467 26.331v1.128l1.25-.091c.792-.061 1.402-.274 1.615-.61.457-.731-.061-1.158-1.615-1.371l-1.25-.183v1.128zM31.299 26.971c-.305.64-.488 1.189-.396 1.28.061.061.549.091 1.067.03l.914-.091-.518-1.189-.518-1.158-.549 1.128zM80.061 25.844c-.67.731-.67 2.895-.03 3.535.701.731 2.133.61 2.682-.183 1.524-2.164-.945-5.242-2.651-3.352zM87.162 26.24c0 .884.03.914 1.31.823 1.036-.061 1.31-.213 1.371-.731.091-.67-.579-1.036-1.981-1.036-.579 0-.701.152-.701.945zM87.162 28.952c0 .914.03.945 1.31.853 1.128-.091 1.28-.183 1.28-.853s-.152-.762-1.28-.853c-1.28-.091-1.31-.061-1.31.853zM94.964 26.941c-.274.67-.427 1.25-.366 1.31.061.091.518.091 1.036.03l.884-.091-1.036-2.438-.518 1.189zM117.547 25.752c-.701.701-.914 2.164-.457 3.109.61 1.25 2.621 1.25 3.23 0 .457-.945.244-2.408-.457-3.109-.579-.579-1.737-.579-2.316 0z"/>
    </symbol>
  </defs>
</svg>
