<svg aria-hidden="true" style="position:absolute;width:0;height:0;overflow:hidden" xmlns="http://www.w3.org/2000/svg">
  <defs>
    <symbol id="kyivpost" viewBox="0 0 61 32">
      <path d="M1.26 9.559c-.112.076.112.193.361.193.31 0 .467.086.579.315.086.173.096.396.122 2.286a87.686 87.686 0 0 1-.025 3.545c-.061 1.859-.071 1.879-.686 1.956-.239.025-.295.051-.279.117.015.081.193.086 2.011.096 1.742.01 2.001 0 2.027-.066.041-.107.02-.117-.376-.168-.442-.056-.538-.107-.65-.345-.081-.168-.096-.396-.117-1.905-.015-.945-.015-1.717 0-1.717s.223.279.457.62c.919 1.326 2.138 2.87 2.443 3.103.523.396.858.462 2.321.467 1.021 0 1.194-.01 1.194-.076 0-.046-.091-.096-.254-.132a3.025 3.025 0 0 1-.447-.137c-.361-.152-1.204-1.036-2.606-2.733-.376-.457-1.407-1.818-1.488-1.961-.046-.091 0-.163.386-.579.239-.264.864-.899 1.382-1.417 1.006-1.001 1.184-1.128 1.717-1.229.416-.076.543-.132.483-.208-.071-.081-3.032-.081-3.119.005-.041.041-.02.071.076.112.076.025.193.071.264.102.371.142-.01.691-1.864 2.677-.472.513-.884.93-.909.93-.056 0-.056-2.484 0-2.992.056-.457.178-.61.518-.645.396-.046.462-.071.442-.163-.015-.081-.168-.086-1.961-.091-1.067 0-1.966.015-2.001.041zM31.101 9.585c-.041.107.015.137.371.173.376.036.503.127.579.396.066.234.066 6.38 0 6.949-.066.589-.137.676-.645.752-.122.02-.229.051-.244.076-.076.122.198.142 2.083.132 1.808-.005 1.981-.01 1.996-.091.015-.066-.036-.091-.229-.117-.503-.061-.579-.081-.701-.193-.102-.086-.142-.188-.178-.442-.076-.518-.066-6.923.01-6.999.086-.086.538-.076.818.02.523.178.935.752 1.056 1.463.086.523.041 1.371-.102 1.676-.239.549-.549.782-1.082.833-.32.025-.391.071-.295.188.046.056.178.076.483.076.787 0 1.61-.305 2.159-.797.574-.518.818-1.082.818-1.874 0-1.163-.66-1.905-1.961-2.184-.345-.076-.736-.091-2.657-.097-1.869-.005-2.26.005-2.281.061zM41.549 10.59c-2.042.325-3.302 1.768-3.302 3.789 0 .665.107 1.133.396 1.722.193.401.31.559.67.919.691.696 1.488 1.062 2.57 1.168 2.59.259 4.505-1.255 4.668-3.688.056-.874-.132-1.6-.589-2.286-.869-1.3-2.555-1.92-4.414-1.625zm1.392.752c1.021.467 1.559 1.773 1.488 3.586-.046 1.143-.229 1.727-.686 2.184-.32.315-.645.427-1.168.406-1.224-.056-2.032-1.178-2.204-3.058-.061-.696.005-1.519.163-2.027.193-.625.584-1.046 1.107-1.194.361-.102.96-.056 1.3.102zM48.701 10.59c-1.25.249-1.971 1.199-1.818 2.397.107.813.528 1.351 1.742 2.215.904.645 1.016.747 1.173 1.062s.163.498.03.792c-.142.32-.483.467-1.067.467-.924-.005-1.595-.518-1.732-1.326-.066-.366-.117-.452-.208-.361-.071.071-.157 1.493-.112 1.803.025.157.061.208.229.29.371.193.838.269 1.62.269 1.138.005 1.707-.188 2.291-.772.472-.472.579-.752.579-1.529 0-.559-.005-.599-.168-.919-.224-.462-.711-.914-1.661-1.539-.864-.569-1.011-.691-1.148-.955-.117-.229-.127-.645-.02-.853.178-.34.65-.543 1.153-.488.731.076 1.26.513 1.341 1.112.036.264.127.381.213.279.025-.036.061-.432.066-.904l.02-.838-.203-.066c-.594-.198-1.697-.259-2.321-.137zM51.713 10.824c-.107.533-.218 1.422-.188 1.498.056.142.147.046.279-.284.193-.467.269-.508 1.046-.569a9.9 9.9 0 0 1 .955-.03l.315.015.015 2.641c.005 1.453-.01 2.829-.036 3.063-.056.528-.147.645-.523.686-.244.03-.371.107-.315.193.01.02.874.03 1.91.025 1.646-.005 1.895-.015 1.895-.081 0-.056-.096-.091-.33-.132-.437-.076-.498-.107-.599-.295-.076-.142-.086-.437-.102-3.124l-.02-2.966.909.025c1.229.03 1.366.097 1.432.701.02.208.051.284.117.295.127.025.142-.102.157-1.056.01-.726 0-.833-.066-.813-.122.041-5.313.081-5.79.046-.239-.02-.559-.051-.721-.071l-.284-.036-.056.269z"/>
      <path d="M10.316 10.667c-1.163.02-1.6.041-1.615.086-.025.076.107.142.356.188.117.02.274.112.396.218.284.254 1.392 2.022 2.042 3.261l.31.584.02.67c.015.366.005.935-.015 1.265-.046.731-.097.813-.574.894-.254.046-.315.076-.305.142.015.071.203.081 1.935.091 1.641.005 1.925-.005 1.95-.066.041-.107.02-.117-.376-.168-.701-.086-.726-.142-.726-1.559 0-1.239.041-1.448.416-2.154.645-1.209 1.443-2.504 1.752-2.85.229-.249.32-.305.676-.376.193-.036.284-.081.295-.142.015-.081-.076-.086-1.346-.076-1.158.015-1.361.025-1.361.091 0 .046.097.102.239.142.381.107.376.188-.061 1.067-.376.772-.996 1.935-1.062 2.006-.03.03-1.194-1.991-1.554-2.697-.112-.229-.071-.3.198-.371.269-.066.34-.178.152-.249a.401.401 0 0 0-.137-.041c-.005.01-.726.025-1.605.041zM17.148 10.656c-.163.036-.066.183.147.223.416.081.437.091.513.274.061.147.076.645.076 3.048 0 1.58-.015 2.956-.03 3.058-.071.422-.188.569-.452.569a.95.95 0 0 0-.259.051c-.112.041-.127.066-.081.122.051.061.391.071 1.884.076 1.209 0 1.839-.015 1.859-.051.056-.091-.051-.147-.34-.183a1.598 1.598 0 0 1-.411-.096c-.264-.137-.269-.198-.269-3.449 0-3.484-.03-3.276.467-3.383.335-.071.416-.122.335-.203-.051-.051-3.2-.102-3.439-.056zM20.698 10.717c-.056.086.02.142.244.178.513.086.442-.025 1.605 2.626.447 1.016 1.072 2.448 1.397 3.19s.635 1.392.691 1.443c.091.091.102.091.224.01.193-.122 1.001-1.773 2.55-5.186.544-1.204.757-1.615.94-1.823a.888.888 0 0 1 .67-.284c.102 0 .137-.025.137-.102 0-.102-.025-.102-1.432-.091-1.239.015-1.437.025-1.437.091 0 .056.096.091.34.132.416.066.518.142.477.335-.051.259-1.702 4.206-1.757 4.206s-1.641-3.896-1.691-4.16c-.046-.213.066-.361.274-.361.203 0 .401-.086.401-.178 0-.066-.218-.076-1.798-.076-1.148 0-1.813.02-1.834.051zM1.158 20.754c-.01.94-.005 1.717.005 1.727s12.637.02 28.053.02h28.028v-3.454H1.173l-.015 1.707zm9.138-.558c-.269.259-.493.488-.493.513 0 .02.229.29.508.589.279.305.508.564.508.574s-.102.02-.223.02c-.218 0-.223-.005-.67-.528-.249-.295-.467-.533-.488-.533-.025-.005-.041.234-.041.528v.533h-.305v-2.184h.305v.94l.472-.467c.386-.381.498-.467.645-.483.097-.01.198-.005.223.005s-.173.234-.442.493zm14.207-.468c.229.096.269.173.152.29-.096.091-.102.091-.32-.015-.203-.102-.224-.102-.391-.025-.188.091-.264.269-.178.432.03.056.193.147.386.218.178.061.386.178.462.254.274.284.183.772-.183.97-.35.188-1.041.03-1.041-.239 0-.168.152-.208.305-.086.284.229.736.091.736-.218 0-.178-.152-.31-.483-.411-.361-.117-.533-.305-.533-.584a1 1 0 0 1 .071-.345c.147-.279.645-.396 1.016-.239zm3.769.026c.117.051.224.117.239.142.041.066-.157.284-.229.249-.036-.02-.122-.066-.193-.107-.188-.107-.544-.096-.742.025-.203.127-.376.467-.376.747 0 .274.188.615.406.731.193.107.61.127.767.046.076-.046.096-.112.096-.33v-.279h-.229c-.218 0-.229-.005-.229-.152v-.152h.762v1.102l-.137.061c-.213.096-.828.132-1.056.056a1.222 1.222 0 0 1-.401-.274c-.559-.559-.401-1.549.3-1.864.269-.127.747-.122 1.021 0zm4.515 0c.843.381.848 1.676.01 2.083-.406.198-.95.117-1.275-.188-.361-.34-.447-.955-.193-1.437.117-.229.188-.3.411-.416.335-.168.736-.183 1.046-.041zm13.009 0c.686.31.848 1.316.295 1.864a1.062 1.062 0 0 1-.406.269c-.813.224-1.504-.274-1.509-1.087 0-.518.264-.93.701-1.082.244-.086.691-.071.919.036zm4.134.015c.254.127.315.259.157.34-.081.046-.137.036-.269-.046-.218-.132-.574-.132-.772-.005-.452.3-.508.99-.112 1.377.147.137.229.173.452.193.239.02.29.005.437-.117.147-.127.178-.132.29-.076.157.086.152.117-.015.279-.31.284-.93.305-1.305.041-.32-.224-.462-.523-.462-.955.005-.528.244-.909.686-1.087.234-.091.67-.066.914.056zm-43.022.747c0 .797 0 .813.132.965a.458.458 0 0 0 .686.025c.117-.122.122-.168.147-.95l.025-.823.168-.015.163-.015v.757c0 .432-.025.833-.056.93-.223.655-1.062.757-1.488.183-.096-.132-.107-.229-.122-1.006l-.02-.858h.366v.808zm5.775-.676c.29.213.29.762 0 .935a1.702 1.702 0 0 1-.213.117c-.025.01.071.218.218.462.142.244.264.467.264.493s-.076.046-.173.046c-.168 0-.188-.02-.442-.483-.239-.432-.279-.483-.411-.483h-.142v.97l-.305-.03-.005-1.041v-1.082c.005-.025.244-.036.533-.025.442.01.554.036.676.122zm2.418.924c.244.579.442 1.072.442 1.092s-.076.036-.173.036c-.157 0-.178-.02-.274-.254l-.107-.259-.99.03-.086.229c-.076.208-.102.229-.269.244-.102.01-.183.005-.183-.005s.173-.432.386-.93c.213-.503.416-.985.452-1.077.056-.132.102-.163.218-.163.142 0 .157.025.584 1.056zm1.448.046.01 1.082h-.356v-2.189l.168.015.163.015.015 1.077zm1.813-.289c.279.447.518.813.533.813s.03-.361.036-.803l.005-.797.315-.03v2.189h-.213l-.218-.005-.508-.833c-.279-.457-.518-.838-.533-.838s-.025.371-.025.823v.828l-.163.015-.168.015v-2.189h.218l.213.005.508.808zm3.124-.661v.152H20.47v.61h.97l-.015.137-.015.142-.457.005-.457.01-.03.67h1.072v.305h-1.422v-2.184h1.371v.152zm1.198-.066c-.02.046-.076.218-.122.381-.056.183-.122.305-.173.325-.122.036-.203-.02-.173-.122l.107-.381c.076-.269.091-.29.239-.29.122 0 .147.015.122.086zm7.081.854v.935l.467.015c.462.015.467.015.467.142v.127h-1.265l-.015-1.016c-.005-.559 0-1.041.01-1.077.015-.036.096-.066.183-.066h.152v.94zm5.684-.767c.208.198.224.528.036.716l-.122.122.152.117c.127.096.157.168.178.371.02.208.005.279-.091.401-.173.218-.386.284-.935.284h-.483v-1.056c0-.584.015-1.077.041-1.097.02-.02.269-.03.554-.02.493.015.523.02.67.163zm2.463.843.452 1.082c.025.071 0 .086-.157.086-.188 0-.198-.01-.284-.254l-.091-.254h-.996l-.091.254c-.086.234-.102.254-.259.254-.091 0-.168-.025-.168-.051 0-.03.056-.183.122-.345l.386-.924c.147-.35.284-.686.31-.752.036-.096.076-.117.203-.102.152.015.168.041.574 1.006zm1.453-.076v.935l.472.015c.462.015.467.015.467.142v.127l-1.244.03v-2.189h.305v.94zm2.987-.219c.137.401.269.782.29.848s.056.096.081.071c.02-.02.168-.396.315-.828l.279-.787.188-.015c.168-.015.188-.005.152.076-.112.284-.787 2.067-.787 2.083s-.076.015-.163.005l-.168-.015-.391-1.041a23.047 23.047 0 0 1-.396-1.082c0-.02.076-.036.173-.036h.173l.254.721zm5.191.371v1.092h-.356v-2.184h.356V20.8zm4.749-.94c0 .127-.005.127-.518.142l-.523.015v.604h.508c.503 0 .508 0 .508.122 0 .157-.076.183-.589.183h-.427v.655l1.092.03.015.137.015.142h-1.427v-2.189l1.346.03v.127z"/>
      <path d="M31.909 20.064c-.254.157-.366.381-.366.736 0 .213.03.356.102.472a.748.748 0 0 0 1.31-.041c.208-.416.091-.955-.259-1.168a.832.832 0 0 0-.787 0zM44.912 20.064c-.254.157-.366.381-.366.736 0 .538.31.858.787.823.594-.041.904-.645.64-1.234a.755.755 0 0 0-1.062-.325zM11.784 20.317v.305h.305c.33 0 .508-.107.508-.305s-.178-.305-.508-.305h-.305v.305zM14.334 20.566a3.693 3.693 0 0 0-.163.457c0 .036.132.056.33.056.183 0 .33-.02.33-.046 0-.071-.264-.782-.305-.833-.02-.02-.107.142-.193.366zM34.54 20.317v.305h.254c.208 0 .284-.025.381-.127.152-.147.157-.249.025-.381-.076-.076-.168-.102-.381-.102h-.279v.305zM34.54 21.242v.345h.305c.264 0 .33-.02.437-.132.102-.096.122-.157.096-.264-.051-.208-.102-.234-.483-.264l-.356-.025v.34zM37.161 20.556c-.081.218-.157.427-.173.457-.015.051.066.066.31.066.183 0 .345-.015.356-.041.015-.02-.041-.198-.122-.391-.081-.198-.147-.386-.147-.422 0-.157-.091-.03-.224.33z"/>
    </symbol>
    <symbol id="hromadske" viewBox="0 0 141 32">
      <path d="M28.512.679c-.651.223-1.116.502-1.563.949-1.619 1.647-1.107 4.381 1.014 5.395.474.233.66.27 1.386.279.716 0 .912-.037 1.367-.251A3.528 3.528 0 0 0 32.4 5.404c.27-.549.298-.688.298-1.451 0-.716-.037-.912-.251-1.377-.353-.744-1.098-1.47-1.795-1.74-.679-.251-1.628-.326-2.14-.158zM3.349.735c-.66.214-1.767.986-1.767 1.237 0 .046-.056.149-.13.223s-.223.372-.335.66c-.288.753-.233 1.823.13 2.521.707 1.395 2.177 2.158 3.572 1.87 1.442-.298 2.419-1.265 2.726-2.707.298-1.367-.53-2.958-1.87-3.6-.409-.186-.67-.242-1.302-.26C3.936.67 3.48.688 3.35.735zm1.674 1.823c.865.446 1.098 1.684.456 2.419-.651.735-1.712.753-2.353.046-.93-1.033-.251-2.605 1.126-2.605.279 0 .623.065.772.14zM11.721.744a3.463 3.463 0 0 0-2.065 1.749c-.279.567-.307.688-.307 1.507 0 .828.019.921.316 1.47.642 1.181 1.684 1.814 3.005 1.814.595 0 .809-.046 1.321-.288 2.214-1.033 2.66-3.805.884-5.47-.651-.614-1.302-.865-2.233-.856-.381 0-.791.028-.921.074zM19.907.809c-.233.074-.595.26-.809.409-.437.307-.977.912-.902 1.033.028.037.009.074-.047.074-.047 0-.177.242-.288.53-.307.819-.233 1.823.186 2.614.623 1.181 1.674 1.814 2.995 1.814.595 0 .809-.046 1.321-.288 2.214-1.033 2.66-3.805.884-5.47-.651-.614-1.302-.856-2.233-.865-.381 0-.874.065-1.107.149zM3.46 8.791c-.651.186-.912.326-1.433.791-.279.242-.549.614-.744 1.005-.279.549-.307.707-.307 1.414s.028.865.307 1.414c1.033 2.093 3.6 2.558 5.302.967a3.035 3.035 0 0 0 .986-2.242c0-.847-.065-1.163-.381-1.74-.698-1.274-2.363-1.991-3.73-1.609zm1.405 1.758c.409.167.884.726.958 1.126.251 1.349-1.144 2.363-2.335 1.693-.437-.242-.791-.856-.791-1.377 0-1.07 1.181-1.86 2.167-1.442zM11.935 8.744c-.94.195-1.823.912-2.279 1.842-.279.549-.307.707-.307 1.414 0 .67.037.874.27 1.367.326.707.967 1.34 1.712 1.684.447.214.66.251 1.321.251s.874-.037 1.321-.251c1.87-.874 2.54-3.014 1.507-4.781-.66-1.135-2.223-1.805-3.544-1.526zM20.298 8.744c-1.86.391-3.051 2.474-2.437 4.279.326.967.828 1.526 1.767 1.991.53.251.698.288 1.395.288.707 0 .865-.037 1.414-.307 1.842-.902 2.456-3.126 1.33-4.828-.735-1.107-2.177-1.693-3.47-1.423zM28.837 8.735c-.074.056-.167.065-.205.046-.037-.028-.354.084-.679.251-1.274.623-1.991 1.87-1.879 3.246.074.884.4 1.535 1.098 2.177 1.023.949 2.4 1.153 3.665.53 2.307-1.144 2.502-4.391.344-5.767-.744-.465-1.963-.716-2.344-.484zM38.893 9.646c0 .093 0 3.581-.009 7.749v8.093h2.419v-3.005c-.009-2.8 0-3.033.186-3.637.353-1.135 1.163-1.73 2.335-1.73 1.181.009 1.898.744 2.13 2.177.074.502.121 4.26.065 5.637l-.019.512 2.372.056.009-1.842c.009-4.781.009-4.856-.307-5.888-.4-1.302-1.274-2.27-2.428-2.67-.67-.233-2.307-.233-2.716 0-.149.084-.335.158-.4.158-.056 0-.372.251-.688.558-.307.307-.586.558-.605.558-.009 0-.028-1.553-.028-3.442V9.488h-1.154c-1.042 0-1.163.019-1.163.158zM106.028 12.921 106 16.363l-.465-.419c-.874-.772-1.87-1.116-3.005-1.033-1.349.093-2.53.763-3.423 1.963-.558.744-.986 1.777-1.005 2.447 0 .27-.046.493-.093.493-.093 0 0 1.247.149 1.86.335 1.405 1.423 2.8 2.679 3.433.93.465 1.86.633 2.651.484.726-.13 1.572-.558 2.065-1.023.214-.214.419-.381.447-.381s.046.288.046.651v.651h2.419v-16h-2.419l-.019 3.433zm-1.907 4.326c1.228.437 1.944 1.563 1.935 3.033-.009 1.386-.502 2.288-1.553 2.8-1.553.772-3.237.121-3.87-1.488-.149-.391-.205-.726-.205-1.358 0-.735.028-.912.26-1.423.316-.679.967-1.33 1.572-1.535.493-.177 1.395-.186 1.86-.028zM119.814 17.488v8h2.419v-4.186h.353c.344 0 .419.065 2.307 2.093l1.944 2.093h3.051l-.456-.484a285.803 285.803 0 0 0-2.93-3.163c-.186-.186-.614-.66-.958-1.042l-.614-.688 1.126-1.34c.614-.735 1.526-1.814 2.028-2.4.493-.586.94-1.126.977-1.191.056-.084-.251-.112-1.405-.102h-1.47l-1.628 1.972c-1.572 1.907-1.86 2.167-2.205 2.037-.093-.028-.121-1.079-.121-4.819V9.487h-2.419v8zM54.233 15.014c-.177.065-.437.167-.577.223s-.493.335-.791.614c-.298.288-.558.521-.586.521s-.037-.316-.019-.698l.037-.698H49.86v10.512h2.521l-.019-3.005c-.019-3.107.009-3.433.391-4.167.233-.465.846-.967 1.349-1.107.595-.167 1.433-.074 1.944.223l.419.251.251-.437c.149-.242.419-.679.614-.986.186-.298.344-.577.344-.614 0-.13-.698-.474-1.256-.623-.67-.167-1.74-.177-2.186-.009zM61.488 15.023a4.986 4.986 0 0 0-3.349 2.698c-.428.902-.558 1.479-.558 2.54 0 1.507.53 2.856 1.516 3.851 1.591 1.609 3.991 1.991 6.074.958.828-.409 1.386-.893 1.926-1.693 1.135-1.674 1.246-3.972.288-5.795-.66-1.265-1.916-2.223-3.312-2.558-.716-.167-1.898-.167-2.586 0zm2.568 2.4c1.795.912 2.158 3.814.651 5.209-.716.67-1.879.902-2.846.577-1.888-.623-2.54-3.386-1.2-5.079.307-.391.94-.809 1.414-.93.549-.14 1.47-.037 1.981.223zM73.284 15.098c-.567.242-1.033.586-1.34 1.005-.102.149-.223.242-.251.205-.037-.028-.065-.344-.065-.698v-.633h-1.163c-.967 0-1.163.028-1.172.14l-.019 5.228v5.098l2.447.056v-3.07c0-2.781.019-3.116.186-3.646.344-1.107 1.033-1.665 2.093-1.665.67 0 1.237.233 1.516.623.102.14.26.512.353.819.158.502.167.884.158 3.74l-.028 3.191h2.4l.037-3.237c.037-3.088.046-3.247.242-3.749.121-.298.326-.642.465-.781.847-.856 2.372-.791 3.098.14.484.614.549 1.116.549 4.53v3.098h2.409l-.028-3.423c-.019-3.2-.037-3.451-.233-4.093-.633-2.13-1.833-3.079-3.879-3.088-1.153 0-1.972.344-2.902 1.247l-.502.474-.149-.233c-.298-.465-.977-1.023-1.498-1.219-.353-.14-.791-.214-1.358-.242-.726-.028-.912 0-1.367.186zM90.195 14.986c-2.288.567-4.019 3.098-3.833 5.619.102 1.423.651 2.67 1.572 3.591.614.623 1.107.93 1.842 1.191 1.498.512 2.995.223 4.065-.772.251-.233.484-.428.521-.428.028 0 .056.288.056.651v.651h2.419V14.977h-2.409v.623c.009.354.009.67 0 .707 0 .047-.205-.093-.447-.316a5.918 5.918 0 0 0-1.135-.716c-.605-.288-.8-.335-1.488-.363-.437-.009-.958.019-1.163.074zm2.782 2.512c.558.335.819.633 1.163 1.293.326.614.372 1.888.102 2.651-.112.307-.205.595-.223.642-.056.233-.781.846-1.256 1.06-1.079.493-2.447.233-3.191-.605-.763-.874-1.014-2.177-.651-3.377.177-.577.288-.763.735-1.209.67-.67 1.116-.846 2.084-.809.614.028.781.074 1.237.354zM112.744 15.033a4.26 4.26 0 0 0-.884.363c-.409.233-1.219 1.051-1.126 1.135.028.028-.009.112-.084.177-.186.186-.353 1.126-.288 1.609.084.605.474 1.349.874 1.665.558.447 1.088.67 2.335.986.651.177 1.274.354 1.377.419.549.288.754 1.042.437 1.591-.512.856-2.214.846-3.442-.019-.428-.298-.549-.344-.642-.242l-.633.735-.521.614.298.279c.391.381 1.367.902 2.065 1.107.819.242 2.326.223 3.07-.047 1.535-.549 2.372-1.628 2.372-3.033 0-.856-.233-1.479-.763-2.019-.558-.577-1.284-.902-2.726-1.247-.967-.223-1.163-.298-1.433-.567-.279-.279-.307-.354-.26-.707.14-1.023 1.516-1.302 2.893-.586l.586.307.577-.744c.316-.4.558-.791.53-.856-.065-.177-1.302-.763-1.963-.93-.688-.177-1.981-.167-2.651.009zM133.665 15.023c-1.349.326-2.633 1.349-3.209 2.558-.781 1.609-.781 3.749-.009 5.274 1.033 2.028 3.46 3.135 5.907 2.688a5.253 5.253 0 0 0 2.8-1.405c.363-.344.66-.651.66-.688 0-.056-.512-.372-1.47-.921l-.4-.223-.14.195c-.195.27-.893.735-1.358.902-.595.214-1.777.186-2.409-.047-.846-.316-1.544-1.144-1.702-2.037l-.047-.298H140v-.865c0-1.87-.586-3.163-1.935-4.27-1.033-.847-2.921-1.219-4.4-.865zm2.382 2.084a2.639 2.639 0 0 1 1.488 1.842l.065.307h-2.614c-3.014 0-2.828.074-2.307-.93.326-.642.763-1.051 1.33-1.256.53-.195 1.581-.167 2.037.037zM12.009 16.846c-.958.186-1.767.791-2.242 1.684-.27.502-.326.698-.354 1.377-.028.642 0 .893.167 1.321.27.735.893 1.395 1.656 1.767.558.279.698.307 1.414.307.679-.009.874-.047 1.34-.279 1.944-.93 2.512-3.423 1.153-5.014-.381-.437-1.033-.921-1.256-.921-.065 0-.121-.037-.121-.074s-.26-.112-.586-.167c-.651-.112-.605-.112-1.172 0zM19.981 16.865c-.958.363-1.6.94-2.019 1.833-.205.437-.242.642-.242 1.395 0 .791.028.94.279 1.423.791 1.581 2.753 2.316 4.279 1.619.753-.354 1.116-.642 1.488-1.209.893-1.34.726-3.07-.4-4.195-.66-.66-1.293-.93-2.251-.967-.493-.009-.921.028-1.135.102zM11.674 24.93c-.54.167-1.302.707-1.646 1.163-1.256 1.665-.698 4.065 1.163 4.977.977.465 2.019.465 2.986-.019.493-.251 1.181-.958 1.433-1.479.223-.456.428-1.442.335-1.591-.037-.047-.065-.27-.084-.484-.056-.856-.874-1.916-1.814-2.372-.409-.186-.67-.242-1.302-.26-.437-.009-.912.019-1.07.065zM20.093 24.921c-1.628.521-2.66 2.186-2.335 3.767.391 1.907 2.195 3.088 4.009 2.623 1.033-.27 1.712-.809 2.214-1.767.223-.419.251-.577.251-1.405 0-.809-.028-.995-.242-1.442-.381-.791-1.219-1.535-1.981-1.74-.326-.093-1.665-.121-1.916-.037z"/>
    </symbol>
    <symbol id="delo" viewBox="0 0 32 32">
      <path d="M0 16v16h32V0H0v16zm9.4-1.575v3.625H8.05v-.295l-.27.12c-.415.185-1.035.295-1.46.26-1.42-.12-2.42-1.245-2.42-2.71 0-1.3.81-2.34 2.045-2.625.54-.125 1.37-.015 2.02.27.08.04.085-.035.085-1.115V10.8H9.4v3.625zm8.45 0v3.625H16.5V10.8h1.35v3.625zm-4.095-1.585c.67.185 1.17.61 1.465 1.225.22.465.295.805.3 1.335l.005.425-1.91.015c-1.26.005-1.915.03-1.915.06 0 .125.26.545.42.69.34.295.455.335 1.03.335.59 0 .81-.08 1.16-.415l.185-.175.425.345c.235.19.43.36.43.375 0 .09-.565.565-.845.715-.485.25-.89.345-1.505.345-.44 0-.585-.02-.895-.13-.655-.23-1.13-.635-1.445-1.225-.22-.41-.31-.805-.31-1.345 0-1.255.765-2.27 1.95-2.585.39-.105 1.06-.1 1.455.01zm8.62-.015c.535.135.92.36 1.33.77.55.55.795 1.11.795 1.83 0 .89-.455 1.725-1.215 2.225-.73.48-1.745.61-2.56.33-1.175-.405-1.925-1.405-1.925-2.57 0-1.17.925-2.29 2.13-2.58.395-.095 1.08-.1 1.445-.005zm4.02 3.865c.48.355.475.97-.01 1.33-.205.15-.605.145-.825-.01a.837.837 0 0 1-.23-1.065c.205-.36.75-.49 1.065-.255zm-5.035 3.545c.015.955.025 1.115.11 1.285.24.485 1.05.505 1.365.035.11-.165.115-.21.115-1.285v-1.12h.7v1.14c0 1.26-.03 1.445-.3 1.77-.085.1-.28.245-.44.325-.25.12-.34.14-.735.14-.695-.005-1.11-.23-1.355-.75-.115-.24-.12-.295-.12-1.44V19.15h.64l.02 1.085zm5.15.585c.435.905.79 1.65.79 1.66s-.165.02-.365.02h-.37l-.14-.325-.135-.325h-1.515l-.13.315-.125.31-.765.03.655-1.365c.36-.75.715-1.505.795-1.68.14-.315.145-.315.33-.3l.185.015.79 1.645z"/>
      <path d="M6.325 14.02c-.425.135-.76.405-.955.78-.13.245-.135 1.05-.005 1.285.15.275.39.515.655.655.23.12.305.135.785.135.505 0 .545-.01.875-.175l.345-.175.015-1.045c.01-.76-.005-1.06-.05-1.115-.095-.115-.49-.295-.78-.36-.335-.07-.63-.065-.885.015zM12.77 13.85c-.47.07-.88.455-1.04.985l-.035.115h2.565l-.035-.165c-.145-.69-.7-1.055-1.455-.935zM21.165 14.04c-1.275.455-1.38 2.125-.17 2.72.19.095.315.115.68.115.405 0 .475-.015.72-.15.295-.16.56-.455.685-.75.115-.28.105-.805-.03-1.11-.295-.695-1.175-1.08-1.885-.825zM25.285 20.71l-.23.515.455.015c.25.005.465.005.475-.01.02-.02-.37-.915-.435-.995-.02-.02-.135.195-.265.475z"/>
    </symbol>
    <symbol id="ain" viewBox="0 0 52 32">
      <path d="M51.1 15.879c-.78-2.793-3.385-5.331-9.718-5.331-5.23 0-7.758.996-8.519 1.661-.502.434-.715.711-.715 1.543v15.054a2.525 2.525 0 0 0 2.517 2.533h2.975a2.526 2.526 0 0 0 2.519-2.534V15.644c0-1.091 3.13-1.512 3.13.811 0 .673-.021 12.352-.021 12.352a2.525 2.525 0 0 0 2.517 2.534h2.972a2.525 2.525 0 0 0 2.519-2.532V17.915c0-1.044-.128-1.847-.183-2.039l.008.003zM8.745 10.318c-6.192 0-8.176 1.916-8.469 2.428-.515.9.259 2.657 1.586 2.755 1.074.078 4.722-1.953 8.912-.748 1.469.422 1.242 2.253 1.242 2.833s-.363.792-1.152.792c-.789 0-10.852-1.215-10.852 6.492 0 5.86 6.805 6.706 9.614 6.706s9.614.105 9.614-2.958V17.006c0-3.308-3.356-6.687-10.492-6.687l-.003-.001zm3.083 16.11c0 .8-.493 1.55-1.998 1.55-1.141 0-2.126-1.017-2.126-3.275 0-2.022.96-3.275 2.126-3.275 1.375 0 1.998.86 1.998 1.436v3.563zM30.719 0H19.974c-1.14 0-1.212 1.188-1.212 1.188v8.149c0 1.604 1.625 1.568 1.625 1.568v1.648c-.03 1.227.829 1.259 2.256.436l3.709-2.108h4.295c1.188 0 1.382-1.284 1.382-1.284V1.455c0-1.331-1.31-1.454-1.31-1.454zm-.389 9.184h-3.153c-1.164 0-1.916.485-1.916.485l-3.43 2.052v-1.052c0-1.572-1.445-1.557-1.445-1.557V1.601h9.944v7.584z"/>
      <path d="M28.803 6.225h-6.622v1.239h6.622V6.225zM28.803 3.774h-6.622v1.237h6.622V3.774zM27.414 12.937c-.937 0-1.442.23-1.442.23s-3.122 1.664-3.449 1.84c-.843.449-.8 1.232-.8 1.232v12.575a2.527 2.527 0 0 0 2.519 2.534h2.972a2.523 2.523 0 0 0 2.519-2.532V14.245c0-.732-.341-1.306-1.052-1.306l-1.267-.001z"/>
    </symbol>
    <symbol id="focus" viewBox="0 0 145 32">
      <path d="M61.027 10.566A10.63 10.63 0 0 0 54.3.86a10.625 10.625 0 0 0-4.081-.739h-3.381a10.748 10.748 0 0 0-10.506 10.807l.181 10.385A10.69 10.69 0 0 0 47.32 31.819h3.321a10.69 10.69 0 0 0 10.506-10.807l-.121-10.445zM49.978 25.479h-2.415a4.047 4.047 0 0 1-4.045-3.985l-.181-11.23a4.047 4.047 0 0 1 3.985-4.106h2.415a4.106 4.106 0 0 1 4.105 3.984l.121 11.23a3.987 3.987 0 0 1-2.432 3.791 3.969 3.969 0 0 1-1.553.314zM13.027.121h7.487v2.294h4.347a8.755 8.755 0 0 1 8.694 8.694v7.306a8.696 8.696 0 0 1-8.695 8.634h-4.347v4.734h-7.487v-4.734H9.041a8.699 8.699 0 0 1-8.695-8.634v-7.306A8.755 8.755 0 0 1 9.04 2.415h3.985V.121zm0 7.788h-1.691a4.166 4.166 0 0 0-4.227 4.166v5.374a4.167 4.167 0 0 0 4.227 4.166h1.691V7.909zm7.487 13.706h1.691a4.166 4.166 0 0 0 4.227-4.166v-5.374a4.167 4.167 0 0 0-4.227-4.166h-1.691v13.706zM111.563.121l-5.856 13.887L99.005.121h-8.091l11.291 22.219-3.925 9.298h8.091L119.412.121h-7.849zM90.551 31.638 78.898 14.43 89.283.121h-8.091l-9.057 13.645V0h-7.487v31.638h7.487V16.423L82.52 31.638h8.03zm45.766-9.6a3.922 3.922 0 0 1-3.924 3.442h-2.415a4.043 4.043 0 0 1-4.045-3.985l-.181-11.23a4.048 4.048 0 0 1 3.985-4.105h2.415a4.106 4.106 0 0 1 3.985 3.26h7.185A10.625 10.625 0 0 0 132.635.122h-3.381a10.75 10.75 0 0 0-10.506 10.807l.181 10.385a10.687 10.687 0 0 0 10.808 10.506h3.321a10.624 10.624 0 0 0 10.446-9.721l-7.185-.06z"/>
    </symbol>
  </defs>
</svg>
