<svg aria-hidden="true" style="position:absolute;width:0;height:0;overflow:hidden" xmlns="http://www.w3.org/2000/svg">
  <defs>
    <symbol id="comscore" viewBox="0 0 197 32">
      <path d="M30.705 9.292v11.132L8.452 22.696v6.236l30.671 3.067V8.451zM0 0v23.48l8.452-.841V11.484l22.253-2.192V3.033z"/>
      <path d="M30.705 9.292 8.452 11.484v11.155l22.253-2.272zM54.549 17.335a7.952 7.952 0 0 1 7.952-7.952h.068a7.728 7.728 0 0 1 7.263 4.653l.019.05-2.954 1.261c-.681-1.704-2.318-2.886-4.231-2.886l-.102.001h.005-.011a4.782 4.782 0 0 0-4.782 4.77v.103l-.001.08a4.839 4.839 0 0 0 4.756 4.838h.095a4.624 4.624 0 0 0 4.317-2.979l.011-.032 2.976 1.261c-1.195 2.833-3.949 4.785-7.159 4.785a8.44 8.44 0 0 1-.225-.003h.011-.068a7.951 7.951 0 0 1-7.951-7.88V17.333zM85.22 17.335a4.714 4.714 0 1 0-4.714 4.714 4.714 4.714 0 0 0 4.714-4.714zm-12.678 0c0-4.392 3.56-7.952 7.952-7.952s7.952 3.56 7.952 7.952a7.952 7.952 0 0 1-7.952 7.952 7.952 7.952 0 0 1-7.952-7.952zM91.081 9.667h3.26v1.84a5.372 5.372 0 0 1 4.556-2.146h-.012a5.314 5.314 0 0 1 5.053 2.733l.014.027c1.075-1.658 2.917-2.739 5.011-2.739l.154.002h-.008c4.18 0 6.361 2.522 6.361 6.452v9.213h-3.351v-9.02c0-2.272-1.261-3.805-3.567-3.805-2.056 0-3.658 1.409-3.658 4.146v8.656h-3.306V15.87a3.283 3.283 0 0 0-3.486-3.657l.01-.001c-2.147 0-3.749 1.443-3.749 4.271v8.542H91.08zM133.589 17.335a7.952 7.952 0 0 1 7.952-7.952h.068a7.728 7.728 0 0 1 7.263 4.653l.019.05-2.953 1.261c-.681-1.704-2.318-2.886-4.231-2.886l-.102.001h.005-.011a4.782 4.782 0 0 0-4.782 4.77v.103l-.001.08a4.839 4.839 0 0 0 4.756 4.838h.095a4.624 4.624 0 0 0 4.317-2.979l.011-.032 2.976 1.261c-1.195 2.833-3.949 4.785-7.159 4.785l-.213-.003h.01-.068a7.951 7.951 0 0 1-7.951-7.88V17.333zM163.658 17.335a4.714 4.714 0 1 0-4.714 4.714 4.714 4.714 0 0 0 4.714-4.714zm-12.689 0c0-4.392 3.56-7.952 7.952-7.952s7.952 3.56 7.952 7.952a7.952 7.952 0 0 1-7.952 7.952 7.952 7.952 0 0 1-7.952-7.952zM169.463 9.667h3.283v2.363a4.46 4.46 0 0 1 4.228-2.362l-.013-.001h1.806v3.124h-2.272c-2.669 0-3.715 1.409-3.715 4.544v7.622h-3.317zM183.957 15.688h9.213a4.29 4.29 0 0 0-4.559-3.407l.016-.001-.096-.001a4.774 4.774 0 0 0-4.564 3.375l-.009.034zm-3.317 1.715v-.069c0-4.36 3.509-7.9 7.856-7.951h.096a7.612 7.612 0 0 1 7.895 7.302v1.787h-12.711c.38 2.249 2.313 3.94 4.641 3.94.106 0 .211-.003.315-.01l-.014.001a4.815 4.815 0 0 0 4.531-2.765l.012-.029 2.704 1.499c-1.42 2.532-4.087 4.215-7.147 4.215a8.167 8.167 0 0 1-8.165-7.976v-.009zM118.288 21.708l2.954-1.534a4.379 4.379 0 0 0 3.836 2.273l.099-.001h-.005c1.84 0 2.794-.954 2.794-2.022s-1.783-1.545-3.715-1.954c-2.613-.557-5.316-1.409-5.316-4.544 0-2.431 2.272-4.669 5.93-4.635a6.98 6.98 0 0 1 6.154 2.954l.015.022-2.738 1.499a3.966 3.966 0 0 0-3.289-1.751l-.125.002h.006c-1.749 0-2.647.863-2.647 1.84s1.409 1.409 3.624 1.908c2.522.557 5.373 1.386 5.373 4.544 0 2.124-1.84 4.976-6.202 4.941a7.176 7.176 0 0 1-6.706-3.533l-.018-.034z"/>
    </symbol>
    <symbol id="amazon" viewBox="0 0 89 32">
      <path d="M54.669 24.069c-4.849 3.573-11.897 5.497-17.963 5.497-8.501 0-16.157-3.141-21.948-8.363-.452-.412-.039-.962.491-.648 6.243 3.632 13.978 5.831 21.948 5.831 5.379 0 11.308-1.119 16.746-3.416.844-.393 1.531.491.726 1.099z"/>
      <path d="M56.692 21.752c-.628-.785-4.103-.373-5.674-.196-.471.059-.55-.353-.118-.648 2.768-1.963 7.322-1.394 7.872-.726.53.668-.137 5.222-2.748 7.401-.393.334-.785.157-.609-.294.569-1.472 1.885-4.751 1.276-5.536zM51.115 7.107c0 .295.236.491.471.471h4.437l-5.104 7.323c-.314.471-.314 1.001-.314 1.315v1.924c0 .275.314.589.609.432 2.906-1.531 6.38-1.394 8.992-.02.314.177.628-.157.628-.432v-2.022c-.019-.275-.118-.55-.451-.746-1.492-.844-3.22-1.08-4.849-1.04l4.398-6.282c.412-.569.647-.923.647-1.198V5.203c0-.275-.216-.471-.491-.471h-8.52a.462.462 0 0 0-.452.471v1.904zM20.097 18.964c.275 0 .51-.216.471-.451v-7.028c0-1.531-.078-3.652 1.787-3.652 1.826 0 1.59 2.179 1.59 3.652v7.028c0 .255.216.451.471.471h2.591a.47.47 0 0 0 .491-.471v-7.028c0-.766-.02-1.885.236-2.552.275-.668.923-1.08 1.551-1.08.746 0 1.315.255 1.512 1.139.137.53.078 1.924.078 2.493v7.028c.02.255.216.451.471.471h2.591a.47.47 0 0 0 .491-.471V10.13c0-1.413.177-3.043-.648-4.162-.726-1.001-1.924-1.453-3.004-1.453-1.531 0-2.945.785-3.573 2.454-.726-1.669-1.747-2.454-3.357-2.454-1.59 0-2.768.785-3.396 2.454h-.039V5.241c-.02-.255-.216-.432-.471-.452h-2.415c-.275 0-.491.196-.491.471v13.271a.522.522 0 0 0 .471.432h2.591zM67.92 4.496c3.848 0 5.91 3.298 5.91 7.48 0 4.044-2.297 7.264-5.91 7.264-3.769 0-5.83-3.298-5.83-7.401 0-4.142 2.081-7.342 5.83-7.342zm.02 2.709c-1.905 0-2.022 2.591-2.022 4.221s-.019 5.085 2.002 5.085c2.003 0 2.101-2.788 2.101-4.496 0-1.119-.039-2.454-.393-3.514-.294-.942-.863-1.296-1.688-1.296zm10.876 11.759a.511.511 0 0 0 .51-.451v-7.146c0-.903.039-1.708.413-2.513.275-.628.863-1.06 1.492-1.06 1.806 0 1.629 2.12 1.629 3.573v7.205c.02.216.216.393.451.412h2.591a.504.504 0 0 0 .491-.412v-8.363c0-1.296 0-3.082-.667-4.142-.726-1.158-1.865-1.571-3.023-1.571-1.786 0-2.807.883-3.534 2.69h-.039V5.164a.5.5 0 0 0-.471-.373h-2.395c-.255 0-.471.177-.491.432v13.271a.506.506 0 0 0 .471.471h2.572zm-34.474-6.341v-.55c-1.865 0-3.848.412-3.848 2.611 0 1.099.569 1.865 1.571 1.865.726 0 1.374-.452 1.786-1.178.51-.903.491-1.747.491-2.748zm2.611 6.302c-.177.137-.412.177-.609.059-.864-.707-1.021-1.041-1.492-1.728-1.414 1.453-2.434 1.885-4.26 1.885-2.179 0-3.867-1.335-3.867-4.024 0-2.101 1.139-3.534 2.768-4.221 1.413-.628 3.357-.726 4.869-.903v-.334c0-.609.039-1.335-.314-1.885-.314-.471-.923-.668-1.453-.668-.982 0-1.865.51-2.081 1.551-.039.236-.216.471-.452.471l-2.513-.275c-.216-.039-.452-.216-.393-.55.569-3.043 3.318-3.966 5.791-3.966 1.256 0 2.906.334 3.907 1.296 1.256 1.178 1.139 2.748 1.139 4.456v4.044c0 1.217.51 1.747.982 2.395.157.236.196.51-.02.687-.687.569-1.335 1.139-2.002 1.708zm-36.515-6.302v-.55c-1.865 0-3.848.412-3.848 2.611 0 1.099.569 1.865 1.571 1.865.726 0 1.374-.452 1.787-1.178.51-.903.491-1.747.491-2.748zm2.611 6.302c-.177.137-.412.177-.609.059-.864-.707-1.021-1.041-1.492-1.728-1.414 1.453-2.415 1.885-4.26 1.885-2.179 0-3.867-1.335-3.867-4.024 0-2.101 1.139-3.534 2.768-4.221 1.413-.628 3.357-.726 4.869-.903v-.334c0-.609.039-1.335-.314-1.885-.314-.471-.923-.668-1.453-.668-.982 0-1.865.51-2.081 1.551-.039.236-.216.471-.452.471l-2.513-.275c-.216-.039-.452-.216-.393-.55.569-3.043 3.318-3.966 5.791-3.966 1.256 0 2.906.334 3.887 1.296 1.256 1.178 1.139 2.748 1.139 4.456v4.044c0 1.217.51 1.747.982 2.395.177.236.196.51 0 .687a88.915 88.915 0 0 0-2.002 1.708z"/>
    </symbol>
    <symbol id="kantar" viewBox="0 0 97 32">
      <path d="m24.728 7.61-6.106 16.68h3.212l1.439-3.939h5.982L30.7 24.29h3.211L27.794 7.61h-3.067zm1.54 4.546 1.942 5.341h-3.892l1.95-5.341zM67.959 7.61l-6.106 16.679h3.211l1.439-3.938h5.984l1.445 3.938h3.212L71.027 7.61h-3.068zm1.537 4.546 1.942 5.341h-3.891l1.95-5.341zM46.431 7.61v10.607L37.887 7.61h-2.451v16.679h3.211V13.413l8.761 10.876h2.234V7.61h-3.211zM51.562 7.61v2.854h4.4v13.825h3.212V10.464h4.401V7.61H51.563zM81.88 10.467h2.907c1.095 0 1.644.263 2.025.667.357.382.548.881.548 1.429s-.191 1.025-.548 1.406c-.38.405-.93.667-2.025.667H81.88v-4.17zm10.995 13.821-5.21-7.217a4.257 4.257 0 0 0 1.602-1.053c.835-.858 1.311-2.144 1.311-3.455 0-1.31-.476-2.597-1.311-3.455-.928-.977-2.192-1.5-4.337-1.5h-6.266v16.679h3.216v-6.792h2.623l4.869 6.792 3.504.001zM17.85 7.61h-3.491l-5.977 8.34 5.978 8.339h3.491l-5.975-8.339 5.974-8.34zM4.133 24.288h2.384V7.611H4.134v16.677z"/>
    </symbol>
    <symbol id="microsoft" viewBox="0 0 151 32">
      <path d="M62.659 6.4v19.2h-3.333V10.533h-.044L53.326 25.6h-2.222l-6.089-15.067h-.044V25.6h-3.067V6.4h4.8l5.511 14.222h.089L58.126 6.4h4.533zm2.756 1.467c0-.533.178-.978.578-1.333s.844-.533 1.377-.533c.578 0 1.067.178 1.423.533s.577.8.577 1.333-.177.978-.577 1.333c-.4.356-.845.533-1.423.533s-1.022-.178-1.377-.533c-.356-.4-.578-.844-.578-1.333zm3.6 3.955V25.6h-3.244V11.822h3.244zm9.822 11.422c.489 0 1.023-.089 1.6-.356a6.994 6.994 0 0 0 1.6-.889v3.022c-.533.311-1.111.533-1.777.667s-1.378.222-2.178.222c-2.045 0-3.689-.622-4.933-1.911-1.289-1.289-1.911-2.933-1.911-4.889 0-2.222.667-4.044 1.956-5.467s3.111-2.133 5.511-2.133c.623 0 1.245.089 1.823.222a6.09 6.09 0 0 1 1.467.533v3.111c-.489-.356-1.023-.667-1.511-.844-.533-.178-1.067-.311-1.6-.311-1.289 0-2.311.4-3.111 1.244s-1.155 1.956-1.155 3.378c0 1.378.4 2.489 1.155 3.244s1.778 1.156 3.067 1.156zm12.4-11.644c.267 0 .489 0 .711.044s.4.089.533.133v3.289c-.178-.133-.4-.267-.755-.356s-.711-.178-1.2-.178c-.8 0-1.467.356-2 1.022s-.845 1.689-.845 3.111v6.933h-3.245V11.82h3.245v2.178h.045c.311-.756.755-1.333 1.333-1.778.622-.4 1.333-.622 2.177-.622zm1.422 7.333c0-2.267.667-4.089 1.911-5.422 1.289-1.333 3.067-2 5.333-2 2.133 0 3.823.622 5.023 1.911s1.822 3.022 1.822 5.2c0 2.222-.667 4-1.911 5.333-1.289 1.333-3.022 2-5.244 2-2.133 0-3.823-.622-5.067-1.867-1.245-1.289-1.867-3.022-1.867-5.156zm3.378-.133c0 1.422.311 2.533.978 3.289s1.6 1.156 2.8 1.156c1.155 0 2.089-.356 2.711-1.156.622-.756.933-1.867.933-3.378 0-1.467-.311-2.578-.933-3.378-.623-.756-1.556-1.156-2.667-1.156-1.2 0-2.089.4-2.756 1.2-.755.844-1.067 1.956-1.067 3.422zm15.556-3.333c0 .444.133.844.444 1.111s.933.578 1.956.978c1.289.533 2.222 1.111 2.711 1.733.533.667.8 1.422.8 2.356 0 1.289-.489 2.311-1.511 3.111-.978.8-2.356 1.156-4.045 1.156-.578 0-1.2-.089-1.911-.222s-1.289-.311-1.777-.533v-3.2c.577.4 1.244.756 1.911.978s1.289.356 1.867.356c.711 0 1.289-.089 1.6-.311.356-.222.533-.533.533-1.022 0-.444-.177-.8-.533-1.156-.355-.311-1.067-.667-2.044-1.067-1.2-.489-2.045-1.067-2.533-1.689s-.756-1.422-.756-2.4c0-1.244.489-2.267 1.467-3.067s2.267-1.2 3.823-1.2c.489 0 1.022.044 1.6.178s1.111.267 1.511.4v3.156c-.444-.267-.933-.533-1.511-.756s-1.156-.311-1.689-.311c-.622 0-1.111.133-1.422.356-.311.311-.489.622-.489 1.067zm7.288 3.466c0-2.267.667-4.089 1.911-5.422 1.289-1.333 3.067-2 5.333-2 2.133 0 3.822.622 5.022 1.911s1.822 3.022 1.822 5.2c0 2.222-.667 4-1.911 5.333-1.289 1.333-3.023 2-5.245 2-2.133 0-3.822-.622-5.067-1.867-1.2-1.289-1.867-3.022-1.867-5.156zm3.378-.133c0 1.422.311 2.533.977 3.289s1.6 1.156 2.8 1.156c1.156 0 2.089-.356 2.711-1.156.622-.756.933-1.867.933-3.378 0-1.467-.311-2.578-.933-3.378-.622-.756-1.555-1.156-2.667-1.156-1.2 0-2.089.4-2.755 1.2-.711.844-1.067 1.956-1.067 3.422zm21.511-4.311h-4.844V25.6h-3.289V14.489h-2.311v-2.667h2.311V9.911c0-1.422.489-2.622 1.423-3.556s2.133-1.378 3.6-1.378c.4 0 .755.044 1.067.044s.577.089.8.178v2.8c-.089-.044-.311-.133-.578-.222s-.578-.133-.933-.133c-.667 0-1.2.222-1.555.622s-.533 1.067-.533 1.867v1.644h4.844V8.666l3.245-.978v4.089h3.289v2.667h-3.289v6.444c0 .844.178 1.422.445 1.778.311.356.8.533 1.467.533.177 0 .4-.044.667-.133s.489-.178.667-.311v2.667c-.223.133-.533.222-1.023.311s-.933.133-1.422.133c-1.378 0-2.4-.356-3.067-1.067s-1.022-1.822-1.022-3.289l.044-7.022zM15.459 0H.259v15.2h15.2V0zM32.259 0h-15.2v15.2h15.2V0zM15.459 16.8H.259V32h15.2V16.8zM32.259 16.8h-15.2V32h15.2V16.8z"/>
    </symbol>
    <symbol id="nielsen" viewBox="0 0 82 32">
      <path d="M7.954 12.439c.45-.45.825-.825 1.2-1.05s.825-.375 1.425-.375c.9 0 1.5.3 1.875.9s.6 1.425.6 2.4v6.451c0 .3-.15.45-.375.525-.3.075-.675.15-1.125.15v.3h5.251v-.225c-.15 0-.3 0-.525-.075-.15 0-.375-.075-.525-.075-.15-.075-.3-.075-.375-.225-.075-.075-.15-.225-.15-.3v-7.426c0-1.2-.3-2.1-.825-2.851s-1.275-1.125-2.25-1.125c-.45 0-.9.075-1.35.3-.45.15-.825.375-1.2.675s-.675.6-.975.9c-.225.3-.525.6-.675.9zM7.31 12.912v7.951c0 .15.075.3.15.375.075.15.225.15.3.225.15 0 .225.075.375.075s.3 0 .525.075v.225H3.709v-.225c.375 0 .75-.15 1.05-.225.3-.15.45-.3.45-.6v-8.852c0-.15 0-.225-.075-.3 0-.075-.075-.15-.225-.225s-.3-.15-.525-.3c-.225-.075-.375-.225-.6-.3v-.15l3.376-1.2h.15v3.451zM68.897 12.439c.45-.45.825-.825 1.2-1.05s.826-.375 1.425-.375c.9 0 1.5.3 1.876.9s.6 1.425.6 2.4v6.451c0 .3-.15.45-.375.525-.3.075-.675.15-1.126.15v.3h5.251v-.225c-.15 0-.3 0-.525-.075-.15 0-.375-.075-.525-.075-.15-.075-.3-.075-.375-.225-.075-.075-.15-.225-.15-.3v-7.426c0-1.2-.3-2.1-.826-2.851s-1.275-1.125-2.251-1.125c-.45 0-.9.075-1.35.3-.45.15-.825.375-1.2.675s-.675.6-.975.9c-.225.3-.525.6-.675.9zM68.254 12.912v7.951c0 .15.075.3.15.375.075.15.225.15.3.225.15 0 .225.075.375.075s.3 0 .45.075v.225h-4.876v-.225c.375 0 .75-.075 1.05-.225s.45-.3.45-.6v-8.852c0-.15 0-.225-.075-.3 0-.075-.075-.15-.225-.225s-.3-.15-.525-.3a2.246 2.246 0 0 0-.6-.3v-.15l3.376-1.2h.15v3.451zM17.429 21.809v-.225c.225 0 .45-.075.6-.075.225 0 .375-.075.525-.15l.45-.225c.15-.075.15-.225.15-.375v-9.002c0-.15 0-.225-.075-.375 0-.075-.075-.225-.225-.3-.075-.075-.225-.15-.45-.3-.225-.075-.45-.225-.675-.3v-.15l3.526-1.125h.15v11.702c0 .15.075.3.225.375s.225.15.375.15.3.075.525.075c.15 0 .375 0 .525.075v.225h-5.626zM21.153 6.587c-.225.225-.6.375-.975.375s-.675-.15-.975-.375c-.3-.3-.375-.6-.375-.975s.15-.675.375-.975c.225-.225.6-.375.975-.375s.675.15.975.375c.225.225.375.6.375.975 0 .45-.15.75-.375.975zM55.154 13.132c0-.225.15-.525.3-.9s.375-.75.675-1.2c.3-.375.6-.75 1.05-.975.375-.3.825-.45 1.35-.45.751 0 1.35.225 1.8.675s.675 1.05.675 1.65c0 .225 0 .45-.075.525-.075.15-.15.225-.3.375-.15.075-.375.15-.6.15h-3.676l-.15.375h7.276c-.075-.75-.225-1.35-.525-1.875s-.675-.975-1.05-1.35c-.45-.375-.975-.6-1.575-.825a8.18 8.18 0 0 0-1.95-.225c-.825 0-1.575.15-2.325.525-.675.375-1.275.825-1.725 1.425s-.825 1.2-1.126 1.95c-.225.75-.375 1.425-.375 2.175 0 .9.15 1.8.45 2.551.3.825.675 1.5 1.2 2.1s1.125 1.05 1.875 1.425c.751.3 1.575.525 2.401.525.751 0 1.35-.15 1.95-.375s1.05-.6 1.501-.975c.45-.375.75-.825.975-1.35.225-.45.375-.9.45-1.275l-.225-.075c-.225.675-.675 1.2-1.275 1.65-.675.45-1.425.675-2.251.675s-1.501-.15-2.1-.45-1.125-.675-1.501-1.2c-.375-.525-.675-1.125-.9-1.8s-.3-1.35-.3-2.1V13.508l.075-.375zM26.142 13.131c0-.225.15-.525.3-.9s.375-.75.675-1.2c.3-.375.6-.75 1.05-.975.375-.3.825-.45 1.35-.45.75 0 1.35.225 1.8.675s.675 1.05.675 1.65c0 .225 0 .45-.075.525-.075.15-.15.225-.3.375-.15.075-.375.15-.6.15h-3.675l-.15.375h7.276c-.075-.75-.225-1.35-.525-1.875s-.675-.975-1.05-1.35c-.45-.375-.975-.6-1.575-.825a8.175 8.175 0 0 0-1.95-.225c-.825 0-1.575.15-2.325.525-.675.375-1.275.825-1.725 1.425s-.825 1.2-1.125 1.95c-.225.75-.375 1.425-.375 2.175 0 .9.15 1.8.45 2.55.3.825.675 1.5 1.2 2.1s1.125 1.05 1.875 1.425c.75.3 1.575.525 2.4.525.75 0 1.35-.15 1.95-.375s1.05-.6 1.5-.975c.45-.375.75-.825.975-1.35.225-.45.375-.9.45-1.275l-.225-.075c-.225.675-.675 1.2-1.275 1.65-.675.45-1.425.675-2.25.675s-1.5-.15-2.1-.45c-.6-.3-1.125-.675-1.5-1.2s-.675-1.125-.9-1.8c-.225-.675-.3-1.35-.3-2.1V13.506l.075-.375zM35.176 21.809v-.3c.825-.075 1.35-.15 1.575-.225s.375-.3.375-.6V5.381c0-.075-.075-.15-.225-.225-.15-.075-.375-.225-.675-.375l-.75-.375v-.15l3.751-1.2h.15v17.928c0 .15.075.3.15.375s.225.15.375.15.375.075.6.075.525 0 .825.075v.3h-6.151zM50.888 19.719c-.3.525-.6.9-1.05 1.275-.45.3-.975.525-1.575.675s-1.2.225-1.875.225c-.75 0-1.5-.075-2.175-.225s-1.275-.375-1.875-.6v-3.451h.225c.15.45.3.825.525 1.35.225.45.45.9.75 1.275s.675.75 1.05.975c.45.225.9.375 1.5.375.825 0 1.5-.225 2.025-.75.525-.45.75-1.2.75-2.175 0-.525-.15-.975-.525-1.35s-.825-.6-1.425-.75c-.45-.075-.9-.15-1.35-.3-.45-.075-.825-.225-1.2-.375-.675-.225-1.2-.6-1.575-1.2-.375-.525-.6-1.2-.6-2.025 0-.525.15-1.05.375-1.5s.525-.825.9-1.125c.375-.225.825-.45 1.35-.6.45-.15.975-.3 1.575-.3.75 0 1.35.075 1.95.225.525.15 1.125.3 1.575.45l.3 3.226-.225.075c-.225-.525-.525-.975-.75-1.425-.15-.45-.45-.825-.75-1.125-.3-.375-.6-.6-.975-.75-.375-.225-.825-.3-1.35-.3-.3 0-.6.075-.9.15-.225.15-.525.3-.675.45-.225.225-.45.525-.6.825s-.225.675-.225 1.05c0 .675.15 1.125.525 1.35s.825.525 1.35.6c.375.075.825.15 1.275.3.45.075.825.15 1.2.3a4.7 4.7 0 0 1 2.025 1.2c.525.6.825 1.35.825 2.25 0 .675-.075 1.275-.375 1.725zM7.408 27.68c0 .75-.6 1.35-1.35 1.35s-1.35-.6-1.35-1.35.6-1.35 1.35-1.35c.75.075 1.35.675 1.35 1.35zM16.042 27.68c0 .75-.6 1.35-1.35 1.35s-1.35-.6-1.35-1.35c0-.75.6-1.35 1.35-1.35.75.075 1.35.675 1.35 1.35zM24.677 27.68c0 .75-.6 1.35-1.35 1.35s-1.35-.6-1.35-1.35.6-1.35 1.35-1.35c.75 0 1.35.675 1.35 1.35zM33.311 27.68c0 .75-.6 1.35-1.35 1.35s-1.35-.6-1.35-1.35c0-.75.6-1.35 1.35-1.35.75.075 1.35.675 1.35 1.35zM41.945 27.68c0 .75-.6 1.35-1.35 1.35s-1.35-.6-1.35-1.35.6-1.35 1.35-1.35c.75.075 1.35.675 1.35 1.35zM50.579 27.68c0 .75-.6 1.35-1.35 1.35s-1.35-.6-1.35-1.35.6-1.35 1.35-1.35c.75.075 1.35.675 1.35 1.35zM59.213 27.68c0 .75-.6 1.35-1.35 1.35s-1.35-.6-1.35-1.35c0-.75.6-1.35 1.35-1.35.75.075 1.35.675 1.35 1.35zM76.481 27.68c0 .75-.6 1.35-1.35 1.35s-1.35-.6-1.35-1.35c0-.75.6-1.35 1.35-1.35s1.35.675 1.35 1.35zM67.847 27.68c0 .75-.6 1.35-1.35 1.35s-1.35-.6-1.35-1.35.6-1.35 1.35-1.35c.751.075 1.35.675 1.35 1.35z"/>
    </symbol>
  </defs>
</svg>
