<svg width="100" height="100" fill="none" xmlns="http://www.w3.org/2000/svg">
  <g clip-path="url(#a)">
    <path d="M50 100c20.674 0 37.433-3.604 37.433-8.05 0-4.445-16.759-8.049-37.433-8.049-20.673 0-37.433 3.604-37.433 8.05C12.567 96.396 29.327 100 50 100Z" fill="url(#b)"/>
    <path d="M87.433 91.95c0-4.445-16.76-8.049-37.433-8.049-3.44 0-6.77.1-9.933.287l7.007 10.309c.196.287.424.534.674.741l4.744 4.744c19.512-.276 34.94-3.766 34.94-8.031Z" fill="url(#c)"/>
    <path d="M91.028 41.028C91.028 18.368 72.657 0 50 0 27.44 0 9.2 18.048 8.974 40.607 8.803 57.645 19.02 72.316 33.679 78.678a14.125 14.125 0 0 1 6.054 5.02l7.341 10.799c1.404 2.064 4.447 2.064 5.851 0l7.34-10.8a14.067 14.067 0 0 1 6.032-5.009c14.55-6.305 24.73-20.793 24.73-37.66Z" fill="url(#d)"/>
    <path d="M50 94a1.48 1.48 0 0 1-1.235-.653l-7.34-10.8a16.142 16.142 0 0 0-6.932-5.744A38.934 38.934 0 0 1 11.02 40.627c.104-10.368 4.199-20.074 11.531-27.33C29.881 6.04 39.63 2.044 50 2.044c21.496 0 38.984 17.489 38.984 38.984a38.982 38.982 0 0 1-23.499 35.784 16.087 16.087 0 0 0-6.91 5.736l-7.34 10.8A1.48 1.48 0 0 1 50 94Z" fill="url(#e)"/>
    <path d="M50 66.817c14.243 0 25.79-11.546 25.79-25.79 0-14.243-11.547-25.79-25.79-25.79-14.243 0-25.79 11.547-25.79 25.79 0 14.244 11.547 25.79 25.79 25.79Z" fill="url(#f)"/>
    <path d="M89.744 51.243 65.242 26.74A20.833 20.833 0 0 0 50 20.135c-11.539 0-20.893 9.354-20.893 20.893 0 6.012 2.54 11.43 6.605 15.242l25.823 25.822a13.998 13.998 0 0 1 4.763-3.404c11.508-4.987 20.28-15.093 23.446-27.445Z" fill="url(#g)"/>
    <path d="M50 61.92c11.539 0 20.892-9.354 20.892-20.892 0-11.539-9.353-20.893-20.892-20.893S29.107 29.49 29.107 41.028c0 11.538 9.354 20.892 20.893 20.892Z" fill="url(#h)"/>
  </g>
  <defs>
    <linearGradient id="b" x1="32.928" y1="85.367" x2="34.67" y2="99.9" gradientUnits="userSpaceOnUse">
      <stop stop-color="#3CB0FF"/>
      <stop offset="1" stop-color="#0073FC"/>
    </linearGradient>
    <linearGradient id="c" x1="52.949" y1="85.365" x2="55.64" y2="99.581" gradientUnits="userSpaceOnUse">
      <stop stop-color="#0A7ECD"/>
      <stop offset="1" stop-color="#005FE8"/>
    </linearGradient>
    <linearGradient id="d" x1="50" y1="0" x2="50.003" y2="116.762" gradientUnits="userSpaceOnUse">
      <stop stop-color="#FFE03E"/>
      <stop offset="1" stop-color="#FF6B00"/>
    </linearGradient>
    <linearGradient id="e" x1="50" y1="2.044" x2="50.003" y2="113.836" gradientUnits="userSpaceOnUse">
      <stop stop-color="#FFE03E"/>
      <stop offset="1" stop-color="#FF6B00"/>
    </linearGradient>
    <linearGradient id="f" x1="50" y1="15.238" x2="50.001" y2="77.943" gradientUnits="userSpaceOnUse">
      <stop stop-color="#E1C220"/>
      <stop offset="1" stop-color="#D74300"/>
    </linearGradient>
    <linearGradient id="g" x1="76.831" y1="67.858" x2="54.033" y2="45.061" gradientUnits="userSpaceOnUse">
      <stop stop-color="#F08200" stop-opacity="0"/>
      <stop offset="1" stop-color="#C18D27"/>
    </linearGradient>
    <linearGradient id="h" x1="44.886" y1="33.228" x2="57.231" y2="52.056" gradientUnits="userSpaceOnUse">
      <stop stop-color="#FCFAF7"/>
      <stop offset="1" stop-color="#FCEEDD"/>
    </linearGradient>
    <clipPath id="a">
      <path fill="#fff" d="M0 0h100v100H0z"/>
    </clipPath>
  </defs>
</svg>
