<svg width="100" height="100" fill="none" xmlns="http://www.w3.org/2000/svg">
  <path d="M23.896 42.588a1.486 1.486 0 0 0-2.103 0L7.188 57.193a1.486 1.486 0 1 0 2.103 2.102l14.605-14.604c.58-.581.58-1.522 0-2.103Z" fill="url(#a)"/>
  <path d="M57.55 78.768a1.487 1.487 0 0 0-2.101 0L40.844 93.373a1.487 1.487 0 0 0 2.102 2.103L57.551 80.87c.58-.58.58-1.522 0-2.103Z" fill="url(#b)"/>
  <path d="M23.357 59.491c-7.947.42-12.048 7.229-13.48 10.236-.157.332.29.803.633.662l.036-.014a.855.855 0 0 1 .442-.049c.905.13 1.074 1.367.26 1.783-.904.461-1.831 1.11-2.736 2.014-4.872 4.873-3.333 9.049-5.14 11.325-.127.161.077.455.302.435.345-.03.795-.085 1.322-.186.257-.05.55.229.516.493-.37 2.964-1.092 6.793.577 8.462 2.66 2.66 9.118.93 13.802-.746.635-.227 1.446.589 1.198 1.212l-.012.028c-.11.27.26.623.523.499a17.75 17.75 0 0 0 3.392-2.114c1.62-1.292 3.442-2.309 5.413-2.95 2.056-.668 4.34-1.841 6.76-4.26 4.785-4.785 3.914-10.058 3.84-11.7-.389-3.411-2.124-7.032-5.094-10.002-3.727-3.727-8.48-5.513-12.554-5.128Z" fill="url(#c)"/>
  <path d="M19.891 93.906c.635-.227 1.446.589 1.198 1.211a1.13 1.13 0 0 1-.012.029c-.11.27.26.623.523.499a17.75 17.75 0 0 0 3.392-2.114c1.62-1.292 3.442-2.309 5.413-2.95 2.057-.668 4.34-1.841 6.76-4.26 4.785-4.785 3.914-10.059 3.84-11.701-.389-3.41-2.124-7.031-5.094-10.001-3.727-3.727-8.48-5.513-12.554-5.128-3.12.165-5.647 1.315-7.653 2.833v32.894a49.958 49.958 0 0 0 4.187-1.312Z" fill="url(#d)"/>
  <path d="M8.896 80.418c-.122.155.073.436.29.417.33-.028.76-.081 1.266-.178.246-.048.526.22.495.473-.354 2.84-1.047 6.509.552 8.109 2.549 2.548 8.738.89 13.226-.716.609-.217 1.386.565 1.148 1.161a1.542 1.542 0 0 1-.01.027c-.107.26.249.598.5.478 2.273-1.081 7.419-4.18 7.736-10.187.29-3.08-1.059-6.67-3.875-9.488-2.245-2.244-4.982-3.556-7.56-3.85-1.24-.056-5.226-.714-8.842 2.903-4.67 4.669-3.194 8.67-4.926 10.852Z" fill="url(#e)"/>
  <path d="M37.165 86.32c4.785-4.784 3.914-10.058 3.84-11.7-.39-3.41-2.124-7.031-5.094-10.001-3.727-3.727-8.48-5.513-12.554-5.128-5.297.28-8.885 3.398-11.113 6.337L34.78 88.362c.777-.559 1.574-1.23 2.386-2.042Z" fill="url(#f)"/>
  <path d="m59.274 64.695-3.369-3.368L38.6 78.632l4.125 4.125-2.503 2.504.002.002-1.453 1.453a1.487 1.487 0 0 0 2.053 2.148l4.004-4.004 6.31 6.31-1.975 1.973a1.487 1.487 0 0 0 2.102 2.103l1.994-1.994a4.243 4.243 0 0 0 5.648-.316l.367-.367c7.697-7.697 7.697-20.177 0-27.874Z" fill="url(#g)"/>
  <path d="m59.274 64.695-3.369-3.368L38.6 78.632l4.125 4.125-2.503 2.504.002.002-1.453 1.453a1.487 1.487 0 0 0 2.053 2.148l4.004-4.004 6.31 6.31-1.975 1.973a1.487 1.487 0 0 0 2.102 2.103l1.994-1.994a4.243 4.243 0 0 0 5.648-.316l.367-.367c7.697-7.697 7.697-20.177 0-27.874Z" fill="url(#h)"/>
  <path d="M53.26 93.252a4.243 4.243 0 0 0 5.647-.316l.367-.367c6.718-6.717 7.572-17.076 2.566-24.72l-17.012 17.01 8.431 8.393Z" fill="url(#i)"/>
  <path d="m39.082 44.502-3.368-3.368c-7.698-7.697-20.177-7.697-27.875 0l-.367.368a4.244 4.244 0 0 0 0 6.001l.496.497-.818.818.003.002L5.7 50.273a1.486 1.486 0 0 0 2.052 2.147l2.319-2.318 6.31 6.31-1.924 1.922a1.487 1.487 0 0 0 2.103 2.102l1.922-1.922 3.295 3.294 17.305-17.306Z" fill="url(#j)"/>
  <path d="m21.776 61.808 17.306-17.306-3.369-3.368a19.622 19.622 0 0 0-11.105-5.57L10.07 50.103l11.706 11.706Z" fill="url(#k)"/>
  <path d="M36.503 78.602c1.832 1.832 4.395 2.53 6.97 2.257 5.956-.632 16.938-4.221 16.938-4.221 21.07-9.028 35.83-29.952 35.83-54.326V10.909A6.743 6.743 0 0 0 89.5 4.166H78.097c-24.374 0-45.299 14.761-54.326 35.83 0 0-3.589 10.984-4.222 16.938-.273 2.576.426 5.14 2.258 6.97l14.696 14.698Z" fill="url(#l)"/>
  <path d="M96.242 22.312V10.909a6.722 6.722 0 0 0-1.975-4.768L29.155 71.254l7.349 7.348a8.57 8.57 0 0 0 6.97 2.453c29.661-3.151 52.768-28.247 52.768-58.743Z" fill="url(#m)"/>
  <path d="M89.818 49.123 70.552 29.856 47.929 52.48l20.168 20.169a59.345 59.345 0 0 0 21.72-23.525Z" fill="url(#n)"/>
  <path d="M23.772 39.998a58.705 58.705 0 0 0-4.419 16.936 8.57 8.57 0 0 0 2.453 6.97l14.697 14.698a8.57 8.57 0 0 0 6.97 2.453 58.7 58.7 0 0 0 16.937-4.42L23.772 39.999Z" fill="url(#o)"/>
  <path d="M89.5 4.167H78.096A58.958 58.958 0 0 0 58.015 7.67l34.723 34.724a58.962 58.962 0 0 0 3.504-20.082V10.909A6.743 6.743 0 0 0 89.5 4.166Z" fill="url(#p)"/>
  <path d="M59.24 57.165c8.835 0 15.997-7.162 15.997-15.997S68.075 25.17 59.24 25.17s-15.997 7.162-15.997 15.997 7.162 15.997 15.997 15.997Z" fill="url(#q)"/>
  <path d="M59.24 55.187c7.743 0 14.02-6.277 14.02-14.02 0-7.742-6.277-14.018-14.02-14.018-7.742 0-14.018 6.276-14.018 14.019 0 7.742 6.276 14.019 14.018 14.019Z" fill="url(#r)"/>
  <path d="M59.24 52.833c6.442 0 11.665-5.222 11.665-11.665 0-6.443-5.223-11.666-11.665-11.666-6.443 0-11.666 5.223-11.666 11.666 0 6.443 5.223 11.665 11.666 11.665Z" fill="url(#s)"/>
  <path d="M59.24 51.137c5.506 0 9.97-4.463 9.97-9.97 0-5.505-4.464-9.969-9.97-9.969s-9.97 4.464-9.97 9.97 4.464 9.97 9.97 9.97Z" fill="url(#t)"/>
  <path d="M59.24 51.137c5.506 0 9.97-4.463 9.97-9.97 0-5.505-4.464-9.969-9.97-9.969s-9.97 4.464-9.97 9.97 4.464 9.97 9.97 9.97Z" fill="url(#u)"/>
  <path d="M59.24 51.137c5.506 0 9.97-4.463 9.97-9.97 0-5.505-4.464-9.969-9.97-9.969s-9.97 4.464-9.97 9.97 4.464 9.97 9.97 9.97Z" fill="url(#v)"/>
  <path d="M60.41 76.635a58.633 58.633 0 0 1-16.937 4.42 8.57 8.57 0 0 1-6.97-2.453l-7.348-7.347 12.938-12.937L60.41 76.635Z" fill="url(#w)"/>
  <path d="M96.242 10.91v11.402a58.946 58.946 0 0 1-3.504 20.082l-17.361-17.36L94.267 6.14a6.73 6.73 0 0 1 1.975 4.769Z" fill="url(#x)"/>
  <path d="m58.906 92.937.367-.368a19.614 19.614 0 0 0 5.529-10.86L53.259 93.252a4.243 4.243 0 0 0 5.647-.315Z" fill="url(#y)"/>
  <defs>
    <linearGradient id="a" x1="3.259" y1="43.728" x2="19.73" y2="53.401" gradientUnits="userSpaceOnUse">
      <stop stop-color="#F1E6DE"/>
      <stop offset="1" stop-color="#EECBB1"/>
    </linearGradient>
    <linearGradient id="b" x1="36.914" y1="79.908" x2="53.385" y2="89.581" gradientUnits="userSpaceOnUse">
      <stop stop-color="#F1E6DE"/>
      <stop offset="1" stop-color="#EECBB1"/>
    </linearGradient>
    <linearGradient id="c" x1="12.286" y1="72.487" x2="24.448" y2="82.39" gradientUnits="userSpaceOnUse">
      <stop stop-color="#FFF5C6"/>
      <stop offset="1" stop-color="#FEE45A"/>
    </linearGradient>
    <linearGradient id="d" x1="25.061" y1="79.241" x2="36.362" y2="87.959" gradientUnits="userSpaceOnUse">
      <stop stop-color="#FEA613" stop-opacity="0"/>
      <stop offset=".174" stop-color="#FDA016" stop-opacity=".174"/>
      <stop offset=".396" stop-color="#F9911E" stop-opacity=".396"/>
      <stop offset=".643" stop-color="#F4772B" stop-opacity=".643"/>
      <stop offset=".908" stop-color="#EC523D" stop-opacity=".908"/>
      <stop offset="1" stop-color="#E94444"/>
    </linearGradient>
    <linearGradient id="e" x1="-.193" y1="76.823" x2="31.989" y2="79.837" gradientUnits="userSpaceOnUse">
      <stop stop-color="#FEA613" stop-opacity="0"/>
      <stop offset=".174" stop-color="#FDA016" stop-opacity=".174"/>
      <stop offset=".396" stop-color="#F9911E" stop-opacity=".396"/>
      <stop offset=".643" stop-color="#F4772B" stop-opacity=".643"/>
      <stop offset=".908" stop-color="#EC523D" stop-opacity=".908"/>
      <stop offset="1" stop-color="#E94444"/>
    </linearGradient>
    <linearGradient id="f" x1="24.721" y1="75.927" x2="30.012" y2="70.636" gradientUnits="userSpaceOnUse">
      <stop stop-color="#FEA613" stop-opacity="0"/>
      <stop offset=".174" stop-color="#FDA016" stop-opacity=".174"/>
      <stop offset=".396" stop-color="#F9911E" stop-opacity=".396"/>
      <stop offset=".643" stop-color="#F4772B" stop-opacity=".643"/>
      <stop offset=".908" stop-color="#EC523D" stop-opacity=".908"/>
      <stop offset="1" stop-color="#E94444"/>
    </linearGradient>
    <linearGradient id="g" x1="45.6" y1="64.453" x2="60.499" y2="85.228" gradientUnits="userSpaceOnUse">
      <stop stop-color="#D1B5FF"/>
      <stop offset="1" stop-color="#8348E3"/>
    </linearGradient>
    <linearGradient id="h" x1="45.6" y1="64.453" x2="60.499" y2="85.228" gradientUnits="userSpaceOnUse">
      <stop stop-color="#3CB0FF"/>
      <stop offset="1" stop-color="#0073FC"/>
    </linearGradient>
    <linearGradient id="i" x1="45.498" y1="61.5" x2="64.927" y2="87.583" gradientUnits="userSpaceOnUse">
      <stop stop-color="#3CB0FF"/>
      <stop offset="1" stop-color="#0073FC"/>
    </linearGradient>
    <linearGradient id="j" x1="14.461" y1="37.768" x2="23.335" y2="58.117" gradientUnits="userSpaceOnUse">
      <stop stop-color="#3CB0FF"/>
      <stop offset="1" stop-color="#0073FC"/>
    </linearGradient>
    <linearGradient id="k" x1="15.998" y1="36" x2="27.443" y2="57.263" gradientUnits="userSpaceOnUse">
      <stop stop-color="#3CB0FF"/>
      <stop offset="1" stop-color="#0073FC"/>
    </linearGradient>
    <linearGradient id="l" x1="48.473" y1="28.215" x2="71.15" y2="62.797" gradientUnits="userSpaceOnUse">
      <stop stop-color="#FCFAF7"/>
      <stop offset="1" stop-color="#FCEEDD"/>
    </linearGradient>
    <linearGradient id="m" x1="54.487" y1="29.63" x2="83.847" y2="67.422" gradientUnits="userSpaceOnUse">
      <stop stop-color="#F2F0ED" stop-opacity="0"/>
      <stop offset="1" stop-color="#F2E4D3"/>
    </linearGradient>
    <linearGradient id="n" x1="63.746" y1="43.265" x2="76.495" y2="62.296" gradientUnits="userSpaceOnUse">
      <stop stop-color="#E8E3DC"/>
      <stop offset="1" stop-color="#F2E4D3"/>
    </linearGradient>
    <linearGradient id="o" x1="39.858" y1="39.998" x2="39.859" y2="89.97" gradientUnits="userSpaceOnUse">
      <stop stop-color="#FFE03E"/>
      <stop offset="1" stop-color="#FF6B00"/>
    </linearGradient>
    <linearGradient id="p" x1="77.129" y1="4.167" x2="77.13" y2="50.64" gradientUnits="userSpaceOnUse">
      <stop stop-color="#FFE03E"/>
      <stop offset="1" stop-color="#FF6B00"/>
    </linearGradient>
    <linearGradient id="q" x1="51.944" y1="28.083" x2="64.405" y2="50.432" gradientUnits="userSpaceOnUse">
      <stop stop-color="#3CB0EB"/>
      <stop offset="1" stop-color="#0041CA"/>
    </linearGradient>
    <linearGradient id="r" x1="52.847" y1="29.701" x2="63.767" y2="49.286" gradientUnits="userSpaceOnUse">
      <stop stop-color="#3CB0FF"/>
      <stop offset="1" stop-color="#0073FC"/>
    </linearGradient>
    <linearGradient id="s" x1="53.919" y1="31.626" x2="63.007" y2="47.923" gradientUnits="userSpaceOnUse">
      <stop stop-color="#ADF"/>
      <stop offset="1" stop-color="#73B3FF"/>
    </linearGradient>
    <linearGradient id="t" x1="54.338" y1="36.266" x2="65.685" y2="47.613" gradientUnits="userSpaceOnUse">
      <stop stop-color="#A6E7F0"/>
      <stop offset=".171" stop-color="#90E2ED"/>
      <stop offset=".529" stop-color="#56D7E7"/>
      <stop offset="1" stop-color="#02C7DD"/>
    </linearGradient>
    <linearGradient id="u" x1="55.152" y1="40.671" x2="47.897" y2="39.788" gradientUnits="userSpaceOnUse">
      <stop stop-color="#0199B1" stop-opacity="0"/>
      <stop offset="1" stop-color="#0199B1"/>
    </linearGradient>
    <linearGradient id="v" x1="56.799" y1="37.446" x2="62.691" y2="46.43" gradientUnits="userSpaceOnUse">
      <stop stop-color="#FCFAF7"/>
      <stop offset="1" stop-color="#FCEEDD"/>
    </linearGradient>
    <linearGradient id="w" x1="46.93" y1="68.228" x2="57.822" y2="79.606" gradientUnits="userSpaceOnUse">
      <stop stop-color="#FDBF47" stop-opacity="0"/>
      <stop offset=".259" stop-color="#F7A544" stop-opacity=".259"/>
      <stop offset=".621" stop-color="#E5823B" stop-opacity=".621"/>
      <stop offset="1" stop-color="#CA702E"/>
    </linearGradient>
    <linearGradient id="x" x1="87.243" y1="21.909" x2="99.998" y2="27.5" gradientUnits="userSpaceOnUse">
      <stop stop-color="#FDBF47" stop-opacity="0"/>
      <stop offset=".259" stop-color="#F7A544" stop-opacity=".259"/>
      <stop offset=".621" stop-color="#E5823B" stop-opacity=".621"/>
      <stop offset="1" stop-color="#CA702E"/>
    </linearGradient>
    <linearGradient id="y" x1="58.999" y1="87" x2="31.999" y2="80.5" gradientUnits="userSpaceOnUse">
      <stop stop-color="#3D007A" stop-opacity="0"/>
      <stop offset="1" stop-color="#380080"/>
    </linearGradient>
  </defs>
</svg>
